<?xml version="1.0" encoding="utf-8"?>
<!-- Generator: Adobe Illustrator 16.0.0, SVG Export Plug-In . SVG Version: 6.00 Build 0)  -->
<!DOCTYPE svg PUBLIC "-//W3C//DTD SVG 1.1//EN" "http://www.w3.org/Graphics/SVG/1.1/DTD/svg11.dtd">
<svg version="1.1" id="Layer_1" xmlns="http://www.w3.org/2000/svg" xmlns:xlink="http://www.w3.org/1999/xlink" x="0px" y="0px"
	 width="1600px" height="1800px" viewBox="0 0 1600 1800" enable-background="new 0 0 1600 1800" xml:space="preserve">
<g>
	<g>
		<path fill-rule="evenodd" clip-rule="evenodd" fill="#FFF100" d="M547.768,622.41c-8.676-0.011-16.041,4.865-24.415,6.415
			c-17.718,3.281-35.218,7.764-52.761,11.953c-11.468,2.739-22.636,6.683-34.012,9.635c-13.806,3.58-27.402,7.792-41.123,11.609
			c-16.795,4.672-32.959,11.767-50.573,13.314c-4.629,0.407-9.261,0.774-13.682,1.143c-8.769-10.022-13.405-21.779-18.192-33.634
			c-2.183-5.406-0.941-10.892-2.839-16.126c-1.015-2.796-0.506-5.57-4.826-6.36c-2.102-0.383-6.934-3.883-0.488-6.498
			c1.489-0.604,1.683-2.047,1.404-2.763c-4.37-11.218-0.251-22.991-2.637-34.602c-2.24-10.9-6.527-20.879-9.635-31.339
			c-1.417-4.771-3.761-9.267-5.686-13.887c-7.309,2.548-8.009,1.957-7.609-6.752c1.711-0.186,3.473-0.375,4.838-0.522
			c2.114-2.933-0.595-4.72-0.877-6.945c-1.026-8.101,0.319-16.125-0.069-24.166c-0.422-8.672-1.53-17.367-1.882-25.934
			c-0.371-9.066-3.304-18.21-0.736-27.425c0.757-2.717-1.687-5.057-1.746-8.033c-0.17-8.342,2.812-15.774,5.493-23.898
			c-7.06-4.288-14.353-8.72-21.722-13.195c0.806-5.135,0.806-5.135,11.527-8.978c1.456,2.51-1.669,2.922-2.118,4.919
			c4.505,4.132,9.736,7.279,16.201,9.3c2.377-6.786-0.306-12.862-0.356-18.935c-0.164-19.632,1.884-39.046,3.834-58.547
			c1.553-15.51,6.253-30.052,10.588-44.684c1.843-6.216,8.128-10.856,13.473-14.983c9.357-7.226,19.094-13.986,28.921-20.566
			c2.968-1.986,6.576-3.443,10.396-3.338c11.099,0.302,20.804-3.745,30.999-7.783c10.909-4.321,23.114-5.685,34.888-7.431
			c18.557-2.751,36.329-8.488,54.336-13.32c11.474-3.078,23.225-4.902,34.663-7.91c20.294-5.337,41.084-7.637,61.738-10.155
			c12.271-1.496,24.962-0.996,37.461-1.714c16.838-0.965,33.378-3.427,49.981-6.604c53.293-10.197,104.658-27.85,157.514-39.738
			c25.193-5.666,50.43-9.849,76.097-12.279c14.741-1.396,28.527-9.115,43.802-7.693c14.349,1.336,28.187-0.947,41.925-4.803
			c10.211-2.866,20.462-5.577,30.983-7.229c24.441-3.839,49.087-2.062,73.634-2.985c18.514-0.697,36.812,0.195,54.642,6
			c8.226,2.678,16.337,0.805,24.19-2.084c11.707-4.306,23.05-4.245,34.01,2.315c5.515,3.301,11.96,3.74,18.501,5.196
			c-1.441,6.615-6.188,10.336-9.904,14.633c-1.926,2.225-2.374,4.094-1.684,6.974c3.961,16.536,7.885,33.193,8.794,50.16
			c1.556,29.029-6.928,54.55-30.251,73.432c-7.269,5.884-8.023,14.368-10.038,22.027c-5.211,19.821-13.141,38.062-24.449,55.266
			c-9.684,14.733-17.385,30.807-24.396,47.032c-7.362,17.045-19.676,28.458-36.439,35.763c-4.711,2.052-9.611,3.762-13.851,7.019
			c-3.415,2.624-7.842-0.472-12.152,1.554c-11.185,5.256-21.599,11.657-31.69,18.64c-16.145,11.17-31.635,23.199-46.276,36.303
			c-1.188,1.064-2.833,2.389-4.214,2.334c-9.075-0.358-14.819,5.703-20.854,10.798c-19.086,16.109-39.191,30.378-63.283,38.188
			c-11.306,3.665-23,5.35-34.639,7.279c-22.561,3.738-43.872,11.781-64.292,21.315c-11.479,5.361-22.268,12.76-34.569,18.118
			c1.84,1.948,3.218,3.52,4.711,4.969c10.895,10.575,16.784,23.631,16.98,38.608c0.305,23.246,2.438,46.196,6.653,69.07
			c3.021,16.392-0.248,33.001-0.207,49.519c0.031,12.726-1.576,25.275-4.194,38.326c38.778,15.983,67.04,44.391,88.154,80.927
			c2.478-4.036,2.936-7.782,1.249-11.702c-2.874-6.682-5.597-13.439-8.762-19.983c-2.173-4.49-2.459-4.354,1.982-8.751
			c5.281,7.435,8.652,15.756,12.225,24.862c7.225-6.678,13.874-12.499,21.967-16.567c10.3-5.179,20.792-8.94,32.464-8.236
			c4.004,0.241,5.834-2.466,7.927-4.994c12.274-14.829,27.125-26.78,42.569-38.063c0.708-0.517,1.562-0.836,3.229-1.711
			c0.47,5.478-3.371,6.93-6.14,8.736c-14.371,9.377-26.967,20.719-38.055,33.774c-0.732,0.86-1.348,1.814-2.262,3.057
			c10.819,4.23,21.87,7.07,29.703,15.743c9.881-5.404,20.108-10.255,31.475-8.717c15.854,2.145,26.33,16.099,27.304,35.421
			c0.642,12.788-2.269,25.23-4.811,37.648c14.593,1.451,27.955,6.216,34.942,20.151c6.035,12.037,8.227,25.384,7.726,39.001
			c-0.076,2.068-0.01,4.141-0.01,6.946c17.077-0.839,33.698-1.624,50.314-2.478c21.706-1.114,43.41-2.284,65.115-3.427
			c3.636-0.191,7.244-0.135,9.361,3.52c0.937,1.615,1.84,3.49-0.233,5.059c-1.634,1.236-3.801,2.117-5.011,0.16
			c-2.828-4.578-7.028-3.081-10.848-2.91c-18.896,0.846-37.813,1.463-56.668,2.888c-16.152,1.222-32.314,1.878-48.489,2.344
			c-3.446,0.098-5.021,1.159-5.871,4.529c-1.057,4.179-1.893,8.564-6.904,12.786c15.52-0.585,28.146,1.278,39.139,10.698
			c11.729,10.051,12.601,22.881,11.982,36.457c7.593,2.225,9.089,4.864,5.58,9.476c-3.209-2.885-3.209-2.885-5.141-7.069
			c-2.552,0.388-1.695,2.948-2.625,4.342c-0.997,1.494-1.307,3.445-2.123,5.796c9.423,4.261,17.027,10.664,21.871,19.927
			c5.409,10.346,3.288,19.547-6.119,28.821c8.623,0.468,15.769,0.657,22.37,3.782c8.209,3.885,14.357,9.317,18.159,17.865
			c5.637,12.68,10.855,25.479,15.824,38.446c8.127,21.202,9.841,43.022,9.688,65.315c-0.068,10.12,2.078,20.979,0.084,30.187
			c-2.36,10.912-0.652,21.196-1.196,31.709c-0.287,5.556,0.569,11.238,1.487,16.769c0.868,5.232-1.166,8.714-5.963,9.336
			c-5.235,0.679-4.789-3.861-4.997-7.432c-0.767-13.16-1.647-26.313-2.404-39.473c-0.322-5.604-2.35-8.872-8.657-9.729
			c-7.883-1.072-14.929-5.669-23.646-6.902c-0.853,6.212,1.084,12.191,0.329,18.228c-1.921,15.358-6.271,30.268-8.014,45.672
			c-0.522,4.628-5.607,4.536-10.399,5.036c1.044-24.606,10.76-47.982,6.678-72.626c-7.778-1.668-15.765-3.381-24.516-5.258
			c-3.293,11.357-11.029,21.486-8.773,34.501c0.582,3.348-2.182,6.014-3.097,9.122c-1.253,4.264-2.863,8.406-3.196,12.902
			c-0.614,8.285-2.544,9.422-11.829,5.837c5.361-20.727,6.643-42.6,15.777-63.431c-0.38-1.171-2.577-1.434-3.752-1.234
			c-4.062,0.686-5.807-1.698-6.49-4.747c-1.905-8.495-4.689-18.613-1.501-25.543c5.108-11.103,0.579-21.819,3.466-32.931
			c-12.924-2.454-23.318-9.016-32.152-18.39c-5.712-6.061-5.482-15.008,1.961-18.495c4.723-2.214,6.279-4.895,6.554-9.381
			c0.181-2.972,3.937-4.229,3.507-7.865c-4.695-2.091-11.6-3.002-14.13-6.816c-3.473-5.231-7.149-10.774-9.497-16.987
			c-3.537-9.357-6.089-18.722-5.317-28.665c-19.65-5.634-24.37-11.665-20.06-39.907c0.899-5.891,2.759-11.633,4.263-17.809
			c-10.615-3.381-20.86-7.031-28.99-15.049c-4.49-4.429-8.188-9.317-10.068-15.115c-1.306-4.034-3.008-4.824-6.949-4.737
			c-28.449,0.617-56.479,5.329-84.691,8.257c-3.241,0.337-4.409,1.777-4.898,4.756c-0.536,3.25-1.549,6.42-2.526,10.307
			c2.876-0.604,5.833-1.788,7.978,1.213c2.167,3.03-1.124,6.252-1.742,6.684c-4.593,3.212-0.357,10.389-6.284,12.787
			c-3.014-1.37-1.546-4.926-2.874-6.699c-34.147,75.479-84.812,134.727-163.944,166.962c2.392,11.175,7.259,22.1,13.248,32.49
			c18.559,32.198,27.66,67.461,34.28,103.603c7.198,39.29,13.165,78.767,16.619,118.552c1.859,21.409,2.188,42.952,3.203,64.435
			c0.143,3.025-0.237,6.115,1.205,9.346c25.446,1.057,50.875,3.036,76.285,5.253c35.564,3.103,70.965,7.618,106.368,12.117
			c24.601,3.127,49.204,6.21,73.496,11.323c10.628,2.238,20.921,5.436,31.142,9.231c8.301,3.084,17.366,4.115,26.112,5.971
			c0.801,0.171,1.93-0.004,2.57-0.475c4.33-3.184,4.746-3.327,6.983,1.301c0.744,1.537,1.352,1.948,2.758,2.354
			c10.246,2.961,20.462,6.027,31.013,9.157c-3.91-10.436-10.877-18.366-16.708-26.898c-3.119-4.563-2.247-8.136-1.068-12.362
			c3.235-0.307,1.446,3.401,3.182,4.031c3.962-0.991,0.355-4.859,2.483-6.25c7.121,11.826,14.247,23.664,21.386,35.496
			c0.229,0.375,0.522,0.808,0.895,0.986c1.506,0.725,4.276-1.34,4.321,2.649c0.049,4.369-4.506,1.451-5.625,4.48
			c3.91,2.381,8.267,3.455,12.565,4.7c29.068,8.424,58.195,16.658,87.175,25.384c19.377,5.834,38.846,11.161,58.562,15.797
			c17.248,4.055,34.302,4.766,51.291,0.496c7.152-1.797,14.936-0.609,21.609-4.836c1.484-0.94,3.713,0.57,5.584,3.106
			c-12.927,2.135-25.115,4.152-37.307,6.162c-3.446,0.568-6.979,0.811-10.33,1.727c-12.719,3.476-24.579-1.717-36.652-3.77
			c-12.177-2.072-24.17-5.419-36.089-8.757c-17.567-4.923-34.87-10.819-52.519-15.4c-18.203-4.726-35.699-12.117-54.623-14.756
			c5.906,11.85,2.865,32.786-5.753,35.662c2.296-5.427,2.104-10.854,3.495-16.753c-4.498,1.149-6.611,1.85-7.293-4.68
			c-0.596-5.707-2.225-12.673-6.452-18.139c-2.715-3.508-6.615-4.21-9.812-4.877c-14.011-2.922-26.894-9.727-41.131-11.65
			c-16.431-2.219-31.423-9.561-47.246-13.379c-13.184-3.18-26.594-6.541-40.306-7.936c-15.416-1.568-30.795-3.549-46.083-6.305
			c-9.881-1.78-20.04-1.954-30.038-3.148c-10.442-1.247-20.808-3.522-31.273-4.068c-6.922-0.36-13.617-2.165-20.688-1.866
			c-7.026,0.296-14.139-1.402-21.209-2.25c-1.146-0.139-2.303-0.672-3.412-0.568c-13.119,1.23-25.899-1.944-38.795-3.225
			c-14.462-1.438-28.781,0.523-43.168,0.25c-24.188-0.458-48.378-0.632-72.564-1.049c-3.703-0.063-6.963,0.139-8.443,4.389
			c-8.31-6.127-17.18-2.293-25.361-1.34c-6.753,0.786-13.426,0.547-20.104,1.102c-15.382,1.273-30.72,3.101-46.113,4.159
			c-28.856,1.981-57.704,4.432-86.667,4.039c-11.11-0.151-22.212-0.942-33.322-1.214c-1.621-0.04-2.913-0.535-3.63-1.505
			c-10.74-14.525-27.199-16.375-43.045-19.562c-18.912-3.805-37.785-7.685-56.966-10.168c-13.515-1.749-27.064-2.787-40.568-4.282
			c-32.964-3.653-65.891-0.652-98.821-1.204c-2.171-0.037-4.618,0.906-7.081-1.485c5.195-2.928,10.828-2.032,15.724-2.165
			c25.367-0.688,50.782-1.201,76.137-0.389c22.219,0.713,44.412,2.73,66.422,6.464c24.029,4.076,48.106,8.076,71.468,14.964
			c6.957,2.05,15.215,4.576,19.177,12.319c1.154,2.258,3.007,2.805,5.13,2.956c10.595,0.759,21.18,1.927,32.023,1.249
			c-0.28-3.685-2.696-6.872-1.023-10.96c6.288-0.235,12.464,1.444,20.125,3.726c-5.817,0-10.116,0-14.651,0
			c-0.058,6.521,3.357,7.679,8.851,7.555c39.07-0.881,77.962-4.224,116.837-7.924c13.622-1.297,27.284-2.163,40.924-3.227
			c1.993-4.227-0.399-10.277,5.807-12.736c2.016,4.385-2.186,8.042-0.073,12.513c28.791-1.462,58.013-1.845,87.235-1.628
			c0.581-61.906-6.485-122.562-18.569-182.745c-5.396-26.872-10.804-53.69-20.874-79.298c-1.896-4.817-4.051-9.562-6.473-14.137
			c-8.607-16.259-17.479-32.389-22.344-51.615c-58.567,22.184-119.445,27.551-181.521,29.592
			c16.428,18.228,17.568,41.257,21.988,62.874c5.637,27.568,9.366,55.591,8.748,83.788c-0.653,29.776-3.354,59.503-4.211,89.279
			c-0.624,21.694-1.542,43.49,1.85,65.114c0.1,0.644-0.18,1.346-0.332,2.352c-4.497,0.904-6.783-1.089-6.796-5.35
			c-0.095-30.219-1.337-60.512,0.379-90.634c1.107-19.44,3.004-38.892,3.407-58.385c0.397-19.224-1.404-38.475-4.748-57.295
			c-2.036-11.467-4.381-23.119-6.778-34.564c-2.756-13.155-4.651-26.471-10.607-38.506c-4.849-9.801-12.171-19.169-23.993-19.426
			c-34.559-0.752-66.49-12.934-99.339-21.147c-12.452-3.113-24.173-8.084-34.726-15.433c-13.118-9.136-22.084-21.786-29.324-35.8
			c-0.615-1.189-0.45-2.204,0.579-3.513c5.171,2.595,6.841,8.152,9.89,12.352c12.997,17.899,30.438,29.154,51.343,35.37
			c23.489,6.982,47.048,13.764,71.062,18.728c24.695,5.107,49.728,4.537,74.718,3.486c34.5-1.454,68.765-5.623,102.599-12.233
			c18.199-3.557,35.829-10.027,54.117-15.299c-3.992-20.322-9.874-39.185-24.053-54.352c3.661-4.697,5.452-4.76,9.185-0.105
			c12.12,15.114,16.332,33.205,20.77,51.238c56.689-9.683,153.616-104.001,167.826-187.571c-6.741,1.587-12.685-2.404-19.917-1.405
			c5.483-11.042,13.76-4.425,20.622-4.812c4.639-13.262,5.469-37.134,2.187-64.773c-3.578,2.235-2.354,7.284-6.062,9.413
			c-3.743-7.037-5.578-13.809-1.785-21.744c3.033-6.344,1.223-12.588-1.163-19.503c-7.91-22.926-21.741-41.569-38.01-58.96
			c-20.278-21.679-45.266-35.305-73.212-44.091c-49.819-15.662-100.27-20.895-151.684-8.732
			c-21.415,5.065-42.186,12.122-62.451,20.706c-29.696,12.579-58.072,27.435-83.217,47.897c-4.764,3.877-9.291,8.046-14.09,11.875
			c-2.532,2.021-3.855,4.271-2.71,8.021c-2.821-2.761-4.263-1.276-5.989,0.561c-35.057,37.307-64.342,77.865-74.945,129.429
			c-1.132,5.501,5.382,8.801,1.893,14.057c-1.279,2.108-2.388-1.275-4.384-0.041c-4.411,27.446-5.489,55.396-2.869,83.508
			c1.898,20.377,6.007,40.12,15.847,58.356c6.483,12.018,15.016,21.182,29.538,22.617c3.335,0.328,5.636,1.924,4.734,5.502
			c-0.899,3.572-3.709,1.678-5.864,1.366c-13.544-1.953-22.527-10.271-29.206-21.434c-10.846-18.131-16.271-38.049-18.664-58.895
			c-3.553-30.952-2.953-61.794,2.454-92.512c0.537-3.052,0.442-3.067-3.667-7.504c-5.024,16.872-13.231,30.95-29.106,39.229
			c3.824,9.074,7.097,17.903,13.566,24.82c-1.79,2.363-5.344-0.346-5.401,3.832c-0.235,16.877-9.438,30.093-18.774,43.634
			c6.365,6.703,12.071,13.597,13.742,23.241c2.834,16.378-1.88,30.88-9.974,44.574c-3.021,5.114-7.166,9.598-11.052,14.152
			c-1.772,2.076-2.644,4.127-1.086,6.349c8.629,12.302,9.062,25.418,4.141,39.104c-1.257,3.494,0.286,6.645,1.674,9.374
			c9.389,18.467,18.641,37.011,29.924,54.461c2.674,4.135,9.867,5.793,7.538,12.852c-4.882,2.245-9.555,4.926-15.323,4.112
			c-3.527-0.498-4.951,2.088-3.982,4.912c2.645,7.718,0.281,15.771,2.299,23.65c1.433,5.587-3.345,8.028-8.741,8.461
			c-3.03-12.56,0.501-25.302-2.48-37.992c-11.703-2.591-23.572-4.995-36.598-4.975c0,14.746-0.228,29.312,0.213,43.859
			c0.078,2.591,0.207,4.741-1.88,5.803c-1.476,0.751-3.039,2.748-5.487,0.931c-2.595-1.926-1.338-4.172-1.426-6.374
			c-0.221-5.56,0.831-11.177-1.34-16.655c-0.622-1.566-0.387-3.873,0.296-5.487c2.746-6.501-0.357-12.857-0.289-19.277
			c0.036-3.379-3.615-4.366-6.699-4.049c-4.853,0.496-9.666,1.381-14.633,2.121c-1.069,8.94,4.538,15.773,6.431,23.583
			c2.217,9.149,1.372,18.4,2.899,27.533c0.926,5.532-4.55,8.369-10.638,6.707c3.684-10.623,1.687-20.928-1.422-31.365
			c-3.078,0.289-5.711,1.699-7.807,1.084c-6.829-5.265-2.271-18.233-15.163-18.806c5.909-15.897-4.026-27.171-11.402-39.782
			c3.964-5.387,10.499-5.353,16.453-6.421c6.793-1.221,7.43-2.442,3.741-8.195c-1.952-3.042-4.188-6.044-5.38-9.393
			c-1.009-2.832-4.003-6.104-1.304-9.065c2.655-2.913,5.942-0.459,8.819,0.521c2.357-9.863,5.695-19.324,10.283-28.673
			c-13.153-3.924-28.336-5.857-36.472-17.436c-8.655-12.318-7.579-16.889-3.881-25.85c3.65,0.313,4.193,3.011,4.776,5.909
			c2.059,10.231,7.954,17.037,17.999,20.369c2.007,0.666,3.059,0.495,4.027-0.79c-3.65-22.579-1.226-44.351,6.689-66.056
			c-9.949-2.906-22.229-0.428-28.437-11.357c-5.29-9.31-5.402-19.118-0.977-28.847c4.226,0.569,3.649,3.52,3.549,6.024
			c-0.199,5.011,0.819,9.868,3.097,14.157c3.206,6.042,8.41,9.004,15.568,7.513c-4.2-14.241-1.554-28.635-2.032-42.87
			c-0.492-14.62,2.255-29.034,5.133-43.217c1.043-5.14-0.65-7.81-3.485-9.531c-13.262-8.047-14.259-21.104-15.788-34.525
			c5.081-0.718,4.981,2.698,6.164,5.368c3.561,8.04,5.854,16.787,14.704,21.589c4.264,2.312,4.887,0.458,6.697-2.464
			c4.824-7.786,3.461-16.545,3.898-24.82c1.055-20.034,9.912-36.952,20.225-53.179c8.136-12.802,18.971-23.717,32.896-29.896
			c9.028-4.005,12.709-8.54,9.607-18.013c-0.478-1.461-0.066-3.211-0.066-4.896c3.312-1.104,6.283-0.638,9.763-0.351
			c0,5.197,0,10.319,0,16.167c14.547-1.359,22.178,6.976,27.037,18.687c8.554,20.61,11.243,41.879,6.67,63.935
			c-0.521,2.51-0.45,5.653,2.809,7.492c22.753-94.078,83.969-155.249,168.381-197.236c-8.764-17.396-8.964-36.677-9.924-55.935
			c-0.764-15.334,0.281-30.634,0.339-45.931c0.053-13.864,3.694-27.55,8.565-40.836c4.286-11.694,9.481-22.872,15.235-33.852
			c0.241-0.244,0.484-0.488,0.728-0.731c-0.198-0.027-0.396-0.053-0.595-0.079C547.735,621.795,547.752,622.102,547.768,622.41z
			 M389.129,439.934c0.939,0.401,1.88,0.801,2.818,1.202c2.048,0.794,4.095,1.59,6.142,2.384c0.771,1.545,2.412,1.446,3.725,1.967
			c1.933,0.916,3.866,1.831,5.801,2.743c0.716,0.217,1.431,0.433,2.146,0.648c0.683,1.58,2.359,1.542,3.603,2.209
			c0.932,0.536,1.861,1.072,2.792,1.607c0.949,0.401,1.898,0.804,2.847,1.204c8.714,4.72,17.408,9.47,26.142,14.151
			c18.219,9.766,37.287,17.192,57.85,20.153c23.357,3.366,46.73,6.554,69.81,11.646c5.704,1.258,11.615,2.839,19.775,1.44
			c-7.023-3.655-12.3-6.395-17.57-9.145c-12.521-6.531-26.461-10.639-37.047-20.492c-13.753-12.804-28.297-24.181-45.13-32.964
			c-22.442-11.709-46.626-20.608-65.39-38.957c-4.221,3.872-6.866,9.383-13.984,9.268c2.235-5.994,7.844-7.592,10.075-12.083
			c-2.377-4.117-8.393-7.794-1.938-13.294c2.496,1.949,3.144,5.277,6.398,5.935c2.85-1.516,3.564-4.518,4.198-7.062
			c3.75-15.049,10.184-29.027,19.059-41.473c21.995-30.84,50.172-54.78,84.043-71.933c2.918-1.479,5.792-3.299,8.189-5.502
			c5.136-4.718,10.438-8.63,17.844-8.821c4.16-0.106,8.082-0.914,7.136-6.903c-0.27-1.701,1.457-2.78,4.035-2.244
			c5.344,17.522,10.763,35.263,16.162,53.009c4.188,13.762,9.03,27.371,11.386,41.604c5.133,31.016,8.607,62.218,10.357,93.625
			c0.713,12.776,3.198,25.341,6.406,37.766c1.722-0.504,1.571-1.544,1.855-2.385c6.62-19.622,14.813-38.66,29.737-53.341
			c18.223-17.926,39.469-32.232,60.22-47.115c20.704-14.848,44.711-23.24,66.634-35.665c24.432-13.844,49.863-25.921,73.181-41.719
			c14.643-9.922,27.73-22.128,43.511-30.356c40.571-21.153,81.076-42.225,124.152-58.341
			c38.224-14.299,75.899-28.577,117.688-27.046c9.067,0.333,19.32-1.626,26.501-7.089c9.324-7.095,18.17-14.94,27.49-22.184
			c8.375-6.507,7.977-8.805,0.035-16.579c2.691-2.877,5.646-4.891,9.858-3.739c1.131,1.859,0.468,4.823,3.714,5.706
			c1.092-1.644,2.643-3.043,2.795-5.145c-1.265-2.017-3.135-2.229-5.038-2.37c-11.812-7.269-23.675-10.407-37.491-4.362
			c-8.659,3.788-18.394,3.398-27.847,0.667c-7.678-2.218-15.382-4.41-23.451-5.157c-17.021-1.575-34.04-0.33-51.038-0.065
			c-23.782,0.367-47.574,0.681-70.777,7.775c-14.165,4.33-28.663,8.061-43.797,7.698c-7.321-0.175-15.054-1.315-21.908,0.538
			c-19.467,5.267-39.267,7.332-59.164,9.989c-43.795,5.848-86.161,18.684-128.651,30.468
			c-45.569,12.64-91.193,24.432-138.853,25.837c-17.694,0.522-35.418,1.636-52.884,4.767c-31.565,5.659-63.104,11.512-93.758,21.219
			c-16.722,5.296-34.419,5.997-51.222,10.807c-13.141,3.76-25.63,9.713-39.236,11.926c-4.885,0.795-9.816,1.068-14.102,4.058
			c-6.971,4.86-14.069,9.538-21.099,14.313c-8.916,6.061-15.059,14.217-17.812,24.652c-6.659,25.234-8.808,51.063-10.271,77.024
			c-0.674,11.973,4.174,24.259-2.552,35.863c2.577,1.415,4.609,2.599,6.702,3.667c23.842,12.176,49.189,20.452,74.524,28.763
			c2.909,0.956,5.747,2.204,8.719,2.875c2.266,0.51,2.319-1.096,1.682-2.763c0.906,0.02,1.993-0.28,2.692,0.111
			c3.195,1.791,6.964,2.624,9.484,5.558c-1.283-0.215-2.567-0.431-3.853-0.646c-0.592-1.226-1.775-1.248-2.888-1.414
			c-1.179-0.835-2.257-2.564-3.787-0.529C386.876,439.33,388.027,439.6,389.129,439.934z M1166.607,277.111
			c-25.003,12.716-50.244,24.991-74.133,39.782c-27.228,16.861-53.205,35.7-81.195,51.349
			c-13.798,7.715-27.695,15.257-41.628,22.727c-22.882,12.267-47.519,20.887-70.146,33.71c-4.378,2.481-8.766,4.837-14.082,5.512
			c-4.462,0.566-9.567,1.664-9.884,8.143c-0.11,2.326-2.462,4.232-4.2,4.349c-4.949,0.331-6.473,4.143-8.694,7.279
			c-4.521,6.378-9.738,12.112-15.081,17.817c-17.775,18.979-35.458,38.097-50.206,59.597
			c-10.693,15.589-20.867,31.518-35.748,43.636c-2.925,2.381-5.922,4.673-8.436,6.651c2.508,5.083,4.384,5.376,8.109,3.855
			c11.651-4.756,21.65-12.456,32.776-17.876c12.867-6.269,26.758-10.536,40.396-15.103c15.725-5.269,32.202-7.3,48.423-10.504
			c26.133-5.16,48.115-18.735,68.204-35.786c7.342-6.232,14.087-13.609,23.685-16.446c6.09-1.799,11.19-4.935,15.887-8.956
			c10.431-8.93,21.224-17.411,32.554-25.146c16.896-11.534,33.581-22.878,54.235-27.994c17.504-4.336,32.098-14.49,39.376-32.755
			c3.912-9.817,8.992-19.227,14.162-28.475c14.933-26.716,31.209-52.796,37.136-83.503c0.573-0.979,1.15-2.009,0.057-2.928
			C1168.042,275.937,1167.149,276.733,1166.607,277.111z M1182.047,260.293c14.488-11.556,19.129-27.974,22.4-45.121
			c4.504-23.606-4.188-45.715-7.075-69.561c-12.714,10.651-25.824,19.123-35.418,31.599c-2.311,3.006-4.578,6.246-8.896,5.572
			c-9.616-1.501-19.096,0.786-28.642,0.681c-19.495-0.214-38.909,1.174-57.291,7.79c-48.325,17.394-97.001,33.976-141.957,59.537
			c-17.809,10.124-37.186,17.44-53.546,30.188c-14.351,11.184-28.861,22.085-45.079,30.608
			c-27.369,14.384-53.971,30.332-81.859,43.597c-33.73,16.042-63.118,37.997-90.466,62.706
			c-19.164,17.314-27.061,41.631-33.773,65.829c-1.794,6.466-0.666,13.773,2.338,20.1c2.444,5.146,1.987,11.798-2.803,13.008
			c-4.336,1.095-3.535,3.316-3.646,5.895c-0.111,2.597-0.261,5.205-0.138,7.795c0.457,9.565-1.933,19.12-0.634,29.518
			c8.852-1.347,17.148-2.019,26.131-5.108c-0.947,2.661-1.516,4.259-2.322,6.519c3.354-0.446,6.122-1.009,8.913-1.152
			c13.644-0.707,27.396-2.971,40.864,0.754c6.682,1.848,13.233,3.133,20.179,2.784c11.241-0.563,21.876,1.066,32.274,6.297
			c4.751,2.39,10.937,2.545,16.559-2.319c15.26-13.204,25.557-30.227,37.43-46.053c16.747-22.327,35.077-43.258,54.432-63.375
			c6.169-6.413,13.294-12.801,13.355-23.312c0.023-3.987,2.684-8.212,7.719-7.182c2.998,0.613,4.783-0.506,7.15-1.46
			c15.068-6.071,29.655-13.242,44.572-19.614c36.123-15.431,71.064-33.341,104.295-53.975
			c42.701-26.516,84.337-54.757,129.886-76.322c10.222-4.84,16.96-11.157,18.295-22.56c0.136-1.164,0.574-2.317,0.559-3.472
			c-0.037-2.691,0.978-4.114,3.819-3.531c2.58,0.53,3.528,2.439,3.096,4.764c-0.474,2.533-1.439,4.975-2.188,7.456
			c-0.262,0.679-0.525,1.432,0.356,1.78C1181.182,261.049,1181.671,260.529,1182.047,260.293z M530.745,691.098
			c-0.548,8.082,0.039,16.125-0.66,23.985c-1.523,17.096-0.406,33.985,1.354,50.938c0.893,8.611,3.943,16.45,7.443,24.223
			c1.959,4.352,4.069,5.801,9.162,3.507c9.67-4.356,19.752-7.83,29.76-11.397c55.539-19.802,111.798-22.202,168.751-6.726
			c10.812,2.938,21.602,5.962,32.37,8.938c5.8-20.001,4.332-40.227,5.274-60.189c0.279-5.898,1.411-11.82,0.109-18.018
			c-4.666-22.215-7.203-44.688-7.327-67.477c-0.062-11.356-1.896-22.699-10.165-32.079c2.449,10.711-3.152,17.276-11.174,21.921
			c-8.362,4.844-17.411,3.797-25.882,0.02c-3.52-1.569-6.528-2.679-10.017-0.289c-3.862-8.921-1.929-19.53-10.72-26.561
			c-7.484,8.469-12.117,17.896-14.938,28.196c-0.937,3.418-1.86,6.075-6.817,6.903c0-4.939,0.146-9.347-0.042-13.741
			c-0.177-4.122,1.174-9.661-3.634-11.319c-5.163-1.781-8.602,2.837-11.527,6.529c-2.49,3.139-4.364,6.674-5.295,10.717
			c-1.401,6.092-1.304,12.25-1.033,18.38c0.153,3.486-0.578,5.863-4.837,7.298c-3.147-9.795-8.704-18.231-13.954-26.824
			c-2.067-3.385-4.057-6.977-9.452-4.456c-12.301,5.747-22.434,26.488-18.691,39.412c1.187,4.1-0.053,6.703-4.299,9.21
			c-1.796-7.096-3.473-13.72-5.41-21.374c-3.227,4.091-2.43,9.965-8.105,10.807c-4.818-5.229-7.101-11.846-10.622-18.163
			c-0.368,10.424-11.012,16.31-10.976,26.968c0.009,2.697-2.937,5.197-5.338,7.265c-7.685,6.61-16.581,9.788-26.646,9.946
			c-1.892,0.03-5.324-0.199-5.441,0.301C540.151,695.715,534.77,690.758,530.745,691.098z M607.512,513.289
			c-3.835-1.034-7.396-2.506-11.072-2.901c-23.532-2.53-46.444-8.768-69.857-11.768c-34.821-4.463-67.977-13.249-98.301-31.744
			c-16.899-10.308-34.934-18.568-53.734-25.039c-19.178-6.6-38.656-12.368-57.365-20.279c-8.85-3.741-17.581-7.765-26.335-11.646
			c-2.423,7.149-3.373,14.11-3.044,21.258c0.75,16.271,2.292,32.561,1.999,48.814c-0.471,26.236,5.021,50.914,15.669,74.73
			c3.81,8.521,8.969,15.176,17.881,18.655c15.238,5.946,30.764,10.626,47.185,11.88c9.422,0.72,18.848,1.481,28.24,2.504
			c22.757,2.479,45.184,2.322,67.117-5.694c28.834-10.539,58.828-15.088,89.401-16.83c17.866-1.018,35.711-2.793,53.598-5.835
			c1.491-14.045,1.329-27.888,1.405-41.925c-1.383,0.269-2.41,0.47-3.962,0.773C606.753,516.487,607.096,515.043,607.512,513.289z
			 M569.61,259.327c-9.658,3.147-19.572,2.838-26.204,11.097c-1.545,1.921-4.091,3.387-6.471,4.23
			c-14.532,5.157-26.028,15.07-38.067,24.086c-18.463,13.825-34.315,30.043-46.975,49.569c-6.079,9.375-7.898,19-3.976,28.522
			c2.419,5.871,0.508,7.29-3.11,9.572c-3.74-1.303-2.344-5.458-4.992-7.794c-2.284,5.6-7.03,9.306-7.942,15.306
			c12.642,11.055,26.612,19.722,41.551,26.868c21.053,10.072,42.771,19.18,59.398,36.297c12.692,13.064,28.574,20.652,44.842,27.576
			c9.837,4.188,19.33,8.607,27.317,15.893c1.721,1.57,3.364,4.067,6.558,3.244c1.114-6.37,1.746-12.533,0.254-18.972
			c-2.339-10.093-4.667-20.268-5.814-30.541c-2.776-24.866-5.16-49.784-7.171-74.725
			C595.474,338.223,581.816,299.493,569.61,259.327z M312.12,577.506c-1.291,22.248,3.24,43.106,8.968,63.826
			c2.106,7.622,5.718,14.388,9.922,21.017c3.326,5.246,7.717,7.213,13.656,6.663c10.39-0.963,20.48-3.396,30.378-6.516
			c37.062-11.682,74.494-22.062,112.132-31.671c18.921-4.833,38.323-7.714,56.769-14.498c6.199-2.28,11.746-4.976,14.637-11.312
			c1.652-3.622,4.394-6.317,7.943-7.757c16.228-6.584,26.737-21.205,42.09-29.356c-3.24-0.675-6.164-0.619-9.048-0.253
			c-18.306,2.325-36.665,3.922-55.085,5.15c-23.829,1.59-47.328,5.563-70.186,12.718c-12.615,3.95-25.041,9.105-38.294,9.996
			c-28.202,1.895-56.2-1.404-84.058-5.366C338.18,588.19,325.235,582.868,312.12,577.506z M660.854,639.224
			c1.196-12.511,5.858-21.514,13.996-28.735c3.777-3.352,8.359-5.2,13.098-3.604c4.969,1.673,4.282,6.746,4.644,10.941
			c0.044,0.514-0.273,1.584,1.289,1.275c3.282-5.14,5.432-11.205,9.598-16.081c6.688-7.828,9.12-7.805,15.501,0.431
			c0.204,0.267,0.854,0.186,1.394,0.284c1.7-5.579,5.172-9.95,9.342-13.915c4.065-3.866,8.731-6.595,15.218-7.679
			c-6.289-5.287-12.151-9.129-18.867-10.414c-16.842-3.229-34.062-3.429-51.081-6.071c-15.328-2.381-31.537,0.702-47.34,1.662
			c-11.019,0.671-12.911,3.12-11.076,13.883c0.524,3.078-1.857,4.083-3.035,5.92c-0.834,1.305-2.368,1.408-3.771,0.517
			c-2.167-1.375-1.111-3.164-0.843-5.026c0.323-2.248,0.076-4.578,0.076-7.453c-1.649,0.717-2.763,1.05-3.718,1.64
			c-14.702,9.088-27.159,21.116-40.345,32.065c-12.233,10.158-17.762,25.594-25.282,41.506c8.403-3.434,13.97-10.067,22.188-9.046
			c8.832,1.098,12.843,8.558,17.881,14.674c7.351-6.2,4.89-16.873,11.887-23.476c5.348,6.762,5.123,15.549,11.183,20.828
			c4.191-4.66,0.272-13.124,7.739-17.251c1.397,5.028,2.561,9.211,3.74,13.451c2.257-0.896,1.678-2.609,2.081-3.79
			c3.772-11.058,9.343-20.697,20.193-26.271c7.276-3.737,10.438-2.843,14.676,4.018
			C654.159,628.268,657.069,633.047,660.854,639.224z M945.472,894.987c-18.414,10.121-36.632,11.223-55.272,6.036
			c-2.06,2.831-2.957,5.486-2.219,8.838c4.841,21.923,5.113,44.016,2.383,66.242c-0.379,3.09-2.711,6.176-0.5,9.825
			c14.95-1.796,29.942-3.441,44.891-5.438c14.909-1.991,29.898-2.923,45.516-3.346c-0.55-10.591,0.097-20.385,4.912-29.38
			c0.978-1.825,0.28-3.176-1.479-4.004c-6.036-2.84-10.958-7.345-15.56-11.873C957.941,921.85,944.74,913.492,945.472,894.987z
			 M263.166,1005.307c5.322-6.183,10.901-3.951,15.961-1.714c14.404,6.371,28.091,14.184,39.571,25.031
			c5.801,5.479,10.377,5.149,16.388,0.969c10.168-7.074,15.88-16.804,19.294-28.447c1.22-4.158,0.472-6.707-2.195-10.002
			c-11.445-14.146-21.075-29.378-25.202-47.436c-2.165-9.475-4.064-19.011-6.093-28.56
			C282.757,927.324,257.745,978.01,263.166,1005.307z M1159.999,1149.21c-2.985,2.663-5.039,5.068-7.594,6.681
			c-16.102,10.149-32.601,19.546-51.385,23.896c-3.221,0.745-4.366,2.298-3.969,5.303c1.4,10.547,0.667,20.896-2.128,31.194
			c-0.899,3.315-0.838,6.97-0.751,10.458c0.163,6.462,3.667,9.075,10.188,7.984c1.639-0.273,4.006-0.881,4.682,0.511
			c2.782,5.729,8.336,4.354,12.838,5.384c11.684,2.672,23.341,5.287,34.655,9.417c6.511,2.375,13.12,4.919,20.983,5.591
			C1178.127,1218.886,1179.479,1182.636,1159.999,1149.21z M251.436,1037.097c-5.993,30.233-11.289,60.627,0.062,93.21
			c8.177-13.091,12.765-26.802,26.431-31.51c13.989-4.817,25.87,2.529,37.412,9.628c3.902-2.979,5.515-7.296,7.942-10.993
			c8.827-13.456,13.429-27.696,5.334-42.995c-2.83-5.351-4.805-12.571-14.57-10.547c-8.604,1.782-17.759,0.391-26.422-1.371
			c-6.358-1.295-11.35-1.939-13.019,5.988c-0.051,0.24-0.8,0.335-2.095,0.835C268.177,1041.742,262.044,1036.141,251.436,1037.097z
			 M313.834,1119.702c-15.69,15.299-33.963,22.714-55.742,19.966c-2.734-0.346-3.89,1.056-4.596,3.243
			c-6.098,18.884-8.154,38.089-4.854,57.79c0.927,5.528,2.89,10.41,8.708,11.539c5.124,0.993,5.992-4.4,8.147-7.459
			c10.771-15.281,25.398-19.496,40.626-12.666C329.85,1173.289,337.457,1137.836,313.834,1119.702z M990.132,936.495
			c6.89-10.305,14.323-19.006,25.785-23.091c1.998-0.713,3.287-1.681,3.586-3.824c1.798-12.865,5.324-25.349,3.204-38.814
			c-4.26-27.08-28.699-32.047-44.948-21.19c-1.768,1.181-3.756,1.848-3.805,4.518c-0.252,14.192-9.167,24.952-16.461,35.536
			c-4.48,6.502-3.471,10.199-0.416,15.104C965.311,917.955,977.502,927.135,990.132,936.495z M1061.365,1149.159
			c-0.014,5.414,2.655,8.76,5.698,10.841c7.71,5.275,13.58,16.355,25.876,9.323c1.37-0.784,3.688-0.441,4.606,0.916
			c2.203,3.255,4.745,2.009,7.459,1.234c14.541-4.14,27.633-11.413,40.558-18.964c3.717-2.172,5.782-6.146,7.617-10.002
			c1.799-3.78-1.318-5.454-3.339-7.667c-0.413-0.455-0.26-1.92,0.167-2.57c3-4.572-0.161-7.286-2.911-10.126
			c-8.606-8.893-26.632-12.774-38.526-4.527c-6.172,4.28-13.037,8.188-20.751,9.356c-12.988,1.968-16.952,7.559-14.239,20.786
			c0.907,4.415-1.78,6.937-6.027,5.366C1065.673,1152.43,1064.087,1150.943,1061.365,1149.159z M1024.979,1034.913
			c-0.175,3.674-0.307,6.955-0.428,10.163c-0.362,9.673,4.147,15.503,13.721,18.428c9.206,2.813,18,5.516,26.547-3.194
			c4.333-4.413,11.333-6,18.16-6.595c6.221-0.543,12.052,1.304,18.655,1.594c1.676-10.596,4.237-21.081-2.005-30.937
			c-5.085-8.027-12.604-13.298-21.318-16.824c-7.789-3.152-16.402-3.272-23.382,0.168c-6.803,3.351-13.248,7.757-20.209,11.121
			c-2.361,1.141-3.758,3.457-2.716,6.476C1034.219,1031.728,1032.294,1035.362,1024.979,1034.913z M990.513,977.517
			c23.424-1.744,46.697,0.344,70.327-1.806c1.514-8.533-0.087-16.581-1.584-24.615c-2.609-14.018-9.522-24.844-23.25-30.268
			c-10.32-4.077-12.762-2.992-17.106,6.862c-1.234,2.797-2.043,5.883-3.751,8.349c-5.6,8.086-10.925,16.998-23.068,12.942
			c-2.578,3.048,1.521,5.892-0.904,8.88C986.504,963.617,987.608,970.11,990.513,977.517z M1054.79,1104.066
			c6.883,9.722,15.135,17.301,26.899,13.888c9.392-2.725,18.79-6.062,27.976-9.653c11.598-4.534,15.51-16.499,9.479-27.365
			c-3.91-7.046-10.165-11.34-17.44-15.107c-10.309,12.967-24.504,13.757-39.152,12.578c-2.981-0.24-6.253-2.536-7.534,1.89
			c-1.265,4.371-3.512,9.947,0.456,13.129C1060.974,1097.837,1059.026,1100.517,1054.79,1104.066z M236.964,1286.134
			c3.204,5.428,3.385,12.954,8.509,16.207c6.862,4.356,14.768,7.523,23.742,3.853c5.654-2.313,12.059-1.82,18.186-1.394
			c12.352,0.86,24.694,1.827,37.284,2.769c-4.655-12.099-3.783-14.268,5.478-13.817c-6.634-12.561-13.187-24.966-19.909-37.692
			c-0.788,0.689-1.676,1.151-2.099,1.881c-9.011,15.565-21.43,25.752-40.357,25.755c-1.31,0-2.309,0.577-2.924,1.66
			c-4.198,7.389-8.385,2.843-11.217-0.724c-2.383-2.999-4.413-2.877-7.211-1.92C243.602,1283.685,240.788,1284.748,236.964,1286.134
			z M304.004,1205.012c-3.115-0.013-4.67,1.653-6.412,2.753c-9.876,6.237-19.581,12.815-31.877,13.186
			c-1.521,0.046-2.898,0.715-3.565,1.982c-6.628,12.582-12.623,25.39-9.491,40.216c1.156,5.476,7.284,8.64,11.773,5.776
			c13.843-8.827,27.573-18.001,38.314-30.591c2.692-3.154,5.089-5.785,8.95-6.825
			C312.634,1221.505,310.454,1212.685,304.004,1205.012z M964.988,851.309c-7.962-7.539-17.471-10.248-26.733-13.382
			c-2.263-0.767-3.858,0.323-5.327,2.259c-12.662,16.67-21.744,35.737-35.984,52.392c16.83,5.161,31.896,2.674,46.529-4.43
			c1.53-0.742,2.907-2.104,2.646-3.877c-0.698-4.745,1.931-8.778,3.354-12.741C952.262,863.768,955.844,855.891,964.988,851.309z
			 M1059.103,981.234c-22.243,1.877-44.551,0.086-67.315,1.443c11.776,18.645,27.408,27.172,40.128,22.481
			c1.856,3.459,1.931,3.517,3.945,3.033C1048.856,1005.083,1058.641,993.949,1059.103,981.234z M893.83,890.867
			c15.115-16.487,23.979-36.607,38.058-54.11c-14.55-0.087-27.562,5.289-40.941,15.916c-2.766,2.197-4.548,4.582-5.25,8
			c-1.922,9.343,2.361,17.915,3.307,26.901C889.191,889.364,891.632,890.05,893.83,890.867z M329.705,913.845
			c1.69,26.799,8.847,51.187,26.663,72.095c0.686-0.917,1.151-1.255,1.195-1.641c2.335-20.564-0.734-40.283-10.444-58.589
			C343.815,919.481,339.429,913.256,329.705,913.845z M545.696,681.735c8.385-0.053,16.297-1.576,23.5-6.002
			c4.561-2.801,6.823-6.978,5.037-11.987c-1.806-5.065-4.724-9.777-9.163-13.173c-4.05-3.099-8.383-4.001-13.151-1.433
			c-10.487,5.648-15.261,14.932-16.372,26.279c-0.249,2.529-0.853,6.674,4.286,6.289c0.785-3.435-1.037-8.016,3.961-9.532
			c1.487-0.45,3.005-0.607,4.269,1.265C550.649,677.269,545.731,678.611,545.696,681.735z M735.44,591.413
			c-8.463,7.21-11.454,15.637-9.218,25.149c0.559,2.377,1.379,4.265,3.904,5.306c6.639,2.735,13.387,4.333,20.624,3.291
			c3.79-0.546,7.038-2.298,8.323-5.742c2.978-7.976-1.855-14.327-4.962-21.108c-2.316-5.056-6.043-5.065-10.425-4.367
			C740.519,594.447,737.746,593.381,735.44,591.413z M259.536,1129.453c13.83,5.926,38.184-1.126,47.628-13.793
			C282.851,1097.61,268.8,1105.664,259.536,1129.453z M311.456,1035.049c-11.755-10.526-25.134-18.017-39.274-24.215
			c-2.39-1.048-5.123-1.326-7.426,0.486c-2.762,2.172-0.898,4.746-0.385,7.16c0.588,2.765,1.123,5.554,1.935,8.257
			c0.687,2.288,1.821,4.651,4.443,5.045C284.159,1033.796,297.605,1035.513,311.456,1035.049z M269.37,1273.468
			c14.215,3.103,38.799-16.237,35.954-27.84C293.862,1255.434,282.105,1264.582,269.37,1273.468z M296.078,1199.748
			c-13.303-3.11-21.138,0.341-26.135,11.322C280.061,1210.221,287.899,1205.889,296.078,1199.748z M1066.332,1068.124
			c9.367-0.421,19.442,3.623,28.092-4.499C1084.025,1060.825,1074.553,1060.267,1066.332,1068.124z M1015.184,921.562
			c-7.316,3.381-12.389,7.361-16.13,12.991c-1.316,1.982-1.649,4.225,0.167,5.721c1.531,1.266,3.465,0.453,5.136-0.804
			C1010.009,935.221,1013.426,929.663,1015.184,921.562z M966.346,861.684c-0.494-0.389-0.986-0.777-1.479-1.166
			c-2.009,4.118-4.016,8.237-6.024,12.355C964.044,870.536,964.588,865.788,966.346,861.684z M340.686,1309.65
			c-2.275-3.323-3.971-5.801-6.121-8.944C334.283,1309.502,334.379,1309.646,340.686,1309.65z"/>
		<path fill-rule="evenodd" clip-rule="evenodd" fill="#FFF100" d="M1203.53,1672.251c11.296,0.794,21.925,1.542,32.535,2.289
			c-0.165,2.869-2.357,2.043-3.158,3.116c3.122,6.623,11.875-0.047,15.336,6.672c-8.417,5.169-16.858,9.741-26.906,4.84
			c-2.874-1.4-5.978-2.23-8.493-1.115c-7.649,3.387-14.113-2.024-21.239-2.21c-3.389-0.088-3.023-3.397-2.426-6.462
			c-15.916,5.096-31.293,5.472-46.909,3.062c17.179-2.638,33.315-9.334,50.421-11.31c2.396-14.315,5.683-28.229,6.772-42.858
			c-1.962-2.705-4.895,0.589-7.391-0.403c3.157-2.748,6.894-1.443,10.004-0.7c5.195,1.242,10.259,1.38,14.754-1.067
			c8.328-4.533,17.426-4.643,26.384-5.951c5.733-0.838,11.34-2.4,15.841,3.196c-2.504,7.001-9.28,5.115-15.22,5.325l-24.942,0.076
			c-2.839,0.981-4.097,2.916-4.743,5.939c-2.15,10.054-3.695,20.231-6.887,30.093
			C1206.435,1667.342,1204.431,1668.854,1203.53,1672.251z"/>
		<path fill-rule="evenodd" clip-rule="evenodd" fill="#FFF100" d="M484.385,1054.489c-2.025,2.645-4.521,3.257-7.258,1.281
			c-2.203-1.59-2.753-5.801-0.965-5.51c4.678,0.76,9.295-1.749,13.681,0.214c1.769,0.792,3.383,2.81,2.508,4.68
			c-1.051,2.248-3.268,2.298-5.338,0.644C486.299,1055.228,485.347,1054.956,484.385,1054.489z"/>
		<path fill-rule="evenodd" clip-rule="evenodd" fill="#FFF100" d="M631.936,855.524c2.815,0.553,4.996,1.707,7.515-1.191
			c2.057-2.367,5.04,1.222,6.949,2.985c1.378,1.276,0.945,3.502-0.428,5.132c-2.216,2.632-4.446,1.183-5.963-0.506
			C637.692,859.366,631.188,863.421,631.936,855.524z"/>
		<path fill-rule="evenodd" clip-rule="evenodd" fill="#FFF100" d="M838.507,1320.555c-4.592-2.012-8.487-4.039-7.791-9.182
			c0.32-2.355,3.081-3.369,5-2.036C839.408,1311.897,841.094,1315.47,838.507,1320.555z"/>
		<path fill-rule="evenodd" clip-rule="evenodd" fill="#FFF100" d="M968.307,782.977c-0.462,5.739-5.566,7.537-8.601,11.139
			C957.304,788.208,960.597,783.94,968.307,782.977z"/>
		<path fill-rule="evenodd" clip-rule="evenodd" fill="#FFF100" d="M995.879,1236.547c-2.708-1.261-4.881-3.312-5.527-6.496
			c-0.405-1.999,1.066-3.464,2.864-3.082c2.896,0.614,5.957,1.848,6.627,5.172C1000.333,1234.572,998.536,1235.998,995.879,1236.547
			z"/>
		<path fill-rule="evenodd" clip-rule="evenodd" fill="#FFF100" d="M1060.244,884.06c-7.264-2.88-10.112-8.836-11.183-16.029
			C1052.788,873.373,1056.518,878.716,1060.244,884.06z"/>
		<path fill-rule="evenodd" clip-rule="evenodd" fill="#FFF100" d="M631.062,816.327c-3.654,0.986-7.514,2.738-9.46-2.578
			C626.175,808.247,627.108,808.497,631.062,816.327z"/>
		<path fill-rule="evenodd" clip-rule="evenodd" fill="#FFF100" d="M1132.206,1519.074c4.703-4.85,6.651-9.288,4.934-15.57
			c5.107,4.021,1.554,9.079,5.211,12.527C1138.747,1517.112,1136.291,1517.848,1132.206,1519.074z"/>
		<path fill-rule="evenodd" clip-rule="evenodd" fill="#FFF100" d="M512.962,875.46c-3.38-0.405-7.062,0.607-6.791-4.659
			c0.122-2.363,1.311-3.626,3.473-3.184C514.12,868.526,513.694,871.738,512.962,875.46z"/>
		<path fill-rule="evenodd" clip-rule="evenodd" fill="#FFF100" d="M402.221,736.616c-1.144,1.475-0.729,3.984-4.014,3.813
			c-3.887-0.203-3.199-3.827-5.134-5.336c1.199-1.095,1.241-3.957,3.869-2.855C399.107,733.146,402.32,733.013,402.221,736.616z"/>
		<path fill-rule="evenodd" clip-rule="evenodd" fill="#FFF100" d="M735.145,1029.24c-3.76,1.859-6.549,1.211-8.358-2.315
			c-0.733-1.431,0.107-3.338,1.469-3.468C732.086,1023.089,734.097,1025.434,735.145,1029.24z"/>
		<path fill-rule="evenodd" clip-rule="evenodd" fill="#FFF100" d="M1110.51,992.605c2.627-4.093,4.894-3.564,6.975-0.414
			c1.046,1.582,3.327,3.941,0.303,5.073C1113.706,998.792,1112.828,994.462,1110.51,992.605z"/>
		<path fill-rule="evenodd" clip-rule="evenodd" fill="#FFF100" d="M464.601,1055.228c-5.063,1.081-7.578-0.692-8.93-3.88
			c-0.709-1.673,0.853-3.653,2.442-3.545C462.002,1048.069,462.436,1051.735,464.601,1055.228z"/>
		<path fill-rule="evenodd" clip-rule="evenodd" fill="#FFF100" d="M579.169,1447.406c1.036-4.632,3.048-4.875,6.063-2.781
			c1.912,1.326,3.942,3.215,1.922,5.006C583.382,1452.974,581.996,1447.674,579.169,1447.406z"/>
		<path fill-rule="evenodd" clip-rule="evenodd" fill="#FFF100" d="M1083.5,961.288c2.842-1.261,4.906-0.638,6.489,1.962
			c1.321,2.172,1.233,3.886-1.587,5.382C1086.724,966.295,1082.979,965.453,1083.5,961.288z"/>
		<path fill-rule="evenodd" clip-rule="evenodd" fill="#FFF100" d="M559.023,1017.724c0.617,2.15-0.513,3.273-2.362,3.303
			c-2.385,0.037-3.954-1.646-4.199-3.817c-0.223-1.965,1.573-2.26,3.276-2.574C558.517,1014.123,558.804,1015.828,559.023,1017.724z
			"/>
		<path fill-rule="evenodd" clip-rule="evenodd" fill="#FFF100" d="M999.481,1254.111c2.503-1.133,4.383-2.269,6.824,0.32
			c2.292,2.431,1.574,3.974-0.687,6.008C1002.956,1259.184,1000.782,1257.392,999.481,1254.111z"/>
		<path fill-rule="evenodd" clip-rule="evenodd" fill="#FFF100" d="M315.828,694.928c-3.113,4.679-5.559,0.991-7.713-0.456
			c-0.99-0.666-1.493-3.203,0.458-3.999C312.969,688.678,313.737,692.825,315.828,694.928z"/>
		<path fill-rule="evenodd" clip-rule="evenodd" fill="#FFF100" d="M1136.152,1616.812c3.793-7.184,5.098-7.516,8.744-2.705
			C1142.653,1616.332,1139.983,1617.047,1136.152,1616.812z"/>
		<path fill-rule="evenodd" clip-rule="evenodd" fill="#FFF100" d="M280.778,893.77c0.889,1.953,4.805,0.927,4.123,4.396
			c-0.405,2.068-1.746,2.238-3.631,2.278c-3.258,0.067-2.838-2.664-3.312-4.28C277.503,894.607,279.109,893.869,280.778,893.77z"/>
		<polygon fill-rule="evenodd" clip-rule="evenodd" fill="#FFF100" points="451.147,868.77 450.494,868.896 451.096,869.162 		"/>
		<path fill-rule="evenodd" clip-rule="evenodd" fill="#FFF100" d="M354.053,382.219c4.552,2.995,2.147,5.245,1.297,7.383
			c-1.471,3.689-3.231,7.273-5.035,10.819c-4.385,8.618-2.976,12.887,5.827,16.874c1.272,0.575,2.759,0.684,3.709,2.589
			c-2.69,0.232-5.056-1.032-7.481-1.139c-2.312-0.101-4.606-2.545-7.468-0.819C337.015,402.415,355.203,395.185,354.053,382.219z"/>
		<path fill-rule="evenodd" clip-rule="evenodd" fill="#FFF100" d="M409.664,449c1.193-1.331,0.048-1.597-0.893-1.957
			c-0.194-0.343-0.388-0.685-0.582-1.027c5.664,0.689,10.565,3.54,15.684,5.698c11.857,4.997,24.021,9.138,36.036,13.75
			c-13.541-3.144-26.401-8.305-39.276-13.417c-0.971-0.443-1.941-0.886-2.911-1.329c-1.006-0.417-2.014-0.835-3.02-1.253
			C413.026,449.268,411.632,446.023,409.664,449z"/>
		<path fill-rule="evenodd" clip-rule="evenodd" fill="#FFF100" d="M689.521,202.363c-4.07,1.044-6.651-0.343-7.764-3.934
			c-0.408-1.314,0.635-2.649,2.454-2.73C688.895,195.486,689.108,198.71,689.521,202.363z"/>
		<path fill-rule="evenodd" clip-rule="evenodd" fill="#FFF100" d="M504.037,275.937c-0.015,2.095-1.242,2.926-3.127,3.043
			c-2.005,0.125-3.198-0.909-3.173-2.841c0.022-1.746,0.831-3.452,2.938-3.027C502.096,273.396,504.083,273.66,504.037,275.937z"/>
		<path fill-rule="evenodd" clip-rule="evenodd" fill="#FFF100" d="M488.194,258.25c-4.439,0.306-7.747,0.474-7.273-4.985
			C485.057,252.154,486.568,254.41,488.194,258.25z"/>
		<path fill-rule="evenodd" clip-rule="evenodd" fill="#FFF100" d="M361.283,421.473c4.093,0.269,7.369,2.012,9.697,5.478
			C367.748,425.124,364.515,423.299,361.283,421.473z"/>
		<path fill-rule="evenodd" clip-rule="evenodd" fill="#FFF100" d="M402.711,443.291c-1.249-0.281-2.5-0.564-3.749-0.846
			c-0.712-0.72-1.425-1.439-2.137-2.159C399.439,440.01,401.143,441.519,402.711,443.291z"/>
		<path fill-rule="evenodd" clip-rule="evenodd" fill="#FFF100" d="M408.388,446.14c-1.017-0.525-2.034-1.05-3.053-1.577
			C406.534,444.736,407.92,444.551,408.388,446.14z"/>
		<path fill-rule="evenodd" clip-rule="evenodd" fill="#FFF100" d="M402.878,444.37c0.174-0.496,0.052-0.908-0.365-1.23
			c0.993,0.571,2.775-0.367,3.047,1.589C404.665,444.609,403.771,444.49,402.878,444.37z"/>
		<path fill-rule="evenodd" clip-rule="evenodd" fill="#FFF100" d="M491.029,550.565c-3.667,1.331-6.426,1.573-8.219-1.329
			c-0.78-1.261-0.091-3.151,1.271-3.559C487.846,544.552,489.318,547.207,491.029,550.565z"/>
		<path fill-rule="evenodd" clip-rule="evenodd" fill="#FFF100" d="M584.478,340.78c-3.588-0.209-4.164-2.317-4.479-4.831
			c-0.373-2.978,1.904-3.927,3.776-4.022c2.829-0.142,3.721,2.526,4.092,4.814C588.317,339.526,585.791,339.902,584.478,340.78z"/>
		<path fill-rule="evenodd" clip-rule="evenodd" fill="#FFF100" d="M557.501,310.926c-0.028,3.277-2.454,3.429-3.979,3.413
			c-2.656-0.026-4.984-1.519-5.209-4.463c-0.124-1.634,1.251-3.697,2.971-2.979C553.593,307.861,557.028,307.85,557.501,310.926z"/>
		<path fill-rule="evenodd" clip-rule="evenodd" fill="#FFF100" d="M581.462,387.41c-3.699-2.581-8.174-1.688-8.208-6.65
			c-0.01-1.48,1.286-3.041,2.568-2.589C579.155,379.346,581.479,381.654,581.462,387.41z"/>
		<path fill-rule="evenodd" clip-rule="evenodd" fill="#FFF100" d="M571.088,358.423c4.771-0.814,6.322,1.353,7.478,4.854
			C574.222,364.318,571.696,363.494,571.088,358.423z"/>
		<path fill-rule="evenodd" clip-rule="evenodd" fill="#FFF100" d="M735.87,609.541c-2.071-4.896,0.344-7.729,4.135-9.635
			c1.364-0.686,3.527-0.374,3.761,1.837C744.365,607.416,740.321,608.539,735.87,609.541z"/>
	</g>
</g>
</svg>
