<?xml version="1.0" encoding="utf-8"?>
<!-- Generator: Adobe Illustrator 16.0.0, SVG Export Plug-In . SVG Version: 6.00 Build 0)  -->
<!DOCTYPE svg PUBLIC "-//W3C//DTD SVG 1.1//EN" "http://www.w3.org/Graphics/SVG/1.1/DTD/svg11.dtd">
<svg version="1.1" id="Layer_1" xmlns="http://www.w3.org/2000/svg" xmlns:xlink="http://www.w3.org/1999/xlink" x="0px" y="0px"
	 width="1600px" height="1800px" viewBox="0 0 1600 1800" enable-background="new 0 0 1600 1800" xml:space="preserve">
<g>
	<g>
		<path fill-rule="evenodd" clip-rule="evenodd" fill="#FFF100" d="M672.22,1037.738c3.377-1.412,1.343-4.068,0.847-5.727
			c-11.385-38.01-13.047-76.988-12.196-116.285c0.203-9.389,0.11-18.775,1.346-28.09c0.348-2.615-0.729-3.675-2.708-4.843
			c-2.858-1.686-6.708-3.343-5.808-7.393c0.957-4.308,4.786-5.806,8.999-6.09c0.362-0.025,0.697-0.438,1.482-0.96
			c-1.434-8.689,2.55-17.3,1.788-27.5c-8.46,9.172-18.611,13.291-29.632,14.171c-14.426,1.15-26.293-5.483-34.17-16.965
			c-9.168-13.363-16.259-27.854-19.853-44.149c-5.645-25.6,11.401-46.471,33.178-51.436c17.165-3.914,34.729-2.942,52.125-0.804
			c6.523,0.802,12.953,2.369,19.823,3.662c26.359-69.792,58.56-135.744,124.259-179.759c-16.61-25.751-29.558-53.576-39.954-82.497
			c-1.131,0.298-1.771,0.269-1.96,0.546c-2.279,3.362-4.548,8.054-8.994,6.944c-4.067-1.015-4.448-6.317-4.675-10.003
			c-0.236-3.814-2.223-6.02-4.698-7.897c-8.062-6.112-10.633-14.454-10.491-24.064c0.051-3.466,1.085-6.127,5.446-6.958
			c1.463,7.528,1.769,15.255,8.843,21.36c0.041-13.25,2.693-25.357-2.218-38.312c-7.78-20.518-13.704-41.714-25.551-60.507
			c-2.477-3.927-5.177-7.569-8.879-10.177c-1.163-2.466,2.662-3.349,1.038-6.741c-2.132-4.46,2.648-7.646,6.341-7.299
			c12.333,1.154,24.059-2.489,36.068-3.634c34.74-3.312,68.076-13.841,102.059-21.075c38.614-8.22,77.151-16.635,116.793-18.501
			c18.552-0.874,37.055-2.789,55.582-4.181c2.55-0.191,4.713,0.113,5.271-3.676c0.374-2.535,1.516-6.169,5.605-5.803
			c4.274,0.383,5.521,3.333,5.329,7.459c3.764,0.481,6.852-1.338,10.148-1.879c3.285-0.539,7.282-0.258,7.69,3.632
			c0.345,3.304-2.82,6.427-6.262,5.761c-14.349-2.781-18.198,5.312-21.199,17.285c-3.818,15.238-14.697,26.674-25.163,37.938
			c-19.97,21.487-41.797,41.198-60.755,63.661c-3.815,4.522-6.181,8.444-4.578,15.236c3.043,12.924-4.099,23.329-11.477,33.124
			c-2.329,3.095-5.053,6.014-8.036,8.481c-20.211,16.722-22.227,40.618-26.809,64.872c10.254,0.592,19.323,0.941,28.29,2.708
			c13.021,2.562,26.265,4.109,39.599,3.859c10.988-0.207,21.962-0.954,32.966-0.059c28.39,2.31,55.086,9.779,77.225,28.367
			c15.919,13.366,22.89,31.722,23.771,52.316c0.256,5.944-0.041,11.937-0.502,17.875c-0.184,2.382,1.289,3.762,2.369,5.649
			c-3.27,3.153-7.297,3.803-11.085,5.267c-3.743-4.546-0.683-9.084-0.227-13.275c2.515-23.161-3.708-43.547-19.506-60.476
			c-8.233-8.821-19.499-13.53-30.51-18.292c-24.026-10.396-49.347-10.717-74.865-10.271c-15.792,0.276-31.41-1.956-46.978-4.53
			c-6.228-1.03-12.576-1.329-19.045-1.978c-1.088,4.968,1.832,10.037-2.736,13.523c-1.368,1.045-2.008,3.244-4.46,2.058
			c-1.895-0.915-2.517-2.335-2.783-4.35c-1.395-10.588-1.808-10.997-11.765-8.599c-16.694,4.018-33.33,8.278-49.979,12.474
			c-4.226,1.064-7.985,3.124-11.702,5.33c4.414,7.231,4.009,8.807-2.985,12.915c-1.891-0.265-2.401-1.97-3.286-3.238
			c-0.912-1.299-1.662-2.708-2.797-4.591c-13.104,7.703-24.591,17.031-35.104,27.618c-28.128,28.327-48.513,61.806-65.375,97.701
			c-7.692,16.375-14.302,33.128-19.867,50.571c4.11,3.672,9.494,5.217,14.087,8.106c17.311,10.894,17.146,31.475,7.667,46.555
			c-9.408,14.965-21.168,27.696-38.242,34.354c-2.068,0.806-4.146,1.845-4.457,4.7c-0.915,8.394-2.007,16.769-3.124,25.914
			c22.15-4.365,42.488-10.745,60.313-24.181c7.335-5.529,13.565-11.344,16.723-20.087c0.943-2.609,3.292-3.101,5.646-2.662
			c2.211,0.413,2.224,2.283,2.48,4.271c2.507,19.364,10.792,36.918,18.606,54.398c2.553,5.708,6.097,9.233,0.067,14.156
			c-2.448,1.996-5.479,0.841-8.256,2.003c-12.482,5.227-24.789,10.958-37.845,14.712c-2.196,0.631-4.415,1.222-6.657,1.636
			c-7.329,1.348-15.702,0.429-19.263,9.561c-0.36,0.928-2.264,1.252-3.849,2.061c-6.623-13.732-15.302-25.352-29.046-34.225
			c-0.564,5.526-1.353,9.767-1.372,14.012c-0.118,26.648-0.975,53.314,2.484,79.867c2.666,20.473,6.976,40.508,13.266,60.213
			c9.587,30.023,23.26,57.859,43.642,81.949c22.711,26.846,49.907,47.781,83.305,60.064c6.432,2.365,12.668,5.109,19.439,6.111
			c4.12-9.455,7.149-10.76,12.464-5.477c-0.593,2.586-3.095,4.531-2.804,7.486c47.582,13.973,130.704,4.166,195.614-28.215
			c-3.021-8.529-6.948-17.215-0.437-25.836c2.319-3.07,5.495-3.881,9.829-0.998c-4.807,6.848-4.104,13.84,0.426,21.484
			c6.394-3.693,12.793-6.725,18.469-10.777c27.447-19.604,52.247-42.018,71.063-70.307c10.405-15.643,21.193-31.143,28.189-48.768
			c8.079-20.354,12.112-41.598,13.312-63.404c1.237-22.5,0.372-44.938-2.904-67.236c-1.817-12.376-3.82-24.68-7.795-36.688
			c-4.73-14.283-8.062-29.023-12.506-43.409c-2.479-8.03-4.288-16.204-11.539-22.378c-7.553-6.432-8.608-16.72-8.923-25.935
			c-0.282-8.264-2.666-14.992-6.982-21.734c-11.987-18.724-24.968-36.67-39.81-53.246c-0.616-0.688-1.064-1.498-2.959-0.99
			c-1.461,8.83-1.104,18.088-1.193,27.291c-0.046,4.572-0.16,9.362,1.089,13.668c1.458,5.04-1.486,6.437-4.774,7.305
			c-4.45,1.177-5.01-2.706-4.991-5.537c0.09-13.091-0.529-26.201,0.704-39.274c0.402-4.29,0.758-8.585,1.015-12.886
			c0.116-1.91-0.591-3.741-1.952-5.028c-10.817-10.226-21.575-20.537-34.177-28.628c-17.859-11.466-37.324-14.673-58.042-11.003
			c-7.936,1.405-15.784,3.116-23.952,1.965c-4.009-0.565-7.078,2.044-9.739,4.484c-11.058,10.141-23.969,16.761-38.191,21.185
			c-8.53,2.653-10.359,10.59-12.324,17.711c-2.515,9.111-2.896,18.441,2.168,27.555c2.757-2.29,2.994-5.625,3.999-8.544
			c2.571-7.471,6.567-14.167,12.32-19.475c6.397-5.901,13.503-5.908,19.449,0.351c17.014,17.908,30.121,38.073,33.105,63.313
			c0.619,5.22-0.524,10.566-2.973,15.382c-4.199,8.265-12.356,10.955-20.882,7.125c-8.149-3.66-14.386-9.472-19.916-16.402
			c-6.397-8.021-12.655-16.282-22.52-22.851c-5.216,21.216-7.273,41.816-5.292,64.197c5.345-4.054,9.812-7.677,15.599-9.252
			c11.652-3.172,23.564-2.968,35.412-3.604c6.146-0.328,7.326,4.828,8.455,9.183c2.182,8.416-0.441,16.265-3.839,23.867
			c-1.489,3.336-3.244,6.554-5.048,10.162c5.678,2.729,12.111,2.911,17.854,6.121c15.954,8.917,18.703,30.249,12.325,43.414
			c-7.172,14.812-18.659,25.811-33.35,33.455c23.937,18.368,35.695,55.277,14.714,83.227c-9.227,12.295-21.706,17.723-36.712,15.428
			c-16.977-2.602-32.67-8.662-46.316-19.723c-14.459-11.723-16.932-26.926-14.44-43.992c0.623-4.262,1.086-8.547,1.82-14.41
			c-10.994,8.307-16.927,17.963-18.103,30.285c-1.39,14.535,4.187,27.463,10.482,40.006c9.392,18.717,25.084,32.455,38.797,48.82
			c6.957-5.805,14.044-10.713,21.882-14.443c25.292-12.025,49.48-11.898,72.584,5.633c9.117,6.918,19.085,12.727,24.585,23.418
			c10.248,19.922,9.136,39.162-2.655,58.16c-4.182,6.734-8.924,13.229-10.959,21.201c-2.94,11.531-12.868,15.332-22.606,17.779
			c-22.571,5.666-45.278,6.076-68.106,0.143c-15.658-4.07-27.273-12.984-35.139-26.617c-2.564-4.443-7.659-7.334-7.91-13.332
			c-0.119-2.852-3.596-0.934-5.687-2.553c0.778-9.805,1.405-19.992,2.493-30.127c0.357-3.324,1.617-6.852,5.473-7.957
			c2.321-0.668,3.213-2.336,4.165-4.186c3.923-7.615,9.449-14.092,14.984-20.975c-6.494-8.736-14.58-16.15-21.778-24.344
			c-14.415-16.406-24.673-35.199-28.81-56.588c-3.224-16.66,3.648-35.273,21.444-47.457c3.777-2.584,5.426-5.082,5.711-9.811
			c0.692-11.47-0.91-22.975,1.172-34.434c2.053-11.283,6.353-21.331,14.16-29.721c1.701-1.83,2.472-3.591,2.715-6.02
			c1.234-12.283,1.802-24.667,6.422-36.399c1.735-4.401,0.291-9.196-0.19-13.701c-2.02-18.936,0.338-37.504,3.968-55.999
			c0.838-4.271,1.959-8.495,3.124-12.692c0.576-2.076-0.085-3.542-1.47-4.948c-10.479-10.621-7.542-41.874,3.157-54.217
			c3.139-3.624,7.67-5.597,11.887-6.553c13.003-2.948,23.416-10.167,33.24-18.467c7.157-6.046,14.479-9.889,24.42-7.98
			c8.235,1.582,16.425-1.507,24.593-2.597c27.571-3.679,50.262,6.577,70.719,23.695c4.85,4.058,9.44,8.426,15.103,13.502
			c0.809-10.555,0.391-19.664-0.939-28.753c-0.196-1.338-0.893-2.672-0.805-3.97c0.403-5.887,0.184-11.489-6.322-15.389
			c5.36-1.966,8.422-4.606,9.405-9.592c0.517-2.62,3.044-4.027,6.021-2.619c2.768,1.308,2.115,3.11,1.431,5.672
			c-2.097,7.849-2.069,16.018-0.669,23.91c1.872,10.554,2.021,21.072,0.457,31.523c-0.869,5.829,0.479,9.699,4.506,14.076
			c19.258,20.921,36.495,43.386,49.725,68.71c0.501,0.958,1.426,1.692,2.352,2.762c10.365-18.934,21.832-36.551,38.299-50.545
			c-2.736-6.458-6.994-10.773-13.094-14.258c-31.881-18.216-38.775-39.562-30.655-73.415c1.184-4.934,1.945-10.336,6.258-14.34
			c2.939,2.141,0.932,4.64,0.476,6.744c-2.8,12.914-4.116,25.947-1.322,38.934c3.251,15.109,13.546,24.768,27.167,33.129
			c-2.738-12.962-3.127-24.498-0.171-36.323c2.887-11.539,8.673-21.624,14.374-31.429c-1.85-1.806-2.91-1.017-3.897-0.63
			c-11.858,4.641-17.517,1.619-19.119-10.898c-0.924-7.23-2.067-14.55-0.538-21.898c1.12-5.389-0.439-10.26-3.827-15.066
			c11.722-2.811,7.029-14.093,13.112-21.543c-19.849,2.109-33.18-5.105-41.051-22.074c4.36-2.594,6.944-0.202,9.832,2.25
			c7.856,6.67,15.519,13.785,27.095,12.88c4.045-0.316,6.688-1.673,8.557-5.509c4.531-9.301,11.669-15.672,21.917-18.431
			c5.477-1.475,6.438-7.143,8.016-11.274c4.238-11.118,7.434-22.563,4.337-34.804c-1.955-7.731-5.137-14.597-11.275-19.787
			c-3.894-3.292-12.309-2.72-17.201,1.446c-15.825,13.475-25.108,30.724-27.894,51.229c-1.208,8.898,4.045,17.29,12.349,22.034
			c0.416,3.012-0.611,6.528-3.363,6.594c-4.731,0.113-9.397-1.812-12.143-6.221c-7.945-12.767-6.062-25.797-0.72-38.84
			c2.061-5.034,4.226-10.029,6.311-14.973c-0.738-0.478-1.188-0.986-1.442-0.903c-13.869,4.511-15.833,3.991-23.054-8.901
			c-3.305-5.898-6.034-12.229-6.661-19.189c-0.306-3.407-0.7-6.815-1.274-10.186c-0.567-3.316-1.412-6.584-1.961-9.066
			c8.02-7.059,7.968-18.898,18.729-24.747c-16.244-5.919-30.273-12.259-35.771-28.362c-3.044-8.917-2.525-17.89,1.759-26.923
			c4.24,0.825,5.186,3.328,4.696,7.321c-0.883,7.205,0.188,14.005,5.96,19.804c-1.708-18.208,6.41-33.028,14.906-47.665
			c-7.402-1.417-7.325-1.347-12.092,4.037c-3.126,3.527-7.18,4.669-10.673,1.14c-1.448-1.463-3.708-1.784-4.838-4.318
			c5.165-6.573,1.095-13.395-1.377-19.579c-4.025-10.072-5.021-21.06-9.981-30.775c-0.379-0.741-0.505-2.077-0.089-2.688
			c7.09-10.446,4.448-22.935,7.136-34.308c1.356-5.739,3.654-8.532,9.716-7.921c1.387-3.767-2.583-8.098,1.636-11.54
			c1.765-1.44,3.094-2.761,5.32-1.791c1.835,0.8,3.748,1.428,4.093,4.101c0.612,4.748,1.437,9.497,2.622,14.13
			c0.717,2.807,0.555,6.006,5.167,6.975c3.259,0.685,0.831,6.453,4.427,8.859c2.028,0.204,4.344-0.564,6.728-1.463
			c3.614-1.361,5.112-2.908,3.338-7.167c-1.826-4.381-3.028-9.229-3.378-13.956c-0.348-4.715-3.333-7.661-5.829-11.375
			c3.03-2.312,5.526-5.607,9.555-4.359c4.326,1.342,5.005,5.746,5.852,9.469c1.411,6.205,1.814,12.648,4.283,18.455
			c0.731,0.186,1.152,0.389,1.571,0.382c4.026-0.063,6.843-4.89,11.46-2.815c5.958,2.679-0.973,6.861,1.284,10.188
			c1.63,2.399,1.957,5.682,3.584,8.082c9.398,13.869,12.176,29.547,13.203,45.808c0.153,2.406,0.412,5.067,2.527,6.961
			c2.466,2.21,3.692,5.417,1.78,7.951c-2.042,2.708-4.58,6.04-9.11,4.718c-1.716-0.5-3.498-0.966-5.091,0.498
			c18.826,25.247,22.067,42.277,5.651,66.065c3.106,2.308,7.066,0.92,10.382,2.52c7.92,3.819,10.317,10.984,11.062,18.689
			c1.133,11.764-0.48,23.01-10.035,32.387c5.811,2.081,12.154,1.109,16.371,6.147c8.053,9.618,11.372,20.739,10.68,32.966
			c-0.725,12.853-4.504,24.89-12.318,36.132c14.806,7.333,24.404,18.807,28.236,34.745c3.734,15.536,2.473,30.318-7.656,43.397
			c30.231,17.478,36.357,55.82,9.316,87.19c1.895,1.435,3.904,0.405,5.771,0.391c9.092-0.069,15.199,4.744,18.076,13.579
			c5.374,16.5,3.04,33.098,0.592,49.588c-1.122,7.547-2.853,15.046-4.939,22.526c-4.775,17.121-17.24,27.515-29.91,37.556
			c-8.539,6.767-19.781,8.07-30.61,8.878c-10.739,0.801-21.364-0.683-33.068-2.32c3.572,12.294,6.854,24.001,10.382,35.634
			c6.257,20.626,10.555,41.646,12.578,63.094c2.053,21.753,2.181,43.573-0.078,65.298c-3.061,29.463-11.712,56.975-27.412,82.531
			c-17.287,28.139-36.707,54.275-61.663,76.027c-14.364,12.523-29.821,23.586-46.52,33.074c1.518,18.725,7.165,36.547,9.313,55.031
			c3.087,26.582,3.061,52.945,0.984,79.6c-1.62,20.803-4.792,41.359-7.23,62.016c-2.059,17.436-5.901,34.666-9.065,51.969
			c-3.418,18.705-6.534,37.293-3.539,56.533c1.787,11.486,1.183,23.322,2.246,34.947c1.102,12.059,2.795,24.07,4.465,36.072
			c1.253,9.027-0.467,11.705-8.427,11.486c-1.092-12.348-2.189-24.746-3.295-37.264c-3.766-0.049-3.494,3.334-4.265,5.305
			c-3.502,8.973-2.863,18.412-2.293,27.754c1.072,17.537,2.197,35.076,3.601,52.594c0.749,9.314,2.129,18.578,3.219,27.867
			c0.758,6.457-1.478,8.98-8.61,9.256c-2.328-5.754-1.161-12.025-1.423-17.955c-0.566-12.809-3.127-25.395-3.508-38.189
			c-0.564-18.881-3.486-37.748-0.892-56.645c0.949-6.92,4.35-13.232,9.601-17.713c2.831-2.418,2.981-4.348,2.881-7.502
			c-0.515-16.008-2.413-31.967-2.84-47.908c-0.462-17.26,4.013-34.293,7.16-51.299c6.029-32.604,10.497-65.367,13.381-98.441
			c2.472-28.383,2.807-56.52-1.732-84.602c-2.541-15.73-5.991-31.311-9.133-47.475c-31.838,15.488-64.429,25.645-98.551,31.229
			c-34.295,5.613-68.446,6.088-102.77-1.074c-4.343,10.654-7.552,21.051-8.337,32.098c-0.151,2.133,0.702,4.002,1.522,5.939
			c1.271,2.994,0.438,5.986-2.714,6.67c-3.919,0.85-4.274,3.199-4.5,6.342c-1.896,26.473-3.655,52.957-5.886,79.406
			c-2.343,27.732-1.227,55.309,2.141,82.891c2.015,16.51,0.395,32.967-2.309,49.311c-0.176,1.068-0.824,2.068-1.302,3.078
			c-3.465,7.326-1.752,10.383,6.866,11.695c-0.451,2.004-0.835,4.008-1.359,5.971c-0.473,1.762-1.099,3.482-2.05,5.428
			c2.104-4.67-2.226-6.105-3.732-9.354c-4.142,3.537-1.826,7.898-2.625,11.598c-1.706,7.883-5.96,15.275-4.163,23.844
			c0.266,1.266-0.76,3.754-1.815,4.203c-10.876,4.625-8.981,16.27-12.433,24.418c-4.127,9.744-7.172,20.672-7.375,31.82
			c-0.09,5.082-1.042,10.289,5.606,12.637c-1.315,2.723-2.413,5.223-5.588,3.264c-3.589-2.217-9.786-1.789-9.474-8.312
			c0.629-13.064,3.105-25.75,8.125-37.895c3.484-8.436,5.001-17.445,7.308-26.219c1.269-4.832-3.851-7.375-4.76-11.512
			c1.008-3.359,4.216-1.775,6.291-2.691c1.708-9.369-7.73-23.096,10.671-26.801c1.798-16.188,8.552-32.982,5.936-50.281
			c-1.124-7.436,1.251-15.615-3.437-22.512c-1.34-1.975,1.054-3.34,0.808-5.6c-3.536-32.332,1.244-64.424,3.108-96.617
			c1.246-21.51,4.604-42.898,4.007-64.506c-0.287-10.385-2.157-20.412-8.348-29.242c-3.548-5.062-1.199-8.65,6.732-10.393
			c2.354,6.264,6.015,12.037,8.566,18.965c1.82-6.377,3.64-12.758,5.562-19.494c-82.907-23.428-127.153-84.191-154.935-160.775
			L672.22,1037.738z M1134.972,446.529c-0.511-0.207-1.346-0.712-1.479-0.569c-0.674,0.733-0.357,1.414,0.47,1.881
			c3.191,11.817,9.145,16.835,19.209,15.849c0.092,0.839,0.292,1.689,0.249,2.527c-0.051,0.974-1.126,2.143,1.274,2.758
			c3.698-6.64,8.92-12.39,15.274-19.269C1156.822,452.825,1145.474,453.244,1134.972,446.529z M1038.811,300.132
			c-4.229,0.432-7.827,0.872-11.439,1.157c-32.218,2.547-64.612,3.465-96.58,8.404c-35.335,5.459-70.039,14.231-104.964,21.806
			c-18.369,3.982-36.442,9.272-55.201,11.476c-14.644,1.72-29.312,3.436-44.055,6.602c20.794,20.697,25.011,48.925,35.617,74.636
			c15.82-24.356,28.938-25.623,41.425-24.705c16.442,1.209,25.743,11.962,29.63,28.172c3.419-3.772,6.243-3.91,10.048-1.318
			c3.32,2.26,7.457,3.542,11.407,4.608c11.065,2.981,21.138,8.039,30.811,14.296c1.761-1.485,3.458-2.671,4.86-4.136
			c12.763-13.304,29.275-20.017,46.755-20.664c9.821-0.364,13.28-5.051,17.781-10.978c1.106-1.457,2.223-2.922,3.482-4.242
			c17.208-18.01,34.395-36.042,51.684-53.972C1023.931,336.902,1034.48,320.703,1038.811,300.132z M916.381,1060.479
			c-4.503,5.67-4.775,5.848-10.307,4.303c-3.31-0.924-6.7-1.807-9.764-3.301c-3.479-1.699-5.574-1.305-8.163,1.861
			c-6.399,7.828-11.143,16.523-15.151,25.705c-2.634,6.035-2.49,12.172,0.812,17.689c1.066,1.781,1.72,2.758,0.991,4.666
			c-1.053,2.752-0.233,5.297,0.902,7.953c9.392,21.949,26.003,33.645,49.535,37.373c16.214,2.568,31.965,0.422,47.854-1.268
			c12.539-1.334,19.667-8.678,21.542-21.156c0.359-2.389,0.843-4.678,2.752-6.557c17.251-16.996,17.46-40.973,7.438-59.795
			c-6.735-12.641-19.082-18.781-30.343-26.15c-12.029-7.871-25.007-10.375-39.322-7.803c-14.229,2.562-25.938,9.264-36.961,19.098
			C904.091,1057.031,910.278,1058.547,916.381,1060.479z M780.958,483.458c10.051,27.27,22.696,53.434,39.497,77.785
			c22.227-11.699,46.912-13.491,69.94-21.012c2.52-8.879,3.294-9.399,10.105-6.506c0.269-8.389,2.415-16.375,4.922-24.206
			c2.456-7.674,5.643-15.114,8.746-23.276c-6.897,0.938-12.595-0.002-17.918-3.203c-5.345-3.214-9.266-8.022-13.815-12.183
			c-2.511,1.968-3.613,6.99-7.313,4.877c-3.656-2.087-2.729-6.5-1.427-10.032c1.478-4.017,3.344-7.892,4.822-11.321
			c-13.252-11.502-29.588-15.222-45.341-20.235C825.744,461.261,804.097,472.537,780.958,483.458z M1194.486,702.753
			c3.091,2.828,2.953,5.328,1.144,7.736c-1.714,2.278-4.143,3.081-6.679,1.439c-3.731-2.416-6.127-0.781-9.008,1.833
			c-12.764,11.58-21.597,26.033-30.355,40.574c-3.809,6.326-4.58,12.295-0.705,19.313c3.03,5.493,4.499,11.975,5.913,18.187
			c0.799,3.507,2.071,5.728,5.359,7.25c10.159,4.708,20.96,4.033,31.68,4.19c23.034,0.34,39.745-10.296,51.268-29.738
			c5.978-10.086,7.633-21.601,9.201-32.833c1.922-13.741,3.321-27.718-0.293-41.525c-2.337-8.93-9.193-13.77-18.293-12.307
			C1219.67,689.13,1208.998,699.704,1194.486,702.753z M685.336,753.819c-22.381-6.666-44.417-7.854-66.726-5.159
			c-15.645,1.889-28.667,13.312-29.168,27.211c-0.973,26.944,9.977,49.045,30.383,66.228c8.54,7.192,26.493,6.185,34.427-0.674
			c-35.029-8.815-58.995-26.591-56.931-42.583c6.959,3.939,11.575,10.368,17.523,15.218c14.062,11.468,29.978,18.24,48.281,19.041
			c3.887,0.169,4.917-1.522,5.485-5.181c1.545-9.948,3.638-19.813,5.593-29.696C677.132,783.421,680.623,768.75,685.336,753.819z
			 M869.022,949.58c-0.764,10.193,1.279,19.506,8.035,27.508c11.479,13.596,26.649,20.24,43.666,23.734
			c9.876,2.029,19.611,2.223,27.366-4.777c9.85-8.891,14.127-20.459,13.094-33.941c-0.858-11.176-4.467-21.326-9.706-31.148
			c-6.312-11.837-14.346-16.305-27.793-14.719c-3.417,0.403-6.98,1.076-10.296,0.533c-13.599-2.227-25.675,3.35-38.126,6.962
			c-2.384,0.691-4.481,2.095-4.654,5.296C870.241,935.887,869.569,942.73,869.022,949.58z M1173.558,659.317
			c-0.612,8.641,1.49,16.796,4.176,24.837c0.726,2.171,1.675,4.342,4.085,5.255c6.515,2.467,13.214,3.995,20.153,2.431
			c26.468-5.967,47.724-34.968,40.888-61.901c-2.416-9.521-5.869-18.725-13.39-25.708c-5.73-5.321-9.584-5.707-15.504-0.777
			c-3.783,3.151-7.538,6.311-12.654,6.138c-3.762-0.126-5.914,1.871-8.174,4.21C1180.841,626.509,1174.879,641.91,1173.558,659.317z
			 M971.493,861.815c0.349-4.547-1.772-11.182-6.088-17.183c-4.928-6.85-12.388-9.184-19.962-11.271
			c-5.329-1.469-7.534,3.301-10.999,5.668c-7.236,4.947-15.232,8.887-23.698,4.207c-3.722-2.059-6.562-3.56-9.726-0.779
			c-4.365,3.834-11.976,4.801-11.665,13.001c0.476,12.643,2.401,25.115,6.236,37.078c3.393,10.588,11.366,19.992,23.981,15.635
			c2.326-0.804,5.105-1.145,7.507-0.723c9.865,1.73,17.583-2.814,24.39-8.708C961.872,889.735,971.77,880.099,971.493,861.815z
			 M1174.898,308.846c-2.165-5.412-2.591-10.878-2.791-16.262c-0.583-15.763-10.126-28.043-15.849-41.787
			c-0.724-1.738-1.729-4.247-6.022-2.709c-12.451,4.457-24.026,10.775-36.237,15.672c-9.942,3.988-9.94,3.99-7.32,14.146
			c0.057,0.22,0.095,0.464,0.062,0.685c-1.616,10.743,4.697,19.807,6.312,29.862c0.485,3.025,1.304,4.923,5.243,4.592
			C1136.938,311.479,1155.607,310.245,1174.898,308.846z M1200.565,521.26c-4.924,4.787-8.901,10.201-14.204,13.472
			c-9.178,5.659-13.856,13.118-16.438,23.595c-2.534,10.286-2.418,18.163,7.062,24.502c2.961,1.98,4.861,5.486,7.472,8.064
			c10.243,10.122,12.729,10.533,25.417,4.615c0.404-0.19,0.726-0.68,1.129-0.743c9.83-1.512,12.577-9.975,14.212-17.229
			C1230.711,553.177,1221.875,534.145,1200.565,521.26z M748.82,836.504c-22.154,21.376-48.166,33.746-79.792,38.671
			c14.165,8.53,24.759,17.992,31.281,29.452c11.677-3.1,23.287-1.42,33.894-5.579c10.865-4.259,21.881-8.095,32.339-13.368
			C760.836,869.048,752.944,853.559,748.82,836.504z M1132.619,385.094c11.485,3.828,10.62,5.758,26.354,1.812
			c12.883-3.231,18.971-8.886,20.461-22.062c1.714-15.138-4.039-28.053-14.369-38.396c-12.261-12.278-27.053-8.876-34.493,6.796
			c-3.077,6.481-4.732,13.367-6.623,20.213c-3.085,11.171,0.534,19.543,10.906,25.027c0.505,0.267,0.743,1.039,1.241,1.78
			C1135.005,381.78,1133.956,383.236,1132.619,385.094z M825.246,433.984c0.028-10.125-5.372-17.833-13.154-22.725
			c-10.163-6.388-22.189-6.619-31.77,0.589c-10.079,7.584-16.954,18.122-12.628,32.116c2.625,8.492,6.078,16.78,8.027,25.416
			c1.427,6.332,4.441,6.374,9.276,4.752c13.55-4.544,24.526-12.808,34.119-23.17C823.581,446.14,825.25,440.394,825.246,433.984z
			 M1171.798,391.775c-5.45,0.039-10.771,4.296-17.158,4.991c-3.509,0.381-7.219-0.704-10.563,1.741
			c-7.055,5.154-11.168,12.251-12.714,20.488c-0.689,3.688-2.355,7.841,0.454,11.916c8.324,12.07,22.946,16.534,38.541,12.098
			c16.038-4.562,21.348-14.226,20.969-30.33C1190.973,397.631,1185.272,391.279,1171.798,391.775z M959.911,752.652
			c-0.124-0.487-0.426-1.359-0.56-2.256c-3.471-23.312-15.627-42.024-31.373-58.74c-5.082-5.394-7.592-5.03-11.582,1.531
			c-4.383,7.21-8.005,14.723-10.583,22.931c-1.523,4.843-0.546,6.981,2.732,9.757c5.936,5.026,11.36,10.59,16.498,16.455
			c6.112,6.976,11.277,14.815,19.72,19.617c11.085,6.305,14.673,4.545,15.085-8.177C959.855,753.54,959.873,753.31,959.911,752.652z
			 M691.816,756.826c-7.466,24.16-12.466,48.324-16.144,73.233c12.859-3.718,25.746-15.069,33.579-26.875
			C723.316,781.98,713.695,764.41,691.816,756.826z M947.736,802.352c0.621-11.362-2.179-14.24-13.14-13.398
			c-6.4,0.491-12.79,1.14-19.17,1.831c-8.88,0.959-18.646,12.112-16.548,19.551c1.986,7.041,5.364,13.607,9.584,19.668
			c1.358,1.951,3.053,2.731,5.322,1.791c7.076-2.931,14.592-3.667,22.099-4.396c1.687-0.164,3.237-0.338,3.984-2.092
			C943.069,817.799,948.487,811.045,947.736,802.352z M881.401,464.063c2.957-0.849,5.041,0.174,7.304,2.141
			c4.994,4.343,10.233,8.439,16.609,10.785c9.127,3.359,14.066,1.024,16.708-8.102c1.148-3.957,2.828-7.713,4.308-11.542
			c3.795-9.814,9.307-18.754,14.005-28.159c-12.725-4.511-41.208,6.83-48.475,19.054c1.93,0.737,3.846,1.434,5.735,2.197
			c2.247,0.908,5.258,1.174,4.457,4.861c-0.637,2.943-2.423,4.962-5.331,5.666c-2.361,0.571-4.37-0.566-6.457-1.705
			C883.955,455.813,883.303,456.217,881.401,464.063z M881.473,859.105c-11.515,19.688-9.017,39.269-8.886,59.311
			c8.119-2.52,16.036-4.979,24.027-7.457C884.029,896.281,883.512,878.488,881.473,859.105z M1166.845,584.488
			c-0.952,5.188-0.14,9.231,0.567,13.279c0.796,4.557,1.552,9.567,6.612,11.065c5.047,1.494,7.173-3.241,10.691-6.257
			C1177.235,598.039,1173.166,591.048,1166.845,584.488z M1108.397,231.849c-3.094,9.289-3.394,18.816-3.928,28.981
			c4.289-2.261,7.833-4.129,11.674-6.154C1112.025,247.536,1110.743,239.599,1108.397,231.849z M944.144,435.9
			c-6.386,10.598-11.143,21.07-14.864,33.063C940.773,460.621,947.401,446.068,944.144,435.9z M902.778,835.926
			c-5.428-3.512-5.414-9.974-10.331-13.51c-1.048,6.787-3.437,12.977-2.265,20.086C894.776,841.105,898.153,838.844,902.778,835.926
			z M931.719,832.706c-6.041,1.919-11.285,0.559-15.856,3.872C923.583,839.955,926.697,839.365,931.719,832.706z M763.925,460.933
			c-2.938,6.372-2.397,8.079,4.772,11.355C765.523,468.294,766.768,463.979,763.925,460.933z M1189.093,523.654
			c-4.66,1.669-7.179,5.18-10.077,10.927C1184.521,531.147,1187.119,527.691,1189.093,523.654z M1186.713,610.372
			c-1.37,0.719-3.718,0.568-2.961,3.753C1185.988,613.963,1186.973,612.84,1186.713,610.372z M1188.007,608.857
			c-0.16-0.289-0.325-0.589-0.491-0.89c-0.153,0.153-0.458,0.341-0.433,0.455c0.074,0.326,0.279,0.621,0.433,0.928
			C1187.669,609.197,1187.823,609.043,1188.007,608.857z M1190.249,606.634c-0.156,0.17-0.433,0.35-0.407,0.466
			c0.064,0.306,0.262,0.582,0.405,0.871c0.146-0.144,0.434-0.316,0.413-0.423C1190.598,607.242,1190.406,606.961,1190.249,606.634z"
			/>
		<path fill-rule="evenodd" clip-rule="evenodd" fill="#FFF100" d="M478.833,354.758c1.937-7.688,5.86-13.904,8.969-20.225
			c-1.315-1.952-2.803-0.966-3.979-0.86c-5.257,0.477-11.069,1.965-14.423-3.479c-3.948-6.407-1.876-12.99,1.874-18.807
			c1.278-1.979,2.688-3.242,2.063-5.965c-4.646-20.257-3.266-40.979-4.505-61.5c-0.447-7.381-1.254-14.153-4.898-21.267
			c-6.859-13.392-5.848-28.046-1.017-42.236c0.865-2.538,3.094-4.964-1.987-5.83c4.877-6.124,8.167-0.115,11.342-0.092
			c0.646,1.008,0.729,1.143,0.816,1.276c-0.075-0.049-0.161-0.15-0.225-0.139c-2.086,0.343-2.942,1.96-3.36,3.689
			c-3.341,13.834-2.894,27.365,3.658,40.293c1.579,3.117,3.338,6.314,7.853,4.748c1.258-0.438,2.558-0.2,2.496,1.206
			c-0.207,4.631,3.037,2.544,4.598,2.142c7.764-2.001,15.421-4.411,23.155-6.531c2.901-0.795,2.852-2.816,3.217-5.227
			c1.833-12.061,4.754-23.822,11.152-34.732c-1.293-0.506-2.484-0.972-4.707-1.842c5.823-5.977,12.289-10.687,16.926-17.443
			c2.73,3.293,0.698,5.097-0.064,7.122c-0.718,1.911-2.732,3.491-0.518,6.074c1.289,1.502,0.148,4.547-1.25,5.578
			c-12.804,9.442-10.841,23.429-12.909,37.407c17.511-3.743,33.87-3.354,50.282-1.927c1.713-9.871,3.361-19.245,4.937-28.631
			c0.142-0.851,0.161-2.177-0.342-2.61c-5.747-4.96-1.214-6.939,2.618-9.199c0.772-2.16-3.25-4.434,0.17-6.674
			c1.813-1.189,3.835-2.3,5.667-1.399c2.534,1.248,2.515,3.869,2.432,6.591c-0.111,3.637,4.272,5.657,2.902,10.929
			c-0.484,0.505-3.077-1.24-4.896-0.092c-2.79,10.128-3.8,20.246-3.897,30.863c7.361,1.448,14.017-2.085,21.51-2.358
			c0.802,6.842-2.775,12.313-4.577,17.913c-7.271,22.599-12.286,45.942-23.524,67.269c-5.145,9.762-11.799,18.559-16.534,28.575
			c-2.261,4.778-2.583,9.141-2.01,13.857c2.061,16.965,2.05,17.738-3.782,33.055c17.695,5.931,21.257,21.861,23.803,37.017
			c3.392,20.163,2.572,40.323-12.593,57.679c6.494,1.271,12.799,0.765,18.188,3.736c15.14,8.345,20.371,22.278,20.777,38.462
			c0.544,21.701-8.332,39.964-22.312,57.01c5.801-0.428,10.271-3.071,15.022-4.535c28.492-8.775,40.668,13.706,41.354,32.646
			c0.365,10.054-0.452,20.032-5.635,29.105c-2.065,3.615,0.735,5.012,3.262,6.095c6.232,2.675,11.463,6.847,16.437,11.231
			c13.233,11.667,12.409,26.697,6.472,41.768c-8.696,22.08-26.873,34.604-47.721,43.882c-14.135,6.29-28.481,10.787-44.394,8.902
			c-8.796-1.042-15.396-5.038-21.648-12.073c-1.726,10.205-0.887,19.68,0.295,29.065c0.827,6.556,1.428,13.221,4.244,19.421
			c4.779,10.532,7.618,12.662,20.213,14.264c-0.541,4.651-3.447,6.736-7.725,7.048c-5.001,0.366-9.199-0.53-12.27-5.534
			c-13.676-22.27-15.389-46.559-12.414-71.587c0.42-3.528-0.496-6.156-1.508-9.173c-2.474-7.367-3.741-14.814-0.639-22.742
			c6.419,2.435,2.711,8.835,6.652,12.505c2.66-10.595,7.649-19.749,12.682-29.654c-19.431-14.237-27.422-34.793-30.095-57.8
			c-0.643-5.524-3.422-11.872,2.426-17.603c4.534,13.604,4.359,28.198,12.64,40.455c0.977-12.156,2.827-23.905,9.842-34.526
			c-7.645-2.583-14.399-5.239-19.868-10.275c-2.255-2.076-5.275-1.302-7.904-1.957c-17.3-4.307-29.135-14.908-36.233-31.015
			c-7.208-16.355-9.292-33.292-5.387-50.85c0.355-1.591,0.532-3.225,3.381-4.053c-1.018,31.833,3.956,60.905,36.417,76.627
			c-8.042-23.033-11.996-46.104-4.281-70.227c-25.35-7.282-28.574-28.557-31.079-50.048c-1.007-8.641-0.945-17.402-1.533-26.099
			c-0.197-2.917,1.391-5.231,2.203-9.625c3.498,10.195,3.99,19.289,5.359,28.42c4.443-20.799,10.673-40.685,24.997-57.476
			c-3.495-2.982-8.35-2.673-11.245-6.028c-4.71,4.616-9.104,8.933-15.876,7.047c-8.976-2.5-10.088-10.73-12.009-17.903
			c-1.45-5.416-1.074-11.239-4.728-16.145c-1.211-1.626-1.633-4.658-0.015-6.413C474.108,350.629,476.042,354.131,478.833,354.758z
			 M477.779,236.805c-1.563,11.147-0.037,21.894-0.073,32.613c-0.056,17.319,2.392,34.151,11.611,49.486
			c3.477,5.784,6.518,5.886,11.154,1.776c8.556-7.581,18.67-9.536,29.561-6.939c8.396,2.003,17.206,3.305,23.445,10.548
			c22.964-30.213,31.383-65.536,41.568-101.147c-4.826,0.389-8.587,0.69-12.422,1c-0.144,5.172,2.556,8.555,5.253,11.665
			c-1.473,3.268-3.266,6.398-6.731,4.996c-7.592-3.077-6.171-10.833-7.451-17.076c-7.857-0.453-15.386-1.398-22.885-1.196
			c-10.549,0.286-21.715-1.968-30.942,5.842c-0.687,0.582-2.541,0.721-3.215,0.216c-2.919-2.18-5.523-0.643-8.415-0.025
			C497.93,230.765,488.52,236.042,477.779,236.805z M597.075,512.409c-0.122-8.842-3.712-20.561-13.26-30.063
			c-9.161-9.117-21.036-9.124-29.645,0.246c-8.952,9.743-16.839,20.739-30.457,24.809c-1.574,0.471-1.811,2.481-2.156,4.1
			c-4.615,21.712-2.225,42.559,7.763,62.436c3.521,7.007,9.278,8.404,16.706,7.099C575.596,575.838,597.127,548.88,597.075,512.409z
			 M559.694,672.333c-5.11,8.41-8.234,16.624-10.239,24.941c-1.308,5.428-5.544,11.36-1.513,17.169
			c6.682,9.628,15.142,16.008,27.842,15.959c17.913-0.068,33.476-7.209,48.763-15.07c12.338-6.344,22.237-16.08,27.809-28.674
			c8.804-19.892,1.637-39.117-24.828-49.578c-9.514,13.735-19.876,26.651-34.577,35.591
			C581.765,679.474,571.068,682.042,559.694,672.333z M516.915,499.072c3.18-1.483,3.231-1.443,5.031-3.836
			c7.065-9.4,15.776-17.185,26.856-20.852c13.557-4.486,18.478-15.028,21.196-27.063c4.256-18.846,0.482-37.021-7.105-54.419
			c-2.613-5.992-7.175-10.478-14.006-11.882c-6.282,7.288-12.97,13.882-23.072,13.482c-3.545-0.141-5.391,0.258-7.201,3.231
			c-7.258,11.932-13.565,24.042-16.774,37.972c-3.575,15.504-4.762,30.659-1.165,46.174c2.245,9.679,6.15,12.738,15.614,11.819
			C518.103,495.295,514.638,497.032,516.915,499.072z M630.591,606.017c0.28-8.163-0.785-16.224-4.923-23.255
			c-6.055-10.285-12.455-16.351-26.377-13.502c-24.616,5.039-41.538,18.896-48.158,43.597c-3.043,11.349-4.33,23.035,0.627,34.39
			c3.169,7.258,5.834,7.99,12.77,4.543c4.122-2.05,6.419-5.804,9.545-8.774c11.821-11.235,24.876-19.717,42.104-18.158
			c11.121,1.008,11.73,0.791,13.606-10.695C630.226,611.474,630.338,608.732,630.591,606.017z M551.801,353.821
			c-0.271-19.096-11.404-32.005-27.162-29.408c-13.87,2.286-29.996,2.062-35.237,20.169c-1.329,4.6-3.23,9.032-4.756,13.578
			c-0.992,2.947,0.009,5.166,2.428,7.214c9.568,8.108,20.341,14.137,31.779,19.111c2.743,1.191,4.68,0.314,6.855-1.437
			c4.301-3.457,9.059-6.798,14.5-7.427c7.054-0.814,9.079-5.022,9.891-10.936C550.599,361.056,551.23,357.443,551.801,353.821z
			 M622.195,634.211c-22.458-11.032-47.173,10.341-57.51,31.235c15.076,8.398,13.279,7.73,24.604,2.399
			C604.078,660.882,613.787,648.333,622.195,634.211z M525.162,500.389c12.323-3.858,17.768-12.849,24.172-20.734
			C539.556,483.655,531.817,490.002,525.162,500.389z M486.324,375.969c1.701,9.312,7.84,13.492,13.519,8.845
			C495.313,381.85,490.905,378.965,486.324,375.969z M545.786,588.64c3.018,0.763,4.45,3.767,7.187,4.517
			c2.053-2.876,4.001-5.604,6.942-9.728C554.056,585.59,549.921,587.115,545.786,588.64z M474.874,312.392
			c0.442,6.442,0.292,11.547,7.486,15.212C479.998,321.569,478.585,317.23,474.874,312.392z M528.28,387.735
			c5.867-0.665,9.591-2.537,14.131-7.421C536.556,382.461,532.388,383.407,528.28,387.735z M541.05,635.574
			c-0.577-0.627-0.962-1.047-1.348-1.467c-0.292,0.317-0.82,0.635-0.818,0.95c0.002,0.502,0.359,1.001,0.567,1.501
			C539.9,636.28,540.351,636.003,541.05,635.574z"/>
		<path fill-rule="evenodd" clip-rule="evenodd" fill="#FFF100" d="M212.729,882.749c0.982-9.994,4.824-18.374,9.692-26.193
			c2.899-4.654,5.386-9.401,7.538-14.412c3.582-8.338,7.478-9.652,15.266-6.635c9.369,3.63,19.656,3.415,29.558,1.755
			c11.214-1.88,22.459-3.802,33.668-5.487c14.649-2.203,12.431-6.218,9.094-16.144c-3.423-10.183-8.535-19.749-13.992-29.032
			c-3.4-5.779-4.475-12.707-8.977-17.884c-5.75-6.613-8.546-15.209-14.585-21.609c-3.706-3.928-1.875-8.508-0.073-11.848
			c2.108-3.904,6.276-3.722,10.273-1.213c10.694,6.714,23.434,9.809,32.948,18.724c1.435,1.344,3.291,2.36,4.76,3.831
			c1.805,1.807,3.132,5.029,6.711,2.835c3.141-1.925,2.981-5.396,2.62-7.979c-1.661-11.807,1.493-22.934,3.788-34.25
			c1.555-7.667,2.319-15.492,3.644-23.209c1.2-6.985,2.024-14.137,4.229-20.815c2.048-6.211,4.682-6.231,10.164-2.427
			c11.726,8.139,20.929,18.707,29.781,29.709c1.685,2.092,3.438,4.044,6.415,5.459c4.409,2.095,8.26,6.429,8.848,12.068
			c0.342,3.282,1.547,6.046,3.853,10.183c9.574-9.79,18.432-19.209,27.69-28.215c9.391-9.133,18.5-18.479,26.163-29.129
			c2.484-3.454,5.7-5.583,9.685-6.965c2.046-0.711,3.489-0.541,4.963,0.899c1.547,1.514,1.367,3.203,0.78,5.07
			c-3.035,9.688-4.737,19.592-6.224,29.664c-1.328,8.99-5.086,17.714-8.492,26.269c-2.093,5.261-2.128,10.949-5.016,16.138
			c-2.904,5.213-5.376,10.484-9.989,14.437c-2.866,2.458-4.611,6.192-3.1,9.216c4.083,8.171,4.418,17.467,8.672,25.887
			c6.078-0.418,12.296,0.757,18.69-0.336c3.355-0.574,7.618,0.182,8.077,5.432c0.292,3.341,3.383,3.875,5.692,5.252
			c17.254,10.291,33.529,21.677,43.977,39.994c-4.798,5.73-10.454,2.686-14.908,0.738c-9.731-4.257-20.354-3.673-30.058-6.572
			c-7.415-2.215-14.151,1.432-21.417-1.013c-7.527-2.53-9.497-0.065-11.841,7.658c-2.519,8.296-1.801,15.226,3.785,22.546
			c8.141,10.668,15.341,22.128,22.118,33.732c3.228,5.531,5.033,12.055,6.591,18.351c1.321,5.338-9.483,11.854-14.999,8.825
			c-8.681-4.769-17.541-9.229-21.257-19.935c-2.774-7.987-9.197-14.115-14.258-20.862c-3.243-4.322-12.051,0.325-15.035,7.053
			c-2.565,5.792-0.453,11.623-0.58,17.263c-0.294,12.966,0.358,25.974-0.371,38.983c-0.426,7.602-2.964,14.768-3.837,22.244
			c-0.715,6.121-4.9,9.748-9.563,12.52c-6.866,4.084-10.962,2.223-11.947-5.33c-1.459-11.229-2.175-22.555-3.567-33.793
			c-1.81-14.639-2.652-29.368-5.027-43.968c-1.35-8.292-6.289-10.511-13.132-11.661c-6.062-1.018-12.291-1.523-17.848-4.453
			c-5.425-2.859-9.973-1.805-15.18,1.331c-16.1,9.698-33.52,13.737-51.548,6.643c-6.175-2.43-12.186-5.613-18.63-7.291
			c-10.467-2.725-21.323-0.958-31.991-1.875C228.002,882.319,220.831,883.645,212.729,882.749z M333.4,835.806
			c-4.67,5.583-2.414,11.354,0.399,15.689c5.538,8.534,7.551,22.107,22.453,18.409c1.861,2.54-1.2,4.211,0.264,6.387
			c4.038,6.007,18.122,6.962,22.51,1.384c3.098-3.937,7.564-3.409,9.419,1.113c2.467,6.011,13.14,9.694,18.342,5.988
			c2.153-1.534,4.787-4.239,4.274-6.749c-1.778-8.725,2.031-17.186,0.566-25.934c-0.438-2.612,0.693-7.169,5.121-7.825
			c3.532-0.523,4.879,1.607,7.12,4.439c3.265,4.133,5.907,9.359,10.669,12.484c2.848-4.22,0.585-12.17-4.512-15.605
			c-2.949-1.988-5.09-4.509-6.88-7.333c-2.346-3.697-4.999-7.772-2.017-12.181c2.979-4.401,7.167-2.49,11.076-1.237
			c0.853,0.274,1.957-0.017,2.68,0.404c4.003,2.336,6.776,0.387,8.529-2.868c1.824-3.388-0.391-14.217-2.623-15.394
			c-1.644-0.868-3.167-0.548-4.451,0.618c-4.056,3.676-10.268,2.678-14.434,7.049c-1.12,1.175-6.714,4.448-10.468,1.328
			c-0.883-5.186,6.647-5.768,5.509-10.319c-1.34-5.353,2.344-5.879,5.503-6.515c2.006-0.403,4.355-0.29,5.858-1.529
			c3.801-3.129,10.72-0.798,12.554-6.665c1.635-5.24-1.077-10.362-2.35-15.366c-0.577-2.273-3.296-3.646-6.172-1.423
			c-2.793,2.16-5.788,2.037-8.897-0.124c1.838-3.273,2.83-6.526,5.452-8.961c2.328-2.163,2.691-4.324,1.219-7.82
			c-2.104-4.995-5.485-8.61-9.036-12.288c-7.96-8.245-19.051-8.336-27.793-5.486c-15.464,5.041-26.593,16.849-35.072,31.014
			c-5.265,8.798-9.051,18.189-11.606,27.892c-3.289,12.5-10.021,25.31-0.504,38.183c1.039,1.406,1.092,3.453-0.39,5.092
			c-1.571,1.734-3.179,0.418-4.325-0.239C338.686,839.869,336.25,837.853,333.4,835.806z M338.205,874.925
			c-7.453-8.254-14.364-15.905-15.008-27.219c-0.461-8.126-3.719-10.83-11.668-9.946c-11.136,1.239-22.354,2.818-33.277,4.57
			c-12.17,1.953-23.714,3.419-35.722,0.876c-2.433-0.515-3.771,1.083-5.208,2.615c-6.188,6.594-9.756,14.567-13.16,22.847
			c-2.675,6.505,0.732,7.527,5.308,7.435c6.82-0.138,13.507,0.552,20.539-0.78c11.702-2.215,23.981,1.013,33.829,6.707
			c10.079,5.826,19.584,6.948,30.139,5.075C323.085,885.49,332.335,883.766,338.205,874.925z M326.742,813.243
			c2.333-2.123,4.029-4.028,5.479-6.454c7.94-13.29,11.945-28.464,20.257-41.583c9.37-14.781,21.39-25.964,38.833-30.284
			c2.862-0.709,5.923-2.641,5.51-5.122c-0.975-5.853-0.209-13.063-5.299-16.974c-10.038-7.709-17.46-17.694-25.902-26.81
			c-1.732-1.868-3.92-4.973-7.299-3.473c-3.418,1.518-5.204,4.264-5.449,8.361c-0.332,5.563-1.596,11.062-2.213,16.616
			c-1.66,14.943-6.688,29.486-5.394,44.775c0.508,5.98,0.281,11.759-2.227,17.415c-2.118,4.775-5.044,5.573-9.737,3.369
			c-5.767-2.709-8.75-8.119-13.146-12.112c-5.554-5.042-11.703-8.686-18.282-12.183c-3.771-2.005-6.033-2.341-9.662-0.254
			C306.045,768.814,314.909,791.258,326.742,813.243z M463.347,682.823c-3.575,0.561-5.38,3.315-7.792,5.254
			c-4.381,3.524-7.327,8.309-11.484,12.147c-9.366,8.646-19.127,17.126-26.158,28.074c-1.605,2.497-2.462,3.675,0.65,5.906
			c6.797,4.873,13.726,9.703,18.586,16.834c2.118,3.106,4.462,1.145,6.227-0.668c5.348-5.496,8.142-12.484,10.354-19.589
			c3.24-10.403,6.468-20.869,8.619-31.527C463.386,694.121,465.757,688.644,463.347,682.823z M407.29,891.774
			c-3.056,0.352-5.488,0.805-7.93,0.88c-6.697,0.208-8.517,2.265-7.663,9.228c0.66,5.35,1.663,10.661,2.178,16.022
			c0.896,9.34,2.667,18.794,2.493,27.979c-0.175,9.322,1.349,18.283,2.042,27.4c0.093,1.24,0.979,3.188,3.039,3.172
			c1.621-0.012,1.833-1.219,2.536-2.504c5.222-9.572,3.909-20.316,5.586-30.486c0.508-3.076,1.74-5.978,0.991-9.791
			c-1.588-8.109-1.901-16.702-1.161-24.955C409.954,902.568,408.724,897.259,407.29,891.774z M507.076,832.692
			c1.682-3.583,0.109-5.874-2.38-7.963c-10.785-9.058-22.414-16.841-35.045-23.063c-4.237-2.087-8.922-2.853-13.006-0.027
			c-3.874,2.68-5.601,6.741-3.41,11.4c0.966,2.057-0.64,3.542-0.411,5.636c0.875,8.049,1.951,9.983,9.897,9.995
			C477.568,828.691,492.177,830.901,507.076,832.692z M472.887,916.857c-1.033-4.304-1.158-8.831-3.132-12.311
			c-6.421-11.322-13.813-22.059-21.447-32.622c-1.416-1.962-2.76-2.927-5.051-2.317c-2.562,0.68-2.431,2.768-2.763,4.88
			c-0.827,5.286,2.842,9.029,4.792,13.075c2.982,6.196,8.455,11.199,11.405,17.405C460.133,912.206,464.298,917.07,472.887,916.857z
			 M420.961,879.562c2.938-1.521,5.739-2.333,5.9-5.589c0.163-3.272-0.789-6.262-5.206-7.038
			C419.733,870.894,419.603,874.704,420.961,879.562z"/>
		<path fill-rule="evenodd" clip-rule="evenodd" fill="#FFF100" d="M511.59,1505.27c-4.238,26.908,5.242,53.869-0.383,80.074
			c1.273,3.107,3.88,0.51,5.256,2.666c-1.063,2.736-4.862,2.791-5.729,5.977c-1.947-1.535-3.352-2.645-4.959-3.912
			c0.292-2.402,2.229-4.084,2.616-6.654c1.879-12.439,1.069-24.812-0.096-37.189c-0.845-8.949-1.696-17.863-1.011-26.877
			c0.518-6.807,0.366-6.82-5.831-11.189c-7.931,10.287-17.521,18.723-28.896,25.154c-9.339,5.281-19.217,8.707-29.823,10.316
			c-18.27,2.777-30.225-4.182-36.723-21.523c-0.862-2.301-0.71-5.039-3.868-8.045c-3.244,29.227-13.147,56.693-8.952,86.889
			c-0.995,0.785-3.388,0.07-5.134-0.266c-0.697-29.25,6.167-57.312,11.149-87.389c-5.902,5.467-10.913,9.664-16.55,13.055
			c-20.66,12.428-47.436,8.154-62.387-10.648c-9.367-11.779-6.443-24.691-1.858-37.42c0.531-1.469,1.378-2.826,2.351-4.779
			c-5.168-0.672-9.931-0.879-14.491-1.953c-20.014-4.707-32.396-17.742-34.503-38.158c-2.291-22.182,1.558-42.459,24.126-55.418
			c-9.981-6.809-19.558-12.957-28.174-21.311c-2.75,5.828-5.532,11.047-10.788,14.094c3.765,13.389,3.765,13.389-4.001,27.162
			c7.631,11.443,6.783,18.762-2.574,30.191c-0.434,17.77,3.93,32.883,15.265,44.922c-1.555,3.633-4.768,2.213-6.47,3.293
			c-2.178,4.426,2.225,9.693-2.508,13.93c-2.635-5.021,0.777-11.344-3.194-14.602c-2.569-2.104-7.388-1.463-11.312-2.072
			c-2.298,6.646,0.088,13.186-2.331,19.268c-3.537-5.867-1.208-12.605-2.605-18.598c-2.625-1.143-4.767-0.65-7.336,0.455
			c0.185,6.641,4.271,13.381,0.889,19.594c-2.973-11.25-13.168-19.684-13.906-32.873c1-1.473,4.174-0.451,6.193-2.316
			c0.911-2.945-2.379-4.709-2.405-8.031c4.815-1.904,4.812-7.016,6.741-11.377c-7.458-3.035-16.603-4.225-15.229-16.223
			c3.522,3.164,3.494,9.346,9.826,9.139c0.1-8.082-0.208-16.285,2.931-23.961c-11.777-3.775-13.466-6.26-10.368-15.307
			c2.456,3.145-0.126,9.326,6.793,9.631c0.197-10.904-0.537-21.918,2.498-32.57c0.534-1.877-1.589-2.566-2.709-3.635
			c-3.27-3.123-4.663-6.873-4.39-12.836c3.594,4.236,3.429,9.734,8.535,10.822c2.169-1.781,2.929-3.996,2.915-6.682
			c-0.084-15.461,7.415-26.604,19.969-34.852c1.768-1.158,3.871-1.461,3.843-4.807c-0.216-26.643,12.801-44.799,36.608-55.779
			c0.623-0.285,1.231-0.605,2.885-1.418c-23.063-22.639-32.555-48.389-13.059-77.133c12.711-18.74,32.521-25.16,55.479-23.607
			c-0.549-6.76-0.912-13.994-0.285-21.219c1.37-15.777,9.878-26.627,23.031-34.758c18.271-11.293,37.776-15.129,58.877-11.363
			c6.271,1.119,11.305,4.826,16.655,7.982c1.323-3.092,2.506-5.762,3.617-8.463c6.249-15.197,19.64-20.164,33.997-23.711
			c3.562-0.879,7.261-1.266,10.764-2.324c15.025-4.537,31.619,4.275,35.916,19.48c1.864,6.598,3.125,13.363,4.77,20.527
			c5.168-0.93,10.511-1.955,15.875-2.84c6.747-1.109,13.61-0.891,19.556,2.439c17.343,9.719,20.337,19.109,14.794,34.436
			c-1.155,3.195-2.306,6.395-3.67,10.182c13.808,1.398,25.809,5.867,36.416,14.135c21.831,17.02,23.125,41.826,2.95,61.051
			c-1.635,1.557-3.312,3.066-5.178,4.789c18.346,12.293,33.767,26.777,43.181,46.799c2.617-0.076,3.831-2.363,5.687-3.553
			c8.281-5.291,16.706-6.469,25.232-0.916c2.56,1.67,4.454,1.893,7.422,0.775c10.416-3.918,17.785,1.195,18.053,12.363
			c0.102,4.293-0.581,8.604-0.906,12.908c14.349,5.752,18.484,15.926,13.387,32.945c15.902,3.701,19.805,9.082,16.604,22.879
			c9.134,8.08,9.772,9.471,6.527,15.752c-1.933-4.609-2.791-9.615-8.522-11.486c-3.979,3.297-9.003,5.064-14.756,4.031
			c-1.525-0.277-3.221,0.205-3.118,1.777c0.236,3.594,0.039,7.553,2.35,10.504c2.107,2.691,5.287,3.498,8.763,2.264
			c1.708-0.605,3.922-0.467,5.186-1.529c4.51-3.783,9.186-3.881,14.585-2.268c6.184,1.844,9.14,6.492,11.426,11.756
			c1.884-0.383,2.561-1.268,2.33-2.99c-0.088,0.506-0.318,0.967-0.178,1.16c5.915,8.244,4.772,17.773,5.407,27.125
			c0.904,13.283-1.724,26.541,0.208,39.791c0.224,1.533-0.734,2.574-2.887,2.773c-2.61-2.926-1.362-6.727-1.586-10.133
			c-0.705-10.754-0.618-10.76-12.149-12.82c-0.471,8.686-1.987,17.131-5.521,25.137c-2.598-9.16,2.972-17.891,0.3-27.084
			c-2.62-0.625-5.264-1.256-8.039-1.918c-5.836,6.906-3.024,17.107-9.295,23.855c-1.305-6.211,0.902-11.896,1.961-17.713
			c0.547-3,2.771-5.539-1.001-8.92c-2.381-2.135-1.633-7.189-0.662-11.172c1.379-5.652,1.884-10.629-5.719-13.518
			c-7.526-2.857-7.689-6.162-3.11-12.566c0.899-1.254,1.246-2.908,2.129-5.068c-4.92-1.41-7.273-5.188-9.095-9.459
			c-2.088-4.898-2.173-10.078-7.894-14.021c-4.951-3.412-1.238-11.113-0.108-16.844c-1.47-2.26-4.024-2.311-5.988-3.357
			c-7.232-3.863-11.446-11.279-9.05-18.982c1.516-4.873-0.064-6.893-3.534-9.496c-4.767-3.576-9.215-7.672-10.551-14.285
			c-6.652,2.822-13.318,3.734-20.354,1.506c-3.853,19.432-15.457,31.344-33.4,37.365c-0.657,2.709,1.741,3.631,2.785,5.232
			c12.921,19.797,18.127,41.264,12.711,64.488c-3.754,16.113-16.593,27.203-30.622,27.527c-4.527,0.107-9.078-0.857-14.299-1.406
			c1.092,10.809,0.881,21.514-0.533,32.188c-2.744,20.727-10.44,38.654-28.681,50.49c-17.402,11.291-29.239,9.434-42.823-6.367
			C513.281,1505.697,512.798,1504.801,511.59,1505.27z M237.357,1457.928c1.621-0.037,3.243-2.174,5.288,0.486
			c-5.997,5.797-13.717,4.762-21.155,4.479c0.851,5.938,4.132,8.863,8.529,8.125c7.569-1.27,15.02,0.025,21.979-0.043
			c4.984-6.305-0.203-10.67-1.736-15.834c-0.853-2.877-5.719-0.127-4.393-4.184c0.259-0.598,1.34-1.168,0.143-1.793
			c-0.154-0.078-0.721,0.641-1.096,0.99c-3.154,1.814-6.072,3.932-8.523,6.65c-0.614,0.467-1.229,0.936-1.841,1.398
			C235.601,1459.281,236.474,1458.541,237.357,1457.928z M715.528,1391.82c-0.476-0.184-0.952-0.363-1.427-0.545
			c0.131,0.508,0.264,1.016,0.395,1.523c7.918,8.072,26.9,5.684,32.334-4.062c0.564-1.014,0.653-1.93,0.489-3.174
			c-1.046-7.924-9.634-11.621-17.06-7.35c-5.787,3.324-13.693,4.303-14.144,13.289
			C716.108,1391.615,715.732,1391.713,715.528,1391.82z M338.862,1166.586c-20.562-6.865-46.57,1.84-57.834,20.188
			c-15.392,25.07-12.039,45,7.205,67.447c2.887,3.365,6.846,5.855,8.919,10.154c-25.992,5.791-43.73,29.793-41.217,55.305
			c8.476,3.486,13.867,10.461,12.241,20.672c-2.014,12.639,4.803,19.031,13.493,25.07c3.21,2.23,6.689,4.068,9.918,6.27
			c3.514,2.395,7.275,4.58,9.887,8.592c-4.924,1.943-9.041,4.371-12.628,7.67c-11.9,10.939-14.702,25.223-14.192,40.361
			c0.904,26.906,16.315,41.209,43.287,40.988c3.314-0.029,6.999-1.027,9.646,2.086c0.07,1.982-1.6,2.762-2.501,4.016
			c-8.459,11.758-9.417,30.369-1.993,39.459c10.929,13.381,31.464,18.988,47.723,12.746c13.402-5.143,24.232-13.594,31.414-26.445
			c0.955,0.764,1.805,1.092,1.939,1.605c1.278,4.877,2.364,9.805,3.633,14.682c4.934,18.957,14.61,25.375,34.009,22.572
			c2.274-0.33,4.568-0.719,6.762-1.375c25.32-7.602,45.912-20.871,55.851-46.826c0.615-1.602,1.792-1.904,3.642-1.617
			c0.814,4.488,3.812,7.971,6.247,11.75c9.633,14.959,20.926,17.875,36.472,9.395c4.448-2.426,8.64-5.219,12.244-8.9
			c18.927-19.338,21.472-43.432,19.994-68.67c-0.17-2.896-1.453-5.756,0.092-8.607c25.738,5.012,41.983-4.328,45.621-27.553
			c3.371-21.521-1.069-41.66-14.952-59.135c-1.636-2.057-4.222-3.754-3.542-7.062c1.991-1.893,4.718-1.752,7-2.73
			c27.75-11.924,33.398-33.473,21.43-57.314c-7.734-15.408-20.448-27.105-35.656-35.689c-7.404-4.178-7.415-5.045-1.294-10.578
			c3.229-2.92,6.332-6.08,8.963-9.535c9.636-12.65,10.73-29.168,1.996-38.951c-11.815-13.232-26.302-21.607-44.718-20.799
			c-4.206,0.182-5.097-1.422-4.057-4.781c1.494-4.838,3.414-9.539,5.002-14.348c4.195-12.719,1.281-19.965-10.469-26.246
			c-5.222-2.791-10.815-3.959-16.693-3.371c-17.77,1.766-34.719,6.432-48.013,18.805c-5.709,5.314-12.165,7.412-18.899,9.627
			c-10.111,3.33-14.661,1.791-21.449-6.574c-4.921-6.062-9.17-12.695-15.013-17.842c-1.843-0.211-1.79,2.811-4.439,1.869
			c-0.831-12.693-11.278-14.326-20.802-16.775c-7.693-1.973-15.528-1.275-23.333-0.105c-13.957,2.096-26.728,6.99-37.536,16.197
			C335.094,1126.906,334.664,1145.867,338.862,1166.586z M490.618,1090.092c-1.59,5.23-0.49,10.482-3.703,14.848
			c-4.266-3.705-4.36-9.896-9.314-12.912c-0.271,6.873-5.472,13.775-11.513,15.461c-5.632,1.572-11.298,1.594-15.079-3.531
			c-2.689-3.643-2.368-7.947,0.345-11.812c3.637,2.822-1.5,6.67,1.745,9.369c3.009,2.504,6.405,3.355,10.278,3.082
			c4.956-0.352,9.104-2.842,9.495-7.443c0.394-4.617-4.292-6.4-8.311-7.885c-3.36-1.242-6.907,0.615-11.081-0.361
			c8.217-5.189,11.881-4.793,20.521,1.48c9.039-8.137,7.825,5.514,12.738,5.932c0.992-3.869-0.184-8.375,3.196-11.523
			c3.741-0.123,3.77,4.113,6.737,5.66c0.52-6.676,6.241-8.66,9.991-12.279c-7.275-6.162-14.248-11.627-24.399-8.639
			c-10.922,3.213-22.389,4.104-32.547,10.428c-8.292,5.164-11.488,12.68-13.871,21.172c-0.604,2.154,0.314,3.855,1.958,5.498
			c6.67,6.674,13.071,13.574,18.467,21.4c2.034,2.953,5.299,6.072,9.223,4.969c8.886-2.498,18.59-2.875,25.608-10.537
			c5.016-5.479,11.862-8.639,18.709-11.492c8.353-3.479,8.737-4.619,4.657-13.445c-6.945,5.502-9.263,5.348-15.896-1.246
			c-1.375,0.619-1.092,3.742-3.617,2.848C492.81,1096.713,493.902,1092.832,490.618,1090.092z M750.376,1390.4
			c-6.674,4.586-13.24,8.729-20.865,10.734c-1.352,0.355-2.982,0.936-2.749,2.566c0.693,4.895-0.844,9.557-1.131,14.336
			c-0.099,1.633,0.209,3.543,1.968,4.018c9.512,2.57,19.073,4.955,29.119,7.533C756.92,1415.746,757.374,1402.721,750.376,1390.4z
			 M252.685,1324.787c-12.886,4.104-22.445,18.219-21.8,31.379c9.63,0.85,16.385,7.361,23.463,12.387
			c3.267-1.074,5.521-2.785,6.975-5.141c2.167-3.508,5.932-6.92,2.039-11.58C256.955,1344.164,253.771,1335.178,252.685,1324.787z
			 M250.442,1396.268c3.05-3.547,5.011-7.143,5.889-11.258c1.666-7.826-1.9-11.627-9.719-12.496
			c-6.184-0.686-12.9,2.113-18.606-2.385c-0.187-0.148-0.811,0.256-1.583,0.523c-2.569,10.576-3.288,21.312-0.856,32.807
			C235.273,1390.713,237.538,1390.078,250.442,1396.268z M713.021,1322.309c0.072-3.988-0.762-7.828-2.223-11.438
			c-1.801-4.447-9.179-8.822-11.422-6.748c-4.538,4.199-8.395,9.184-12.205,13.988c-3.613,4.549-0.65,9.729,3.065,13.52
			c4.256,4.35,9.519,6.377,15.541,4.207C712.107,1333.561,712.664,1327.918,713.021,1322.309z M685.738,1309.393
			c2.19-1.986,3.633-4.035,5.603-4.961c8.586-4.033,7.542-11.621,7.125-18.828c-0.29-5.016-2.931-8.885-8.23-9.551
			c-4.697-0.594-9.498-0.279-10.271,6.08c-0.351,2.887-3.449,1.314-4.457,2.859c4.044,5.043-5.644,8.486-1.248,13.756
			C677.678,1302.842,681.367,1306.438,685.738,1309.393z M249.973,1400.896c-6.448,6.219-13.96,8.422-22.77,7.777
			c-1.625,9.379-5.192,18.195,1.16,27.494c4.445-4.207,6.949-10.117,13.16-9.242c7.018,0.992,9.787-3.508,11.101-8.547
			C254.096,1412.73,255.472,1406.418,249.973,1400.896z M727.711,1354.719c2.418-11.244-3.938-19.678-13.567-18.332
			c-5.79,0.811-10.416,3.348-12.889,9.982c-1.485,3.982-2.437,7.217,0.434,9.744c2.825,2.49,7.186,4.332,10.771,1.697
			C717.097,1354.4,721.911,1353.475,727.711,1354.719z M676.163,1277.965c-9.026-6.281-14.798-6.502-23.219-1.895
			c-5.41,2.961-6.323,6.971-5.196,12.637c1.058,5.324,5.042,5.883,8.76,5.854c4.989-0.041,11.055,0.836,13.452-5.422
			C671.516,1285.074,673.094,1281.139,676.163,1277.965z M245.796,1432.844c-2.46,1.422-4.344,2.727-6.401,3.639
			c-2.274,1.012-4.758,1.545-7.066,2.49c-3.918,1.602-7.45,13.047-5.098,16.391c1.515,2.156,3.349,1.959,5.308,0.533
			c4.425-3.225,8.741-6.527,12.83-10.221C250.043,1441.453,249.516,1437.738,245.796,1432.844z M256.36,1323.889
			c-0.18,10.121,3.31,19.496,9.095,25.037C267.44,1337.506,264.037,1327.668,256.36,1323.889z M229.175,1404.469
			c7.302,1.971,12.62-0.514,17.899-4.633C238.867,1393.633,235.491,1394.393,229.175,1404.469z M503.925,1083.936
			c0.137,3.43,4.616,3.84,3.075,7.172c-1.226,2.652-4.014,0.289-6.05,1.656c2.806,3.34,5.198,6.477,9.872,3.584
			c3.853-2.385,3.436-5.703,1.772-9.021C510.823,1083.791,508.314,1081.449,503.925,1083.936z M231.315,1360.303
			c0.999,8.512,2.937,9.443,16.096,8.301C242.589,1363.744,237.807,1361.217,231.315,1360.303z M507.767,1497.385
			c-2.663,3.625-2.905,6.697-0.981,10.271c1.562-1.129,3.892-0.553,5.359-2.943C511.48,1502.297,509.978,1500.098,507.767,1497.385z
			 M755.322,1387.301c-0.154-0.152-0.341-0.459-0.455-0.432c-0.326,0.074-0.621,0.279-0.929,0.432
			c0.153,0.156,0.337,0.457,0.456,0.434C754.719,1387.666,755.019,1387.463,755.322,1387.301z"/>
		<path fill-rule="evenodd" clip-rule="evenodd" fill="#FFF100" d="M1369.116,1306.375c-2.96,7.135-7.827,9.85-15.566,9.799
			c-8.745-0.062-17.585-0.025-26.287,0.604c-14.149,1.027-26.939-4.434-40.323-6.906c-12.578-2.322-24.929-5.924-36.58-11.363
			c-4.423-2.066-7.399-0.467-10.229,2.523c-2.881,3.041-6.578,5.588-4.237,10.961c4.967,11.398,11.738,21.723,18.13,32.309
			c4.452,7.383,11.122,12.086,17.387,17.531c8.726,7.58,15.358,16.764,20.333,27.531c4.101,8.869,6.649,18.635,13.223,26.389
			c2.109,2.488,3.757,5.68,0.391,9.164c-3.26,3.371-5.708,1-8.411-0.354c-13.436-6.729-22.801-18.031-31.938-29.344
			c-7.63-9.449-16.433-17.74-24.651-26.584c-6.976-7.51-15.208-13.855-22.903-20.693c-10.248-9.107-15.173-8.754-25.7-0.088
			c-9.397,7.732-19.639,12.152-32.689,7.922c-5.072-1.645-10.775-3.076-16.529-3.518c-4.092-0.312-8.078-3.887-11.129-6.553
			c-10.201-8.916-21.099-17.729-27.101-30.162c-5.537-11.473-10.351-23.316-16.03-34.758c-1.688-3.4-3.37-5.838-7.02-5.391
			c-4.13-10.627,6.365-21.5-1.275-32.064c5.533,1.375,6.716-4.193,7.881-7.414c7.445-20.631,20.195-37.557,36.425-51.648
			c14.596-12.674,31.64-21.086,50.519-26.529c13.781-3.973,27.188-3.883,40.435-0.816c17.803,4.125,30.234,16.521,40.306,31.156
			c2.381,3.461,4.846,5.145,8.889,4.871c8.013-0.541,16.027-0.855,23.86,1.465c6.612,1.959,13.345,0.191,20.028,0.531
			c16.215,0.826,31.83,4.51,47.472,8.062c11.027,2.508,21.735,6.381,32.197,11.219c-2.823,4.473-6.396,6.719-11.562,7.973
			c-19.562,4.75-39.581,5.809-59.38,8.609c-15.129,2.143-30.06,6.305-44.586,11.428c-1.815,0.637-2.937,2.119-3.833,4.264
			c7.767,6.248,17.286,9.441,25.929,14.189c11.652,6.402,23.606,12.35,34.755,19.539c10.341,6.67,19.672,14.883,29.714,22.043
			C1361.86,1304.295,1365.63,1305.006,1369.116,1306.375z M1181.615,1320.938c3.551-4.764,6.884-5.156,11.625-1.051
			c3.605,3.121,8.251,5.52,12.837,6.875c3.816,1.127,19.377-14.293,19.234-18.803c-0.276-8.73-1.904-17.387-5.507-25.324
			c-1.467-3.232-4.136-5.602-0.601-8.771c3.512-3.143,6.738-2.258,10.375,0.354c4.418,3.174,8.116,7.316,13.237,9.578
			c4.322,1.906,12.872-0.799,12.839-5.191c-0.051-6.807,2.411-13.117,2.314-19.928c-0.076-5.365-3.914-10.482-1.618-15.582
			c2.832-6.289,1.525-12.648,1.825-18.996c0.655-13.893-6.386-25.533-13.206-36.242c-6.232-9.785-13.843-19.246-27.153-22.699
			c-9.224-2.393-18.483-4.055-27.721-4.711c-5.77-0.406-12.746,0.412-17.945,2.607c-11.392,4.809-22.799,9.713-33.474,16.477
			c-17.407,11.031-30.267,25.719-39.404,43.641c-2.945,5.781-7.437,11.453-7.608,18.279c-0.123,4.975,2.028,10.031-2.817,14.133
			c-0.678,0.576-0.938,3.68,0.65,4.363c4.438,1.906,3.272,5.596,3.202,8.828c-0.105,4.754,1.129,9.145,3.919,12.781
			c3.18,4.143,5.546,8.641,7.526,13.385c4.697,11.254,10.611,21.832,18.778,30.895c10.544,11.695,23.288,19.244,39.187,22.395
			c10.982,2.174,20.187,0.344,28.902-5.695c8.161-5.648,7.519-10.541-1.744-14.857
			C1185.988,1326.145,1183.961,1323.441,1181.615,1320.938z M1254.016,1290.047c30.841,10.996,59.743,20.537,91.145,17.459
			c0.23-2.486-0.331-3.447-1.316-4.152c-5.949-4.271-11.386-9.221-17.138-13.723c-9.516-7.445-20.84-11.199-30.897-17.432
			c-5.191-3.215-11.508-5.166-16.685-8.828c-8.083-5.715-13.354-3.432-15.307,6.252
			C1262.452,1276.395,1261.584,1283.574,1254.016,1290.047z M1364.364,1216.83c-1.71-3.154-3.716-3.977-6.479-4.408
			c-7.093-1.113-14.449-2.328-21.013-4.521c-8.568-2.861-17.335-4.557-25.943-5.48c-12.589-1.348-25.434,0.305-38.116-1.973
			c-6.104-1.094-12.108,2.758-11.173,6.445c2.024,7.975,3.153,16.064,3.887,24.221c0.488,5.439,4.836,6.377,7.827,4.488
			c5.513-3.48,11.677-3.385,17.459-5.09c16.605-4.896,33.553-7.969,50.885-9.008
			C1349.351,1221.045,1356.9,1219.502,1364.364,1216.83z M1288,1400.488c-5.38-11.506-8.746-24.48-21.135-30.996
			c-11.06-5.812-16.786-16.301-22.866-25.918c-4.642-7.342-9.006-15.188-12.803-23.17c-1.012-2.127-2.523-2.932-4.356-2.018
			c-5.837,2.896-11.398,6.873-12.989,13.232c-1.138,4.547,4.569,6.51,7.547,9.082c10.883,9.395,21.982,18.529,32.201,28.674
			c9.678,9.607,16.875,21.451,27.584,30.188C1283.456,1401.414,1284.766,1402.715,1288,1400.488z"/>
		<path fill-rule="evenodd" clip-rule="evenodd" fill="#FFF100" d="M1085.487,943.889c8.528,15.031,10.287,31.48,12.785,47.75
			c0.998,6.498,1.486,13.178,6.135,18.58c1.565,1.822,1.798,4.529-0.328,6.209c-1.886,1.494-2.175,4.33-6.211,4.154
			c-14.428-0.627-28.906-0.48-43.356-0.154c-10.206,0.229-20.423,0.734-30.492,2.975c-3.72,0.826-7.285,0.434-7.582-5.154
			c-0.164-3.098-1.564-6.268-2.964-9.131c-2.713-5.557-4.018-11.082-2.492-17.299c0.634-2.576-0.231-5.486-0.021-8.211
			c0.442-5.693-4.257-12.664,3.201-16.678c5.438-2.928,8.516-8.973,15.213-10.311c4.631-0.924,9.076-3.066,13.417-5.072
			c7.194-3.322,14.5-5.861,22.544-4.477C1072.425,948.287,1078.627,943.702,1085.487,943.889z M1093.295,1010.4
			c-1.165-6.201-2.104-11.354-3.106-16.492c-1.878-9.631-3.334-19.379-5.904-28.822c-1.13-4.16-3.006-10.137-8.89-9.395
			c-6.487,0.812-12.991,1.334-19.43,2.115c-10.054,1.223-19.574,5.41-28.73,9.902c-4.12,2.021-7.448,4.807-8.056,10.137
			c-1.345,11.83-0.076,23.121,5.729,34.08C1047.204,1010.758,1069.755,1009.482,1093.295,1010.4z"/>
		<path fill-rule="evenodd" clip-rule="evenodd" fill="#FFF100" d="M1048.743,909.698c-12.156-1.11-24.088,2.036-36.215,1.724
			c-4.363-0.111-6.942-1.257-8.742-5.687c-4.393-10.823-8.664-21.578-9.733-33.372c-0.45-4.969-6.167-9.314-2.813-14.61
			c2.894-4.567,8.766-5.529,13.369-7.448c16.49-6.877,33.354-12.856,50.074-19.183c2.141-0.809,4.215-1.836,6.402-2.47
			c4.146-1.2,7.496,0.403,6.971,4.751c-1.954,16.145,3.038,31.207,6.268,46.583c1.586,7.543,2.457,15.266,6.828,21.886
			c1.94,2.941-0.464,4.606-1.63,6.605c-1.356,2.322-3.007,3.711-6.188,2.688C1065.308,908.588,1056.929,910.29,1048.743,909.698z
			 M1058.369,839.953c-6.538-0.021-11.223,2.589-16.15,4.409c-10.905,4.026-21.917,7.778-32.71,12.08
			c-3.448,1.374-9.006,1.864-8.099,7.596c1.675,10.6,4.151,21.096,8.841,30.796c1.438,2.97,2.851,7.517,7.426,7.167
			c17.057-1.301,34.086-2.976,51.787-1.59C1065.007,879.872,1059.157,860.423,1058.369,839.953z"/>
		<path fill-rule="evenodd" clip-rule="evenodd" fill="#FFF100" d="M740.948,1032.861c-6.44-3.984-9.632-11.891-14.137-18.615
			c-4.443-6.633-7.326-14.23-13.19-20.031c-3.375-3.338-1.551-8.756,3.149-11.367c14.76-8.207,29.579-16.365,42.841-26.91
			c4.816-3.83,8.859-8.629,13.313-12.927c4.241-4.089,6.452-3.486,7.866,1.91c6.202,23.655,12.433,47.294,25.436,68.433
			c2.823,4.592-0.298,7.662-3.055,10.695C781.467,1017.693,761.224,1019.875,740.948,1032.861z M772.862,954.139
			c-14.129,15.125-33.135,22.926-49.155,35.385c4.805,10.818,11.231,20.402,17.582,29.908c17.181-5.127,33.765-10.578,51.972-9
			C786.357,991.385,779.698,973,772.862,954.139z"/>
		<path fill-rule="evenodd" clip-rule="evenodd" fill="#FFF100" d="M651.566,868.042c-14.94-0.322-27.326,9.743-42.042,9.777
			c-5.308,0.013-11.09,1.53-15.584-3.289c13.883,3.38,26.215-1.436,38.616-6.388C638.651,865.709,645.039,863.976,651.566,868.042z"
			/>
		<path fill-rule="evenodd" clip-rule="evenodd" fill="#FFF100" d="M1068.225,1443.029c10.433-8.98,29.565-8.691,39.603,0.449
			C1094.438,1441.363,1082.018,1443.955,1068.225,1443.029z"/>
		<path fill-rule="evenodd" clip-rule="evenodd" fill="#FFF100" d="M672.445,1037.859l-0.273,0.211c0,0,0.087-0.318,0.068-0.324
			C672.22,1037.738,672.445,1037.859,672.445,1037.859z"/>
		<path fill-rule="evenodd" clip-rule="evenodd" fill="#FFF100" d="M805.31,383.274c-0.946,4.452-0.946,4.452-5.264,5.071
			C801.087,383.825,801.087,383.825,805.31,383.274z"/>
		<path fill-rule="evenodd" clip-rule="evenodd" fill="#FFF100" d="M770.954,437.265c0.511-5.656,2.906-9.228,8.212-9.554
			c2.659-0.164,3.313,2.773,2.341,4.578C779.392,436.22,776.154,438.65,770.954,437.265z"/>
		<path fill-rule="evenodd" clip-rule="evenodd" fill="#FFF100" d="M907.85,451.479c1.927,1.276,3.747,2.48,5.622,3.721
			c-0.278,4.621-3.058,6.945-6.958,8.089c-1.29,0.378-2.987-0.322-3.271-1.766C902.408,457.277,905.167,454.526,907.85,451.479z"/>
		<path fill-rule="evenodd" clip-rule="evenodd" fill="#FFF100" d="M576.776,1393.65c-15.271-6.193-30.531,0.842-46.009-1.701
			c0-7.209,1.224-14.332-0.258-20.842c-2.938-12.906-0.395-22.592,11.996-28.678c0.715-0.35,1.138-1.295,2.199-2.561
			c-9.709-1.961-18.175,3.963-27.47,2.328c-1.183-14.645-3.941-28.711-10.436-42.609c7.186-8.85,17.041-15.754,27.751-23.271
			c5.707,19.939,15.353,37.557,20.057,57.012c0.809,3.354,0.551,5.414-2.466,5.598
			C562.412,1356.178,573.288,1372.873,576.776,1393.65z M551.177,1335.301c-4.985-19.09-13.312-35.48-19.081-53.012
			c-8.375,3.564-13.185,10.557-19.226,16.072c-0.93,0.848-1.216,1.887-0.686,3.098c5.125,11.693,7.057,24.189,8.815,37.361
			C531.088,1337.885,540.326,1334.459,551.177,1335.301z M572.087,1388.227c-1.751-12.387-18.615-42.037-25.556-45.398
			c-4.72,3.881-9.466,7.789-14.318,11.783c3.318,8.674,1.875,17.715,1.625,26.586c-0.184,6.479,1.996,8.812,8.317,7.92
			C551.941,1387.736,561.795,1387.58,572.087,1388.227z"/>
		<path fill-rule="evenodd" clip-rule="evenodd" fill="#FFF100" d="M377.403,1345.473c-15.292,1.557-30.684-1.098-45.976,2.793
			c-5.546-13.197-4.178-27.496-6.754-41.516c-3.319-0.305-5.59,4.664-10.458,1.223c15.667-8.314,26.304-22.523,43.206-29.102
			C367.921,1299.598,369.239,1322.777,377.403,1345.473z M355.364,1283.352c-11.296,4.512-20.361,11.287-26.611,19.543
			c-3.948,5.213,0.965,14.512,1.1,22.043c0.048,2.746,0.411,5.523,0.991,8.203c0.801,3.697,0.626,7.758,3.299,10.865
			c12.569-3.021,25.26-1.479,37.983-2.707C366.778,1321.826,364.209,1301.934,355.364,1283.352z"/>
		<path fill-rule="evenodd" clip-rule="evenodd" fill="#FFF100" d="M399.284,1354.568c2.64,16.529,12.785,30.457,12.649,47.385
			c-0.021,2.781,0.279,5.5-3.492,5.123c-12.594-1.25-25.217-0.215-37.881-0.24c0-7.062,0.199-13.641-0.06-20.201
			c-0.229-5.787,2.905-12.162-2.163-18.273c1.464-1.525,2.396-4.648,3.457-10.135c1.958,7.355,5.175,4.805,8.261,4.07
			C386.531,1360.754,391.712,1355.922,399.284,1354.568z M396.727,1358.279c-7.254,3.379-12.809,6.68-19.074,8.291
			c-1.637,0.418-2.893,1.191-2.913,3.227c-0.101,10.934-2.416,21.834-0.737,32.854c11.505,0,22.671,0,34.311,0
			C409.393,1386.562,399.137,1373.975,396.727,1358.279z"/>
		<path fill-rule="evenodd" clip-rule="evenodd" fill="#FFF100" d="M342.601,1477.102c-3.767-10.338-2.184-20.385,3.979-29.041
			c5.225-7.34,19.604-5.162,23.68,2.85c0.567,1.115,0.567,1.115-1.424,4.723c-1.336-1.576-2.507-3.246-3.956-4.621
			c-6.509-6.168-15.475-4.146-18.962,3.975C342.867,1462.096,342.89,1469.523,342.601,1477.102z"/>
	</g>
</g>
</svg>
