<?xml version="1.0" encoding="utf-8"?>
<!-- Generator: Adobe Illustrator 16.0.0, SVG Export Plug-In . SVG Version: 6.00 Build 0)  -->
<!DOCTYPE svg PUBLIC "-//W3C//DTD SVG 1.1//EN" "http://www.w3.org/Graphics/SVG/1.1/DTD/svg11.dtd">
<svg version="1.1" id="Layer_1" xmlns="http://www.w3.org/2000/svg" xmlns:xlink="http://www.w3.org/1999/xlink" x="0px" y="0px"
	 width="1600px" height="1800px" viewBox="0 0 1600 1800" enable-background="new 0 0 1600 1800" xml:space="preserve">
<g>
	<g>
		<path fill-rule="evenodd" clip-rule="evenodd" fill="#FFF100" d="M1199.221,1233.158c-1.783-1.357-3.566-2.719-6.458-4.92
			c-0.211-0.021-0.533,2.199-1.785,2.625c-4.358-3.217-8.639-6.379-13.404-9.898c-7.647,23.887-19.075,45.35-31.788,66.049
			c-10.721,17.449-20.765,35.367-33.154,51.779c-7.852,10.4-17.896,17.891-29.236,23.977c-9.696,5.201-20.15,9.574-28.541,16.43
			c-5.676,4.637-14.123,6.393-17.105,14.58c-6.302-3.576-10.805,0.756-16.909,5.406c2.312-11.064-2.528-19.852,0.188-29.678
			c-6.074,0.85-10.261,1.23-10.603,8.023c-0.345,6.867-5.209,13.045-2.488,20.711c1.064,2.998-2.753,6.572-2.346,10.645
			c-3.468-2.609-1.271-5.613-1.073-8.105c0.686-8.553,1.863-17.076,3.014-25.588c0.502-3.695-2.494-6.703-4.342-5.648
			c-3.213,1.836-3.932-1.518-5.744-1.334c6.579-3.068,12.116-7.096,10.819-16.33c6.167,1.477,11.196,2.32,16.211-0.65
			c2.532-1.5,4.087,0.744,4.251,3.32c0.168,2.662,0.038,5.342,0.038,8.068c4.133,0.602,5.747-1.23,6.944-4.35
			c2.387-6.209,5.438-12.17,7.625-18.439c1.998-5.736-1.271-11.041-2.938-16.24c-5.781-18.039-11.144-36.152-13.276-55.156
			c6.617,19.441,9.972,39.947,18.173,58.662c1.911,0.598,3.719-0.424,3.57-1.414c-1.209-8.08,2.592-15.221,4.059-22.764
			c2.226-11.449,2.796-23.006,2.853-34.57c0.114-23.574,3.186-46.916,4.916-70.361c0.658-8.914,0.771-17.973-0.709-26.828
			c-2.887-17.26-1.405-34.588-1.124-51.865c0.387-23.621-1.441-47.088-3.692-70.537c-0.883-9.219-0.939-18.402,0.241-27.483
			c2.101-16.152,3.308-32.27,0.475-48.396c-2.688-15.312-1.007-30.603,0.226-45.804c1.826-22.542,4.596-44.975,4.645-67.672
			c0.066-31.397,4.979-62.422,8.419-93.553c2.911-26.348,3.413-52.708-0.368-79.027c-0.502-3.499-1.534-6.922-2.437-10.884
			c-9.239,1.143-18.569,1.479-26.864,5.517c-3.777,1.839-6.299,5.808-10.865,7.409c-3.64,1.276-0.335,5.055,0.514,6.938
			c4.15,9.224,6.255,19.003,8.482,28.732c0.873,3.816,1.029,7.81-1.651,11.574c-8.845,12.429-16.588,25.594-25.501,38.005
			c-9.623,13.401-22.292,15.704-37.393,12.683c-9.809-1.962-19.925-2.415-29.711-4.462c-5.482-1.146-11.024-2.809-15.824-6.444
			c-6.297-4.768-13.74-7.74-20.4-12.079c-15.125-9.855-29.566-20.319-39.275-35.955c-1.549-2.494-3.353-2.721-4.784-1.151
			c-12.952,14.201-31.303,20.761-45.832,32.65c-7.609,6.226-15.14,12.724-24.276,16.263c-12.167,4.712-23.586,11.052-36.363,14.604
			c-9.807,2.727-17.184,10.913-25.374,17.129c-20.407,15.49-27.797,39.361-39.711,60.307c-5.627,9.892-11.688,19.532-15.803,30.298
			c-5.423,14.19-7.3,28.997-9.029,43.863c-2.589,22.248-4.272,44.671-3.534,66.979c0.583,17.638,0.053,35.003-2.646,52.331
			c-2.109,13.535-3.273,27.191-3.786,40.797c-0.786,20.824,1.143,41.576,6.003,61.953c0.523,2.191,1.727,3.377,3.743,4.332
			c9.132,4.324,19.348,5.221,28.607,9.406c3.906,1.764,6.575-3.67,9.698-5.998c0.371,0.334,0.743,0.666,1.113,1
			c-1.15,1.641-2.072,3.523-3.495,4.873c-2.9,2.754-4.896,5.607-10.581,3.01c-7.56-3.457-16.349-4.221-24.609-6.143
			c-0.192-0.705-0.677-1.104-1.292-0.668c-0.183,0.129,0.151,0.988,0.249,1.512c0.725,2.354,0.112,5.781,4.379,5.289
			c0.41-0.047,1.294,0.768,1.337,1.242c1.012,10.66,9.91,17.791,12.427,27.707c4.063,16.004,10.582,31.193,15.605,46.881
			c4.156,12.98,9.317,25.98,17.934,37.184c4.917,6.395,8.182,14.051,13.026,20.51c12.274,16.365,19.679,35.635,31.729,52.08
			c0.894,1.223,0.81,2.475,1.249,3.686c1.863,5.145,4.006,7.562,10.997,7.232c19.291-0.908,38.677-2.238,58.031,1.896
			c5.072,1.084,11.198,0.857,16.841,1.125c3.225,0.15,3.887-1.559,3.725-4.154c-0.151-2.447-0.403-4.891-0.604-7.264
			c3.663-2.297,4.412,1.668,7.005,3.088c0.633-3.746,3.796-4.609,6.918-6.029c-3.185-3.861-6.26-5.393-10.94-4.596
			c-11.242,1.908-22.466-2.535-33.919,0.092c-16.79,3.85-32.582-4.006-48.966-5.551c-9.504-0.896-12.351-10.875-17.612-17.168
			c-4.084-4.891-6.765-10.986-9.847-16.666c-3.159-5.818-3.25-12.6-4.275-18.828c-1.408-8.541-3.505-17.322-1.252-26.34
			c1.057-4.23-5.863-11.461-11.155-12.758c-2.535-0.619-5.215-0.303-7.684-1.707c-2.254-1.281-4.83-1.998-7.275-2.967
			c2.431-3.898,9.448-5.225,13.874-2.672c4.787,2.766,12.519-0.004,14.131-5.582c2.805-9.705,5.808-19.365,6.926-29.506
			c1.496-13.582,4.603-27.113,4.718-40.686c0.094-11.061,2.564-21.877,1.945-32.896c-0.201-3.592,2.815-6.156,2.416-10.152
			c-0.532-5.305-3-9.09-6.827-12.578c2.888-1.053,4.991-0.666,6.891,0.625c2.193-0.9,0.511-3.326,2.651-5.254
			c0.116,7.834,1.023,14.842,3.905,22.627c1.937-4.162,2.399-10.674,7.895-4.727c2.654-2.641,4.855-4.83,7.222-7.186
			c-5.367-4.553,0.19-10.168-1.078-15.576c2.463,3.754,7.47,3.836,9.594,8.215c1.429,2.945,5.083,1.141,7.072-0.424
			c2.249-1.764,4.521-2.82,7.247-3.139c3.849,7.508,9.654,9.5,17.125,5.391c3.943-2.166,8.904-1.891,11.871-1.082
			c6.853,1.873,12.687,0.77,18.859-1.404c0.912-0.32,2.108,0.164,3.532,0.85c-5.067,2.873-10.125,5.527-13.653,10.348
			c-1.173,1.604-2.755-0.455-2.458-5.154c-10.01,2.133-20.428,3.236-21.875,16.516c3.373,1.805,7.42-1.523,10.479,1.717
			c0.265,0.281,1.636,0.111,1.853-0.24c4.263-6.949,10.841-3.973,16.634-3.811c9.368,0.256,19.007,1.887,26.12-8.803
			c0.574,4.303,0.942,7.066,1.492,11.188c7.06-7.578,14.878,0.031,22.223-2.293c2.879-0.912,5.67,0.189,8.517-0.309
			c2.519-4.602,5.565-9.068,1.938-14.332c6.424-3.684,11.283-2.617,14.35,3.926c1.913,4.082,7.404,9.723-3.126,12.594
			c4.937,2.406,8.747,4.377,12.652,6.137c4.704,2.119,2.812,8.283,7.025,10.791c7.188-3.537,9.325-11.66,8.31-17.334
			c-1.135-6.326,0.283-12.285-0.498-18.387c-0.524-4.104-4.635-3.932-5.828-7.283c6.67-6.242,9.721,1.82,14.694,4.367
			c0-2.691,0-4.695,0-7.205c-3.931,0.029-7.169-1.914-10.52-4.725c4.353-3.088,8.069-1.209,12.013,0.863
			c2.232-8.047-1.253-15.629,0.605-23.178c2.664,4.41,1.946,9.311,1.37,15.393c5.8-2.275,8.041-7.35,11.911-9.809
			c1.903,7.463,0.975,15.924,7.795,21.76c1.424,1.221,0.862,2.891-0.015,4.197c-1.392,2.078-1.315,4.801-4.97,7.58
			c8.203-1.605,12.338,6.451,19.166,3.387c5.361-6.959-1.1-13.73,0.363-21.594c-3.676,2.197-6.512,3.891-9.346,5.584
			c-0.392-0.588-0.784-1.176-1.175-1.762c13.526-6.303,20.817-19.535,33.482-28.682c0,10.631,0,20.182,0,29.736
			c-0.575,0.043-1.149,0.084-1.725,0.129c-0.579-6.867-1.156-13.736-1.865-22.158c-5.031,4.254-8.994,7.549-12.884,10.924
			c-2.155,1.871-2.14,4.383,0.188,5.557c8.569,4.33,8.16,12.664,6.312,19.074c-2.118,7.354,0.422,14.471-1.636,21.566
			c-1.515,5.229-0.747,11.047-3.668,16.012c-1.262,2.148,2.318,2.584,1.606,4.576c-2.5,1.262-3.882,4.455-7.472,3.67
			c-0.314,4.709,1.29,9.963-5.865,11.135c-1.993-4.936-5.89-9.738,1.285-14.029c0.322-0.193,0.688-0.879,0.58-1.152
			c-3.677-9.111,4.277-18.725-1.207-27.73c-0.449-0.738-1.059-1.381-1.334-1.736c-7.366-0.5-8.251,6.098-10.645,9.918
			c-2.525,4.037-7.397,8.066-4.7,14.355c1.356,3.16-3.792,4.947-1.843,9.871c1.587,4.006,4.221,6.949,6.021,10.545
			c0.818,1.635,2.021,2.305,4.335,2.061c6.906-0.727,10.388,2.773,10.936,9.893c0.196,2.52-0.341,4.854-0.863,7.256
			c-1.018,4.674-2.369,9.426-0.949,14.186c3.095,10.377-4.879,18.512-5.492,28.213c-0.396,6.279-2.203,12.451-0.164,18.703
			c11.22,2.1,12.748,3.838,11.88,13.428c-10.603,1.684-8.721,2.201-11.947,13.875c-3.561,12.891-0.901,27.035-8.185,38.807
			c-2.209,3.572-1.342,7.369-1.552,10.496c-0.602,8.938-6.476,6.414-11.235,6.969c-7.654,0.895-15.256,1.242-22.723,4.178
			c-8.227,3.234-17.061,5.08-25.771,6.836c-2.839,0.57-3.949,0.838-4.754,3.926c-1.072,4.111-4.34,5.766-8.71,3.723
			c-10.091-4.715-11.244-3.9-10.335,7.234c0.143,1.762,0.511,3.502,0.953,6.438c16.822-1.08,33.782-3.967,50.615-2.422
			c-0.02,1.26-0.037,2.52-0.057,3.775c-8.365-3.736-16.449,0.611-24.879,0.549c-8.029-0.062-18.727-4.287-26.271,4.426
			c1.173,2.76,1.788,5.951,0.781,9.75c-2.267-0.654-3.39-1.064-3.284-4.221c0.13-3.863-0.979-7.826-6.99-6.027
			c-2.858,0.855-6.495,1.041-9.214,0.02c-5.179-1.945-7.441,0.139-9.294,4.473c-5.537,12.963-9.176,26.48-11.533,40.318
			c-0.568,3.34-1.039,6.029-4.948,7.197c-2.158-3.498,2.444-8.018-1.756-11.547c-5.826,3.975-11.057,9.492-18.858,9.566
			c-7.124,0.07-14.22,0.152-21.194,1.98c-6.964,1.824-14.188,1.25-21.238,4.336c-6.688,2.926-14.61,3.76-21.943,4.975
			c-25.669,4.256-51.528,7.4-77.354,10.654c-10.689,1.346-21.569,1.328-32.191,3.006c-8.078,1.277-15.862,4.404-24.273,3.186
			c-1.748-0.254-3.31,0.619-4.045,1.971c-3.543,6.496-10.076,6.496-16.074,7.748c-1.062,0.221-1.817,0.277-3.006-0.189
			c-14.062-5.529-40.389-9.467-54.097-4.537c-2.584,0.932-6.661-1.48-7.692,3.344c2.276,2.602,5.994,3.24,8.24,6.068
			c1.188,1.494,2.909,1.256,4.31-0.805c1.177-1.732,3.381-1.193,4.376,0.365c1.398,2.191-0.771,3.195-2.268,3.826
			c-2.498,1.053-5.165,1.701-7.761,2.521c0.365-0.363,1.106-0.852,1.035-1.066c-0.36-1.059-1.122-0.732-1.83-0.295
			c-3.31,3.07-2.457-1.508-3.404-2.211c-2.789-2.08,2.609-1.188,1.315-3.588c-2.937,0-6.14,0-10.12,0
			c4.096,5.127,9.369,9.186,8.51,16.959c6.597-7.934,14.929-9.445,23.948-8.494c1.083,0.113,1.888,1.83,1.44,4.021
			c-7.681,4.039-18.656-1.32-25.011,7.799c0.474,1.012,3.038-0.029,3.257,2.17c-5.099,4.617-9.864-7.469-15.252-0.043
			c2.731,1.17,6.989,1.373,5.011,6.16c-0.821,0.211-2.183-0.736-2.361,1.016c1.104,0.893,2.113,0.479,3.121,0.023
			c4.917,0.439,9.598-1.537,14.705-0.9c3.603,0.445,5.697,1.385,7.04,4.492c5.235-2.654,10.591,1.449,15.883-0.336
			c7.794-2.627,16.028-3.492,23.857-6.168c15.32-5.238,29.972-12.184,45.224-17.486c6.99-2.432,14.368-4.488,22.211-3.734
			c14.335,1.377,29.168-0.949,42.799,5.453c10.998,5.166,21.986,10.424,32.552,16.395c3.009,1.701,6.098,2.717,9.171,3.848
			c8.017,2.953,15.603,6.805,22.108,12.184c8.504,7.033,18.574,8.316,28.789,9.447c12.964,1.438,26.045,1.154,38.724,5.637
			c8.318,2.939,16.573-1.773,24.685-3.869c2.754-0.709,3.709-3.934,4.455-6.412c3.919-12.992,5.964-26.354,7.311-39.834
			c0.183-1.812,0.754-3.494,3.469-4.143c1.229,7.121-1.895,13.529-2.6,20.18c-1.108,10.438-3.306,20.66-6.806,30.586
			c-0.701,1.992-1.589,3.678-3.866,4.133c-8.063,1.615-16.152,3.117-24.172,4.92c-2.167,0.49-3.895,0.301-5.74-0.75
			c-8.378-4.768-17.404-4.883-26.838-4.938c-16.615-0.096-32.731-2.826-45.797-14.869c-5.925-5.461-14.301-6.438-21.351-9.957
			c-10.001-4.99-20.313-9.324-30.198-14.605c-12.736-6.805-26.939-6.885-40.902-8.318c-20.879-2.148-38.295,7.621-56.632,14.805
			c-11.646,4.561-23.35,9.289-36.105,10.439c-8.805,0.797-16.801,5.525-26.093,5.357c-2.125-0.037-6.396,1.617-9.227,3.043
			c-3.926,1.977-1.212,4.004,0.03,4.678c-5.11,0.193-10.892,3.324-17.122,4.414c-16.951,2.963-34.052,3.73-51.11,4.775
			c-25.432,1.561-50.827,5.143-76.305,4.201c-19.85-0.732-38.956,5.715-58.733,4.357c-4.726-0.324-8.24,4.451-13.123,3.811
			c-3.472-3.41-1.728-10.391-6.872-11.777c-8.152-2.193-16.272-4.734-25.169-3.682c-11.711,1.387-21.76,7.715-33.12,9.881
			c-0.848,0.162-1.729,0.146-2.546,0.209c-2.372-8.098,19.268-36.838,39.248-51.812c-18.512-2.162-35.798-1.818-52.936,3.379
			c-2.325-4.631-0.214-7.07,3.292-9.621c14.102-10.25,29.968-13.779,47.062-13.057c2.876,0.119,5.706,0.029,8.887-1.811
			c-5.909-5.395-13.355-6.678-19.919-9.209c-16.368-6.322-32.037-14.188-48.257-20.799c-3.253-1.326-3.69-5.877-0.549-7.926
			c2.588-1.689,5.596-2.865,8.565-3.812c20.524-6.553,40.992-5.598,61.116,1.473c10.385,3.645,20.894,3.652,31.652,3.961
			c13.682,0.389,27.015,4.025,39.884,8.551c16.159,5.68,32.448,10.623,49.23,14.154c13.394,2.82,26.593,6.576,39.853,10.018
			c16.04,4.162,32.197,4.551,48.52,1.996c13.708-2.146,27.456-4.033,41.172-6.123c15.289-2.328,29.763,2.465,44.397,5.297
			c7.651,1.479,14.158,1.699,19.423-5.018c1.496-1.906,3.619-3.902,6.218-3.455c11.171,1.932,21.81-1.984,32.671-3.021
			c15.036-1.436,30.17-2.225,45.111-4.896c21.995-3.936,44.588-4.445,66.077-11.189c3.781-1.188,6.673,0.963,10.173,0.926
			c9.726-0.104,18.107-4.582,27.252-6.238c0.847-0.154,2.299-0.746,2.424-0.529c4.129,7.133,8.3,1.234,11.978-0.252
			c6.01-2.434,11.475-6.252,17.534-8.51c4.405-1.637,6.462-4.432,7.71-8.469c2.688-8.705,4.719-17.605,9.017-25.797
			c1.402-2.67-1.008-4.678-3.634-4.775c-14.073-0.52-27.553-5.26-41.787-5.227c-8.44,0.02-16.989,0.168-25.422-0.676
			c-3.907-0.391-7.421,1.217-10.721,2.061c-4.681,1.197-2.362,5.605-0.605,8.871c3.544,6.58,3.495,6.607-1.5,9.684
			c-2.024-6.549-9.09-9.684-10.799-16.668c-0.499-2.041-3.991-1.541-6.206-1.262c-3.087,0.385-5.918,0.139-7.952-2.293
			c-7.452,5.24-15.876,3.779-23.341,2.943c-3.105-0.348-7.081-0.199-9.561-0.037c-10.414,0.674-20.366-3.033-30.763-2.053
			c-3.463,0.324-7.858-2.34-10.94-4.244c-3.415-2.111-2.241-6.607,2.454-8.314c-5.96-7.625-8.859-16.221-13.024-24.137
			c-4.196-7.979-6.633-16.65-13.104-23.742c-3.112-3.41-3.498-9.975-5.575-15.068c-4.931-12.092-6.879-25.32-14.921-36.277
			c-2.068-2.82-2.846-7.225-2.755-10.865c0.241-9.553-2.73-18.469-4.827-27.496c-1.723-7.416-1.454-14.891-2.242-22.301
			c-1.875-17.623-1.766-35.438-8.811-52.285c-2.101-5.025-2.6-10.635-6.333-15.131c-1.011-1.219-0.495-3.854-0.389-5.822
			c0.958-17.928,1.614-35.83,0.843-53.816c-0.371-8.631,1.509-17.355,2.337-26.043c0.51-5.352,1.156-10.701,1.405-16.068
			c1.143-24.56,4.184-48.968,5.427-73.54c1.008-19.947,6.334-39.279,13.436-58.013c5.46-14.402,15.801-26.383,20.287-41.301
			c6.021-20.021,14.861-38.962,23.727-57.792c6.562-13.937,14.327-27.479,23.588-39.826c14.451-19.266,25.844-40.109,35.38-62.113
			c8.603-19.855,19.19-38.464,35.187-53.477c7.16-6.72,16.052-10.641,24.541-15.259c6.511-3.543,6.927-6.23,1.281-10.795
			c-13.72-11.096-25.581-24.185-38.977-35.633c-13.478-11.518-28.205-21.471-41.5-33.125c-8.664-7.592-18.238-13.962-26.744-21.776
			c-7.033-6.46-15.493-11.438-23.233-17.128c-7.742-5.692-15.692-11.142-23.339-16.992c-11.231-8.596-22.921-16.595-34.109-25.245
			c-13.187-10.197-26.801-19.663-41.811-26.983c-2.264-1.104-4.11-2.397-3.111-5.054c0.913-2.43,2.876-2.692,5.474-2.028
			c2.427,0.62,5.128,1.048,6.779,2.667c4.312,4.229,6.596,0.698,7.3-2.353c1.532-6.621,5.524-11.676,9.148-16.976
			c12.236-17.894,27.668-31.589,49.003-37.96c7.721-2.305,15.294-2.827,23.258-3.104c5.859-0.204,11.875-2.847,17.88-4.229
			c3.625-0.835,7.348-1.146,11.002-1.506c0.053-4.481-3.911-5.041-5.44-7.514c-0.093-0.151-0.028-0.593,0.05-0.616
			c0.25-0.075,0.54-0.021,0.813-0.032c0.975-0.016,1.951-0.016,3.377-0.016c-1.781-2.129-2.921-2.831-3.335,0.136
			c4.021-11.077,3.976-22.691,4.379-34.226c0.08-2.261-1.964-2.498-3.924-2.594c-19.164-0.938-38.294-2.138-57.529-1.415
			c-10.97,0.413-22.004-0.842-33.006-1.421c-13.063-0.688-26.001,0.595-38.959,2.054c-18.494,2.083-36.816,5.251-54.916,9.383
			c-11.368,2.594-22.543,6.305-33.412,10.74c-9.595,3.916-19.638,6.209-29.817,7.962c-0.652,0.112-1.46,0.378-1.969,0.121
			c-16.387-8.289-31.947-0.487-47.564,2.824c-9.041,1.917-12.552,1.857-15.769-3.667c-2.249-3.863-1.801-6.924,0.91-10.452
			c7.482-9.739,14.671-19.705,24.093-29.959c-15.51-3.334-28.53-9.779-43.21-10.701c3.314-8.487,33.049-19.446,62.274-22.915
			c-14.609-11.352-31.137-16.787-44.416-28.884c-0.466-1.374,1.171-3.114,3.029-3.547c13.211-3.079,25.62-9.731,39.762-8.758
			c6.605,0.455,12.733,1.929,18.091,5.956c3.367,2.529,7.134,2.866,10.889,1.423c15.993-6.152,32.527-5.879,49.346-5.619
			c13.857,0.214,27.746-2.274,41.639-3.327c19.77-1.5,39.389-4.863,59.319-4.436c14.386,0.309,28.438,3.305,42.684,4.737
			c17.66,1.775,35.215,1.328,52.749-0.834c11.102-1.369,22.285-2.531,33.378-2.111c16.517,0.625,33.006,0.332,49.506,0.502
			c18.342,0.189,36.693,2.287,55.006,1.91c13.354-0.276,26.774-1.347,40.148-2.296c22.689-1.608,45.148,2.249,67.743,2.666
			c10.832,0.2,21.379-1.833,31.903-4.663c21.478-5.774,42.641-13.424,64.966-15.035c11.47-0.828,22.941,2.106,34.229,4.754
			c10.584,2.482,20.471,7.012,30.869,10.012c3.174,0.915,5.857,2.506,6.349,5.285c-9.588-3.808-19.827-9.32-30.756-11.882
			c-17.661-4.141-35.431-7.833-54.104-3.566c-16.073,3.672-31.781,8.305-47.592,12.809c-14.548,4.145-29.752,6.75-44.851,5.53
			c-14.316-1.156-28.552-3.734-42.974-3.32c-13.17,0.377-26.318,1.888-39.481,1.972c-14.939,0.097-29.814,0.998-44.872-0.143
			c-19.135-1.448-38.488-0.762-57.744-0.988c-16.174-0.19-32.425-0.53-48.57,1.611c-8.316,1.104-16.687,2.342-25.046,2.457
			c-17.495,0.237-34.833-1.518-52.233-3.837c-19.452-2.593-39.214-2.772-58.805,0.359c-21.236,3.394-42.749,3.541-64.116,5.394
			c-11.672,1.013-23.482-0.83-35.065,2.059c-3.095,0.772-6.103,1.573-8.899,3.053c-5.028,2.66-9.337,5.404-9.202,12.457
			c0.104,5.52-1.566,11.098-2.666,16.606c-0.701,3.513,0.011,6.011,3.486,7.605c4.88,2.24,9.603,4.826,14.506,7.018
			c1.765,0.789,3.433,1.544,3.444,3.564c0.012,2.207-1.867,2.833-3.714,3.266c-4.808,1.129-9.602,2.306-14.41,3.428
			c-2.85,0.665-3.838,2.208-3.833,5.305c0.016,10.826,1.312,21.644,0.118,32.483c-0.357,3.237,0.761,5.367,4.748,5.895
			c8.236,1.089,15.809-0.84,23.357-3.682c12.095-4.553,23.783-10.382,36.58-12.808c16.603-3.145,33.253-6.082,49.946-8.699
			c23.415-3.67,46.92-2.023,70.474-1.354c11.981,0.34,24.219-0.332,36.161,0.193c10.178,0.447,20.471-0.73,30.42,1.327
			c7.537-11.718,0.506-19.904-5.2-29.247c2.124-1.327,3.497-3.839-0.895-6.138c-2.526-1.322-3.451-3.149-3.382-5.941
			c0.131-5.247-6.035-8.277-4.996-14.086c0.326-1.82-0.574-3.896,0.488-5.872c2.205,0.447,4.354,0.876,6.5,1.316
			c2.934,0.602,4.894,0.429,3.838-3.555c-0.992-3.747,1.734-1.841,3.445-2.144c-0.697,3.608-2.872,7.092,2.98,8.483
			c2.595,0.618,2.236,4.22,0.723,6.873c-1.394,2.442-3.503,4.608-3.432,7.736c0.047,2.021-0.397,4.635,2.201,5.002
			c3.207,0.454,3.062,2.182,3.265,4.657c0.577,6.977,1.339,13.959,2.529,20.854c0.582,3.377,0.406,8.417,7.041,6.629
			c-1.905,1.721-3.492,3.157-5.792,5.235c26.639,4.307,52.34,4.55,77.064,10.122c2.692-9.074,0.646-18.616,3.475-27.593
			c3.231-0.03,1.304,3.233,2.721,4.487c5.153-0.483,1.671-5.141,3.462-7.442c1.138-1.461-1.521-2.183-2.721-3.062
			c-2.942-2.155-2.282,2.748-5.185,1.958c-0.864-4.168-3.069-7.937,1.488-12.774c2.269-2.409,3.552-6.879,5.333-10.4
			c1.511-2.987,3.916-2.159,4.083-0.037c0.532,6.747,4.482,2.133,7.252,2.556c0.559,4.717,2.495,9.032-0.108,14.424
			c-1.413,2.926-3.826,0.427-4.648,2.804c-1.219,3.522-4.318,5.885-2.915,10.814c1.406,4.94,1.103,10.718-1.623,15.779
			c-4.38-0.532-1.417-5.722-4.562-7.262c-1.375,1.725-2.96,3.54-0.665,5.623c2.94,2.667,3.585,6.125,4.779,9.705
			c1.652,4.962,7.791,5.059,11.822,6.121c16.352,4.307,30.652,12.705,44.744,21.333c25.637,15.698,47.357,36.511,70.056,55.948
			c20.59,17.633,41.422,35.283,59.789,55.11c12.914,13.942,26.52,27.654,36.591,44.503c4.178,6.99,10.146,13.611,14.677,20.935
			c6.23,10.065,10.443,21.033,14.807,31.888c8.746,21.751,17.016,43.699,25.198,65.672c2.785,7.482,4.789,15.26,7.021,22.939
			c1.038,3.569,3.213,4.475,6.769,5.775c5.297,1.938,11.528,1.215,16.108,5.688c2.883,2.818,6.758,4.719,10.564,1.089
			c6.578,6.934,14.883,6.16,22.669,7.583c-17.76-1.494-35.601-2.235-52.704-10.191c-0.582,8.902,2.046,16.536,3.005,24.334
			c2.055,16.664,0.501,33.204-0.576,49.787c-1.656,25.5-6.04,50.73-7.945,76.174c-1.67,22.277-0.857,44.72-2.665,67.029
			c-1.502,18.524-3.31,37.026-4.64,55.561c-0.676,9.416,0.351,18.837,2.186,28.088c2.584,13.03,1.304,26.101-0.644,38.871
			c-2.95,19.349-0.085,38.407,1.31,57.474c1.698,23.232,1.972,46.402,1.193,69.627c-0.27,8.062,0.477,16.008,1.47,23.98
			c2.743,22.016-1.137,43.822-2.263,65.717c-0.901,17.494-1.515,35.002-2.636,52.48c-0.982,15.311-3.098,30.465-10.104,44.426
			c-3.722,7.42-1.202,14.467,1.128,21.457c1.191,3.576,3.131,6.9,4.729,10.342c0.865,1.861,1.688,3.715,0.207,5.688
			c-1.432,1.904-3.424,2.521-5.372,1.459c-7.005-3.824-11.297-0.951-14.156,5.934c5.565,1.156,0.589,7.467,5.322,10.316
			c6.738-1.275,11.618-7.271,17.706-11.031c11.756-7.254,22.312-16.314,34.59-22.879c5.314-2.84,9.717-7.314,13.354-12.254
			c16.853-22.891,31.749-46.99,45.261-72.01c7.998-14.812,15.818-29.625,20.47-45.863c1.586-5.537,0.242-10.279-5.601-12.863
			c1.572-4.559,0.281-7.652-4.106-10.127c-4.784-2.695-4.894-8.977-8.601-12.893c-1.611-1.699-3.788-3.672-4.72-5.977
			c-2.83-7.01-9.346-11.711-10.654-20.059c-0.724-4.617-5.788-8.92-9.879-12.787c-2.394-2.262-7.529-5.205-4.264-10.785
			c0.804-1.373-0.832-5.164-2.251-4.357c-5.194,2.961-1.864-1.891-2.793-2.648l0.014,0.047c0.188,0.127,0.391,0.379,0.559,0.355
			c0.322-0.047,0.878-0.217,0.896-0.383c0.392-3.602-4.223-0.566-4.572-3.822c2.842-3.309,6.213-6.859-2.609-6.982
			c-3.293-0.045-4.907-9.188-1.94-10.871c3.229-1.83,0.358-3.805-0.006-3.938c-8.587-3.113-5.562-12.049-8.932-17.734
			c-1.147-1.934,3.482-2.209,2.269-5.381c-3.444-0.193-5.342-1.035-5.156-6.203c0.186-5.133-4.104-10.264-4.965-15.631
			c-1.562-9.75-6.194-12.324-15.092-7.141c0.054-6.725,5.528-3.863,7.674-6.158c3.012-3.219,1.687-6.061-0.846-8.781
			c3.621-2.637,6.836-4.979,10.258-7.471c3.768,2.613,2.198,7.434,4.544,10.658c1.716,2.359,7.809,5.598,10.58,4.225
			c0.578-0.287,0.816-1.65,1.729-0.676c5.424,5.797,11.457,1.252,17.78,1.043c-0.121,4.512,2.981,5.682,6.718,5.605
			c9.157-0.184,17.113,2.861,24.879,7.605c5.117,3.125,11.213,4.539,17.041,5.4c-1.764,5.998,9.213,7.43,5.096,14.932
			c5.668-0.918,7.343,1.928,7.626,6.287c-1.604-0.465-3.612-1.781-4.771,0.367c-0.964,1.787,0.633,2.422,1.992,3.395
			c2.303,1.648,3.755,3.779,3.146,7.199c-0.59,3.322,1.133,3.678,6.371,11.531c1.934,2.9,3.195,7.803,3.627,12.098
			c0.171,1.705,0.5,3.398,0.735,4.949c3.207,0.574,3.067-1.275,3.444-3.117c2.751-13.473-0.168-26.881-0.27-40.316
			c-0.128-17.074,2.872-33.926,4.05-50.914c1.849-26.687,6.124-53.113,8.236-79.798c2.793-35.273,6.342-70.486,11.09-105.6
			c3.753-27.759,7.471-55.49,12.756-82.997c4.03-20.983,6.561-42.159,8.299-63.435c0.848-10.362,3.729-20.63,1.582-31.144
			c-0.039-0.191-0.277-0.341-0.712-0.849c-1.094,1.25-1.75,4.226-4.257,1.934c-0.545-0.585-1.123-1.24-1.756-0.177
			c-0.072,0.12,0.622,0.697,0.961,1.061c0.257,2.936-1.87,1.559-3.138,1.734c-0.496-5.517-6.126-3.384-8.94-5.785
			c-2.667-2.275-6.687-1.858-7.62,3.178c-2.354-1.031-4.55-0.782-4.438-4.932c0.075-2.844-5.503-3.261-8.579-4.752
			c-3.53-1.714-6.567-2.021-9.612,0.656l-0.069,0.25c0.259-3.214-1.976-5.623-4.298-5.922c-8.719-1.122-14.537-6.827-19.501-12.816
			c-3.787-4.57-8.229-7.627-12.552-11.236c-2.846-2.375-5.988-6.867-7.454-11.137c-0.762-2.228-2.807-0.833-3.449-2.342
			c1.503-0.533,2.521,2.065,4.389,0.212c-0.341-2.359,1.397-5.649-4.283-5.247c-2.019,0.144-5.319-3.757-5.692-6.93
			c-0.574-4.873-4.896-8.398-3.933-13.938c0.599-3.441-5.62-5.021-4.104-10.082c0.431-1.433-1.775-3.716,1.502-4.521
			c-0.87-2.263-1.611-4.588-2.672-6.757c-0.408-0.833-1.667-1.204-2.323-1.969c-2.592-3.025,5.908-3.458,1.713-6.533
			c-2.678-1.964-5.229-3.442-3.887-8.068c3.198,3.53,12.463-5.522,11.071,7.3c2.399-2.005,4.329-3.619,6.495-5.43
			c-3.714-1.441-2.2-5.551-4.24-7.33c-3.23,0.712-0.644,3.196-2.175,4.767c-3.125-2.423-6.861-2.679-10.994-2.559
			c3.803-4.928-1.103-12.569,6.406-15.791c-1.849-1.762-5.296-0.625-5.125-4.39c0.212-4.643,3.965-5.226,7.574-6.899
			c-3.293-4.678-0.28-7.736,1.093-11.887c2.001-6.049,4.041-11.943,7.337-17.312c4.005-6.519,4.171-14.829,9.309-20.604
			c5.218-5.868,9.44-11.966,10.729-19.902c0.095-0.583,4.221,0.708,3.432-2.794c-0.07-0.32-0.697-0.53-1.088-0.753
			c-0.116-0.066-0.372-0.068-0.449,0.011c-0.149,0.156-0.219,0.388-0.322,0.589l0.005,0.012c-1.705-2.914,0.935-4.626,1.922-6.844
			c1.855,1.89,0.744,4.473,1.251,7.601c5.707-1.569,9.469-5.663,13.316-8.482c12.451-9.128,25.86-14.684,41.268-14.761
			c5.141-0.026,9.945-1.319,14.898-2.076c2.702-0.414,2.765-1.797,1.309-3.7l-0.052-0.141c2.268,2.739,4.458-0.166,6.596-0.162
			c1.771,1.135,0.337,3.689,2.475,4.76c3.609-0.521,4.917-2.79,5.05-6.438c0.274-7.449-0.567-14.746-4.044-21.332
			c-6.715-12.72-10.05-26.803-16.412-39.642c-4.521-9.125-12.369-14.995-20.229-20.963c-7.315-5.555-15.458-10.198-20.09-18.866
			c-1.17-2.19-4.864-2.969-7.266-4.779c-2.354-1.774-4.066-3.696-5.575-6.035c0.326-0.255,0.641-0.523,0.945-0.804
			c13.474,12.634,28.23,23.708,42.796,35.003c10.081,7.818,14.715,18.995,18.242,30.416c2.893,9.362,7.64,17.813,10.957,26.924
			c2.791,7.669,4.054,15.431,3.738,23.503c-0.273,6.99,3.699,11.751,10.42,14.427c4.193,1.669,7.679,5.074,11.565,7.57
			c4.661,2.994,7.447,7.894,13.049,10.416c3.878,1.747,7.214,7.837,6.292,13.628c-0.316,1.993,0.803,2.113,1.629,2.948
			c9.862,9.971,15.993,21.948,20.761,35.107c1.788,4.938,1.719,10.079,3.957,15.125c-2.403-1.641-4.833-1.553-7.61-0.648
			c-0.611-3.808,0.229-8.162-4.852-7.919c-0.991-2.813,2.484-3.427,1.8-6.17c-1.726-1.178-5.679-0.488-5.599-4.636
			c1.501-1.2,2.817,2.294,4.643-0.003c-0.195-3.014-0.374-5.305-5.006-6.38c-3.75-0.87-6.4-5.242-7.976-9.205
			c-0.957-2.408-1.452-4.962-3.969-7.151c2.084-0.765,6.206,2.146,6.158-2.791c-6.731-1.865-11.801-5.828-14.561-12.474
			c2.62,1.415,4.314,0.231,4.793-2.267c0.586-3.048-1.992-2.296-3.388-2.891c-0.719,1.629-1.237,2.809-1.758,3.988
			c-5.108-1.397-5.604-6.032-7.994-10.139c-5.334-3.118-10.542-8.542-18.847-8.866c-2.255,4.517-1.314,10.058-0.997,15.456
			c1.529,25.932-1.13,51.644-3.405,77.419c-1.327,15.043-1.138,30.224-1.548,45.344c-0.565,20.838-2.047,41.603-5.193,62.214
			c-0.625,4.1,0.08,8.307-1.551,12.361c-0.826,2.056,1.369,3.237,3.024,2.642c5.966-2.146,12.442-0.686,18.309-2.683
			c9.465-3.222,18.271-7.858,26.528-13.534c2.445-1.68,4.293-3.894,3.854-6.715c-0.405-2.622,0.615-4.446,2.474-4.912
			c4.689-1.173,3.886-6.977,8.929-8.265c-1.923-0.552-2.757-0.792-3.335-0.957c1.055-0.85,3.28-1.853,3.232-2.73
			c-0.431-7.865,7.011-12.732,7.426-20.074c0.155-2.75,1.491-5.045,2.924-6.583c8.802-9.46,7.992-21.648,9.455-33.024
			c0.394-3.062-2.904-6.599-4.718-10.354c0.505-1.018,3.899-0.62,3.313-3.194c-0.575-2.536-2.998-2.85-5.028-3.023
			c1.609-3.724,2.732-7.271-0.703-10.833c-5.804-6.017-5.735-6.087,1.562-8.27c0.604-0.18,1.241-0.259,2.464-0.508
			c-0.061,7.815,4.445,14.535,5.79,22.169l0.2-0.349c-1.021-0.197-2.466-0.592-2.535,0.766c-0.043,0.812,1.172,2.221,2.53,0.708
			l-0.206-0.12c1.95,3.982,4.77,7.607,4.907,12.479c-0.968,0.473-2.126,1.037-3.254,1.588c3.442,13.746,3.442,13.746-1.683,15.944
			c1.216,2.303,6.176,5.398-0.684,6.671c1.402,4.669-3.556,7.244-4.002,10.29c-1.143,7.782-5.164,14.261-8.874,20.243
			c-4.268,6.879-6.765,14.962-13.067,20.792c-2.662,2.461-2.862,7.226-6.025,10.035c-4.471,3.971-7.91,9.231-14.822,9.641
			c-3.391,0.201,1.477,3.559-1.562,4.562c-0.987-1.423-1.46-3.599-3.672-3.969c-1.468,4.233-0.155,10.702-8.933,7.968
			c-2.96-0.921-6.212,4.964-10.888,5.39c-1.472-1.75,0.507-4.623-1.264-7.397c-3.347,2.957-7.243,4.24-10.647,3.696
			c-3.278,7.484-3.345,15.062-3.995,22.616c-1.267,14.693-3.564,29.301-4.763,43.999c-1.101,13.488-4.264,26.568-6.568,39.821
			c-4.457,25.624-7.581,51.426-10.752,77.236c-4.511,36.704-7.944,73.481-10.781,110.355c-2.397,31.188-6.863,62.214-9.925,93.361
			c-1.582,16.086-1.962,32.27-0.347,48.432c0.755,7.568,0.748,15.268-1.464,22.529c-2.138,7.023,0.07,13.939-0.795,20.854
			c-0.136,1.086,0.009,1.939,1.429,2.537c6.021,2.537,8.798,7.631,11.732,13.312c3.834,7.428,1.514,16.471,7.14,23.111
			c-2.286,12.846,8.732,18.459,14.232,27.227c4.05,6.455,10.372,9.266,15.569,13.764c2.838,2.455,2.788,3.781,0.135,5.93
			c8.455,2.617,14.112,9.93,23.022,10.928c2.526,0.283,2.61,3.551,1.69,5.793c1.461,1.818,2.6-0.393,3.838,0.096
			c1.123,6.207,5.061,9.434,11.04,10.652c1.678,0.342,3.563,0.781,4.833,1.814c5.038,4.096,12.949,1.758,16.379,4.666
			c4.262,3.607,9.694-2.492,11.89,3.357c1.196,3.186,3.071,0.107,4.608,0.307c9.864,1.283,18.9,5.348,28.383,7.832
			c1.594,0.418,3.784,1.619,4.204,2.936c1.849,5.818,6.782,10.809,5.034,17.686c6.729,0.715,9.899,5.402,12.256,10.998l-0.052,0.08
			c-4.7-2.783-4.376,1.408-5.294,3.82c-6.242,2.701-12.514-2.643-18.944,0.307c-2.278,1.049-1.782-2.268-2.299-3.912
			c-3.887,1.33-6.479,6.646-12.016,3.447c0.408-3.307,1.339-7.432-4.253-7.949c-1.932,1.75-3.791,3.654-5.893,5.242
			c-1.082,0.818-4.378-1.146-3.976,1.945c-8.343-0.471-17.609-0.996-26.032-1.471c2-0.795,2-0.795-0.811-5.34
			c-1.051,3.625-7.422,0.941-6.933,6.508c-5.085-1.635-10.854,2.393-16.501-0.73c-4.012-2.217-8.465-3.629-12.277-6.344
			c2.973-0.754,5.646-0.043,7.154-3.543c-6.061-5.156-13.484-4.305-20.679-4.291c-5.43,0.008-10.384-1.199-14.486-4.973
			c5.714,1.107,3.776-7.896,9.731-6.293c-1.192-2.326-2.401-2.613-4.146-2.654c-5.213-0.123-4.351,5.029-6.722,7.324
			c-1.878,0.301-3.154,1.639-5.041-1.477c-2.134-3.531-6.773-5.541-10.324-8.213l-0.2,0.104c2.758,0.918,3.796-1.586,5.501-2.768
			l-0.137-0.051c-1.732,2.09-0.094,2.859,1.472,2.91c12.943,0.436,23.527,6.32,34.237,13.018c4.185,2.617,8.999,7.418,15.39,5.205
			c7.435,7.014,17.168,3.23,24.938,3.021c10.859-0.291,21.36,2.062,31.668,1.666c8.918-0.344,18.074,0.982,27.511-1.096
			c0.645-3.305-0.637-6.471-2.99-8.854c-2.196-2.219,0.217-7.061-5.187-7.523c-5.611-0.484-11.412-1.588-12.404-9.225
			c-0.117-0.893-4.559-0.121-5.974-2.25c-2.513,1.258-1.299,3.674-2.696,5.031c-2.565-0.732-4.924-2.129-7.645-2.883
			c-11.537-3.203-24.022-1.857-35.053-7.541c-1.769-0.91-3.87-0.643-3.435-3.488c0.132-0.867,0.102-1.91-1.11-2.078
			c-8.155-1.148-10.646-8.666-15.382-13.654c-1.77-1.861-2.991-4.039-6.23-4.27c-1.721-0.121-5.124-0.635-4.378-4.27
			c-2.979,0.102-3.011-5.295-7.838-3.322c-3.189,1.305-6.273-5.697-6.321-6.635c-0.376-7.453-6.127-5.035-9.889-6.447
			c-0.771-1.697-0.385-3.535,0.649-5.682c-3.72,2.148-5.732,0.799-8.329-1.752c-8.869-8.713-13.526-19.445-15.586-31.316
			c-0.704-4.053-0.841-7.998-3.097-11.676c-2.062-3.357-2.001-6.803,2.287-9.504c-5.001-2.391-8.067-6.479-12.638-10.379
			c-6.187,14.354-12.16,28.207-18.126,42.064c-0.622,1.441-0.951,3.084-1.847,4.322c-7.982,11.02,0.748,26.734,9.792,31.049
			c3.338,1.594,3.51,2.855,2.81,5.549L1199.221,1233.158z M864.891,1257.199l0.104,0.139l0.03-0.15
			c-2.872,1.631-6.681-2.502-9.285,1.637c1.029,2.805,2.298,4.98,5.82,2.721c-0.381-2.596-3.1,0.352-3.521-2.508
			C860.433,1258.992,860.531,1252.258,864.891,1257.199z M995.238,706.521c3.749-0.411,2.556-3.084,1.918-4.929
			c-1.438-4.152-3.048-8.286-5.056-12.186c-0.981-1.904-1.05-5.685-5.802-4.193c9.968,11.817-0.098,24.312,1.487,36.573
			c2.007,0.233,3.621,0.42,4.258,0.494c2.758-5.526,4.481-10.513,3.222-15.933L995.238,706.521z M320.464,1452.529
			c2.744,0.164,4.918,1.797,8.412,0.432c2.761-1.08,7.183,2.09,10.641,3.293c2.347-2.098-2.614-3.305,0.179-5.371
			c3.753,1.922,6.854,5.215,11.714,5.422c2.856,0.119,2.403-3.148,3.416-2.768c5.956,2.242,9.086,2.668,12.869-0.371
			c2.975-2.385,3.887-0.291,5.811,1.451c-2.692,0.986-4.958,1.82-8.773,3.219c4.644,0.922,7.541,2.07,9.443,4.441
			c2.221-0.893,3.08-3.498,7.872-2.656c-4.159,2.227-5.464,4.615-3.308,6.67c5.808-2.17,11.33-4.715,9.038-12.473
			c-1.59-0.684-3.67,3.062-5.605,0.268c-4.113-5.945-9.653-6.205-15.241-3.205c-4.472,2.404-8.815-1.301-13.052,0.791
			c-3.051,1.506-6.395-0.402-7.602-4.139c4.938,0.955,4.938,0.955,9.816-3.752c-9.604-0.668-19.027-8.604-26.815,3.287
			c-2.072-4.088-5.575-5.752-8.581-3.836c-3.728,2.373-1.426,6.281-0.133,9.484c-0.32-0.678-0.81-0.941-1.487-0.525
			c-0.101,0.061-0.112,0.512-0.003,0.631C319.661,1453.449,320.095,1453.09,320.464,1452.529z M953.045,661.96
			c3.96,0.515,4.646,0.066,9.173-5.98c4.574-6.113,7.879-5.926,10.555,1.26c1.775,4.764,5.646,6.029,9.469,7.326
			c5.551,1.884,14.902,11.42,15.146,16.349c1.653,0.679,3.411-0.283,4.868-0.51c4.416-0.689,7.724-7.018,5.834-9.783
			c-8.355-12.213-19.643-21.725-29.826-32.228c-6.281-6.477-8.93-4.942-13.77,3.458c-2.051,3.561,0.178,9.054-5.114,10.862
			c-4.383,1.498-6.591,4.488-6.208,9.194c0.264,0.484,0.525,0.969,0.787,1.452c0.166-0.136,0.335-0.273,0.501-0.411
			C953.987,662.62,953.517,662.291,953.045,661.96z M775.815,1142.807l0.104-0.014c0.155-0.164,0.341-0.307,0.456-0.492
			c0.096-0.154,0.188-0.5,0.141-0.525c-4.105-2.516-5.79-1.754-7.239,3.223c1.83,1.889,3.712-1.117,5.571,0.021
			c0.687,5.35-4.368,9.43-2.792,15.27c0.622,2.307-3.41,4.66-5.844,2.42c-3.315-3.057-4.937-0.732-7.543,0.732
			c4.858,9.209,0.238,18.18-0.718,26.744c-1.343,12.025-2.773,12.398,8.653,14.799c6.718-13.906,17.068-26.67,13.624-44.326
			c3.228,2.236,5.183,1.262,7.226-1.58c1.601-2.225,4.212-4.873,2.543-6.812c-2.599-3.018-2.257-7.5-5.25-9.719
			c-2.659-1.971-5.388,1.332-8.244,1.365C776.277,1143.916,776.045,1143.193,775.815,1142.807z M732.194,480.54
			c1.918,3.55,3.622-1.585,5.754,0.019c0.958,3.328,6.162,6.375,2.396,10.37c-3.345,3.549-8.865,6.836-13.042,2.692
			c-4.741-4.706-7.922-1.395-11.924-0.144c-5.966,1.865-12.399,3.938-17.208-1.817c-3.634-4.349-6.904-9.339-7.357-15.319
			c-0.397-5.252-2.162-9.478-6.882-12.234c-3.718-2.17-7.482-4.339-9.305-9.272c-2.727,6.017,7.817,12.27-1.788,16.703
			c-5.158-2.551-3.874-9.054-8.162-13.198c-0.071,10.229,1.881,19.125,6.698,27.069c3.67,6.057,7.585,11.642,14.816,15.092
			c4.347,2.074,13.264,3.044,10.522,12.528c4.146-1.974,6.041-7.003,11.112-6.084c11.985,2.17,22.969-1.001,33.976-5.493
			c9.512-3.882,15.048-15.965,8.581-22.28c-6.447-6.295-13.568-11.992-20.617-18.27c1.543,6.597-4.117,13.769,2.477,19.602
			c0.521,0.181,0.228,1.836,1.426,0.786C733.177,481.04,732.686,480.79,732.194,480.54z M1063.602,667.436
			c0.632-2.293-0.294-4.293-0.941-6.418c-8.155-26.799-19.562-52.389-29.19-78.64c-8.544-23.297-19.25-45.312-36.028-64.097
			c-14.747-16.509-27.566-34.73-44.222-49.549c-10.95-9.743-22.098-19.289-32.642-29.458c-9.692-9.348-20.275-17.601-30.4-26.414
			c-14.783-12.871-29.783-25.43-46.004-36.533c-12.422-8.502-26.151-14.406-39.534-20.94c-7.205-3.518-15.353-5.104-21.278-6.99
			c-5.929,6.372-3.048,14.404-7.417,20.499c-6.741-4.829-7.137-7.419-3.651-22.409c-22.882-4.827-46.144-5.762-69.39-8.265
			c0.378,5.217-0.295,8.791-2.675,9.787c-5.76,2.411-4.632,8.425-6.311,12.587c-0.909,2.252-2.99,7.424-2.016,8.107
			c4.208,2.949,0.64,7.179,2.455,10.174c5.13-1.085,10.109,0.113,15.08,0.007c6.267-0.134,11.886,2.661,17.842,3.83
			c8.228,1.615,17.205,1.25,24.547,5.533c3.505,2.043,5.277,1.111,7.56-0.517c1.944-1.388,3.557-3.242,5.91-5.447
			c-6.242-1.858-2.4-5.773-1.893-8.422c0.729-3.798,4.503-2.575,7.953-2.411c-0.585,2.224,0.412,3.865,1.926,5.253
			c2.569,2.351-0.522,4.86,0.201,7.263c-7.559,0.468-4.024,8.068-7.802,11.207c7.665,1.441,13.433,5.125,18.796,9.933
			c7.695,6.898,11.877,16.336,18.157,24.255c3.049,3.845,5.332,8.89,6.259,13.717c2.841,14.828,3.684,29.71,0.47,44.792
			c-1.889,8.856,0.901,17.932,1.382,26.905c0.924,17.286,3.848,34.276,6.218,51.353c1.957,14.103,6.792,27.603,8.761,41.754
			c1.009,7.251,1.643,15.816,12.399,16.491c1.555,0.097,3.414,1.778,4.816,3.413c4.119,4.803,8.065,9.96,12.991,13.808
			c6.035,4.715,11.47,9.984,15.492,16.248c2.732,4.255,5,9,7.402,13.562c1.212,2.303,1.572,5.202,5.624,4.106
			c4.05-1.095,3.592-3.45,3.312-6.646c-0.805-9.172-1.54-18.506,5.072-26.234c13.125-15.334,29.3-24.954,49.878-25.93
			c1.976-0.093,3.443-0.431,4.591-2.035c2.597-3.631,4.533-7.635,7.195-11.3c6.28-8.643,5.055-21.75,16.156-27.745
			c0.179-0.096,0.405-0.377,0.38-0.536c-1.29-8.095,7.442-11.072,9.049-17.778c1.101-4.599,4.71-7.142,8.972-7.977
			c0.058-1.787-2.291-2.447-0.468-4.163c2.319,1.135,4.814-0.548,7.925,0.036c-5.661,8.49-12.325,16.042-12.005,26.796
			c0.178,5.988-0.67,11.396-7.854,14.146c-3.351,1.283-3.302,7.299-7.167,9.523c-0.278,0.16-0.083,2.139,0.323,2.321
			c3.153,1.419,1.195,3.094,0.392,4.729c-1.998,4.078-2.22,8.707-0.207,12.293c1.509,2.686-0.651,3.43-0.877,5.492
			c2.218,0.612,6.362-0.081,3.919,4.622c-0.538,1.035,1.388,2.712,2.481,2.736c6.06,0.133,7.96,5.72,11.929,8.526
			c5.996,4.24,9.872,10.365,15.033,15.219c6.414,6.031,11.856,12.554,16.226,20.559
			C1033.526,670.725,1048.191,665.979,1063.602,667.436z M847.384,703.937c1.199-4.845,1.235-5.469,2.979-5.864
			c10.586-2.398,16.343-11.268,23.924-17.664c2.175-1.835,2.167-3.838,1.09-6.965c-4.544-13.191-16.182-19.962-25.297-28.918
			c-3.462-3.401-6.291-7.463-10.506-10.227c-7.606-4.987-8.093-4.914-10.495,4.093c-0.63,2.363-1.507,4.665-2.386,6.951
			c-0.99,2.577-0.56,4.969,1.237,6.868c3.078,3.254,6.18,6.547,9.65,9.35c5.769,4.655,6.216,8.084,1.207,14.197
			c-6.315-11.989-6.315-11.989-15.143-5.805c-4.135-2.555-5.908-6.449-4.519-10.926c0.899-2.905-0.302-4.526-1.36-6.75
			c-1.593-3.349-5.331-3.97-7.355-6.398c-2.848-3.418-6.357-8.25-10.081-4.908c-3.317,2.977-7.709,1.348-9.871,4.312
			c-1.596,2.187-3.54,3.092-5.658,4.349c-9.02,5.353-17.9,10.763-24.949,18.95c-12.712,14.763-22.474,31.579-29.214,49.358
			c-10.262,27.066-28.894,48.688-43.221,73.056c-9.641,16.398-18.597,33.03-25.884,50.62c-7.594,18.329-12.436,37.767-22.283,55.181
			c-2.863,5.065-6.527,9.867-8.377,15.286c-7.141,20.919-12.44,42.279-13.742,64.503c-1.196,20.447-3.038,40.855-4.125,61.307
			c-0.775,14.574-3.418,28.98-3.402,43.621c0.013,12.764-0.676,25.529-0.537,38.287c0.068,6.354-2.144,13.045,0.955,19.059
			c7.776,15.094,9.958,31.529,12.1,47.982c1.675,12.879,2.606,25.865,4.606,38.689c1.926,12.352,2.907,25.357,7.696,36.637
			c7.252,17.082,12.021,35.047,19.804,51.852c5.285,11.41,11.452,22.42,16.529,33.92c3.342,7.568,7.986,14.492,10.229,22.664
			c1.439,5.24,7.28,3.973,11.391,5.484c9.231,3.396,18.641,2.092,27.931,3.127c9.648,1.072,19.176-1.752,28.926-0.365
			c2.744,0.393,8.273,1.807,10.134-3.572c-4.419-4.061-6.863-9.178-9.515-14.186c-4.659-8.807-8.874-17.836-14.559-26.102
			c-7.468-10.865-14.009-22.316-21.914-32.934c-7.985-10.723-12.483-23.359-16.817-35.945c-6.36-18.484-12.748-36.961-19.177-55.42
			c-1.072-3.078-1.604-6.576-6.639-5.688c-1.73,0.305-4.302-1.441-4.736-4.031c-1.54-9.213-5.104-17.869-7.294-26.893
			c-3.102-12.77-5.229-25.705-6.564-38.814c-2.662-26.127-0.741-52.066,2.733-77.922c1.836-13.666,2.831-27.395,2.579-41.081
			c-0.31-16.794,0.239-33.521,0.865-50.281c0.572-15.329,2.933-30.452,4.976-45.585c1.366-10.126,3.479-20.412,8.177-29.612
			c10.45-20.469,21.18-40.806,32.331-60.899c5.084-9.159,10.816-18.076,18.469-25.465c15.877-15.33,36.219-22.435,56.016-30.692
			c10.333-4.309,21.016-7.776,30.288-14.747c12.677-9.531,25.451-18.954,39.297-26.95c10.195-5.888,19.916-13.279,18.551-27.71
			c-0.175-1.845-0.242-5.673,3.721-6.08c1.181,3.112-0.983,6.753,1.749,9.563c5.811-4.303,7.561-10.972,10.313-16.959
			c0.656-1.426,0.778-3.673-0.964-4.97c-1.584-1.18-2.949-0.24-4.251,0.772c-1.223,0.949-2.547,1.773-3.744,2.753
			C865.573,695.689,859.336,704.456,847.384,703.937z M729.511,446.867c-2.872,1.807-4.189,4.386-2.653,7.78
			c0.725,1.604,2.307,2.033,4.003,1.903c4.097-0.314,2.795-3.925,3.333-5.76c9.19,1.92,10.991,12.306,18.919,15.611
			c0.137,0.058,0.155,0.408,0.23,0.63c-1.47,1.147-3.561-0.761-4.959,1.066c-0.155,2.28-0.233,4.397,3.073,4.708
			c3.389,0.319,1.517-2.844,3.141-4.301c4.442,3.968,3.22,10.194,5.608,14.628c3.242-0.865,2.158-4.438,4.323-5.766
			c6.255,8.416,3.98,19.938-5.704,28.209c-12.645,10.796-27.026,15.567-43.846,13.247c-4.248-0.586-8.864-2.22-13.277-0.817
			c-0.572,4.775,4.358,6.681,4.303,11.085c-3.475,0.422-6.512-0.131-9.303-2.49c-6.69-5.652-13.544-11.112-20.235-16.764
			c-4.112-3.473-8.975-6.532-11.875-10.866c-7.018-10.485-13.48-21.299-16.962-33.769c-2.284-8.168,1.106-15.321,1.072-24.114
			c-0.608-1.007-5.212-0.235-4.522-3.562c0.797-3.841-1.474-5.893-3.668-7.415c-8.464-5.871-16.922-11.862-26.297-16.2
			c-2.843-1.314-6.758-1.6-9.362,0.998c-8.907,8.879-17.52,18.048-22.226,30.042c-1.795,4.575-1.563,8.608,2.989,11.829
			c8.534,6.041,16.882,12.342,25.309,18.532c3.871,2.843,7.967,5.427,11.586,8.561c15.362,13.294,31.925,25.028,48.521,36.634
			c12.436,8.697,23.685,18.817,35.516,28.189c9.407,7.45,18.222,15.983,28.384,22.199c13.389,8.189,24.295,19.152,35.664,29.433
			c10.653,9.634,21.343,19.181,32.442,28.288c1.325,1.087,2.558,1.463,4.288,0.607c4.699-2.328,9.504-4.445,14.636-6.814
			c-4.716-7.89-3.208-16.706-5.729-24.864c-3.47-11.231-4.983-23.085-7.066-34.72c-2.461-13.737-1.917-27.848-4.035-41.524
			c-2.566-16.57-1.93-32.917-0.432-49.314c1.025-11.225-0.422-21.611-5.158-31.843c-3.844-8.31-8.602-15.977-14.214-23.1
			c-6.384-8.102-13.243-15.778-24.424-16.818c-15.053,22.421-15.308,22.68-21.798,22.114c1.659-2.375,5.131-2.849,5.896-5.925
			c-2.324-1.806-2.775-4.366-3.28-6.954c3.716-0.861,1.813,2.616,3.896,3.489c0.577-1.883,2.76-2.25,4.084-4.011
			c-3.309-7.194-11.396-10.317-14.908-17.325c-0.334-0.667-1.55-1.358-2.282-1.287c-5.267,0.518-9.616-2.805-14.588-3.343
			c-7.358-0.797-14.631-4.223-21.93-2.956c-16.942,2.942-33.238,9.194-50.792,9.213c-8.43,0.01-15.281,5.513-22.931,8.283
			c-6.233,2.257-4.86,4.14-1.505,8.266c3.204,3.941,8.366,2.842,11.561,6.323c5.28,5.752,14.421,5.997,19.07,12.946
			c0.776,1.161,2.405,0.342,3.728-0.171c11.57-4.488,23.53-4.298,35.156-1.123c5.252,1.434,8.298,1.148,10.805-3.571
			c1.178-2.217,2.739-4.689,5.525-4.132c2.669,0.534,4.456,2.758,5.119,5.599c0.554,2.38,1.927,4.507,1.708,7.151
			c-0.204,2.456,1.352,3.278,3.579,4.595C721.277,439.93,727.364,440.248,729.511,446.867z M939.94,624.146
			c-15.36,0.863-28.047,7.35-39.081,17.839c-4.501,4.28-6.018,9.348-6.623,15.253c-0.464,4.526-0.242,8.807,0.78,13.215
			c1.621,6.981-2.484,13.074-8.719,12.604c0.315,12.491-5.231,22.719-12.691,32.213c-1.405,1.788-1.846,4.541-0.617,6.278
			c7.59,10.739,16.608,20.248,26.961,28.319c5.401,4.211,11.587,7.416,17.402,11.1c10.883,6.89,22.083,12.713,35.29,14.033
			c10.118,1.011,20.652,0.778,30.248,3.161c11.853,2.944,17.946-2.404,24.553-9.956c8.644-9.882,14.468-21.576,21.515-32.475
			c1.46-2.259,3.821-5.076,2.75-7.97c-3.32-8.967-3.941-18.885-8.737-27.195c-2.127-3.687-1.604-9.491-7.253-11.254
			c-0.974,3.076,0.409,6.976-3.56,7.884c-3.721-1.164-3.132-5.688-7.339-8.322c0,18.253,0,35.271,0,52.549
			c-3.174-0.743-4.367,0.011-6.103,1.661c-5.196,4.938-9.987,10.556-18.625,10.059c-11.11-0.641-21.643-4.39-32.834-4.905
			c-6.154-0.284-12.654-3.438-18.025-6.836c-3.815-2.414-11.41-2.383-11.046-7.736c0.778-11.459-7.177-22.539-0.603-34.283
			c2.422-4.324,1.488-5.054,6.161-2.071c1.104-1.387,2.588-2.623,3.26-4.204c3.317-7.802,8.244-14.158,14.189-20.324
			c3.523-3.654,9.715-5.971,9.981-12.73c0.141-3.551-2.533-7.65,1.59-10.795c0.618-0.471-0.192-2.338-1.312-2.73
			c-1.403-0.492-2.902-1.077-4.478-0.015c-0.963,0.649-0.376,3.161-2.644,2.149c-3.739-4.32-7.256-8.344-3.296-14.898
			C941.907,632.321,942.783,627.699,939.94,624.146z M432.657,339.802c-0.919-19.033-0.946-19.259-16.847-17.324
			c-5.239,0.637-11.107,0.253-15.494,3.86c-10.163,8.359-17.444,19.219-24.58,30.071c-2.38,3.619,0.164,7.284,4.52,7.298
			c1.979,0.006,3.958-0.685,5.939-1.054c11.142-2.071,21.889-5.718,33.457-6.225c12.667-0.554,12.619-1.322,12.649-14.646
			C432.304,340.711,432.688,339.64,432.657,339.802z M246.525,1437.566c0.658,0.734,0.991,1.369,1.517,1.654
			c18.274,9.945,38.282,15.73,57.346,23.789c5.834,2.469,8.784-1.031,8.642-7.355c-0.107-4.689-2.99-8.129-3.54-12.537
			c-0.35-2.779-2.897-5.545-6.371-5.662c-2.583-0.086-4.779-1.064-7.062-1.912C280.013,1429.219,263.298,1430.145,246.525,1437.566z
			 M382.077,261.676c15.272,10.957,31.75,19.131,48.656,28.338c1.873-8.279,3.491-15.184,3.45-22.412
			c-0.032-5.745-3.341-9.268-8.056-11.323C410.806,249.597,396.519,254.082,382.077,261.676z M315.828,1495.902
			c-17.598-0.6-38.876,18.363-45.897,39.402c16.567-8.697,33.375-8.686,50.354-6.547c-0.598-9.709-0.598-9.709-7.829-14.402
			c-2.456-1.594-2.32-2.125,1.283-5.018c2.864-2.301,2.423-7.67-0.906-9.041C314.738,1499.383,317.345,1498.951,315.828,1495.902z
			 M366.3,309.169c9.98,2.354,17.645,4.857,25.318,7.3c10.696,3.405,20.995-0.082,31.145-4.326c9.21-3.85,10.636-5.979,7.669-13.309
			C407.754,293.593,386.623,294.085,366.3,309.169z M956.054,1253.152c0.412,2.805,0.23,5.611,1.285,7.828
			c1.849,3.885,5.982,4.051,9.684,4.213c1.733,0.074,2.918-1.307,2.379-3.246c-2.121-7.613,1.384-14.834,1.799-22.283
			c0.611-10.967-0.56-16.404-11.948-23.998c7.257,10.498-2.496,14.33-4.293,21.006c-3.201-0.674-5.603-6.248-9.282-2.477
			c-4.041,4.141-3.652,9.945-2.191,14.965C945.464,1255.965,951.467,1253.416,956.054,1253.152z M922.974,1319.906
			c-0.062,1.389,1.906,3.17,3.441,4.928c1.928,2.209-0.088,4.531,0.92,6.961c2.045,4.934,3.938,7.617,9.835,4.717
			c3.432-1.688,7.604-2.02,11.495-2.584c7.483-1.094,12.188-6.674,11.54-14.229c-0.217-2.537-0.747-5.045-1.247-8.312
			C947.603,1316.832,933.831,1306.693,922.974,1319.906z M935.365,717.052c3.345,4.927,22.066,15.302,30.267,17.244
			c8.184,1.939,16.498,6.198,23.771-2.331c-5.41-4.172-10.947-7.685-18.282-5.526c-5.591,1.645-9.764-0.419-13.28-4.843
			C955.173,718.238,939.734,715.169,935.365,717.052z M764.854,1292.035c-3.052,3.053-6.25,1.088-9.312,1.176
			c-3.363-9.174,1.404-18.432-0.153-27.658c-6.446,1.484-9.833,5.773-9.482,11.475c0.433,7.053,0.385,14.164,1.348,21.141
			c0.495,3.58,2.092,7.639,6.539,8.451c4.235,0.773,7.709-1.367,9.082-5.162C763.852,1298.764,765.567,1295.951,764.854,1292.035z
			 M926.662,1191.768c7.847-5.432,4.53,6.25,9.272,4.445c3.859-6.65,12.193-9.275,11.987-18.803
			c-0.167-7.629,4.371-15.314-0.565-24.07c-1.003,3.84-1.814,6.932-2.62,10.027c-0.67,2.572,0.487,6.533-3.35,6.93
			c-3.736,0.387-0.779-4.371-3.175-5.529c-0.379-0.182-0.688-0.506-2.24-1.678C935.765,1173.295,932.392,1181.863,926.662,1191.768z
			 M800.946,1328.336c1.235-5.08-1.562-9.879-4.518-12.271c-3.142-2.539-8.664-1.656-12.922,1.393
			c1.883,2.055,3.349,3.658,4.788,5.23c-1.927,5.186-6.642,0.838-10.449,3.203c3.555,1.029,3.012,4.332,5.258,6.176
			c1.499,1.232,4.509,1.381,4.219,4.975c-0.391,4.811,4.576,10.035,8.451,9.648c6.038-0.598,5.923-4.943,5.806-8.648
			c-2.672-3.223-4.131,1.934-6.775-0.426c0.328-2.766-0.822-5.416-3.584-7.311C794.395,1327.9,797.533,1329.67,800.946,1328.336z
			 M887.748,1363.889c-4.733,0-8.436,0.709-11.718-0.168c-4.843-1.287-6.64,1.219-8.336,4.734
			c-3.364,6.977-1.65,12.852,4.101,13.248c4.531,0.312,9.102,0.062,14.141,0.062C884.242,1375.686,885.05,1370.129,887.748,1363.889
			z M761.377,1212.375c-4.303,2.324-6.124,6.844-5.674,9.836c1.301,8.654-2.488,15.953-4.756,23.545
			c-1.693,5.676-0.867,9.688,4.34,14.65C760.129,1244.053,758.003,1227.836,761.377,1212.375z M887.93,1348.867
			c10.199,0.9,19.786,1.973,27.454-6.305c-2.819-4.395-6.078-3.912-9.833-1.189c-1.398-4.816-0.021-11.275-7.396-11.021
			c-4.606,5.457-1.136,11.451-0.975,17.156C894.101,1348.621,891.07,1346.732,887.93,1348.867z M853.633,1320.893
			c0.714,5.564,2.831,9.867,8.408,9.809c5.263-0.055,11.757,0.594,13.034-5.887C869.289,1313.371,861.7,1317.459,853.633,1320.893z
			 M934.904,700.679c5.933,1.951,10.864-0.147,16.233-0.905c0.411-6.558,0.629-12.619-2.078-19.068
			C944.095,687.678,936.887,691.968,934.904,700.679z M273.148,1483.67c13.994-1.064,27.852,3.479,42.052,0.883
			c-1.782-5.131-4.664-6.176-8.757-5.094c-6.413,1.701-12.851,1.24-19.389,0.484C282.176,1479.379,277.223,1480.021,273.148,1483.67
			z M1025.671,1389.82c8.295-1.537,13.251-9.271,10.461-16.541c-1.024-2.668-3.699-4.023-7.051-4.039
			c-3.26-0.016-4.942,1.662-4.835,4.256C1024.469,1378.93,1024.007,1384.5,1025.671,1389.82z M815.636,1129.957
			c-3.857,4.15-11.234-2.234-12.915,4.635c-1.227,5.014,1.157,9.631,5.313,13.734
			C814.471,1143.736,810.942,1135.25,815.636,1129.957z M947.491,1287.508c6.052,3.512,5.84,8.58,5.088,14.113
			c6.123,0.018,12.146,0.953,16.345-6.512c-7.218,0.627-12.817,0.93-13.913-7.516
			C954.561,1284.115,951.152,1284.969,947.491,1287.508z M1044.552,1343.303c-2.161,6.441-3.675,11.018-5.237,15.576
			c-0.5,1.459-0.27,3.295,1,3.436c2.984,0.33,6.147,0.584,9.01-0.73c1.468-0.676,1.382-2.178,0.873-3.525
			C1048.583,1353.779,1046.933,1349.514,1044.552,1343.303z M758.555,1328.418c4.049-4.527,3.823-9.604,1.381-14.322
			c-1.596-3.084-4.887-1.777-8.449-1.023C753.868,1318.564,754.041,1324.332,758.555,1328.418z M965.71,1128.148
			c-2.539-5.164-6.729-3.73-11.002-1.992c-2.237,0.914-2.121,2.828-1.528,4.475c0.947,2.627,3.243,4.197,5.835,4.725
			c1.608,0.332,4.814-1.279,4.379-1.791C959.996,1129.596,966.106,1130.705,965.71,1128.148z M908.572,1326.055
			c9.84-5.158,9.84-5.158,5.19-11.311C905.261,1316.293,903.867,1319.326,908.572,1326.055z M824.497,634.683
			c-3.348-3.664-6.247-3.625-9.306-1.515c-1.909,1.316-2.521,3.148-1.548,5.231c1.18,2.524,3.268,4.862,5.972,4.627
			C824.912,642.568,821.809,637.081,824.497,634.683z M676.274,438.832c1.952,3.028,3.929,5.879,5.66,8.873
			c0.923,1.597,2.001,2.558,3.737,1.732c1.463-0.695,2.187-1.855,2.004-3.811C686.985,438.249,684.464,436.557,676.274,438.832z
			 M791.614,1300.914c-6.326,1.881-5.393,6.816-5.829,12.141c3.811-1.867,5.469-5.729,9.515-5.117
			C794.219,1305.352,794.747,1302.463,791.614,1300.914z M1023.602,1355.84c-3.265,1.162-6.704,1.342-10.165,1.42
			c-0.059,2.443,0.003,4.393,1.016,6.146C1025.191,1363.537,1025.351,1363.412,1023.602,1355.84z M940.991,1304.807
			c0.401-2.258-0.554-3.992-1.715-3.416c-2.938,1.461-7.131,1.416-8.335,5.242c-0.516,1.645,1.73,3.236,2.862,2.887
			C936.736,1308.617,939.987,1307.662,940.991,1304.807z M336.947,1460.809c-1.381-1.537-0.878-3.678-2.787-4.713
			c-3.339,0.312-6.27,4.418-10.059,1.217c-0.858,1.258-3.758,0.68-2.916,3.564c0.557,1.908,2.836,4.08,3.126,3.332
			C326.996,1457.26,332.526,1463.162,336.947,1460.809z M957.635,1212.648c2.001-0.934,4.024-2.303,4.009-4.672
			c-0.015-1.971-1.211-4.186-3.799-3.703c-2.201,0.406-4.41,1.594-4.274,4.342C953.683,1210.873,955.355,1212.08,957.635,1212.648z
			 M1153.476,512.555c1.124,4.411,3.909,6.482,8.402,7.594c-0.046-3.29-3.69-2.944-3.226-5.633c1.195-1.578,3.227,1.335,5.188-1.582
			C1160.036,512.5,1157.097,510.689,1153.476,512.555z M967.042,1116.928c0.629,0.02,1.257,0.037,1.886,0.057
			c1.897-4.182-0.749-8.314-1.422-12.398c-0.234-1.416-1.48-3.572-4.123-1.17C964.573,1107.811,965.808,1112.369,967.042,1116.928z
			 M362.58,1460.062c1.106,4.17-4.72,8.426,1.572,11.4c1.704-3.531,3.285-6.811,5.121-10.621
			C366.988,1460.578,365.103,1460.355,362.58,1460.062z M838.357,1348.883c8.55-3.666-0.137-7.029,1.966-9.402
			c-1.681,0.611-3.926,1.426-5.62,2.039C833.326,1346.846,844.518,1339.266,838.357,1348.883z M808.481,1308.396
			c0.3,2.969,0.562,5.559,0.837,8.285c2.659-0.643,5.127-0.754,7.011-3.418C814.599,1310.451,812.42,1308.523,808.481,1308.396z
			 M397.036,1467.082c-4.854,0.35-8.987-2.773-11.818,2.092C388.812,1468.723,393.1,1475.037,397.036,1467.082z M435.766,307.139
			c2.746-0.088,5.477,1.5,7.539-1.697c-1.288-2.847-3.52-4.228-6.461-4.72C434.814,302.575,435.063,304.504,435.766,307.139z
			 M967.328,1191.977c-3.105,1.439-6.323,1.477-6.446,5.379C967.132,1199.932,967.292,1199.816,967.328,1191.977z M1171.372,573.524
			c-2.524-3.967,0.299-6.769,0.531-9.729c-4.633-1.159-2.22,7.267-8.408,3.259C1165.67,570.891,1167.878,572.08,1171.372,573.524z
			 M529.646,1492.178c3.556,2.883,6.44,3.654,9.7,3.447c0.72-2.191,0.848-3.889-0.278-5.787
			C536.38,1490.506,533.642,1491.186,529.646,1492.178z M940.172,1257.168c5.266,1.396,2.18,6.123,5.179,8.541
			C946.587,1257.441,946.025,1256.189,940.172,1257.168z M870.057,1350.17c3.778,1.328,6.698-0.15,10.13-1.602
			C873.073,1346.846,873.073,1346.846,870.057,1350.17z M816.763,1222.686c-2.115,2.152-5.297,0.936-6.185,4.314
			c2.478,0.031,4.113,1.648,5.692,3.562C817.816,1227.947,817.79,1225.9,816.763,1222.686z M1317.379,1305.166
			c-1.618-0.973-3.012-1.592-4.503,0.469C1314.402,1306.926,1315.798,1307.627,1317.379,1305.166z M1152.694,600.602
			c0.363-0.693,0.857-1.213,0.823-1.694c-0.035-0.496-0.559-1.328-0.918-1.357c-0.882-0.07-1.506,0.521-1.115,1.503
			C1151.687,599.562,1152.175,599.957,1152.694,600.602z M1101.718,1072.438c-0.157-0.285-0.32-0.578-0.483-0.873
			c-0.15,0.152-0.448,0.334-0.424,0.445c0.071,0.32,0.273,0.609,0.425,0.91C1101.385,1072.77,1101.536,1072.619,1101.718,1072.438z
			 M547.174,1479.32c-0.149,0.152-0.448,0.334-0.423,0.445c0.07,0.32,0.272,0.609,0.423,0.91c0.151-0.15,0.447-0.33,0.424-0.447
			C547.532,1479.908,547.333,1479.617,547.174,1479.32z"/>
		<path fill-rule="evenodd" clip-rule="evenodd" fill="#FFF100" d="M329.608,728.755c0.711-3.789-0.093-6.873-1.109-10.155
			c-3.291-10.625,4.466-33.387,20.679-37.363c3.729-0.915,8.18-2.146,11.166,0.406c7.664,6.551,15.17,13.34,21.401,21.407
			c5.308,6.87,0.064,11.976-2.535,17.511c-0.744,1.582-2.233,2.81-3.36,4.216c-8.082,10.079-8.313,10.762-1.792,21.88
			c2.604,4.436,4.329,9.3,7.581,13.462c3.278,4.195,6.646,4.836,11.153,2.738c12.111-5.637,23.081-4.788,32.296,5.813
			c0.582,0.67,1.319,1.241,2.069,1.728c13.515,8.776,13.494,19.093,1.003,29.979c-5.278,4.602-9.443,10.63-15.126,14.921
			c-7.175,5.416-14.896,9.271-24.099,4.859c-3.201-1.534-5.211-0.425-7.698,1.846c-9.262,8.455-7.472,20.229-9.595,30.766
			c-1.619,8.04,0.889,15.648,4.36,22.846c2.115,4.389,4.746,4.905,9.766,2.78c14.425-6.108,24.854-18.125,38.78-24.907
			c6.895-3.358,23.698-4.372,27.626,0.372c5.412,6.533,10.117,14.285,9.574,22.881c-0.605,9.603,1.183,18.796,2.283,28.076
			c1.953,16.478-1.127,32.357-4.656,48.146c-1.717,7.683-14.073,15.528-21.576,15.26c-0.675-0.023-1.565,0.33-1.998,0.016
			c-10.437-7.596-24.436-4.597-35.096-12.418c-10.102-7.414-20.768-14.103-30.462-22.093c-6.48-5.344-9.337-13.133-12.6-20.516
			c-1.42-3.212-3.085-5.86-6.114-7.74c-11.245-6.97-16.165-18.301-18.174-30.35c-2.177-13.062-1.793-26.262,2.127-39.452
			c4.167-14.024,10.504-27.024,16.134-40.374c1.424-3.377,0.504-5.808-1.683-8.597c-9.662-12.325-14.384-25.965-12.286-42.037
			C338.445,738.574,339.575,730.497,329.608,728.755z"/>
		<path fill-rule="evenodd" clip-rule="evenodd" fill="#FFF100" d="M523.942,811.839c-0.108-3.686,5.047-6.848-0.317-9.429
			c0.921-1.195,1.196-2.928,3.098-3.288c1.687-0.32,3.699,0.617,5.381-1.72c-3.04-5.075-0.92-9.533,1.192-15.121
			c5.658-14.965,5.47-22.016-9.352-34.673c-6.541-5.585-12.009-11.844-12.607-21.013c-0.028-0.442,0.024-1.079-0.234-1.289
			c-10.778-8.744-5.635-20.325-5.208-30.862c0.386-9.595-0.115-12.869-9.251-15.541c-12.845-3.758-23.839-11.474-36.503-15.434
			c-4.477-1.399-8.88-2.924-13.591-2.498c-2.227,0.202-3.634-0.833-6.654-2.4c8.452-0.351,15.277-0.503,22.081-3.542
			c8.527-3.81,14.757,3.575,21.487,7.314c7.293,4.053,16.496,4.76,20.576-0.106c2.904-3.463,4.236-8.333,5.914-12.711
			c2.821-7.37,4.656-14.972,9.163-21.847c2.556-3.9,2.72-10.168,2.574-14.885c-0.183-5.887-0.636-12.381,0.479-17.554
			c3.816-17.699-1.493-34.64-2.075-51.906c-0.08-2.375,0.77-3.815,3.319-5.354c1.084,8.016,1.707,15.735,3.2,23.336
			c1.596,8.121,0.569,16.729,1.088,25.1c0.249,4.002,0.013,8.094,4.648,10.977c2.812,1.75,1.765,6.417,1.802,9.882
			c0.09,7.953,0.769,8.372,8.549,6.542c3.815-0.896,7.752-1.275,11.798-1.914c1.682-1.854-1.969-2.681-1.073-4.464
			c5.72-2.854,5.72-2.854,33.602,3.441c2.204-13.436,5.16-26.673,5.435-40.413c0.124-6.291-1.644-12.611,0.285-18.924
			c0.693-2.269-0.124-5.596,3.432-5.44c3.707,0.163,6.843,1.588,7.71,6.113c0.566,2.954-0.736,5.883-1.794,7.483
			c-3.634,5.501-0.518,10.906-1.161,16.205c-0.841,6.924-0.911,14.31-3.072,20.605c-1.761,5.131-1.516,10.511-3.541,15.555
			c-0.912,2.274-0.266,6.289,4.012,8.988c6.802,4.292,11.741,11.216,16.565,17.802c0.932,1.269,1.278,2.341,3.125,2.851
			c9.935,2.743,9.147,12.778,12.655,19.785c0.849,1.7-1.196,4.222,2.89,4.788c1.931,0.267,1.764,4.405,0.42,5.862
			c-7.197,7.813-6.287,17.182-4.731,26.205c1.135,6.576-0.36,10.814-6.212,13.54c-1.751,0.816-2.172,2.049-2.186,3.736
			c-0.091,11.236-10.642,15.118-15.994,22.656c-1.429,2.011-3.262-1.309-4.95,0.195c-3.336,5.927-1.443,11.401,2.077,16.549
			c2.109,3.085,1.725,7.159,3.569,9.966c5.809,8.847,7.312,18.967,9.619,28.86c2.997,12.861,9.116,24.95,9.421,38.497
			c0.037,1.634,1.065,3.608,2.263,4.79c4.242,4.19,2.291,7.504-1.115,10.865c-3.531-3.681-2.769-8.686-4.159-13.001
			c-4.128-12.809-8.731-25.578-11.981-38.521c-2.391-9.512-6.008-18.588-8.521-28.021c-2.29-8.592-6.806-16.921-12.802-23.754
			c-5.801-6.61-20.146-4.629-27.613,3.33c-4.882,5.201-9.472,10.608-18.812,9.213c3.25,11.495-2.053,21.6-1.743,32.296
			C540.339,797.141,534.25,805.102,523.942,811.839z M534.124,627.548c4.702,4.627-0.127,13.449,10.403,13.98
			c8.125,0.41,10.893-4.94,14.188-11.139c2.272,3.361,3.711,5.491,5.246,7.76c2.225-0.594,4.217-4.63,5.72-2.064
			c3.36,5.744,6.951,1.868,10.563,1.789c-0.625-13.466-13.438-21.798-25.92-18.362C547.76,621.318,542.498,625.574,534.124,627.548z
			 M572.18,700.547c0-3.035,0.654-5.547-0.152-7.438c-1.234-2.9-2.493-8.953-5.754-7.062c-6.79,3.936-15.711-2.04-20.955,6.324
			C551.216,703.33,562.264,699.594,572.18,700.547z M590.291,729.766c9.874,2.915,12.511,0.426,13.751-11.756
			c-3.795-0.159-7.63-1.822-11.406,0.94C592.448,722.459,593.53,726.234,590.291,729.766z M556.415,679.196
			c0.633-9.68-5.28-7.101-10.069-7.3c0,3.312,0,6.237,0,10.399C549.673,679.789,552.478,678.123,556.415,679.196z M609.17,684.159
			c0.797-8.671-4.627-10.316-9.363-14.136C599.637,677.451,604.034,679.977,609.17,684.159z M538.191,650.396
			c2.626,2.655,5.068,3.343,7.434,1.265c1.887-1.657,3.868-3.875,1.082-7.199C543.879,646.433,541.275,648.249,538.191,650.396z
			 M609.919,717.964c-1.846,0.576-3.037,1.803-2.9,3.807c0.108,1.562,1.31,2.249,2.826,2.143c1.93-0.136,3.663-0.794,3.384-3.125
			C613.026,719.111,611.646,718.265,609.919,717.964z"/>
		<path fill-rule="evenodd" clip-rule="evenodd" fill="#FFF100" d="M590.25,1212.969c-6.736-0.062-7.53,2.35-5.821,8.328
			c2.223,7.768,4.577,15.393,7.695,22.838c0.7,1.67,0.525,5.43-0.187,5.693c-6.013,2.223-3.955,6.375-2.913,10.65
			c3.524-0.984,6.146,0.895,8.869,3.184c-3.372,3.104-4.786,6.746-2.984,11.27c0.394,0.988,0.672,2.797,0.148,3.258
			c-6.011,5.279-2.389,12.295-3.524,18.418c-0.08,0.428-0.426,1.121-0.29,1.227c6.016,4.674,2.756,10.648,3.209,16.387
			c0.382,4.814-3.237,7.578-1.966,12.062c-5.052-0.508-8.566-0.154-11.4,4.426c-2.121,3.428-13.577-0.957-15.834-5.691
			c-2.558-0.32-1.384,2.174-2.701,3.369c-6.589-4.018-11.793,0.801-16.743,4.178c-3.363,2.291,0.94,5.379,1.212,8.176
			c-8.589,11.141-2.39,21.67,0.996,31.574c-3.105,3.662-6.098,7.189-9.016,10.629c-6.422-4.516-9.12-12.4-6.181-19.27
			c1.577-3.686,1.113-8.199,4.629-11.146c1.776-1.49,1.303-3.578,0.588-5.607c-1.632-4.635-2.327-9.414-2.467-14.354
			c-0.183-6.439-5.07-10.834-11.537-11.154c-12.126-0.604-24.162-1.758-35.793-5.654c-1.812-0.609-4.005-0.084-6.149-0.084
			c-2.045,2.061-1.989,4.957-2.064,7.738c-2.516,0.521-5.702-0.857-6.581,2.277c-0.67,2.391,1.234,4.266,3.025,5.66
			c4.667,3.633,2.924,8.977,3.418,13.525c0.633,5.809-0.924,11.803,2.954,17.18c1.973,2.732,0.118,6.26,0.445,9.465
			c0.469,4.621-4.695,2.688-7.354,3.859c-3.248,1.432-5.312,5.748-10.112,3.303c1.542-5.193-1.723-10.033-1.178-15.383
			c0.902-8.854-2.246-18.061,2.357-26.609c0.189-0.352,0.466-0.9,0.328-1.146c-4.299-7.588-0.352-15.443-0.825-23.143
			c-0.217-3.512-2.069-6.467-5.3-7.898c-16.282-7.217-30.266-17.508-42.098-30.795c-2.245-2.518-6.267-2.432-7.276-0.307
			c-3.387,7.133-9.307,5.541-14.769,5.213c-4.87-0.291-7.853,0.688-7.354,6.252c8.777,0.043,10.42,7.275,14.088,12.391
			c-1.589,1.719-2.741,0.232-3.945,0.16c-4.72-0.273-7.738,0.861-8.234,6.564c-0.612,7.053,3.385,13.957,0.349,20.971
			c-0.97,2.24-1.847,4.533-2.998,6.676c-1.542,2.869-2.029,5.787,0.598,7.994c3.074,2.58,1.462,6.445,3.154,9.363
			c0.375,0.646-0.544,2.967-0.892,2.971c-6.554,0.102-11.255,7.885-18.389,4.738c-3.362-7.207,0.119-13.771,1.964-20.016
			c1.062-3.592,1.616-6.932,1.198-10.326c-0.556-4.482-2.45-8.801,0.574-13.191c0.48-0.697-0.179-3.029-1.015-3.639
			c-3.573-2.598-3.074-5.992-2.662-9.617c0.466-4.092-0.79-7.152-5.629-6.982c0-2.34-0.035-4.348,0.007-6.354
			c0.087-4.084,4.954-8.426-1.529-12.152c-3.823-2.195-5.431-7.49-11.005-7.836c-2.973-0.186-4.482-3.291-6.925-5.691
			c5.954-2.797,12.074,1.404,18.006-1.602c-1.513-3.111-2.107-5.998,3.072-6.24c3.003-0.145,3.78-2.141,3.164-5.273
			c-0.836-4.256,3.786-10.094-3.82-11.703c-0.401-3.504,2.341-5.104,3.847-6.207c5.943-4.357,3.171-5.648-1.672-7.527
			c-5.345-2.074-9.298-5.76-6.789-12.15c0.948-2.412,0.095-4.434-0.875-5.465c-2.364-2.512-2.253-5.025-1.009-8.475
			c1.075-1.139,2.933,1.264,5.461-0.482c6.56-4.537,13.438,0.814,20.265,1.574c9.017,1.006,15.791,6.371,23.409,10.242
			c2.8,1.424,6.554,1.375,9.862,1.326c14.885-0.229,29.745,2.844,44.59,0.912c10.104-1.318,20.381,0.291,30.205-1.439
			c8.762-1.545,17.602,0.463,26.395-2.494c4.509-1.514,10.35-1.566,15.695-0.686c6.915,1.141,13.871,1.076,19.992-2.98
			c1.908-1.262,3.794-1.344,5.75-1.344c3.392,0.004,6.56,0.389,10.128-0.66C580.293,1198.389,588.303,1204.932,590.25,1212.969z
			 M573.03,1321.943c1.974-5.633,7.657-9.553,7.713-16.004c0.081-9.59,2.736-18.83,3.074-28.465
			c0.344-9.725,2.704-19.225-0.322-29.051c-1.304-4.23-4.455-8.916-3.803-12.486c1.711-9.371-3.827-14.779-8.606-21.619
			c-8.242,4.541-16.886,1.961-25.025,0.625c-6.516-1.068-13.353-2.713-19.142-0.768c-6.452,2.168-10.991-5.258-17.82-1.029
			c-3.925,2.43-10.539,0.422-15.936,0.586c-10.568,0.322-20.868,3.547-31.7,1.951c-6.006-0.883-12.187-1.514-18.555-0.449
			c-7.03,1.174-14.222,1.941-21.495,2.125c-4.327,0.107-10.736-3.033-14.951,3.748c7.436,5.475,12.52,13.059,17.692,20.586
			c0.696,1.01,2.118,1.732,3.351,2.127c6.802,2.172,13.439,4.633,20.022,7.49c4.725,2.053,10.088,3.795,15.139,5.26
			c7.824,2.275,15.161,6.736,23.752,7.213c1.828,0.1,3.122,0.531,0.916,2.297c0.863,0.65,1.725,1.301,2.587,1.955
			c2.484-3.473,7.75-2.115,10.089-5.705c4.805-7.387,8.631-15.508,15.377-20.092c4.578,0.016,7.968,4.039,11.586,3.535
			c3.868-0.543,5.42,1.477,8.068,2.812c3.991,2.014,5.473,4.084,3.417,8.305c-0.607,1.246,0.574,2.494,1.295,3.662
			c4.682,7.572-1.914,14.506-1.396,21.891c0.067,0.961-1.41,2.422-2.513,3.006c-5.6,2.969-11.049,6.824-17.057,8.258
			c-6.305,1.508-12.321,2.5-16.172,8.48c-3.326-3.926-4.231-7.969-3.863-12.264c0.259-3.037-0.918-6.5-3.25-6.58
			c-5.915-0.201-10.808-6.645-17.205-2.701c-1.09,0.672-0.979,1.881-1.101,3.01c-0.701,6.426,2.238,11.961,4.997,17.229
			c1.626,3.105,4.753,5.887,9.444,5.133c1.802-0.291,3.843,1,5.792,1.51c10.502,2.75,21.006,5.498,31.518,8.205
			c2.088,0.537,4.408,1.678,5.797-1.207c0.959-1.992,1.857-3.652-0.111-6.021c-2.011-2.416-1.183-5.902,1.686-6.996
			c3.275-1.246,5.982-4.162,9.702-3.764c1.318,4.461,1.254,8.977,1.033,13.51c-0.273,5.609,2.875,8.43,8.032,9.072
			C560.966,1321.057,566.894,1321.406,573.03,1321.943z M429.791,1265.42c1.081,3.6,3.092,5.598,5.407,7.781
			c3.988,3.77,9.797,5.273,13.036,9.25c6.714,8.246,10.081,9.582,19.401,4.631c2.969-1.574,6.466-3.148,5.694-7.191
			c-0.749-3.926-4.916-3.217-7.598-3.65c-7.283-1.182-14.241-3.785-20.599-6.885C440.119,1266.908,435.497,1265.814,429.791,1265.42
			z M393.852,1234.959c2.577,9.26-1.957,23.02,13.85,23.328c8.965-11.111-1.073-17.389-5.637-24.613
			C400.318,1230.91,396.377,1233.25,393.852,1234.959z M511.656,1277.672c3.632-2.916,7.328-3.258,11.466-3.324
			c3.824-0.061,7.58-1.865,9.656-5.529c2.171-3.836-1.681-5.938-3.35-7.998c-3.177-3.924-7.902-3.445-12.42-1.961
			c-3.521,1.156-6.001,5.064-5.479,7.098C512.552,1269.932,512.258,1273.477,511.656,1277.672z M373.063,1263.98
			c-3.419-0.182-6.557,0.025-7.231,3.938c-0.319,1.85,0.889,3.854,2.979,3.697C373.818,1271.246,370.337,1265.982,373.063,1263.98z"
			/>
		<path fill-rule="evenodd" clip-rule="evenodd" fill="#FFF100" d="M1256.246,1423.779c-2.354,0.117-1.198,3.057-3.121,3.768
			c-1.585,0.59-2.904,1.885-4.214,2.779c-2.185,0.488-1.29-2.943-3.677-2.385c-1.207,1.469-1.047,4.201-4.156,5.029
			c-0.823-3.088-4.344-5.047-3.67-8.773c-6.63-0.738-7.342,4.094-8.172,8.486c-1.797-0.033-1.457-1.139-1.46-1.824
			c-0.005-0.793,0.293-1.59,0.483-2.502c-5.189-1.588-7.097,4.785-12.061,3.783c3.764,3.014,2.328,6.572,1.297,10.385
			c8.986,0.396,12.111-6.805,17.867-11.375c1.652,2.146,3.209,4.166,5.037,6.535c-3.104,1.244-5.692,3.34-4.607,7.512
			c-0.935,0.195-2.247-0.279-2.436,1.258c-0.045,0.369,0.154,1.016,0.424,1.137c1.381,0.625,2.392,0.066,3.07-1.217
			c2.063-1.182,1.662-4.961,5.683-4.754c-0.912,4.387,4.835,4.51,5.497,8.725c-3.065,0.572-6.287-1.664-9.187,1.498
			c-2.122,2.314-5.16-0.439-7.301-1.539c-6.138-3.152-6.98-2.936-8.113,3.818c-5.218-2.018-10.459-4.043-15.764-6.092
			c0.03-2.932,3.568-1.215,4.713-4.059c0.402-1.557-2.156-4.098,0.791-6.35c-5.451-1.18-3.753,2.547-4.534,4.73
			c-3.349-1.938-6.362-6.574-10.646-1.717c0.755,1.973,2.78,0.344,3.87,1.354c-0.639,0.881-1.274,1.752-1.918,2.639
			c1.507,1.191,3.5,2.076,4.313,3.596c0.828,1.547,1.915,3.594,0.396,6.289c-2.816-3.387-8.93-0.191-10.138-6.268
			c-2.794,1.008-3.345,3.109-3.133,5.469c0.265,2.934,3.117,0.439,4.169,1.83c0.663,2.578-2.526,1.266-3.002,3.42
			c1.556,2.012,3.786,4.506,0.585,7.9c4.49-0.961,8.998,1.791,12.278-2.379c0.803-3.771-4.713-2.25-4.604-6.51
			c6.767,1.041,12.915,5.975,20.502,2.533c0.647-1.059-1.692-2.123-1.809-4.33c3.808,1.334,6.151,6.736,10.922,3.852
			c1.293-3.256-2.629-2.248-4.236-5.854c9.333,2.453,17.633,3.992,25.054-0.082c2.057,3.877-2.317,3.266-1.33,5.594
			c1.116,1.561,3.033-0.488,4.786,1.57c-0.416-0.646-0.331-0.512-0.244-0.381c-1.531,0.73-3.066,2.051-4.593,2.041
			c-2.075-0.014-2.601-1.869-2.08-3.828c-8.434,1.023-16.331,2.861-19.807,12.541c-0.354-3.365-3.116-6.154,0.655-9.203
			c-4.678-0.961-5.787,2.35-7.328,4.273c2.551,7,8.147,8.834,15.052,8.547c-3.017,7.203-10.746,0.422-14.244,7.24
			c-1.029-6.336-2.331-10.988-9.013-8.475c0.635-3.957,0.635-3.957,5.648-3.164c0.982-1.934,1.512-3.963,1.141-7.07
			c-3.18,2.35-6.722,1.861-9.913,3.102c-2.291,0.893-5.125,1.416-5.275,4.283c-0.157,2.965,1.055,5.271,4.518,6.434
			c8.473,2.84,16.03,8.879,26.078,5.963c-0.078,0.674-0.158,1.346-0.238,2.02c-12.351,0.93-24.702,1.865-37.055,2.795
			c-0.047-0.547-0.096-1.094-0.143-1.645c-2.255-0.18-1.081,3.15-3.984,3.326c-10.554,0.637-20.822,3.104-31.15,5.49
			c-5.526,1.277-11.424,2.732-17.482,3.143c-6.393,0.436-12.104,0.111-17.371-2.43c-1.814,2.6,1.447,4.174-0.632,5.803l0.008-0.006
			c-4.66-2.824-10.022-0.893-13.888,0.371c-5.888,1.924-8.646,0.857-10.525-3.754c1.479,1.115,1.342,2.818-0.596,3.949
			c-0.682,0.4-2.461,0.906-3.005-1.248c-1.203-4.754-4.095-2.648-6.768-1.393c0.976,1.535,3.803,0.645,4.005,4.406
			c-10.98,1.039-21.69,5.355-34.399,3.084c-2.474,3.877-7.185,3.393-12.829,3.006c-4.462-0.307-8.972,3.279-13.843,4.48
			c-7.503,1.852-14.927,4.076-21.99,8.021c-5.012,2.797-10.922,5.625-17.394,5.797c-2.516-1.988-0.567-5.82-3.062-7.814
			c2.194-3.473,6.349,1.322,8.692-2.357c1.611-2.531,6.272-3.662,1.514-8.902c5.47,2.285,8.811,7.01,12.479,6.035
			c2.121-0.562,6.539-3.248,7.582-6.783c1.08,1.424,1.124,1.531,2.995,0.77c3.926-1.596,9.518-1.686,7.899-8.545
			c-3.342-0.889-4.878,2.883-10.006,2.457c-4.917-1.971-2.545-10.863-8.188-14.65c5.038-3.443,6.62-4.998,6.83-7.193
			c2.485,1.758,4.703,3.322,7.036,4.971c-2.957,4.24-7.754-1.645-10.587,2.639c1.029,1.512,2.125,3.115,3.245,4.758
			c2.432,1.025,3.508-2.477,5.192-2.207c3.551,2.043-2.433,3.631,0.171,4.84c2.516,2.529,8.316-0.09,10.21-4.271
			c4.188,3.58,8.551,4.648,13.023,0.568c-2.069-4.271-6.835-3.008-11.604-6.48c7.112,0.107,13.49,4.455,17.256-2.713
			c-1.023-1.773-1.728-3.287-5.372-2.207c-6.286,1.857-12.823,0.971-18.792-2.389c-1.467-0.826-0.758-1.812-0.701-2.814
			l-0.154,0.072c5.197-1.584,11.018-0.547,15.619-4.965c2.584-2.484,8.124,0.068,10.35-5.736c0.069,4.156,0.827,6.5,4.604,5.723
			c2.361,1.619,2.297,4.416,0.934,5.811c-3.283,3.355-3.751,7.863-5.75,11.703c-0.843,1.619-1.209,3.055-3.312,3.551
			c-4.25,0.996-3.196,3.896-2.14,6.566c4.547-1.582,9.003-3.453,13.646-4.512c1.138-0.262,2.623,1.102,3.685-0.814
			c1.547-2.789-2.184-2.006-2.366-3.363c0.135-2.492,5.376-3.908,1.097-7.066c-0.427-0.314-0.679-3.48,1.959-4.062
			c1.95-0.43,5.234-0.41,5.177,0.631c-0.363,6.506,6.045,5.471,8.97,8.467c-3.994-5.264-4.469-11.971-7.201-17.873
			c-4.265,1.928-7.829,4.723-10.52-0.605c-0.151-0.299-2.071,0.293-3.168,0.471c-0.812-1.469-1.602-3.336,1.113-2.982
			c1.874,0.244,3.489,0.027,5.451-0.412c-1.193-2.975-4.728-5.822-2.491-8.863c2.06-2.805,5.953-2.502,9.36-1.977
			c5.244,0.807,10.382-1.893,15.777-0.459c-0.423,2.676,0.196,5.943-4.647,3.268c-2.354-1.299-6.015-1.225-7.222,3.646
			c3.079,0.502,5.599-0.523,7.978,0.791c1.058,0.586,4.061-0.008,4.402-0.816c3.858-9.156,12.124-6.525,19.194-8.271
			c13.153-3.246,26.42-6.17,39.453-10.061c8.277-2.471,16.385-7.303,25.884-4.74c3.866,1.039,4.881-3.791,7.43-5.656
			c3.02-2.213,4.652-2.316,5.377,1.832c0.158,0.916,1.262,1.998,2.19,2.391c3.728,1.582,16.064-2.795,17.858-6.674
			c2.513-5.432,8.083-3.912,11.701-4.404c6.626-0.908,12.62-7.221,20.071-2.945c0.592,0.338,3.939-2.025,3.891-3.027
			c-0.282-5.84,4.674-4.057,6.954-5.758c0.558,0.336,0.733,0.443,0.909,0.549c-0.146,0.018-0.293,0.053-0.44,0.055
			c-1.978,0.027-3,1.572-2.681,2.975c0.621,2.73,1.577,5.703,5.554,4.902L1256.246,1423.779z M1037.264,1501.969
			c-0.37-0.764-0.821-1.613-1.785-0.902c-1.009,0.744-0.128,1.361,0.378,1.943c0.573,0.561,1.176,1.418,2.033,0.666
			C1038.892,1502.795,1037.981,1502.359,1037.264,1501.969z M1172.134,1481.818c-4.306-0.32-0.828-4.867-1.884-5.389
			c-6.975-0.254-12.731-1.848-18.09,1.234c0.147,4.514,2.295,8.896,1.905,11.996c-3.438,3.182-6.685,3.689-10.442,3.297
			c4.814,5.523,16.027,3.953,18.643-1.986c0.825-1.873,1.795-6.289,4.389-2.721c1.976,2.715,2.913,1.219,4.551,0.996
			c3.593-0.492,6.916-1.574,10.88-1.295c3.244,0.229,9.139-0.885,10.659-6.4c-2.098-1.523-4.103-2.258-6.713-2.395
			c0.04,7.475-6.386,4.459-9.985,6.219c-4.396,2.148-4.165-0.932-4.132-3.721c2.833-0.867,5.558,3.148,8.614,0.209
			c-0.197-1.725-2.149-1.574-2.955-2.904c-1.178-1.947-3.934-0.246-5.828,0.166
			C1170.374,1479.428,1172.451,1480.797,1172.134,1481.818z M1043.583,1508.844c11.448-3.742,23.437-4.529,36.248-6.133
			c-2.236-2.742-3.411-4.182-5.041-6.178c-0.645,4.762-3.484,3.439-5.741,2.201c-2.421-1.328-4.096-1.607-6.986-0.385
			c-6.177,2.615-12.838,4.086-19.742,6.158C1042.345,1505.873,1041.812,1507.623,1043.583,1508.844z M1090.431,1482.348
			c3.809-3.416,11.148,0.479,12.475-7.916c-4.938,2.492-8.131-1.953-12.3-2.695
			C1089.852,1475.045,1088.591,1478.072,1090.431,1482.348z M1191.34,1465.109c-6.808-3.832-14.062,0.139-21.296-1.738
			c0.56,2.416,0.988,4.273,1.428,6.166c3.631-0.678,8.06-0.305,10.695-2.303C1185.303,1464.855,1189.94,1472.463,1191.34,1465.109z
			 M1155.245,1458.445c-0.375,3.971,3.828,6.051,2.159,10.107c2.353-2.662,5.5-2.037,7.769-3.234c2.98-1.57,2.047-4.719,1.221-9.791
			C1163.204,1462.951,1159.331,1458.562,1155.245,1458.445z M1104.24,1495.277c-2.627-10.963-9.778-1.756-14.383-4.531
			c-1.333-0.803-3.229,0.986-3.163,3.322C1092.361,1498.893,1098.505,1490.104,1104.24,1495.277z M1191.033,1474.68
			c5.512,5.523,6.405,7.084,12.694-0.398C1199.092,1475.541,1195.645,1468.613,1191.033,1474.68z M1152.352,1458.674
			c-4.261-2.539-8.259-1.123-12.521-2.371c1.421,3.031,4.221,3.793,4.984,7.527
			C1146.308,1459.938,1149.74,1461.197,1152.352,1458.674z M1185.273,1475.221c-0.438-7.371-7.009-2.793-9.936-6.436
			c-0.651,2.836-1.069,4.654-1.964,8.551C1177.752,1472.283,1181.598,1477.736,1185.273,1475.221z M1048.913,1477.551
			c7.053,0.619,10.612-0.143,12.708-3.334C1057.06,1475.553,1051.674,1469.664,1048.913,1477.551z M1153.604,1451.641
			c2.726-1.568,6.324,0.949,7.86-2.947c0.427-1.082-0.656-2.178-2.021-1.93C1156.937,1447.217,1153.221,1446.152,1153.604,1451.641z
			 M1151.947,1483.896c-5.528-2.178-9.386-3.02-10.55,2.787C1146.382,1492.125,1147.527,1484.922,1151.947,1483.896z
			 M1172.312,1454.967c3.031-2.863,2.513-4.475-0.134-6.1c-1.404-0.859-2.497-1.061-3.281,0.381
			C1166.935,1452.848,1171.054,1452.672,1172.312,1454.967z M1071.752,1471.367c3.423-1.857,5.769-3.645,2.388-7.098
			C1069.677,1465.236,1068.337,1467.309,1071.752,1471.367z M1190.492,1435.932c-1.938-1.912-3.322-1.07-4.78,0.715
			C1187.577,1438.004,1189.117,1438.354,1190.492,1435.932z"/>
		<path fill-rule="evenodd" clip-rule="evenodd" fill="#FFF100" d="M382.854,1147.234c-7.282-2.967-7.359-7.615-8.305-11.596
			c-0.825-3.469-1.06-7.084-1.451-10.646c-1.167-10.627-4.847-13.178-14.732-10.238c-2.013,0.598-2.635,2.016-3.294,3.834
			c-3.336,9.193-8.587,17.434-13.275,25.949c-1.586,2.881-4.206,4.779-7.195,5.559c-7.296,1.906-14.703,3.379-22.018,5.014
			c-0.865-2.791,2.695-2.857,1.686-5.953c-8.055-0.248-9.502-10.482-17.596-12.527c-3.171-0.801-3.344-11.572-0.644-15.42
			c5.158,3.918,8.023,1.387,11.646-3.176c5.079-6.395,10.433-12.717,17.74-17.15c10.279-6.232,15.375-17.049,21.393-26.834
			c2.068-3.357,4.512-5.645,7.886-4.889c10.83,2.432,16.976-5.959,25.019-9.986c4.955-2.48,8.508-6.488,12.152-10.439
			c6.02-6.525,14.415-8.594,22.293-11.227c14.762-4.938,29.504-9.787,43.775-16.123c7.717-3.425,16.014-5.819,24.279-7.64
			c6.664-1.469,12.792-5,20.201-4.186c4.032,0.442,5.24,2,6.394,5.089c2.851,7.634,1.283,16.078,3.919,23.562
			c4.055,11.516-1.245,15.953-11.147,19.992c-5.346,2.182-11.582,0.869-16.271,5.316c-3.82,3.623-8.453,6.432-12.904,9.328
			c-2.441,1.592-2.189,3.668-1.874,5.877c0.908,6.354-2.521,8.621-8.179,8.721c-4.471,0.08-8.946,0.016-13.926,0.016
			c1.254,6.986,4.435,12.605,5.315,18.482c0.803,5.365,6.144,11.869-1.11,17.314c-4.256-3.879-4.721-9.111-6.049-13.936
			c-0.709-2.578-0.958-5.318-1.945-7.771c-2.337-5.811-3.439-11.232-13.189-9.713c-12.287,1.91-24.232,5.334-36.539,7.008
			c-6.117,0.834-12.032,3.158-18.496,4.932C377.079,1117.727,383.357,1131.525,382.854,1147.234z M457.238,1028.277
			c11.429,10.854,1.951,27.1,12.022,38.113c5.476-5.67,14.504-7.242,13.951-17.246c9.835,4.275,15.709-3.561,23.267-5.012
			c-1.015-7.377-1.121-14.053-2.459-20.667c-1.222-6.035-5.353-6.767-9.274-5.25
			C483.072,1022.729,470.746,1024.611,457.238,1028.277z M439.356,1085.064c-0.77-5.424-1.967-9.643-8.298-10.383
			c-2.353-0.275-5.252-2.363-6.464-4.457c-2.12-3.668-4.05-2.711-7.054-1.543c-14.27,5.531-28.816,10.229-44.249,13.289
			c2.189,5.17,0.254,10.725,2.122,16.471C396.807,1093.963,417.493,1087.977,439.356,1085.064z M333.122,1103.969
			c-1.339-0.852-2.016-0.434-2.842,0.064c-9.657,5.828-15.421,15.438-22.82,23.451c-1.593,1.727-1.852,4.16-0.236,5.504
			c4.079,3.387,6.93,8.115,12.363,10.125c3.793,1.402,6.476,1.787,10.312-0.465c7.833-4.598,9.89-12.986,14.453-19.695
			c1.178-1.734,0.925-4.408-1.708-4.906C334.444,1116.494,330.626,1112.189,333.122,1103.969z M375.304,1067.99
			c0.479,1.797,2.763,0.221,3.178,0.975c4.001,7.26,8.623,2.396,13.246,1.031c2.495-0.738,5.553-1.1,7.572-2.031
			c9.25-4.264,23.217-3.416,22.918-19.352c-0.032-1.646,2.632-3.387,4.138-4.998c0.995-1.066,2.958-1.562,1.646-4.133
			C407.731,1043.793,389.473,1051.898,375.304,1067.99z M367.783,1090.352c-0.044-3.973-3.028-11.506-5.555-12.359
			c-4.629-1.561-7.393,2.111-10.625,4.334c-3.073,2.111-5.559,4.73-7.066,8.215c-0.941,2.178-2.895,4.049-1.341,6.801
			c1.963,3.477,12.483,8.893,15.566,7.191C363.949,1101.672,368.57,1097.963,367.783,1090.352z M447.635,1058.125
			c0.042-6.939-3.24-11.15-8.751-11.23c-5.977-0.084-10.148,3.912-10.23,9.799c-0.091,6.684,5.399,12.801,11.648,12.973
			C445.623,1069.814,447.583,1066.727,447.635,1058.125z M443.334,1036.182c9.311,9.906,11.306,20.572,8.125,32.672
			c4.124,0.465,7.667,1.664,10.797-0.75c-1.46-6.18-4.558-11.082-4.437-17.416C458.042,1039.105,456.231,1037.654,443.334,1036.182z
			 M466.215,1077.486c-6.76,0-11.848-0.156-16.915,0.088c-1.691,0.082-3.521,1.035-3.604,3.293c-0.045,1.213,0.635,2.66,1.752,2.375
			C453.312,1081.744,460.106,1083.098,466.215,1077.486z M352.718,1108.965c-3.338-3.199-7.432-3.838-11.418-4.982
			c-1.984,4.178-0.134,6.291,3.256,8.045C348.568,1114.105,350.552,1111.779,352.718,1108.965z M373.509,1079.725
			c0.909-2.045,1.417-4.4,3.891-5.795c-3.491-0.285-2.278-4.211-4.757-5.055c-1.881,0.807-3.837,1.35-4.879,3.379
			C368.833,1075.143,369.706,1078.156,373.509,1079.725z"/>
		<path fill-rule="evenodd" clip-rule="evenodd" fill="#FFF100" d="M383.947,550.611c-11.683,3.762-22.353,3.959-33.762,2.921
			c-11.149-1.015-21.73-2.73-32.219-6.368c-9.213-3.196-13.25-8.911-14.753-18.979c-3.824-25.625,18.958-51.895,39.394-57.35
			c6.488-1.731,12.88-0.838,18.093,1.752c11.074,5.505,22.473,10.829,31.922,20.354c4.157-5.905,9.721-10.49,9.279-18.204
			c-1.027-17.9,10.173-27.604,23.643-35.967c2.392-1.484,4.577-1.74,7.015-0.804c11.853,4.546,22.708,10.383,29.786,21.624
			c6.58,10.446,6.845,22.029,6.025,33.626c-0.239,3.384-0.718,6.998-1.456,10.497c-2.603,12.319-11.033,17.549-21.853,22.002
			c-8.742,3.599-18.251,5.298-26.429,10.84c-2.831,1.919-7.134,4.661-11.983,3.521c-3.469-0.815-4.842,1.419-3.85,4.881
			c2.746,9.587,5.421,19.14,9.751,28.255c1.641,3.453,3.404,8.069,1.274,12.388c-0.704,1.426-0.326,2.529,0.125,3.82
			c5.356,15.295,7.141,31.231,8.679,47.239c0.265,2.753-0.381,4.813-2.767,5.091c-2.549,0.295-2.109-2.371-2.85-4.188
			c-2.923-7.178-2.292-15.361-9.073-21.7c-4.041-3.777-5.033-11.688-5.709-17.923c-0.564-5.209-2.696-9.698-5.107-13.554
			C390.637,574.013,386.825,562.764,383.947,550.611z M330.702,525.439c0.992-2.895,0.879-5.982,4.049-6.149
			c14.865-0.787,29.001-5.294,43.347-7.745c1.286-9.615,2.04-11.337,5.935-13.885c0.375,4.79-3.542,9.376-0.831,14.257
			c10.043-0.121,11.624-1.134,10.382-6.671c-2.86,0.118-2.542,5.242-6.546,3.8c-1.658-3.717,1.675-6.92,1.842-10.449
			c-6.551-7.528-14.706-12.755-23.652-16.572c-8.217-3.507-15.9-8.825-26.063-4.874c-10.898,4.237-17.772,12.122-24.405,21.066
			c-6.321,8.525-6.723,17.885-5.243,27.452c0.536,3.463,3.257,6.559,0.07,10.457c5.096,1.719,8.49,4.872,13.335,6.597
			c17.332,6.17,34.785,8.076,52.864,5.964c2.284-0.268,12.431-10.767,12.315-12.799c-0.057-0.997-0.978-1.917-1.341-2.93
			c-1.819-5.064-6.958-8.212-7.637-14.309C362.731,520.149,346.925,523.532,330.702,525.439z M452.228,483.174
			c-1.761,4.562-6.116,6.531-9.603,9.351c-6.852,5.539-16.173,7.839-20.987,16.072c-0.754,1.288-2.209,1.111-3.628,1.119
			c-12.733,0.067-14.995,1.861-17.921,13.885c-2.435,10.004,0.345,13.071,10.602,11.315c2.831-0.485,5.818-1.307,8.221-2.801
			c5.903-3.668,12.609-5.173,18.878-7.816c8.478-3.576,18.607-4.964,23.252-14.366c6.186-12.526,4.241-25.61,1.104-38.479
			c-0.859-3.522-2.273-7.081-4.997-9.962c-7.968-8.427-17.513-14.507-27.856-19.51c-0.93-0.45-1.368-0.346-2.292,0.041
			c-12.054,5.044-20.266,18.183-19.776,31.927c1.266,0.146,2.539,0.292,3.928,0.451c-2.345,6.17-7.901,9.709-11.09,14.999
			c-3.515,5.831-3.526,13.718,0.996,16.349c4.332,2.521,9.237,0.039,13.195-2.103c9.964-5.392,19.449-11.685,29.504-16.891
			C446.324,485.426,447.239,479.991,452.228,483.174z M384.193,517.896c2.52,4.287,2.802,10.003,8.447,8.644
			c5.151-1.24,3.323-6.302,3.606-10.312C392.079,515.426,388.933,517.734,384.193,517.896z M391.05,549.884
			c-2.318,5.887,0.357,10.396,2.283,15.111c0.563-0.155,1.128-0.311,1.693-0.467C393.701,559.647,392.375,554.766,391.05,549.884z"
			/>
		<path fill-rule="evenodd" clip-rule="evenodd" fill="#FFF100" d="M1293.047,1439.877c-0.355,1.244-0.479,2.336-2.29,2.736
			c-4.672,1.025-9.387,0.996-14.107,3.389c-2.401,1.217-8.348,1.455-12.146-0.584c-2.483,1.842,0.949,3.502-0.722,5.285
			c-2.633,0-5.514,0-9.355,0c3.603-2.451,4.689-5.352,3.351-8.9c-3.085,1.947-7.742,1.225-11.474-1.953
			c1.275-0.725,2.453-1.396,3.711-2.113c-2.096-1.617-4.218-0.24-6.653-0.881c4.667-7.9,7.928,0.725,12.438,0.008
			c1.138-1.547,2.873-4.131,6.273-3.229c4.931,5.398-5.374,5.42-3.046,10.098c5.794,1.285,10.954-1.262,16.162-3.566
			c0.273,0.947,0.778,1.574,1.753,0.854c0.145-0.107-0.314-1.031-0.494-1.576c-0.379-1.246-1.447-2.352-0.41-4.365
			c1.879,1.467,3.714,3.551,7.895,3.402c-3.872-3.174-0.265-7.725-4.31-10.213c-0.156-2.668,7.099-0.602,3.1-5.457
			c-3.728,2.906-7.02-0.068-11.778-1.809c2.736-1.5,5.946-1.834,4.617-5.439c3.267,5.561,14.854,9.857,19.353,7.146
			c0.933,6.908,3.646,3.869,6.379,1.045c0.867,0.674,1.694,1.383,2.587,1.996c1.247,0.857,2.567,2.312,3.744-0.094
			c0.095-0.197,0.083-0.443,0.121-0.662c-1.195,2.357,0.822,2.619,2.168,3.17c2.768,1.137,5.485,4.012,8.624,1.375
			c2.828-2.373,2.773-5.582,2.283-9.221c-0.946-7.021-2.629-13.705-7.398-19c-2.488-2.762,1.761-2.828,1.17-5.129
			c-1.158-4.502-1.924-9.025-4.843-12.824c-2.249-2.928-3.961-6.02-2.596-10.547c22.356-6.877,44.767-15.494,69.336-13.309
			c0.232,5.02-0.896,5.971-9.36,11.117c-11.811,7.182-24.523,12.795-35.578,21.342c-3.823,2.957-5.26,7.76-9.868,10.697
			c21.524,3.49,42.142,9.602,62.748,16.955c-1.808,7.695-9.741,8.229-15.554,10.816c-15.86,7.062-33,6.672-50.332,6.953
			c0.196,4.828-6.847,9.164-0.223,13.928c4.02,2.889,5.747,8.732,11.667,9.098c1.312,0.08,2.269,0.357,2.146,1.818
			c-0.347,4.123,2.598,5.361,5.62,6.436c12.395,4.404,20.829,13.5,28.133,23.854c1.194,1.693,2.482,3.064,4.079,4.324
			c2.47,1.949,3.006,4.23,0.5,6.795c-11.481-1.959-20.215-9.119-29.399-15.266c-9.438-6.314-19.04-12.453-29.79-16.041
			c-5.37-1.791-11.246-1.428-16.518-4.789c-2.213-1.41-5.748,4.209-9.933,1.49c0.229-1.424,2.896-4.391-2.504-4.268
			c5.645-1.275,9.954-6.453,15.843-1.922c1.264,0.971,4.604,0.963,5.826-0.025c5.185-4.205,10.927-0.311,16.536-2.242
			c0.496-3.49-2.571-4.67-5.217-6.17c-3.722-2.111-3.804,2.807-7.14,3.572c5.562-11.975-3.373-19.293-7.148-27.848
			c-4.171-0.926-5.476,2.709-8.35,3.232c1.297,2.432,7.468,4.48,0.239,6.658c-0.078-5.088-4.679-5.062-7.605-6.982
			c-1.521,1.68-0.212,3.621-0.907,5.244c-0.293,0.361-0.909,0.875-0.822,1.061c0.464,1,1.209,0.592,1.896,0.184
			C1288.129,1436.773,1290.453,1441.26,1293.047,1439.877z M1362.908,1363.479c-0.453,0.053-1.115,0.152-1.782,0.207
			c-15.307,1.182-30.033,5.096-44.628,9.568c-5.27,1.617-6.924,5.525-4.157,10.176c1.839,3.094,3.583,6.137,4.713,9.59
			c1.163,3.555,3.399,4.334,6.608,1.846c11.122-8.611,21.8-17.9,35.3-22.906c2.253-0.838,4.198-2.559,6.203-3.986
			c1.256-0.893,1.501-2.275,0.779-3.586C1365.376,1363.348,1364.372,1362.822,1362.908,1363.479z M1374.128,1423.318
			c-4.538-4.014-8.71-5.092-12.696-6.555c-10.186-3.742-21.084-4.146-31.532-6.713c-4.315-1.059-7.509,0.869-6.993,6.088
			c0.488,4.941,1.86,9.855-0.597,15.664C1340.311,1432.527,1357.091,1432.016,1374.128,1423.318z M1311.087,1466.809
			c15.328,6.488,28.712,15.695,42.62,23.969c1.568,0.934,2.854,3.824,4.903,1.332c1.964-2.391-0.448-4.102-1.953-5.637
			c-4.721-4.82-9.11-9.338-16.37-11.469c-6.272-1.842-11.382-7.645-16.798-11.545c-1.9,0.447-0.397,2.992-2.453,2.98
			C1317.836,1459.104,1314.434,1465.324,1311.087,1466.809z M1283.122,1431.912c3.047-3.805,8.945,4.227,11.57-3.732
			c-4.002,1.416-4.416-3.496-7.459-3.355C1284.304,1426.285,1284.921,1429.654,1283.122,1431.912z"/>
		<path fill-rule="evenodd" clip-rule="evenodd" fill="#FFF100" d="M543.608,1563.721c-10.141,4.588-20.378,3.477-30.626,0.268
			c-0.368-0.117-0.827-0.248-1.156-0.131c-13.075,4.697-27.257,0.543-40.353,5.055c-0.403,0.137-1.021,0.215-1.323,0.006
			c-6.296-4.318-11.235,0.385-16.453,2.592c-1.803,0.762-3.408,1.078-5.142,0.479c-6.596-2.275-13.56-1.717-20.331-2.439
			c-4.114-0.438-8.276,1.01-10.93-3.748c-0.445-0.797-2.243,0.107-1.749,2.111c-0.771-2.213,1.074-2.021,1.796-2.035
			c8.972-0.152,17.791-4.504,26.951-0.619c4.41,1.871,8.443-1.6,12.792-2.018c16.548-1.596,33.109-2.547,49.735-3.113
			c12.315-0.418,24.241,3.041,36.194,2.773c10.078-0.225,20.918,1.545,30.631-3.887c2.126-1.191,4.654-2.072,7.416-2.125
			c7.255-0.131,13.293-4.904,20.559-5.666c2.459-0.26,4.436-0.924,6.289,1.406c3.49-6.967,9.886-7.246,15.234-7.057
			c14.998,0.537,29.872,2.611,44.39,6.816c14.187,4.109,28.625,2.094,43.062,1.77c8.714-0.195,16.106-4.379,24.566-5.373
			c12.237-1.439,23.803,0.381,34.887,4.291c18.013,6.355,36.237,8.965,55.33,9.539c18.166,0.545,36.232-0.73,54.276-1.297
			c15.348-0.484,30.679,1.582,46.07-0.289c3.819-0.463,9.342-1.541,14.877,3.342c-25.937,0-50.253-1.031-74.438,0.311
			c-21.457,1.189-42.918,3.01-64.188,0.148c-12.265-1.648-24.237-5.84-36.168-9.906c-11.19-3.816-23.622-3.537-35.775-0.789
			c-11.903,2.691-23.748,6.723-36.084,6.416c-14.24-0.352-28.194-2.648-42.224-5.91c-16.818-3.914-33.95-5.047-51.304,1.568
			c-16.142,6.154-32.861,11.918-50.767,11.195C545.599,1567.24,545.591,1567.438,543.608,1563.721z"/>
		<path fill-rule="evenodd" clip-rule="evenodd" fill="#FFF100" d="M210.684,1560.922c0-2.791,0-4.541,0-6.928
			c65.634-8.617,130.269,1.387,194.992,9.27c1.937,0.234,2.929,1.928,3.525,3.762c-7.973,3.268-16.173,0.449-23.912-0.301
			c-16.798-1.629-33.546-4.039-50.393-5.584c-29.554-2.711-59.044-5.604-88.835-3.633
			C234.479,1558.275,222.954,1559.549,210.684,1560.922z"/>
		<path fill-rule="evenodd" clip-rule="evenodd" fill="#FFF100" d="M1111.8,1563.527c-2.862-1.953-1.091-8.059-7.345-6.307
			c25.472-4.938,49.284-15.684,75.479-12.01c-4.432,2.479-8.962,4.248-14.78,3.498c-7.659-0.984-14.998-0.609-22.838,2.516
			C1132.089,1555.299,1121.686,1559.154,1111.8,1563.527z"/>
		<path fill-rule="evenodd" clip-rule="evenodd" fill="#FFF100" d="M937.196,1109.986c0.293,1.016,0.625,2.152,1.109,3.83
			c-7.785-2.889-15.976-2.344-23.121-6.18c-1.853,1.078-1.891,3.77-4.881,3.701c-10.75-0.258-21.063,3.105-31.628,4.373
			c-6.717,0.805-11.692,5.463-18.229,6.779c-3.223,0.648-2.49-1.545-4.988-1.932c15.032-3.656,27.488-11.406,42.104-11.934
			c7.848-0.283,15.66-1.488,23.508-1.875c3.617-0.178,7.515-0.67,10.192,3.326C932.96,1112.609,935.442,1111.307,937.196,1109.986z"
			/>
		<path fill-rule="evenodd" clip-rule="evenodd" fill="#FFF100" d="M889.105,1414.627c1.272,22.744-4.723,44.504-7.249,66.459
			c-2.125,0.629-3.44-0.357-3.297-1.012C883.26,1458.461,883.708,1436.123,889.105,1414.627z"/>
		<path fill-rule="evenodd" clip-rule="evenodd" fill="#FFF100" d="M1031.825,1476.488c-3.139-0.273-5.876,2.549-9.475,0.494
			c-2.367-1.352-3.458-2.393-2.743-5.469c8.685-0.414,15.662-5.287,23.013-9.516c6.463-3.719,13.639-4.99,21.122-3.754
			c-0.815,3.414-0.811,3.389-4.526,2.623c-2.504-0.518-5.344,1.787-5.704,2.547c-2.765,5.803-6.55,3.93-10.458,1.916
			c-1.418,4.008-1.479,3.373-4.662,3.576c-2.566,0.168-5.263,1.816-7.429,3.438c-1.303,0.977-0.588,2.963,0.699,4.227
			C1031.671,1476.561,1031.825,1476.488,1031.825,1476.488z"/>
		<path fill-rule="evenodd" clip-rule="evenodd" fill="#FFF100" d="M1250.217,1543.305c4.221-0.115,8.312,1.928,12.607,0.73
			c0.836-0.232,2.188,0.066,2.529-0.42c4.267-6.086,11.652-4.266,17.309-6.047c8.563-2.693,17.918-5.574,27.423-2.689
			c1.071,0.322,2.408-0.232,3.621-0.379c-12.411,2.311-24.964,3.672-37.28,6.758c-6.366,1.592-12.617,3.262-18.836,5.352
			c-2.6,0.873-6.408,0.975-7.396-3.359L1250.217,1543.305z"/>
		<path fill-rule="evenodd" clip-rule="evenodd" fill="#FFF100" d="M1235.49,1469.791c0.831-3.291,4.246-3.336,7.117-3.99
			c1.053-0.238,1.538,0.531,1.537,2.066c-0.001,4.201-3.76-1.15-4.045,2.715c4.29,4.664,9.027-0.383,13.195-0.916
			c4.979-0.637,9.672-3.457,15.149-1.764c-0.374,1.039-0.404,1.637-0.664,1.762c-1.745,0.846-4.612-1.68-5.499,1.91
			c-0.292,1.18,0.398,1.627,1.126,2.111c2.492,1.656,5.223-1.129,5.557-1.68c3.931-6.48,8.168-4.049,12.737-0.381
			c-5-1.021-8.736,3.576-13.811,2.439c-0.919-0.209-2.482,0.164-3.011,0.844c-5.076,6.516-6.111,0.709-7.957-2.453
			C1249.895,1469.764,1241.547,1481.35,1235.49,1469.791z"/>
		<path fill-rule="evenodd" clip-rule="evenodd" fill="#FFF100" d="M1012.624,1127.527c0.763,23.5,3.371,46.818,4.672,70.936
			C1014.5,1194.535,1009.933,1131.904,1012.624,1127.527z"/>
		<path fill-rule="evenodd" clip-rule="evenodd" fill="#FFF100" d="M1229.384,1276.084c-3.483-3.768-6.905-7.598-10.469-11.285
			c-3.116-3.225-6.71-5.781-11.068-6.951c3.14-2.621,7.36-1.471,9.743-0.174c4.309,2.344,10.568,2.09,12.642,8.074
			c0.472,1.369,2.062,1.879,3.381,1.885c4.244,0.018,3.983,2.559,3.288,5.451l-0.01-0.029c-1.04-1.82-1.674-0.617-2.343,0.314
			c0,0,0.137,0.051,0.138,0.051c0.342-1.891,2.224-3.861-0.292-5.602c-1.317,2.055-3.978,0.68-5.557,2.223
			c-2.303,2.25,2.409,3.986,0.347,6.146L1229.384,1276.084z"/>
		<path fill-rule="evenodd" clip-rule="evenodd" fill="#FFF100" d="M996.45,1371.99c-4.141-2.043-7.309,0.883-10.292,2.625
			c-3.36,1.959-5.992,2.211-8.879-0.279c-3.772,4.699-11.086,5.801-17.043,3.197c-2.666-1.164-5.625-0.795-7.136,2.445
			c0.284,0.209-0.523-0.387-2.17-1.6c3.323-0.02,4.808-2.965,7.096-3.105c8.018-0.494,15.754-2.408,23.477-4.236
			c5.203-1.232,9.68,3.416,14.78,1.133L996.45,1371.99z"/>
		<path fill-rule="evenodd" clip-rule="evenodd" fill="#FFF100" d="M1026.61,1254.748c-4.96-3.439-12.384-45.689-9.512-52.293
			C1020.315,1220.141,1023.388,1237.027,1026.61,1254.748z"/>
		<path fill-rule="evenodd" clip-rule="evenodd" fill="#FFF100" d="M1021.207,1464.408c-0.885-13.387-1.21-27.699,2.091-41.859
			C1021.962,1436.689,1027.464,1451.031,1021.207,1464.408z"/>
		<path fill-rule="evenodd" clip-rule="evenodd" fill="#FFF100" d="M1209.769,1245.887c-2.229,1.344-2.364,3.535-2.53,5.549
			c1.176,1.521,2.804-2.771,3.635,1.566c-2.072-1.328-5.698,1.094-5.011-4.004c0.104-0.777-1.896-2.707-2.772-2.619
			c-9.027,0.902-8.404-9.016-13.771-12.145c-0.323-0.188,0.074-1.611,0.116-2.434c-0.016,0.023-0.076,0.121-0.076,0.121
			c5.545,0.014,7.664,8.184,14.154,5.951c0.644,3.801,6.496,3.545,6.257,8.035L1209.769,1245.887z"/>
		<path fill-rule="evenodd" clip-rule="evenodd" fill="#FFF100" d="M1219.12,1542.422c-3.777-0.195-3.777-0.195-2.354,4.752
			c-9.724-4.512-20.844,2.289-30.084-4.148C1197.565,1540.922,1208.34,1542.514,1219.12,1542.422z M1211.181,1546.197
			c-0.143-2.912-1.42-3.498-3.433-3.701C1207.278,1545.256,1208.45,1546.018,1211.181,1546.197z"/>
		<path fill-rule="evenodd" clip-rule="evenodd" fill="#FFF100" d="M1301.193,1406.336c0.226,1.426-0.621,3.49,1.671,3.807
			c3.122,0.432,2.874-2.855,4.339-4.256c0.408,2.234,4.529,2.688,2.373,6.418c-3.409-0.703-7.178,6.115-11.666-1.002
			c-6.265,10.746-11.744,5.059-17.662-0.973c7.752,1.455,14.127-1.111,20.176-4.875
			C1300.669,1405.758,1300.925,1406.053,1301.193,1406.336z"/>
		<path fill-rule="evenodd" clip-rule="evenodd" fill="#FFF100" d="M1192.636,304.858c-10.057-5.824-17.409-15.036-26.956-21.503
			c-4.214-2.854-8.392-5.767-12.511-8.754c-1.583-1.146-3.896-2.198-1.967-4.853l0.029,0.13c2.053,3.513,6.017,4.482,9.038,6.695
			c11.637,8.523,22.712,17.709,33.312,27.481C1193.276,304.334,1192.962,304.603,1192.636,304.858z"/>
		<path fill-rule="evenodd" clip-rule="evenodd" fill="#FFF100" d="M1151.202,269.748c-0.256,2.095-1.474,1.921-2.8,1.093
			c-9.173-5.731-19.192-9.993-27.987-16.408c-3.403-2.483-8.701-1.471-11.81-6.097c6.145-0.674,9.986,3.602,14.56,5.562
			c4.992,2.141,9.559,5.279,14.295,8.012c4.602,2.655,9.182,5.346,13.771,7.995C1151.231,269.878,1151.202,269.748,1151.202,269.748
			z"/>
		<path fill-rule="evenodd" clip-rule="evenodd" fill="#FFF100" d="M953.839,1562.066c12.184,0.947,24.595-3.998,36.417,2.145
			C978.173,1560.945,965.841,1564.637,953.839,1562.066z"/>
		<path fill-rule="evenodd" clip-rule="evenodd" fill="#FFF100" d="M1256.321,1423.846c2.119-1.576,3.706-5.172,6.718-0.4
			c1.896,3.004,2.828-2.324,4.552-1.816c6.188,3.941-0.154,10.49,4.535,15.498c-3.025-1.119-5.103-1.885-7.438-2.748
			c1.301-2.314,2.438-4.334,3.745-6.66c-3.241-1.496-5.286,0.242-7.54,1.477c-1.872-1.828,1.29-2.926,0.579-5.117
			c-1.71,0.918-2.729-4.363-5.227-0.299L1256.321,1423.846z"/>
		<path fill-rule="evenodd" clip-rule="evenodd" fill="#FFF100" d="M1250.193,1543.25c-0.832,2.441-2.512,0.867-3.847,0.781
			c-1.389-0.09-1.987,0.48-2.041,1.861c-0.057,1.455,1.675,0.832,2.05,1.805c-4.487,0.736-8.544-3.129-13.461-0.166
			c-2.946,1.775-3.394-5.107-5.705-4.346c6.633-1.436,14.816,2.301,23.028,0.127
			C1250.217,1543.305,1250.193,1543.25,1250.193,1543.25z"/>
		<path fill-rule="evenodd" clip-rule="evenodd" fill="#FFF100" d="M1277.334,1407.473c8.34-2.336,16.538-4.99,24.905-7
			C1294.578,1405.168,1286.551,1408.537,1277.334,1407.473z"/>
		<path fill-rule="evenodd" clip-rule="evenodd" fill="#FFF100" d="M1051.001,1568.434c9.112-0.783,16.051,7.223,25.936,3.568
			C1067.593,1572.375,1059.137,1574.961,1051.001,1568.434z"/>
		<path fill-rule="evenodd" clip-rule="evenodd" fill="#FFF100" d="M1020.273,1417.168c5.682-4.48-0.003-10.012,2.944-15.787
			c4.099,4.748,2.336,9.725,2.23,14.264C1025.388,1418.33,1023.723,1418.996,1020.273,1417.168z"/>
		<path fill-rule="evenodd" clip-rule="evenodd" fill="#FFF100" d="M1261.772,1461.17c1.024-4.994,4.909-5.881,7.519-5.32
			c6.396,1.381-0.963,6.711,1.217,8.018C1269.857,1460.691,1265.399,1461.66,1261.772,1461.17z"/>
		<path fill-rule="evenodd" clip-rule="evenodd" fill="#FFF100" d="M1012.103,1565.539c4.582-2.615,9.288,0.086,14.765-0.844
			C1021.649,1570.627,1016.682,1563.668,1012.103,1565.539z"/>
		<path fill-rule="evenodd" clip-rule="evenodd" fill="#FFF100" d="M561.001,1506.881c-0.731-4.23-6.236-2.137-7.636-5.953
			c2.34-2.447,5.517-2.752,8.061-1.117C564.668,1501.891,560.627,1504.436,561.001,1506.881z"/>
		<path fill-rule="evenodd" clip-rule="evenodd" fill="#FFF100" d="M1297.109,1452.514c-2.226-0.344-1.986-3.408-3.525-3.311
			c2.591,1.873,3.467,0.73,2.355-3.293c2.853,2.457,4.614,6.143,8.854,3.195c-1.248,5.73-6.607-1.896-7.721,3.27L1297.109,1452.514z
			"/>
		<path fill-rule="evenodd" clip-rule="evenodd" fill="#FFF100" d="M609.95,1350.482c-2.021-3.887-1.433-6.348-1.568-8.654
			C612.868,1343.344,611.038,1346.201,609.95,1350.482z"/>
		<path fill-rule="evenodd" clip-rule="evenodd" fill="#FFF100" d="M1312.838,1412.99c0.985,7.441,0.985,7.441-5.992,5.76
			C1307.693,1415.318,1312.076,1417.885,1312.838,1412.99z"/>
		<path fill-rule="evenodd" clip-rule="evenodd" fill="#FFF100" d="M349.136,1242.164c1.911,2.609,2.762,4.746,2.086,7.291
			C346.581,1249.215,346.372,1248.617,349.136,1242.164z"/>
		<path fill-rule="evenodd" clip-rule="evenodd" fill="#FFF100" d="M890.491,1401.756c1.461,2.9-1.217,5.5,1.014,8.693
			C887.543,1407.334,886.891,1404.881,890.491,1401.756z"/>
		<path fill-rule="evenodd" clip-rule="evenodd" fill="#FFF100" d="M708.225,1165.559c2.363-3.389,3.471-7.668,7.311-10.049
			c-1.675,3.926-3.202,7.92-6.411,10.951C708.839,1166.146,708.54,1165.844,708.225,1165.559z"/>
		<path fill-rule="evenodd" clip-rule="evenodd" fill="#FFF100" d="M735.525,1130.309c2.151-1.855,4.302-3.709,7.667-6.613
			c-0.859,5.445-4.024,6.389-7.04,7.479C735.956,1130.875,735.747,1130.588,735.525,1130.309z"/>
		<path fill-rule="evenodd" clip-rule="evenodd" fill="#FFF100" d="M704.789,1171.615c1.145-2.02,2.29-4.037,3.436-6.057
			c0.315,0.285,0.614,0.588,0.9,0.902c-0.783,2.203-1.51,4.438-3.223,6.154C705.532,1172.281,705.16,1171.949,704.789,1171.615z"/>
		<path fill-rule="evenodd" clip-rule="evenodd" fill="#FFF100" d="M722.411,1144.535c0.762-1.834,1.706-3.527,3.463-4.611
			c0.253,0.262,0.522,0.508,0.805,0.738c-0.467,2.07-1.868,3.543-3.24,5.029C723.096,1145.305,722.753,1144.918,722.411,1144.535z"
			/>
		<path fill-rule="evenodd" clip-rule="evenodd" fill="#FFF100" d="M734.893,1132.615c-0.46,1.799-1.477,3.021-3.665,3.389
			c-0.67-2.613,1.707-3.092,2.874-4.316C734.348,1132.012,734.611,1132.322,734.893,1132.615z"/>
		<path fill-rule="evenodd" clip-rule="evenodd" fill="#FFF100" d="M1152.067,1046.1c-0.359,0-0.711,0.029-1.054-0.021
			c-0.084-0.012-0.129-0.277-0.192-0.43c0.354-0.029,0.708-0.084,1.058-0.061C1151.948,1045.594,1151.999,1045.9,1152.067,1046.1z"
			/>
		<path fill-rule="evenodd" clip-rule="evenodd" fill="#FFF100" d="M723.438,1145.691c-0.855,1.135-1.312,2.717-3.215,2.834
			c-0.664-2.127,0.692-3.096,2.188-3.99C722.753,1144.918,723.096,1145.305,723.438,1145.691z"/>
		<path fill-rule="evenodd" clip-rule="evenodd" fill="#FFF100" d="M1188.255,1230.607c-1.462-0.088-3.187,1.182-4.406-1.025
			c1.684-0.182,2.721,2.062,4.403,1.037L1188.255,1230.607z"/>
		<path fill-rule="evenodd" clip-rule="evenodd" fill="#FFF100" d="M1147.501,1044.439c-0.131,0.311-0.262,0.617-0.392,0.926
			c-0.153-0.135-0.413-0.25-0.439-0.406c-0.062-0.367-0.01-0.752-0.004-1.131
			C1146.945,1044.031,1147.224,1044.234,1147.501,1044.439z"/>
		<path fill-rule="evenodd" clip-rule="evenodd" fill="#FFF100" d="M1209.77,1245.908c0.463-0.348,0.926-0.693,1.389-1.041
			c0.15,0.303,0.303,0.602,0.454,0.9c-0.616,0.037-1.231,0.074-1.845,0.113C1209.769,1245.887,1209.77,1245.908,1209.77,1245.908z"
			/>
		<path fill-rule="evenodd" clip-rule="evenodd" fill="#FFF100" d="M1236.9,1273.084c0.564-0.346,0.488-1.723,1.672-1.049
			c0.16,0.09,0.232,0.334,0.345,0.506c-0.675,0.166-1.353,0.336-2.029,0.508C1236.891,1273.055,1236.9,1273.084,1236.9,1273.084z"/>
		<path fill-rule="evenodd" clip-rule="evenodd" fill="#FFF100" d="M996.283,1372.17c0.558,0.262,1.117,0.527,1.749,0.822
			c-1.193,0.551-1.441-0.148-1.587-0.996C996.45,1371.99,996.283,1372.17,996.283,1372.17z"/>
		<path fill-rule="evenodd" clip-rule="evenodd" fill="#FFF100" d="M1345.63,543.515c0.376-0.749,1.124-0.594,1.301-0.124
			c0.469,1.243-0.972,0.608-1.312,1.127c0,0.001,0.206,0.122,0.207,0.122c0.002-0.492,0.002-0.983,0.004-1.474L1345.63,543.515z"/>
		<path fill-rule="evenodd" clip-rule="evenodd" fill="#FFF100" d="M1300.424,1405.455c0.943-0.443,1.855-1.123,3.034-0.41
			c-0.049,1.723-1.329,1.215-2.265,1.291C1300.925,1406.053,1300.669,1405.758,1300.424,1405.455z"/>
		<path fill-rule="evenodd" clip-rule="evenodd" fill="#FFF100" d="M727.075,1138.604c0.622-0.361,1.115-1.637,1.931-0.771
			c0.934,0.99-0.238,1.229-0.929,1.525C727.77,1139.068,727.437,1138.816,727.075,1138.604z"/>
		<path fill-rule="evenodd" clip-rule="evenodd" fill="#FFF100" d="M1199.147,1233.361c0.206-0.236,0.41-0.471,0.616-0.707
			c0.152,0.229,0.308,0.459,0.463,0.686c-0.33-0.074-0.66-0.148-0.997-0.203C1199.221,1233.158,1199.147,1233.361,1199.147,1233.361
			z"/>
		<path fill-rule="evenodd" clip-rule="evenodd" fill="#FFF100" d="M1188.252,1230.619c-0.709,1.275,0.096,1.377,1.079,1.332
			c0.027-0.029,0.088-0.127,0.104-0.15c-0.435,0.195-1.052,0.721-1.314,0.582c-1.082-0.578-0.372-1.205,0.135-1.775
			L1188.252,1230.619z"/>
		<path fill-rule="evenodd" clip-rule="evenodd" fill="#FFF100" d="M725.874,1139.924c0.401-0.439,0.801-0.879,1.201-1.32
			c0.361,0.213,0.695,0.465,1.002,0.754c-0.466,0.434-0.932,0.869-1.398,1.305C726.396,1140.432,726.127,1140.186,725.874,1139.924z
			"/>
		<path fill-rule="evenodd" clip-rule="evenodd" fill="#FFF100" d="M1127.236,1502.064
			C1127.5,1501.678,1127.763,1501.293,1127.236,1502.064c0.689-0.648,0.348-0.328,0.008-0.006L1127.236,1502.064z"/>
		<path fill-rule="evenodd" clip-rule="evenodd" fill="#FFF100" d="M1252.183,418.455l-0.15,0.064c0,0,0.134-0.165,0.116-0.184
			C1252.131,418.313,1252.183,418.455,1252.183,418.455z"/>
		<path fill-rule="evenodd" clip-rule="evenodd" fill="#FFF100" d="M1205.775,656.726c0.07,0.112,0.14,0.225,0.211,0.337
			c-0.092-0.038-0.184-0.076-0.276-0.102C1205.706,656.975,1205.775,656.726,1205.775,656.726z"/>
		<polygon fill-rule="evenodd" clip-rule="evenodd" fill="#FFF100" points="1135.089,1159.047 1135.01,1158.611 1135.335,1158.68 		
			"/>
		<path fill-rule="evenodd" clip-rule="evenodd" fill="#FFF100" d="M716.909,1153.391c-0.164,0.281-0.316,0.545-0.469,0.807
			c-0.135-0.137-0.403-0.309-0.378-0.408c0.068-0.287,0.256-0.545,0.398-0.814C716.602,1153.107,716.743,1153.236,716.909,1153.391z
			"/>
		<path fill-rule="evenodd" clip-rule="evenodd" fill="#FFF100" d="M734.102,1131.688c0.476-0.461,0.951-0.92,1.426-1.377
			c0.22,0.277,0.429,0.564,0.625,0.863c-0.42,0.48-0.839,0.959-1.26,1.441C734.611,1132.322,734.348,1132.012,734.102,1131.688z"/>
		<path fill-rule="evenodd" clip-rule="evenodd" fill="#FFF100" d="M1389.176,1304.6l0.141,0.135c0,0-0.193-0.062-0.192-0.057
			C1389.124,1304.68,1389.176,1304.6,1389.176,1304.6z"/>
		<path fill-rule="evenodd" clip-rule="evenodd" fill="#FFF100" d="M1297.072,1452.375l0.159-0.047c0,0-0.153,0.143-0.137,0.164
			C1297.109,1452.514,1297.072,1452.375,1297.072,1452.375z"/>
		<path fill-rule="evenodd" clip-rule="evenodd" fill="#FFF100" d="M1120.034,1127.453c-0.419,0.35-0.838,0.701-1.258,1.053
			c-0.487-1.506,0.88-0.619,1.272-0.996C1120.048,1127.5,1120.034,1127.453,1120.034,1127.453z"/>
		<path fill-rule="evenodd" clip-rule="evenodd" fill="#FFF100" d="M1178.214,446.705c-0.421-0.238-0.842-0.476-0.016-0.01
			c-0.651-0.684-0.315-0.332,0.021,0.021C1178.219,446.716,1178.214,446.705,1178.214,446.705z"/>
		<path fill-rule="evenodd" clip-rule="evenodd" fill="#FFF100" d="M609.961,453.112c-7.641,5.641-12.784,0.646-18.264-0.615
			C597.558,447.899,602.996,451.477,609.961,453.112z"/>
		<path fill-rule="evenodd" clip-rule="evenodd" fill="#FFF100" d="M729.297,397.252c3.022,4.442,6.651,4.141,9.887,4.644
			c0.2,4.036-2.109,3.519-4.635,3.343C730.474,404.955,729.528,402.532,729.297,397.252z"/>
		<path fill-rule="evenodd" clip-rule="evenodd" fill="#FFF100" d="M775.815,1142.807c0.916,0.164,1.487,0.561,0.983,1.582
			c-0.075,0.152-0.402,0.328-0.532,0.279c-1.132-0.424-0.514-1.191-0.337-1.875C775.919,1142.793,775.815,1142.807,775.815,1142.807
			z"/>
		<path fill-rule="evenodd" clip-rule="evenodd" fill="#FFF100" d="M374.79,1454.365c0.461,0.758,1.001,1.25,0.972,1.707
			c-0.029,0.453-0.63,0.871-0.979,1.305c-0.336-0.479-0.883-0.938-0.943-1.451C373.791,1455.523,374.345,1455.051,374.79,1454.365z"
			/>
		<path fill-rule="evenodd" clip-rule="evenodd" fill="#FFF100" d="M383.742,1456.773c-0.158,0.283-0.32,0.58-0.483,0.873
			c-0.15-0.15-0.448-0.334-0.423-0.447c0.07-0.318,0.273-0.605,0.423-0.908C383.41,1456.443,383.559,1456.594,383.742,1456.773z"/>
		<path fill-rule="evenodd" clip-rule="evenodd" fill="#FFF100" d="M995.266,706.346c-0.344,0.359-0.688,0.718-1.031,1.078
			c-0.1-0.157-0.2-0.315-0.299-0.472c0.425-0.123,0.851-0.245,1.29-0.399C995.238,706.521,995.266,706.346,995.266,706.346z"/>
		<path fill-rule="evenodd" clip-rule="evenodd" fill="#FFF100" d="M353.78,524.883c4.801,3.463,7.136,12.382,4.656,16.8
			c-0.938,1.675-2.221,2.707-4.287,2.755c-2.315,0.053-3.764-0.937-4.825-2.949C345.981,535.147,346.93,531.266,353.78,524.883z"/>
		<path fill-rule="evenodd" clip-rule="evenodd" fill="#FFF100" d="M436.101,501.285c4.432,3.564,6.763,12.042,4.797,16.439
			c-0.902,2.019-2.333,3.316-4.625,3.325c-2.228,0.009-3.685-1.044-4.751-3.102C428.31,511.749,429.262,507.816,436.101,501.285z"/>
	</g>
</g>
</svg>
