<?xml version="1.0" encoding="utf-8"?>
<!-- Generator: Adobe Illustrator 16.0.0, SVG Export Plug-In . SVG Version: 6.00 Build 0)  -->
<!DOCTYPE svg PUBLIC "-//W3C//DTD SVG 1.1//EN" "http://www.w3.org/Graphics/SVG/1.1/DTD/svg11.dtd">
<svg version="1.1" id="Layer_1" xmlns="http://www.w3.org/2000/svg" xmlns:xlink="http://www.w3.org/1999/xlink" x="0px" y="0px"
	 width="1600px" height="1800px" viewBox="0 0 1600 1800" enable-background="new 0 0 1600 1800" xml:space="preserve">
<g>
	<g>
		<path fill-rule="evenodd" clip-rule="evenodd" fill="#FFF100" d="M389.665,388.266c4.424-1.771,3.471-6.577,3.399-9.186
			c-0.256-9.231,0.985-18.806-2.256-27.654c-1.813-4.955-1.49-10.069-2.793-15.025c-0.72-2.742-2.186-1.671-3.372-2.176
			c-1.815,1.87,0.587,3.934-0.064,5.8c-0.737,0.107-1.465,0.379-1.591,0.209c-3.597-4.904-2.812-11.914,2.047-14.402
			c1.79-0.917,2.112-1.941,1.644-3.087c-4.049-9.887-0.238-20.192-1.891-30.532c-1.05-1.355-3.64,0.548-4.637-1.568
			c1.369-1.122,2.937-1.079,4.564-0.61c2.094-11.681,6.484-15.851,17.181-16.112c1.597-0.039,2.645-0.394,3.367-1.857
			c3.709-7.514,11.959-6.711,18.1-9.773c0.29-0.146,0.867,0.289,1.968,0.699c-7.36,6.856-16.108,10.986-24.776,14.569
			c-6.297,2.603-7.169,8.231-6.194,11.75c2.546,9.2,0.087,18.77,3.139,27.653c2.055,5.987-0.427,13.833,7.029,17.789
			c-1.391,3.103-2.073,6.16-1.955,9.908c0.351,11.029-0.915,22.108-0.582,33.14c0.388,12.753-2.029,25.286-2.069,38.052
			c-0.024,7.791,3.733,16.096,0.66,22.909c-2.957,6.556,4.571,12.648-1.068,18.48c-0.632,0.652,1.736,3.352,4.682,3.782
			c-5.94,6.966-3.4,14.415-2.603,21.902c0.832,7.8,2.342,15.406,5.845,22.323c4.153,8.194,8.22,16.784,15.742,22.465
			c3.278,2.475,8.018-1.701,12.322,0.78c0.844,2.521-2.59,4.53-1.937,7.49c15.668,8.201,31.357,16.534,47.172,24.623
			c5.075,2.597,10.869,2.935,16.429,3.235c16.297,0.882,32.395,3.173,48.445,5.975c3.798,0.664,7.611,1.165,11.52,0.63
			c1.826-0.251,3.88-0.302,5.593,0.27c13.648,4.544,27.685,5.714,41.98,5.98c5.588,0.104,9.376,5.482,12.146,9.556
			c5.7,8.378,13.062,15.286,18.955,23.364c10.065,13.798,23.202,24.849,33.244,38.719c7.093,9.795,15.743,18.548,24.282,27.19
			c11.704,11.845,21.431,25.289,29.629,39.481c6.673,11.553,10.373,24.869,12.33,38.304c1.457,10.012,5.793,19.14,10.172,27.774
			c7.985,15.742,11.469,31.736,8.729,49.035c-0.339,2.133-0.661,4.007-0.128,6.077c2.809,10.938,4.353,22.101,7.911,32.971
			c3.096,9.452,10.984,13.936,16.243,20.997c2.336,3.136,5.454,5.773,7.362,9.126c10.708,18.816,26.511,33.176,41.197,48.621
			c9.198,9.674,17.925,19.927,28.313,28.199c11.852,9.438,22.277,20.876,36.11,27.645c2.781,1.362,1.466,4.475,4.633,5.948
			c5.585,2.593,10.615,4.155,17.935-0.217c-3.042,5.74-1.338,8.768,0.756,12.23c7.504,12.421,16.271,22.782,28.795,31.271
			c13.213,8.958,27.045,16.587,40.799,24.398c12.041,6.836,25.381,9.227,39.38,7.277c8.9-1.237,16.796,3.55,25.233,5.206
			c3,0.588,5.509,12.594,4.016,16.875c-1.526,4.373-3.12,8.779-8.976,9.016c-3.82,0.156-5.689,6.217-10.292,3.836
			c-7.031-3.639-14.089-7.109-19.615-13.271c-3.024-3.373-2.941-6.178-0.168-10.279c-24.514-4.32-45.249-14.787-64.877-27.903
			c-0.415,0.671-0.833,1.344-1.249,2.017c5.322,7.518,10.163,15.457,16.204,22.344c2.374,2.707,2.929,5.838,3.933,8.467
			c4.631,12.084,16.047,7.873,24.222,10.555c12.531,4.107,17.767,12.77,12.208,24.66c-1.995,4.268-6.995,3.826-10.796,5.141
			c-1.475,0.508-4.126-1.043-3.001,2.93c0.521,1.84-2.133,1.539-3.714,0.615c-5.273-3.08-10.621-6.039-15.866-9.164
			c-6.555-3.91-6.447-11.027-4.082-15.906c4.09-8.445-2.046-12.193-5.905-16.361c-4.427-4.783-8.213-10.129-11.572-15.383
			c-4.1-6.409-10.323-11.29-12.949-18.773c-1.466-4.174-17.261-14.668-22.767-15.866c-1.697,7.141-0.559,14.525-4.239,21.821
			c-2.885,5.721-0.645,14.082-6.377,20.043c4.842,5.516-0.453,11.105-2.626,15.289c-3.071,5.914-0.419,8.834,2.737,11.762
			c4.004,3.713,3.936,6.9,0.686,10.707c-1.968,2.305-1.047,5.734-3.448,8.039c-7.399,7.109-14.712,5.096-20.663-4.023
			c-1.554,2.721,0.966,4.621,1.059,6.92c-2.27,1.756-4.034-0.252-4.396-1.586c-1.386-5.115-5.03-8.797-7.512-13.193
			c-4.496-7.963-2.44-15.652,5.478-20.398c5.844-3.504,11.524-4.086,16.574,1.748c0.978,1.131,2.735,1.584,3.962,2.258
			c3.4-13.152,6.273-26.178,10.055-39.042c1.99-6.77,2.178-14.801,1.786-22.087c-0.353-6.573-7.963-7.636-12.905-9.436
			c-14.819-5.402-28.124-13.621-41.843-21.066c-11.286-6.125-21.713-13.315-30.626-22.939c-3.577-3.86-9.87-5.509-14.382-9.032
			c-11.189-8.741-22.307-17.578-33.494-26.327c-0.888-0.694-2.07-1.011-4.968-2.375c-0.012,36.976-0.186,72.91-4.05,108.652
			c-3.855,35.672-7.524,71.363-11.271,107.031c-3.381,1.732-5.082-2.543-4.834-2.746c2.68-2.201-3.317-9.23,4.614-7.564
			c-3.612-10.449-2.628-20.207,0.111-29.938c1.499-5.318-0.877-10.551,0.303-16.117c1.747-8.232,2.746-16.951,2.023-25.285
			c-0.644-7.459,1.008-14.477,1.308-21.7c0.565-13.569,2.656-27.131,2.373-40.658c-0.172-8.111,0.354-16.455,1.557-23.959
			c2.813-17.551,1.707-34.832-0.836-51.832c-1.676-11.196-0.179-22.177-1.542-33.143c-0.698-5.604-1.547-11.301-2.717-16.726
			c-1.155-5.349-0.417-9.831,0.943-14.456c-6.62-6.887-15.035-2.122-22.533-3.477c-5.934-1.071-12.653-1.614-18.183-0.666
			c-8.543,1.463-17.054,2.139-25.564,2.329c-13.287,0.3-26.122,4.913-39.699,3.205c-4.285-0.54-8.961,2.7-14.078,1.652
			c-1.859-0.38-3.154-1.22-3.4-1.449c-10.621,5.769-21.644,1.452-31.635,4.597c-3.304,5.749-2.641,12.381-2.719,18.807
			c-0.21,17.211-1.92,34.32-3.377,51.433c-1.652,19.414-3.503,38.859-6.632,58.072c-0.835,5.124-2.99,11.12-3.5,15.967
			c-0.511,4.873-1.683,9.962-1.783,14.961c-0.222,10.896-4.601,20.995-5.465,31.727c-0.672,8.32-3.595,16.24-2.567,24.994
			c0.563,4.816-3.701,9.895-4,15.369c-0.872,15.889-6.596,30.684-10.107,45.986c-4.5,19.602-10.392,38.85-14.545,58.494
			c-3.243,15.35-8.106,30.283-10.673,45.809c-1.509,9.119-4.508,18.02-7.21,26.904c-1.497,4.926-0.652,11.045-6.386,14.088
			c3.99,12.211-6.245,22.117-5.685,34.105c0.153,3.281-3.302,8.379-4.848,12.74c-6.057,17.088-9.396,34.959-16.315,51.902
			c-4.408,10.793-7.122,22.506-10.254,33.998c-5.541-1.436-4.355-4.984-3.497-8.018c3.344-11.801,6.849-23.637,10.987-35.096
			c4.489-12.428,7.144-25.346,11.777-37.615c3.361-8.9,4.207-18.131,6.312-27.18c1.521-6.535,2.269-13.395,6.611-19.424
			c2.777-3.857,2.904-9.666,4.057-14.637c3.323-14.322,7.765-28.426,10.755-42.727c1.917-9.156,3.668-18.611,5.847-27.686
			c3.315-13.811,6.169-27.77,10.19-41.473c4.659-15.887,8.141-32.207,10.719-48.676c1.298-8.273,3.712-16.5,6.718-24.326
			c1.479-3.854-1.957-6.412-0.199-10.533c3.071-7.197,5.194-15.275,5.458-23.061c0.252-7.448,2.084-14.455,2.958-21.688
			c1.857-15.354,3.9-30.668,6.296-45.961c2.324-14.855,4.361-29.812,5.841-44.832c0.744-7.564,0.591-15.246,2.184-22.802
			c1.691-8.011-0.921-16.364,1.299-24.505c2.502-9.178,2.037-18.68,2.336-28.079c0.162-5.094-2.157-6.293-7.396-7.3
			c-15.925-3.06-31.251,3.287-46.925,1.707c-2.929-0.296-3.113,1.82-4.585,3.458c-9.94,11.067-17.466,23.689-22.617,37.364
			c-2.98,7.906-5.969,16.133-9.427,23.598c-3,6.48-7.477,12.939-10.791,19.601c-4.591,9.224-9.901,18.195-15.647,26.463
			c-5.655,8.138-9.571,17.279-15.64,25.261c-3.276,4.309-7.128,9.487-9.143,14.869c-2.874,7.678-8.312,13.441-13.224,19.394
			c-3.267,3.955-4.134,7.746-2.393,11.331c5.943,12.245,5.559,25.97,9.675,38.452c3.531,10.707,3.838,21.816,6.447,32.6
			c1.764,7.297,2.178,15.271,2.713,22.975c0.386,5.564,2.013,9.178,7.789,11.498c4.145,1.664,10.176,4.051,9.662,9.842
			c-0.681,7.666-0.981,16.496-8.221,21.137c-3.028,1.943-8.506,2.717-12.761-0.256c-1.832-1.281-3.934-2.178-6.074-3.338
			c-0.534,3.061,3.004,3.945,2.386,6.557c-1.295,1.234-2.477,0.881-3.566-0.33c-5.7-6.334-11.573-12.523-17.021-19.068
			c-3.105-3.727,0.588-16.168,5.449-19.838c7.4-5.588,7.4-5.588,12.738-4.311c1.433-5.703-0.244-11.514-0.646-16.92
			c-0.414-5.578-1.835-11.277-1.988-17.021c-0.094-3.498-1.688-6.486-2.567-9.695c-2.685-9.797-6.914-19.232-7.131-29.707
			c-0.055-2.65-2.138-5.389-3.676-7.846c-1.585-2.525-4.381-1.215-6.579-1.168c-2.359,0.053-2.521,2.15-2.753,4.176
			c-1.941,16.736-4.897,33.346-7.593,49.953c-3.348,20.635-8.283,41.035-10.923,61.811c-0.594,4.67-3.55,8.803-2.584,14.178
			c5.079,0.955,8.578,5.176,13.312,7.557c8.853,4.453,10.282,16.223,3.909,24.783c-5.616,7.543-9.026,8.33-18.012,4.367
			c-1.229-0.543-2.708-0.518-4.105-0.76c-0.925,2.26,2.949,2.619,1.332,4.928c-1.179,0.922-2.484,0.732-3.556-0.482
			c-5.606-6.344-11.301-12.615-16.701-19.131c-3.328-4.016-0.789-16.096,4.95-19.383c3.511-2.01,5.448-7.561,10.956-5.598
			c2.015-11.877,3.323-23.635,5.662-35.277c2.099-10.447,5.986-20.455,7.9-30.611c1.763-9.363,4.375-19.369,2.424-29.545
			c-0.714-3.723,1.114-8.125,2.459-11.98c1.036-2.965,0.66-5.719,0.895-9.297c-5.926,3.076-7.245,8.783-8.964,13.307
			c-3.12,8.211-8.118,15.406-11.32,23.469c-5.014,12.625-12.094,24.576-16.102,37.273c-2.932,9.291-6.436,18.111-10.807,26.566
			c-3.228,6.244,1.61,9.508,3.812,13.15c3.243,5.363,2.143,9.129-2.106,12.15c-3.801,2.701-4.576,7.885-10.055,9.521
			c-4.899,1.463-8.917,3.699-12.82-1.076c-2.787-3.414-6.139-6.631-4.968-12.867c-3.681,3.271-2.075,6.891-3.031,9.842
			c-4.406-6.055-5.149-13.027-5.927-19.719c-0.32-2.766-2.346-4.846-1.793-7.893c1.088-6,7.91-12.93,15.121-13.635
			c3.977-0.391,8.22-3.057,12.182,1.85c1.97,2.443,4.996,0.344,6.838-3.131c8.179-15.428,13.324-32.084,20.23-47.984
			c4.571-10.525,8.193-21.791,13.859-31.4c6.287-10.66,9.974-22.707,17.796-32.591c2.384-3.012,2.299-8.28,2.606-12.568
			c0.623-8.675-0.738-17.79,7.17-24.337c0.777-0.646,0.928-2.149,1.191-3.296c5.999-26.047,17.76-50.095,26.221-75.292
			c3.445-10.261,8.611-19.931,12.467-30.071c4.495-11.824,8.445-23.857,12.564-35.822c1.04-3.021-0.57-4.367-3.422-4.738
			c-10.843-1.409-20.773-6.163-31.352-8.73c-9.253-2.248-17.59-8.216-26.373-12.453c-10.009-4.825-17.775-12.544-23.883-21.318
			c-5.015-7.207-10.801-13.918-15.058-21.689c-5.281-9.646-9.304-19.934-13.318-30.03c-4.156-10.459-5.012-22.206-7.557-33.332
			c-3.646-15.935-8.211-31.695-11.037-47.767c-1.772-10.083-4.359-20.103-5.009-30.307c-0.201-3.167-2.256-4.862-2.751-7.567
			c-1.015-5.547,0.062-11.053-0.805-16.749c-1.801-11.816-2.772-23.872-4.131-35.779c-1.95-17.084,0.148-34.174-1.653-51.225
			c-0.415-3.93,1.407-8.611,1.506-12.938c0.49-21.605,2.304-43.139,2.724-64.773c0.537-27.704-2.482-55.148-3.443-82.719
			c-0.42-12.001-0.265-23.991-0.729-35.867c-0.541-13.855-0.606-27.562,2.088-40.914c2.471-12.244,2.868-25.034,9.63-36.555
			c2.977-5.075,5.611-10.646,8.714-15.807c4.487-7.461,5.587-7.442,11.615-0.225c-5.094,5.051-8.028,10.492-0.567,16.197
			c4.115-1.25,6.741-5.193,10.439-7.638c5.851-3.867,6.3,3.459,9.95,3.008c-0.79,4.221-4.456,4.589-8.138,5.876
			c4.079,4.789,3.136,13.066,12.578,11.354c-0.58,3.541-1.058,6.452-1.536,9.378c-7.466-3.917-4.176,4.544-7.692,5.572
			c3.022,1.619,6.952,1.311,5.657,5.795c-6.972,4.378-10.563,3.751-15.536-2.596c-1.233-1.573-2.924-0.863-4.897-0.5
			c1.179,2.48,5.65,2.946,2.975,7.46c6.211-2.348,9.334-1.18,8.715,4.799c-0.302,2.914,2.773,0.534,3.121,2.218
			c3.626-1.744,7.855,1.717,10.918-2.057c3.351,6.021-1.507,7.399-4.319,10.043c-1.381-2.026-0.083-5.972-4.442-6.136
			c-0.716,2.877,2.748,5.412,0.393,8.582c-0.816,1.099,2.346,2.565,3.91,2.873c5.019,0.989,9.124,5.379,9.655,11.292
			c-1.56-0.478-2.981-0.914-4.436-1.359c-3.005,6.353-6.411,6.944-15.356,3.979c-1.786,1.818,1.477,2.589,0.618,4.789
			c-2.124,0.2-5.159-1.47-7.072,1.057c0.737,3.875,3.109,0.129,4.2,0.915c1.271,2.123-1.852,2.169-0.724,4.559
			c1.047,0.846,2.76,2.266,6.81,1.579c-2.749,2.533-6.706,1.956-5.284,5.404c-3.075,0.719-2.419-4.03-5.853-2.399
			c-1.384,7.664,13.872,7.378,8.038,17.172c3.955-5.195,9.389-4.085,13.084,2.427c2.631,0.53,3.957-4.877,7.281-0.868
			c1.028-5.352-0.187-9.925,1.364-14.221c0.512-1.418,0.425-2.803-1.263-3.556c-1.1-0.49-2.275-0.928-3.319-0.181
			c-7.177,5.145-7.164,5.164-13.328,4.975c-1.182-5.18,2.126-7.216,6.086-9.012c-1.219-2.488-2.396-5.009,1.109-7.158
			c1.966-1.204,3.461-3.374,6.125-1.715c3.065,1.909,2.835,4.507,1.438,7.314c-0.888,0.643-1.241,1.339-0.224,2.178
			C388.975,389.185,389.319,388.726,389.665,388.266z M625.271,886.847c6.651-3.294,1.777-8.518,1.247-13.011
			c-0.458,4.412-0.915,8.825-1.36,13.203l0.313,0.159L625.271,886.847z M339.799,552.903c0.955-0.783,2.853,1.412,2.748-0.057
			c-0.271-3.863,2.3-8.272-2.256-11.266c7.062-4.027,6.963-9.241,1.103-15.118c-3.321,8.253-6.014,17.373-1.408,26.635
			c-7.059,3.751,0.525,9.516-2.578,13.72c4.204,0.917,6.504-0.527,7.702-3.584C344.471,559.029,337.868,558.23,339.799,552.903z
			 M889.716,1119.905l0.186,0.188c-5.272-7.66-6.93-7.852-13.278-1.016c3.658,3.65,3.809,9.285,7.128,13.324
			c3.157,3.842,7.685,5.254,12.229,4.398c4.252-0.801,3.911-5.969,3.314-8.256C898.167,1124.224,893.829,1121.817,889.716,1119.905z
			 M352.075,1211.671c-0.769-0.66-1.539-1.32-2.31-1.982c0.35-3.896-1.734-6.855-5.177-6.9c-1.594-0.021-6.484,0.283-6.111,3.195
			c0.889,6.92-1.659,14.875,3.415,20.545c2.839,3.168,6.153,9.096,12.431,5.324c4.729-2.838,5.014-9.053,1.054-14.936
			C354.226,1215.202,353.173,1213.421,352.075,1211.671z M738.348,819.483c7.209-2.188,5.501-10.083,9.415-14.621
			c-2.07-3.068-11.239-3.673-3.869-10.226c-0.518-2.84-3.669-4.112-3.45-7.321c-6.582,3.285-13.248,1.693-19.534,3.655
			c2.924,3.027-2.145,3.969-1.657,6.46c11.034,1.868,13.509,4.673,9.894,11.592c1.812,0.817,3.738-1.181,5.691,0.432
			c-0.346,3.694,2.358,6.641,3.555,10.12c-4.003,0.362-4.003,0.362-3.934,5.274C734.321,821.92,737.221,821.406,738.348,819.483z
			 M622.887,845.09c8.441-2.482,9.026-12.913,17.41-15.118c1.552-0.408,1.532-2.805,0.411-4.323
			c-1.354-1.835-3.211-1.465-5.146-1.048c-2.188,0.473-2.588,3.826-6.81,3.583c3.227-5.538,8.251-6.62,11.828-9.466
			c3.469,2.628,2.242,6.22,2.963,9.689c4.431-2.671,3.743-5.867,1.453-9.762c28.621-17.129,57.742-31.328,91.212-36.269
			c-0.435-1.914,1.215-5.282-0.795-9.113c-8.389-16.001-9.67-34.602-17.878-50.66c-4.154-8.126-8.243-16.922-14.612-23.091
			c-5.614-5.437-10.886-11.53-15.747-17.245c-7.157-8.414-15.647-15.765-21.815-25.077c-5.011-7.564-12.827-12.839-18.158-19.904
			c-11.688-15.495-25.356-29.224-37.504-44.278c-4.141-5.131-10.043-7.257-16.866-7.348c-6.302-0.083-13.122,0.251-18.779-1.974
			c-14.279-5.613-29.436-3.438-43.989-6.419c-13.653-2.796-27.868-2.922-41.45-5.947c-4.215-0.938-8.616-0.607-12.905-2.297
			c-12.359-4.867-23.173-12.502-35.004-18.221c-5.104-2.466-10.807-4.335-16.421-0.515c5.585,11.409,5.051,12.264-6.521,17.621
			c-2.419,1.121-6.085,2.582-5.582,6.305c-10.751-1.415-12.401,5.486-12.771,12.994c-2.697,0.659-1.508-3.182-4.072-2.37
			c-3.066,2.876-5.964,6.467-10.703,7.037c-6.93,0.832-13.091,3.595-19.024,7.072c-0.712,0.417-2.1,0.729-2.566,0.348
			c-3.275-2.68-5.567-0.024-7.91,1.532c-5.447-6.713-8.633-8.126-12.06-5.515c3.188-0.351,6.194-0.393,6.776,3.83
			c-12.427,8.57-12.427,8.57-14.735,5.271c2.627,66.457,15.619,131.159,32.583,196.188c1.655-1.474,2.569-1.906,2.57-2.344
			c0.063-13.803-0.646-27.649,0.265-41.392c0.614-9.252-1.056-18.376-0.419-27.402c0.851-12.027-3.422-23.266-3.528-35.096
			c-0.046-5.1-2.351-10.4-4.523-15.205c-2.742-6.064-1.925-10.314,4.106-13.096c6.403-2.954,13.229-3.809,20.303-4.131
			c16.514-0.755,32.793,2.622,49.441,1.816c8.067-0.39,12.982-1.809,16.646-8.052c4.746,1.294,6.044,4.196,2.979,7.229
			c-4.357,4.316-4.428,8.031-0.15,11.646c-1.43,4.633-6.771,6.152-7.587,9.36c-3.322,13.076-5.779,26.393-8.034,39.709
			c-1.376,8.119-0.825,16.505-2.905,24.584c-0.568,2.214-1.357,4.671-0.932,6.792c2.579,12.867,3.755,25.709,0.804,39.012
			c2.161,0.464,4.562,0.625,6.671,1.491c10.34,4.244,19.294,3.797,25.933-6.608c1.273-1.997,3.461-0.953,5.101,0.014
			c1.437,0.849,1.735,2.402,0.817,3.688c-4.972,6.964-10.732,12.702-19.96,13.633c-11.698,1.178-22.812-0.939-33.529-5.414
			c-8.678-3.625-16.431-2.419-24.774,1.984c-7.125,3.759-14.746,7.49-23.296,7.01c-0.785,1.761-1.07,3.333-0.15,4.882
			c5.478,9.235,10.628,18.691,16.591,27.602c3.71,5.544,8.146,10.846,13.159,15.222c10.707,9.345,23.147,15.662,36.711,20.278
			c13.787,4.691,27.378,9.903,41.944,11.438c12.083,1.274,24.219,2.246,36.611,1.789c2.229-6.508,4.139-12.867,4.295-20.543
			c-5.67,3.033-9.969,7.561-17.726,6.578c4.521-8.927,17.677-6.853,19.849-17.02c0.399-1.875,3.403-2.021,5.535-1.599
			c2.609,7.394,2.32,16.059-1.808,26.479c-2.209,5.577,1.54,7.754,4.905,7.664c10.017-0.273,20.015-1.513,30.035-2.193
			c11.959-0.811,23.782-2.542,35.674-0.13c8.394,1.704,19.289-3.168,23.238-10.742c-6.004-5.203-6.431-8.188-2.142-15.547
			c1.959-3.363,4.978-6.381,2.934-10.281c1.938-2.719,6.409-1.134,6.526-5.117C628.365,846.059,625.165,848.216,622.887,845.09z
			 M905.474,1036.342c0.25-3.693,0.059-5.562-2.077-7.881c-3.542-3.851-7.606-6.747-11.689-9.854
			c-10.277-7.828-20.119-16.229-30.354-24.115c-21.063-16.229-37.985-36.5-55.366-56.319c-4.655-5.31-8.443-11.421-13.36-16.447
			c-6.491-6.636-12.882-13.223-18.157-20.948c-2.378-3.482-4.942-7.328-8.741-9.682c-1.223,1.389-1.543,2.368-0.895,3.173
			c3.02,3.745,3.725,7.356,0.253,11.34c-0.742,0.854-0.405,2.682-0.495,4.063c-0.688,10.512,2.887,20.653,2.771,31.077
			c-0.048,4.355,1.876,6.852,4.96,9.415c10.659,8.86,20.624,18.651,31.823,26.746c9.996,7.226,19.881,14.687,30.193,21.446
			c11.564,7.58,23.57,14.556,35.772,21.069C881.397,1025.45,893.198,1030.518,905.474,1036.342z M429.144,734.762
			c3.244-17.329,5.917-34.794,10.009-51.922c1.635-6.846,1.66-10.305-6.01-11.483c-1.458-0.225-2.335-0.07-3.625,0.238
			c-5.441,1.301-10.782,2.061-16.615,1.639c-10.983-0.794-21.659-3.687-33.145-2.103c-7.729,1.066-6.833,4.139-5.447,8.403
			c2.341,7.207,3.094,14.695,4.441,22.039c2.028,11.06,2.542,22.359,2.109,33.63c-0.356,9.286,0.596,18.512-0.05,27.883
			c-0.823,11.942-1.584,24.121,0.122,36.923c16.508-3.313,30.332-17.115,49.642-8.499c-3.734-8.105-1.621-14.564-3.082-21.127
			c-14.086,3.124-28.141,8.223-44.497,0.862c10.248-5.171,8.632-13.525,9.285-21.359c0.35-4.189-2.583-7.04-2.844-10.793
			c-1.118-16.05,0.664-32.029,1.371-48.027c0.123-2.796-0.31-6.157,1.913-8.654c10.9-1.464,20.82,1.117,30.089,6.498
			c5.808,3.369,6.393,6.904,1.884,11.773c-1.462,1.577-4.046,3.253-3.33,5.069C425.023,715.058,424.852,725.223,429.144,734.762z
			 M362.205,386.085c-3.131,1.551-6.276,3.108-9.418,4.663c-1.013-1.106,0.819-3.183-1.364-4.11
			c-1.519,1.758-2.861,3.768-5.664,3.735c-1.014-2.513-2.434-4.699-4.85-6.077c-2.759,2.18-7.442,4.056-7.723,6.446
			c-0.774,6.616-0.166,13.51,0.762,20.172c0.809,5.793,5.729,7.599,10.883,4.551c1.067-0.632,1.426-2.47,3.235-1.841
			c2.203,10.285,1.656,11.096-8.876,14.01c-0.61,0.168-1.175,1.412-1.308,2.228c-0.328,2.029-0.396,4.103-0.554,5.989
			c4.497,2.638,9.438-1.544,13.891,1.286c-2.48,2.581-2.647,5.309-2.126,9.812c3.491-6.242,10.761-0.799,13.321-6.801
			c-1.247-2.191-3.697-2.729-6.473-4.643c9.365,0.179,3.363-8.684,7.83-11.287c2.803-0.079,1.952,4.695,5.561,3.633
			c1.595-2.285,1.013-4.228-1.183-6.131c-3.403-2.948-3.834,2.602-6.211,2.402c-1.17-5.036-4.767-8.391-6.972-13.352
			c4.719,2.414,9.242,4.038,13.68-0.323c-2.237-2.925-4.794-6.083-8.456-6.459c-7.214-0.741-3.759-7.048-5.915-10.354
			c-0.527-0.809,1.767-1.943,3.104-1.729C362.365,392.713,362.878,392.153,362.205,386.085z M402.104,700.525
			c-7.355,22.425,2.016,43.177,0.189,64.535c6.343-0.594,8.919-2.028,8.883-7.858c-0.064-10.566-1.335-21.024-1.668-31.527
			C409.226,716.716,405.598,709.226,402.104,700.525z M492.6,961.714c-20.357,30.37-36.673,63.116-57.245,93.359
			c1.003,0.59,2.006,1.18,3.01,1.769C457.596,1025.809,477.496,995.169,492.6,961.714z M393.869,1230.548
			c-2.627,1.297-5.222-2.438-7.374,1.623c-0.912,1.721-4.557,2.961-2.668,5.002c4.572,4.939,6.365,12.576,13.077,15.152
			c3.587,1.379,7.813,3.375,12.058,0.848c4.198-2.502,2.643-6.676,1.885-9.537c-1.532-5.795-7.218-5.979-12.191-7.146
			c0.898,8.354,0.232,9.059-5.886,6.92C391.584,1239.362,393.771,1235.636,393.869,1230.548z M440.325,1185.233
			c-0.521,3.02-4.612,3.346-4.683,6.686c3.49,4.629,6.583,9.643,10.591,13.77c3.748,3.861,9.306,4.254,14.22,3.1
			c4.632-1.084,3.396-5.721,2.876-8.926c-1.034-6.354-6.225-6.725-11.13-7.309c-1.494,2.611,0.229,5.746-2.513,7.389
			C446.447,1199.065,446.447,1199.065,440.325,1185.233z M973.74,1123.011c3.153,2.266,6.021,4.26,8.814,6.352
			c3.729,2.789,7.371,4.213,12.404,2.818c3.304-0.916,6.598-1.219,6.077-5.133c-0.502-3.785-1.693-7.92-7.003-8.215
			c-3.262-0.18-6.749-0.137-9.697-1.299C978.796,1115.345,976.1,1117.862,973.74,1123.011z M1035.539,1101.858
			c-5.881,0.498-8.535-6.939-15.313-4.184c5.738,4.18,10.186,9.58,17.05,10.303c3.087,0.324,7.244,0.523,9.871-2.857
			c2.334-3.004,0.172-5.611-1.013-7.809c-2.312-4.285-6.421-3.578-10.595-2.793
			C1035.539,1096.935,1035.539,1098.989,1035.539,1101.858z M706.03,861.527c-10.684-1.733-13.61-0.545-13.758,5.311
			c1.846,1.578,3.028-2.459,4.509-0.958c0,5.137,0,9.876,0,15.672c2.89-1.567,6.752,0.142,7.437-4.345
			C705.013,872,705.444,866.736,706.03,861.527z M352.788,489.711c-2.555-3.346-4.788-6.626-2.172-9.179
			c-2.475-5.01-8.538-4.122-10.826-8.988c1.403,6.177-1.098,13.133,2.698,18.701c4.456-0.608,0.725-4.654,3.675-5.521
			C348.678,485.927,347.354,491.517,352.788,489.711z M389.408,432.657c1.384-12.098,1.384-12.098-2.938-11.512
			c-3.097-1.185,0.115-4.476-4.079-6.359c1.75,3.955-0.982,6.943,1.429,10.24c1.432,1.96-0.759,3.583-2.582,3.937
			c-2.37,0.458-4.043-0.801-4.255-3.418c-0.085-1.039,2.564-2.354-1.485-3.448c0,6.126,0,11.954,0,17.78
			c-0.332-10.425,10.726-5.812,13.185-10.991C391.802,430.442,387.768,431.381,389.408,432.657z M339.229,467.74
			c3.373-3.901,2.053-7.798,4.253-11.148c3.864-5.885,9.074,0.472,13.212-3.96c-8.364-0.529-12.984-3.733-10.945-12.28
			c-3.393,1.694-6.144,3.068-8.788,4.39c1.037,3.495,3.798,4.208,6.287,5.143C341.09,455.224,337.773,460.01,339.229,467.74z
			 M412.778,536.525c1.094-8.059-5.79-11.081-9.523-16.249c0.8,4.267-4.75,6.684-2.993,11.005c1.811,0.147,2.99-2.161,4.8-0.677
			c0.503,2.297-2.662,2.485-2.583,4.71C405.664,537.611,409.062,538.508,412.778,536.525z M710.225,822.098
			c6.604-3.673,9.134,1.78,8.808,4.679c-0.771,6.873,3.598,10.361,6.812,14.933c5.341-4.861-1.222-6.593-2.386-9.521
			c0.587-1.432,3.201-0.423,2.641-3.192c-4.921,0.781-5.47-3.492-5.954-6.575c-0.544-3.445-2.037-5.722-5.021-6.269
			C711.447,815.479,712.476,819.663,710.225,822.098z M363.055,345.196c-2.322,0.258-5.14,0.121-5.273,0.655
			c-1.294,5.169-5.195,8.784-7.367,13.327c-0.858,1.795,1.738,2.526,4.54,3.192c-1.056-3.565-0.215-5.685,3.002-6.729
			c2.646-0.859,5.993,3.105,7.997-1.404C364.129,351.918,362.744,349.3,363.055,345.196z M382.824,494.857
			c1.958,2.14,2.621,4.688,5.646,4.137c1.86-0.339,3.568,0.779,3.13,2.703c-0.413,1.806,0.016,5.431-2.535,5.019
			c-6.504-1.048-2.323,2.995-2.785,4.881c2.772-3.643,7.343-5.197,10.024-8.704c-2.218-3.908-4.609-7.423-3.185-11.317
			C389.248,490.914,387.538,495.901,382.824,494.857z M661.278,853.483c6.876-4.005,11.602-9.733,15.123-16.991
			c-3.8,2.255-11.022,1.481-11.277,5.094C664.794,846.256,662.741,849.526,661.278,853.483z M389.707,469.727
			c1.948,7.973-5.179,14.11-3.884,22.218c0.382-4.844,5.636-4.04,7.425-6.957C392.564,479.812,392.589,474.648,389.707,469.727z
			 M739.529,836.903c-0.316,5.747-5.724,1.838-6.897,5.193c2.4,2.021,5.454,0.327,7.839,1.484c0.38,9.385,0.776,9.867,6.959,7.354
			c-4.875-1.497-3.975-4.298-1.757-7.047C740.902,842.421,740.902,842.421,739.529,836.903z M355.841,333.442
			c-9.906,5.482-10.994,9.178-5.294,14.77C355.802,344.634,352.174,338.486,355.841,333.442z M681.452,880.24
			c1.55,4.363,4.56,2.122,8.526,1.77c-4.068-2.762-8.023-2.529-11.068-4.728c-1.544-1.113-3.281,0.464-3.573,2.195
			c-0.252,1.491-0.083,3.281,1.605,4.268C679.221,883.691,678.968,880.66,681.452,880.24z M633.437,871.595
			c-1.507,6.429,1.815,9.882,3.569,15.275c1.076-5.251,6.428-6.476,5.623-12.64C637.718,881.378,636.667,875.55,633.437,871.595z
			 M714.601,794.11c-2.908,0.524-3.665,3.746-6.466,3.347c-2.588-0.369-5.366-0.698-6.509,2.437
			c-1.081,2.962,2.618,3.251,3.591,6.022c0.268-4.611,1.886-6.979,6.378-6.63C715.213,799.566,715.965,797.457,714.601,794.11z
			 M721.706,871.812c3.814-3.163,5.984-0.844,8.437-0.208c-0.015-4.348-0.015-4.348-5.6-5.092c2.296-6.33-3.593-4.491-6.282-7.309
			C718.909,864.086,724.308,865.56,721.706,871.812z M338.085,576.931c0.884,5.204-1.887,8.042-1.748,11.694
			C341.769,588.148,342.73,584.5,338.085,576.931z M748.264,828.629c-3.669,2.197-3.941-2.074-5.703-3.164
			c-0.974-0.603,1.607-4.239-2.028-3.447c-3.125,0.681-1.653,3.72-1.398,5.29C739.854,831.738,744.4,832.345,748.264,828.629z
			 M355.948,303.234c-3.472,5.1-2.492,8.708,0.426,11.286c3.798,3.357,6.05-0.998,9.084-2.773
			C360.019,312.348,357.696,309.239,355.948,303.234z M355.061,377.709c-2.729-0.607-6.498-2.944-6.918,2.443
			c6.617-5.032,6.983-0.433,6.876,4.863C355.902,381.958,353.609,379.463,355.061,377.709z M388.486,445.692
			c-3.121,2.795-0.284,7.471-4.573,8.845c2.124,0.238,3.945,0.746,5.989-1.246C388.002,451.49,390.218,448.91,388.486,445.692z
			 M740.812,872.172c-6.489-1.527-6.298,4.719-11.744,4.977C735.999,879.522,737.18,874.903,740.812,872.172z M713.585,836.919
			c-0.435,4.234-1.795,7.956,3.477,8.031C721.408,840.219,716.224,839.581,713.585,836.919z M644.524,886.334
			c6.665-0.429,7.712-1.817,4.232-7.772C650.195,883.745,648.19,885.349,644.524,886.334z M742.471,879.472
			c5.663,1.809,5.663,1.809,5.449-3.644C745.57,875.861,744.044,877.187,742.471,879.472z M720.389,872.948
			c-4.343,1.085-5.85,3.332-6.569,7.151C718.156,879.458,720.474,877.951,720.389,872.948z M361.597,492.299
			c-1.809-3.306-3.232-5.909-4.068-7.438C360.336,485.279,353.593,492.483,361.597,492.299z M718.136,809.823
			c4.046-2.109,4.046-2.109,0.916-5.984C717.206,805.631,716.188,807.471,718.136,809.823z M382.928,434.306
			c-0.641,1.102-1.051,1.806-1.46,2.508c0.541,0.187,1.383,0.681,1.569,0.5C383.617,436.752,384.305,436,382.928,434.306z
			 M364.882,506.023c-0.26,0.403-0.478,0.788-0.74,1.141c-0.548,0.734-1.475,1.819,0.464,1.366
			C365.66,508.284,365.136,506.953,364.882,506.023z M339.897,597.4l0.082-0.443l-0.408,0.148L339.897,597.4z M367.764,403.615
			c0.188-0.189,0.345-0.349,0.503-0.507c-0.315-0.158-0.619-0.37-0.953-0.444c-0.116-0.026-0.31,0.286-0.468,0.444
			C367.154,403.278,367.463,403.449,367.764,403.615z"/>
		<path fill-rule="evenodd" clip-rule="evenodd" fill="#FFF100" d="M713.029,259.494c17.781-0.001,34.025,5.474,49.41,13.631
			c6.055,3.212,13.294,3.229,18.804,7.933c2.096,1.789,4.708-0.088,6.926-1.865c13.023-10.438,27.383-15.489,44.62-13.91
			c8.017,0.735,16.67-0.466,25.044-1.447c13.66-1.601,29.353-2.707,37.903,13.272c3.282,6.136,10.431,8.899,12.651,16.579
			c2.884,9.987,2.681,19.261,0.474,29.223c-2.445,11.038-4.107,22.11-9.268,32.456c-2.149,4.306,1.983,8.399,5.266,10.723
			c4.467,3.162,9.19,5.546,15.722,3.277c13.757-4.777,39.294,6.594,41.326,26.081c0.377,3.61,0.688,7.426-1.883,10.168
			c-6.939,7.396-13.579,15.075-21.249,21.795c-7.262,6.361-13.422,2.07-19.004-1.985c-9.802-7.12-18.914-15.121-22.168-27.635
			c-0.44-1.695-1.261-3.053-2.947-3.744c-20.766-8.514-26.033-27.468-30.288-46.483c-2.144-9.584-2.663-19.693-0.702-29.66
			c0.856-4.352-0.959-8.395-2.535-12.367c-0.633-1.595-1.63-3.201-3.434-3.246c-6.574-0.165-13.286-2.068-19.695,0.453
			c-7.252,2.854-13.927,6.856-20.459,11.137c-4.72,3.093-5.289,6.8-3.056,11.562c6.054,12.909,5.146,24.682-5.746,34.841
			c-1.183,1.101-2.234,2.494-2.918,3.953c-7.658,16.314-22.652,11.129-31.345,0.511c-5.044-6.161-12.002-10.506-16.601-17.248
			c-5.516-8.087-9.354-16.207-5.127-26.147c1.949-4.585-3.243-13.117-10.432-14.15c-13.854-1.992-27.837-7.009-41.971-1.18
			c-1.521,0.628-3.054,1.256-4.515,2.016c-4.341,2.258-4.806,4.705-2.681,9.662c6.408,14.938,17.655,26.674,25.565,40.616
			c5.562,9.806,4.15,19.48,1.829,28.833c-1.826,7.36-11.074,7.734-16.873,11.405c-7.43,4.702-16.099,0.866-24.252,2.611
			c-18.679,3.996-37.532,1.893-56.357-0.573c-12.49-1.637-19.222-10.331-25.115-19.442c-1.199-1.853-1.104-9.085,1.983-12.922
			c1.281-1.592,2.283-3.051,2.203-4.967c-0.66-15.962,7.75-28.352,16.042-40.753c3.675-5.5,7.927-10.622,11.489-16.189
			c6.415-10.025,15.875-15.695,26.69-19.631c2.221-0.809,4.378-1.592,5.774-3.812C674.019,263.979,692.753,260.011,713.029,259.494z
			"/>
		<path fill-rule="evenodd" clip-rule="evenodd" fill="#FFF100" d="M924.107,582.876c-0.889,4.506-4.056,6.919-8.374,9.106
			c0.336,1.857,4.385,3.281,1.582,6.269c-3.49-0.321-4.226-5.559-8.432-5.204c-1.754,4.016-0.188,7.099,2.727,9.828
			c7.417,6.946,11.22,16.162,15.088,25.166c1.772,4.129,4.527,4.825,8.427,4.958c0.199,1.611,0.809,3.102,0.453,4.307
			c-1.021,3.464,0.687,8.493-4.899,9.562c-6.324,1.21-8.335-4.505-9.675-8.031c-4.601-12.105-10.86-22.957-19.357-32.694
			c-2.473-2.833-3.99-2.522-6.862-0.736c-7.917,4.925-12.471,12.705-17.146,20.153c-5.218,8.312-12.452,14.95-19.854,20.366
			c-5.677,4.154-13.776,6.076-20.523,9.517c-4.558,2.324-11.165,2.818-11.465,10.206c-0.021,0.498-1.352,0.998-2.12,1.402
			c-6.715,3.525-12.483,9.174-21.464,6.669c-4.044-1.129-4.874,3.35-4.808,6.693c0.117,5.941,1.614,11.683,3.742,17.162
			c1.118,2.882,0.273,5.302-1.253,7.017c-2.263,2.541-4.818,4.19-6.933-1.007c-3.147-7.724-3.962-15.831-4.867-23.886
			c-0.752-6.689-4.229-5.923-9.13-5.297c-6.54,0.835-10.113,9.112-17.365,6.455c-3.671,3.535,3.536,12.674-6.787,12.907
			c-2.51-7.514-1.127-14.744-2.708-21.86c-1.348-6.072-1.082-13.706-1.538-20.652c-0.474-7.215,5.443-9.683,10.212-13.265
			c-1.825-7.749-0.039-14.737,4.66-22.456c1.977,3.725-0.563,6.385,1.642,8.745c6.98,0.136,5.384-5.699,4.7-8.911
			c-1.159-5.428-1.833-10.932-2.979-16.279c-1.747-8.152-0.658-16.244-1.395-24.384c-9.207,0-18.323,0.019-27.44-0.016
			c-1.883-0.007-3.767-0.306-5.646-0.292c-3.542,0.026-5.473-1.612-4.961-5.166c0.501-3.488,3.323-3.678,6.005-3.175
			c8.669,1.628,17.407,1.106,26.076,0.568c6.872-0.427,14.034-1.204,17.61-8.74c-9.249-10.786-19.075-22.234-10.703-37.418
			c4.044-7.335,8.425-16.725,20.854-17.383c-4.387,6.172-8.232,11.098-11.553,16.357c-5.466,8.661-0.167,27.688,8.961,31.812
			c4.37,1.975,9.024,0.675,12.271-2.628c3.069-3.121,2.99-7.487,1.966-11.661c-1.713-6.985-2.909-14.169-5.424-20.856
			c-1.191-3.167,1.016-4.771,1.087-7.205c0.062-2.09,2.46-2.61,4.415-2.701c2.274-0.106,3.264,1.212,3.732,3.353
			c0.743,3.391,2.399,6.709,2.493,10.091c0.247,8.759,5.865,16.673,2.75,26.511c7.293-0.956,13.43-1.941,19.604-2.509
			c4.433-0.407,5.141-2.786,5.002-6.67c-0.378-10.589-0.417-21.189-0.578-31.785c-0.049-3.153-0.056-7.088,3.882-7.158
			c4.242-0.075,3.936,4.076,3.717,7.066c-0.637,8.711,2.16,17.215,0.952,26.644c4.861-2.326,7.907,0.659,11.072,2.738
			c2.893,1.901,5.369,2.425,8.444,0.364c2.918-1.953,2.5-4.372,2.72-7.41c0.973-13.465-4.717-25.485-7.785-38.021
			c-0.725-2.963-0.737-4.649,1.491-5.637c2.867-1.271,4.452,0.285,5.711,3.309c4.748,11.412,8.41,23,8.896,35.487
			c0.244,6.275,4.53,8.141,9.985,3.852c4.488-3.53,9.115-7.426,11.158-13.152c2.932-8.215,9.53-13.638,15.029-19.851
			c1.615-1.826,4.553-4.086,7.265-1.601c2.393,2.192,2.21,4.847-0.351,7.33c-9.588,9.298-15.658,21.21-23.512,31.8
			c-2.349,3.169-7.301,3.806-8.621,8.02c1.958,5.762,6.278,9.889,9.834,14.306c3.888,4.829,10.915,4.621,16.476,6.801
			c16.112,6.311,31.023,14.959,46.253,22.972c3.967,2.087,2.686,6.021,0.761,9.107c-1.966,3.149-4.412,2.485-7.175,0.562
			c-5.283-3.679-10.839-6.96-16.17-10.574c-3.65-2.476-6.944-3.177-9.956,0.828c-2.818-1.667,2.331-4.178-0.639-5.858
			c-7.194-4.073-14.746-7.205-24.006-10.23c2.445,6.084,3.973,10.695,6.111,15.004c2.931,5.903,9.492,6.898,14.447,2.591
			C921.079,583.468,921.775,580.932,924.107,582.876z M768.499,656.12c3.931,2.269,6.885-1.903,10.816-1.678
			c0.111,3.228-0.312,6.957,4.508,5.131c0.543-11.36-9.225-8.968-14.752-12.18C766.242,650.615,767.653,653.428,768.499,656.12z
			 M763.759,645.744c-6.617,5.688-6,17.596,0.818,23.456C762.219,661.204,761.56,654.373,763.759,645.744z M885.314,578.421
			c2.337,2.406,0.061,6.077,2.58,8.642C890.538,583.031,889.783,580.176,885.314,578.421z M855.479,600.968
			c-3.863,0.449-6.52,1.287-9.19,4.606C850.429,605.269,853.958,606.418,855.479,600.968z"/>
		<path fill-rule="evenodd" clip-rule="evenodd" fill="#FFF100" d="M1348.202,913.436c-2.406,4.702-0.137,11.47,5.511,16.161
			c1.183,0.983,2.572,1.718,4.04,2.679c-8.023,3.275-22.612-0.936-27.753-7.229c-3.455-4.231,1.627-6.221,1.809-9.789
			c-6.738-4.076-14.83-4.996-21.965-8.496c-3.93-1.926-5.802-5.107-8.654-7.624c-1.429-1.26-1.86-3.512,0.092-4.978
			c3.355-2.521,6.186-5.335,6.759-10.19c0.771,9.42,9.598,11.98,13.892,18.039c2.827,3.987,8.229,0.814,9.928-5.736
			c0.688-2.648,0.684-5.479,0.996-8.226c5.518,1.008,11.074-3.905,15.887-14.481c-9.314-5.225-19.797-5.106-29.391-3.744
			c-16.594,2.356-33.265,1.832-49.852,3.402c-15.974,1.511-32.207,2.317-47.263,7.604c-10.319,3.62-21.09,6.457-30.863,11.271
			c-5.341,2.632-7.454,9.271-7.351,16.068c-3.251,0.125-6.328,0.973-9.149,3.26c-1.485-3.181-4.938-3.349-8.149-5.648
			c-2.183,7.426,3.239,8.071,7.414,10.452c-2.271,0.2-4.544,0.398-6.932,0.608c-1.155,1.94,1.364,3.229,1.026,5.027
			c-4.646-0.595-5.202-2.463-2.562-9.395c-4.063,0.897-6.971-5.097-11.337-1.573c-3.19,2.576,0.727,8.307-7.015,9.978
			c13.573,3.366,0.641,8.493,4.569,12.55c-6.484-1.431-3.591-6.237-4.499-10.338c-3.211,2.892-2.674,9.607-8.69,7.014
			c-0.359-0.156-0.433-1.159-0.47-1.776c-0.011-0.181,0.562-0.397,0.957-0.653c-3.915,5.229-10.146-3.276-13.909,2.68
			c5.458,4.748,12.963,3.348,19.427,5.116c-7.699,2.73-7.699,2.73-4.369,16.071c1.53,2.476,4.79-2.491,5.752,1.521
			c0.953,3.975-2.883,1.734-4.111,2.987c-3.385,3.457-4.438,7.255-3.372,12.148c0.71,3.267,1.981,6.571,0.82,10.281
			c-1.721,5.499-4.904,7.275-10.54,4.97c-0.454-0.354-1.104-1.106-1.335-0.994c-1.346,0.654-0.416,1.336,0.133,1.977
			c-4.86,5.415-7.825,5.541-16.297,0.627c-2.073,1.508-3.003,3.39-1.995,6.074c3.073,2.126,6.376-2.151,9.396,0.298
			c2.22,1.904-0.887,3.936,0.398,6.291c1.978,0.31,5.635-3.172,6.473,1.979c-1.172,2.383-4.007,0.345-5.869,2.238
			c-0.23,3.589-0.406,7.446-2.743,11.135c-3.03,4.782-0.504,8.418,7.173,11.622c-0.149,3.304-3.706,0.744-4.627,2.549
			c0.924,6.256,5.902,10.89,5.049,17.996c-0.907,7.558-7.47,8.124-13.395,12.003c0.445-0.012,0.216-3.236-2.312-1.388
			c-1.287,2.889-1.896,5.63,0.509,9.354c4.758,7.365,2.521,12.562-6.026,15.656c-0.562-3.777,4.679-6.92,1.513-10.773
			c-3.548,0.009-1.597,3.743-3.745,4.686c-2.349,0.11-2.925-4.591-6.849-2.364c5.544,4.639,5.713,10.514,4.468,16.969
			c-6.627-1.842-3.477-6.281-2.526-10.04c-7.675,1.594-9.37,9.755-3.959,17.204c-4.563,2.133-7.755,6.18-12.526,8.371
			c-2.636,1.211-0.34,5.508,2.753,7.092c4.779,2.451,10.232,3.594,14.23,7.514c-3.378,5.158-10.297,3.695-14.812,7.127
			c14.564,9.975,28.105,20.033,22.07,39.943c4.611,5.143,15.691-2.398,16.211,8.682c-13.434,5.332-23.513,0.123-32.997-9.16
			c5.281-3.184,2.161-10.992,7.739-15.031c0.903-0.654,0.174-4.225-2.314-6.053c-7.13-5.232-13.274-11.535-18.377-18.836
			c-2.357-3.375-4.188-6.133,0.907-8.914c2.79-1.523,0.805-2.896-0.853-4.562c-4.238-4.268-8.79-8.412-11.214-14.27
			c2.254-2.078,6.397,0.729,7.203-3.703c-2.404-5.764-7.62-10.403-9.606-16.815c-1.506-4.848-1.314-9.106,7.772-9.494
			c-9.605-3.762-5.375-12.593-11.142-16.158c1.669-2.949,6.896-0.191,6.036-4.892c-0.79-4.302-2.307-8.923-6.394-10.561
			c-3.566-1.429-3.774-3.472-3.716-6.278c0.183-8.982-1.511-17.949-0.066-26.957c0.479-2.989-0.725-6.308,2.905-8.353
			c1.095-0.616,0.761-2.197,0.41-3.944c-1.316-6.551-5.16-13.433,0.193-19.956c1.034-1.262,2.126-2.932,3.517-3.365
			c5.365-1.68,5.392-4.618,2.172-8.205c-3.097-3.449,0.292-4.79,2.106-7.492c5.475,6.555,10.256,1.93,15.304-1.088
			c0.604-2.185-5.878-0.086-3.049-4.547c0.9-1.418-2.141-3.001-3.753-4.386c-8.65-7.426-18.695-11.883-29.613-14.418
			c-11.004-2.557-20.402-8.5-29.783-14.19c-5.79-3.515-9.918-2.079-12.888,2.33c-8.922,13.25-20.763,11.191-32.548,6.199
			c-3.7-1.568-5.857-6.786-8.722-10.337c-2.912,0.348-0.842,3.486-2.912,4.344c-5.732-0.794-1.244-4.435-1.5-6.657
			c-0.312-2.722-0.074-5.507-0.074-8.234c-7.873-3.346-16.459-2.062-24.476-4.125c-0.791-0.204-1.051-2.473-1.79-4.378
			c9.638,0.83,18.948-0.788,28.286,1.552c3.09-7.017,2.793-14.723,7.265-21.471c3.086,2.933,5.535,2.692,8.75-0.649
			c7.483-7.775,11.484-9.285,20.8-9.889c-1.097-8.93-7.768-15.029-10.49-23.504c0.438-0.466,1.597-1.696,3.162-3.36
			c3.56,9.299,11.343,15.598,14.467,24.656c2.769,0.04,4.049-1.331,3.946-4.138c2.506,1.149,4.472,2.296,6.587,2.974
			c5.473,1.754,7.485,4.591,8.544,11.031c2.154,13.13-5.347,22.666-9.038,33.644c20.805,15.207,46.244,21.702,67.926,35.76
			c5.572-2.449,11.771-4.601,17.394-7.775c9.926-5.603,21.943-8.925,29.308-17.328c11.41-13.013,27.752-17.409,41.044-26.929
			c3.904-2.797,10.815-2.699,16.354-4.264c20.577-5.807,41.118-12.319,62.31-15.103c7.158-0.939,15.033-1.342,22.554-1.422
			c13.293-0.145,27.118-1.393,40.225-5.191c4.7-1.363,4.548-5.896,3.884-9.667c-0.594-3.377,0.47-4.646,3.565-5.467
			c5.374-1.425,10.569-3.268,16.164-0.597c1.604,0.766,3.597,0.08,5.367-0.99c0.962-0.581,2.936-1.905,3.755-0.354
			c3.23,6.11,11.292,5.614,14.802,11.149c1.195,1.884,2.847,3.439,4.888,3.641c6.266,0.617,8.768,4.011,7.742,9.943
			c3.525,1.037,4.527-1.644,6.388-3.31c3.841,2.323,6.839,6.401,12.453,5.749c-4.482,7.483-12.321,6.381-18.161,6.49
			c-6.01,0.114-8.229,2.993-11.374,6.549c-3.515,3.971-6.798,8.505-11.733,10.745c-2.885,1.309-5.178,3.426-4.783,5.815
			c0.45,2.723,0.569,6.9,5.332,7.149c2.1,0.109,2.716,2.389,3.842,3.844C1349.563,912.524,1348.882,912.98,1348.202,913.436z
			 M963.213,893.646c6.197,2.188,11.568,2.695,16.974,2.838c2.942,0.076,6.388,0.079,6.09,3.874
			c-0.277,3.581-3.834,2.442-6.251,2.43c-5.418-0.026-10.771-2.63-16.439-0.973c3.556,10.493,11.682,18.058,21.089,17.678
			c11.53-0.469,15.253-8.429,13.516-19.912c5.087,2.814,7.979,2.782,9.428-2.457c0.781-2.823,3.309-5.12,4.374-7.911
			c3.128-8.2,8.398-16.461,0.961-25.116c-6.867,1.792-15.092-0.102-18.258,9.347c-3.53-3.858-7.256-5.938-10.67-3.524
			C975.468,875.972,967.597,882.881,963.213,893.646z M1336.162,865.517c3.626-9.621,3.082-11.061-4.506-13.532
			c-4.631-1.509-8.064,1.617-11.854,3.05c-2.844,1.077-1.1,4.499-3.28,6.889C1323.841,862.985,1330.43,862.137,1336.162,865.517z
			 M1119.306,1025.585c-2.001-1.369-3.428-1.563-4.968,0.291C1116.095,1027.085,1117.443,1027.653,1119.306,1025.585z"/>
		<path fill-rule="evenodd" clip-rule="evenodd" fill="#FFF100" d="M1052.249,671.077c3.806-12.618,15.384-10.438,23.652-13.229
			c9.274-3.13,18.859-6.651,29.011-6.968c6.955-0.217,13.248,1.689,17.785,6.88c5.508,6.306,11.452,12.664,15.099,20.041
			c3.75,7.583,5.363,17.041,2.836,25.021c-1.893,5.97-10.078,7.579-16.204,9.783c-12.868,4.634-25.595,4.318-38.896,0.782
			c-4.514-1.201-8.508-2.771-12.913-4.967c-0.125,7.104,5.728,9.484,9.842,12.768c4.729,3.773,7.38,9.011,10.78,13.657
			c2.769,3.786,3.048,8.614-2.079,11.191c-3.044,1.53-3.152,3.411-1.875,5.636c5.117,8.909,4.953,19.003,6.501,28.685
			c0.241,1.511,0.095,2.929,0.91,4.444c2.256,4.192,2.604,8.456-1.308,13.344c-11.977-7.821-26.544-11.422-36.688-22.846
			c-10.089-11.36-16.476-24.197-17.251-40.583c-7.655,4.009-14.728,7.495-21.593,11.354c-12.19,6.854-25.244,11.465-39.147,11.147
			c-12.091-0.274-23.423-4.999-34.229-10.513c-1.843-0.941-2.855-2.698-6.08-1.321c-2.666,1.14-7.238-0.879-6.381-6.163
			c0.26-1.605,0.215-3.262,0.32-5.111c-4.584-1.706-9.069-3.313-13.505-5.05c-3.146-1.23-4.036-4.65-1.243-5.508
			c7.282-2.235,7.983-9.056,8.024-13.579c0.069-7.884,4.693-12.638,8.604-17.806c3.026-4,7.407-6.961,9.604-11.8
			c1.199-2.643,4.264-1.513,6.297-2.011c18.812-4.61,35.344-13.383,49.726-26.235c5.58-4.986,16.17-6.886,22.734-3.064
			C1034.371,654.752,1043.591,661.289,1052.249,671.077z M933.128,723.941c4.756,2.682,10.979,2.654,15.283,6.241
			c1.209,2.733-2.345,3.806-1.244,6.354c4.488,1.908,8.98,4.628,13.835,5.71c9.156,2.039,17.705,6.793,27.392,6.395
			c18.698-0.77,34.608-8.547,49.134-19.74c10.056-7.749,12.9-20.715,6.41-30.525c-12.777,4.912-25.631,9.853-38.493,14.798
			c-2.808-6.32-1.698-9.542,5.583-12.538c6.634-2.729,13.852-3.682,20.264-7.41c5.469-3.181,11.662-5.115,18.038-7.813
			c-2.016-2.907-3.102-6.17-5.301-7.338c-8.285-4.404-13.431-12.071-20.133-18.09c-5.504-4.941-11.827-5.324-18.026-0.769
			c-7.934,5.829-14.865,13.064-24.287,16.783c-1.069,0.423-2.54,1.532-1.723,3.314c4.126,9.015,3.131,19.269,6.935,28.384
			c2.925,7.009,5.561,14.138,8.483,21.619c-3.062,1.567-4.062,5.02-7.337,7.714c-11.987-17.172-12.818-37.783-17.059-55.629
			C947.991,687.207,934.292,700.138,933.128,723.941z M1093.369,662.787c-9.03,0.245-17.337,5.23-26.452,7.062
			c-5.977,1.201-9.348,9.837-6.127,14.899c0.774,1.219,2.329,1.796,2.88,1.242c2.719-2.735,6.562-1.72,9.795-3.217
			c5.966-2.761,12.733-7.225,19.908-1.556c-2.429,5.771-3.799,12.272-12.545,8.844c-1.349-0.529-3.528,0.891-5.262,1.566
			c-1.6,0.624-4.116,0.385-3.812,3.187c0.233,2.152,2.308,3.299,3.752,3.876c6.474,2.588,13.152,4.662,19.734,6.991
			c3.213,1.137,5.654,0.092,4.492-3.23c-1.396-3.983-0.574-7.977-1.504-11.958C1096.12,681.481,1094.965,672.245,1093.369,662.787z
			 M1127.945,684.286c-3.834,3.043-2.974,6.864-4.602,9.656c-1.414,2.428-3.229,4.21-6.137,4.003
			c-2.681-0.19-4.967-1.238-6.048-4.104c-2.102-5.572,0.095-11.998,5.224-15.045c2.187-1.297,4.311-2.695,6.723-4.211
			c-5.538-5.938-10.406-11.825-18.244-14.298c-2.174,8.418,1.892,16.218,1.375,24.477c-0.383,6.144,2.975,12.537,3.259,19.126
			c0.068,1.61,1.38,2.846,3.575,2.406c3.311-0.664,6.875-0.533,9.967-1.701c3.534-1.336,8.026-3.025,7.978-7.556
			C1130.973,693.044,1129.172,689.066,1127.945,684.286z M1123.539,677.521l0.268-0.375l-0.334-0.082L1123.539,677.521z"/>
		<path fill-rule="evenodd" clip-rule="evenodd" fill="#FFF100" d="M1219.586,622.714c-5.464,1.055-6.449-3.973-7.232-6.822
			c-1.148-4.188-5.284-5.985-6.279-9.957c-0.083-0.328-1.662-0.28-3.166-0.496c2.44,11.176,7.522,20.736,12.514,30.242
			c1.019,1.941-0.363,4.614,2.247,5.821c3.421,1.582,3.392,1.643,7.983-0.852c1.985,7.688,8.127,14.65,1.734,23.588
			c-3.592-2.903-7.987-4.466-6.956-10.599c-13.821,6.78-10.84-7.98-16.161-12.169c0.312-2.626,4.174-0.493,3.711-4.075
			c-3.151-0.636-10.272,5.093-8.378-4.244c-5.577-2.5-8.653,4.348-14.229,1.967c3.353,5.182-0.769,7.07-2.918,9.469
			c-1.292,1.444-3.559,0.942-5.188,0.104c-1.607-0.828-1.997-2.522-1.613-4.313c1.896-8.837-1.75-15.987-7.103-22.482
			c-2.784-3.378-4.908-6.713-4.079-11.394c0.818-4.611-2.198-8.445-3.498-12.531c-1.191-3.754-0.821-6.181,2.354-7.495
			c4.034-1.67,2.913-3.845,3.061-7.376c0.409-9.825-3.274-20.242,4.046-29.544c2.553-3.245-0.138-8.478-1.1-13.57
			c-18.087,9.918-36.82,14.471-57.22,13.019c-0.213,1.142-1.632,2.806-3.828,3.215c-27.022,5.038-43.355,4.831-50.341-1.023
			c2.48-1.69,3.737-2.798,7.714-2.889c12.237-0.277,24.849,2.471,36.817-2.47c1.18-0.487,2.705-0.089,4.062-0.206
			c17.944-1.535,35.808-3.457,52.645-10.555c5.149-2.17,9.521-4.653,10.125-11.19c0.186-1.996,2.204-4.646,4.071-5.514
			c6.224-2.886,5.65-8.002,5.02-13.153c-0.27-2.211-0.143-5.534-2.923-5.868c-2.408-0.289-5.262-0.796-7.661,1.479
			c-5.551,5.264-12.521,7.948-19.864,9.509c-1.706,0.362-2.137,1.432-3.134,2.312c-3.119,2.758-6.762,3.902-10.712,2.871
			c-1.199-1.946-0.406-3.216,0.907-3.878c11.225-5.668,21.805-12.504,33.926-16.556c7.076-2.366,7.156-8.537,3.141-14.44
			c5.259-2.124,6.397,0.826,7.275,4.654c0.5,2.179,0.787,4.912,3.771,5.438c1.308,0.229,2.2-0.602,2.722-1.797
			c1.228-2.827-1.016-4.317-2.43-6.031c-4.091-4.963-6.982-6.349-11.947-5.951c-2.065-7.027-4.076-14.117-12.086-16.537
			c0.978-4.54,4.805-2.329,7.236-3.801c-0.316-6.17-1.431-12.437-0.755-18.505c0.946-8.495,4.395-16.741,5.971-24.899
			c1.664-8.617,5.646-15.254,11.154-19.802c12.206-10.076,24.336-21.781,42.569-19.356c2.473,0.328,4.728,2.498,7.572,0.885
			c1.859-2.547,0.659-6.197,2.844-8.974c1.198-1.521,1.603-3.825-1.178-5.168c-2.132-1.029-4.062-2.313-2.315-5.46
			c0.998-1.795,2.564-2.922,3.715-1.909c1.997,1.76,6.073,2.77,5.07,6.256c-1.704,5.919,2.265,7.046,6.091,8.96
			c12.083,6.046,23.029,13.476,29.701,25.795c0.298,0.552,0.742,1.148,1.274,1.435c10.508,5.657,17.256,15.663,26.427,22.761
			c5.046,3.906,8.414,8.507,9.971,14.14c1.027,3.719,4.096,5.195,6.039,7.592c4.564,5.63,6.402,12.581,10.513,18.442
			c3.598,5.13,2.803,12.073-0.314,17.858c-2.034,3.776-4.891,7.109-7.971,11.481c0.225-5.435,2.937-9.219,4.271-13.144
			c2.323-6.836-1.398-11.132-3.325-16.542c-1.913-5.378-6.715-8.734-8.509-13.917c-5.681-16.421-19.708-25.429-31.934-35.926
			c-7.68-6.594-14.175-13.853-19.575-22.468c-3.218-5.132-9.396-8.07-14.992-10.028c-3.423-1.198-7.355-3.995-12.148-1.517
			c0.572,6.343-2.566,7.07-8.648,5.628c-10.214-2.421-19.34,0.143-28.414,6.214c-5.153,3.449-9.729,7.766-15.119,11.019
			c-3.696,2.232-5.801,7.935-7.464,12.506c-2.436,6.698-3.454,13.82-5.859,20.657c-1.459,4.144-1.744,10.754-1.116,15.94
			c0.842,6.977,0.613,14.57,5.529,20.665c3.198,3.965,8.729,5.16,11.117,10.324c0.914,1.977,2.908,3.981,4.101,6.08
			c4.711,8.297,12.391,12.477,22.165,11.426c5.594-0.603,11.212,0.141,16.857-0.767c1.889-0.304,6.76-0.71,6.395,5.433
			c-14.802,3.582-29.73,3.747-45.966-1.926c2.688,6.87-5.104,9.398-3.185,14.547c1.148,3.081,3.092,6.26,6.271,7.396
			c24.667-3.11,49.373-4.37,74.431-4.336c-0.742,4.664-3.256,4.945-6.963,4.575c-5.736-0.573-11.449-0.142-17.177,1.363
			c-10.312,2.708-20.941,1.248-31.442,1.528c-8.093,0.216-16.08,1.329-24.356,3.222c5.511,9.285,6.954,19.099,10.499,28.117
			c4.625,11.768,4.542,24.368,7.607,36.411c2.114,8.307,8.256,14.029,11.225,21.736c1.406,3.644,2.021,6.886,2.11,10.521
			L1219.586,622.714z"/>
		<path fill-rule="evenodd" clip-rule="evenodd" fill="#FFF100" d="M212.878,949.155c5.546-2.187,9.661-4.376,14.554-3.916
			c3.132,0.294,6.005-0.217,8.724,2.763c3.196,3.505,8.509,3.402,12.953,4.359c2.833,0.609,4.453-2.268,5.989-4.756
			c4.062-6.581,6.168-14.109,10.633-20.557c1.817-2.624,2.306-7.332,1.356-10.474c-2.322-7.685,2.413-14.504,1.382-22.207
			c-0.862-6.446-1.751-13.05-2.251-19.62c-0.225-2.959-0.548-5.826,3.317-8.388c1.188,9.276,3.832,17.934,2.945,26.214
			c-0.977,9.116,7.621,15.221,4.502,24.089c5.764,0.431,9.805,0.281,14.209-3.583c4.342-3.809,10.935-1.316,16.329,0.064
			c2.57,0.656,4.916,1.19,7.596,0.732c-1.471-5.84,2-10.981,2.641-16.602c0.603-5.282,0.802-10.166-0.013-15.368
			c-0.509-3.254,0.05-6.875,2.196-9.63c1.873-2.406,3.905,0.125,5.72,0.654c2.709,0.789,3.688,3.151,2.469,5.619
			c-3.719,7.527-0.932,15.956-3.513,23.612c-0.214,0.632,0.249,1.54-0.036,2.095c-9.034,17.579,6.615,24.312,15.674,32.762
			c3.763,3.509,4.619,7.42,7.043,10.972c1.012,1.483,1.299,3.525,3.724,4.332c3.209-3.573,9.846-5.866,10.973-9.233
			c2.652-7.928,10.092-9.487,14.566-14.597c0.924-1.053,1.662-2.306,2.712-3.204c7.899-6.776,7.918-6.757,10.868-13.544
			c3.458,1.796,6.415,3.839,6.586,8.13c-8.23,4.559-14.722,11.062-21.824,16.803c-6.784,5.482-12.306,12.303-19.87,17.036
			c-6.366,3.982-10.566,10.099-8.271,18.451c1.667,6.065-3.017,9.259-5.071,13.799c-2.563,5.663-6.143,9.271-10.417,13.005
			c-8.114,7.09-8.288,7.28-1.357,21.27c2.492,5.032,4.26,10.118,5.806,15.474c3.288,11.387,7.209,22.591,10.896,33.862
			c0.861,2.638-0.187,4.514-3.285,7.001c-0.684-7.574-6.056-12.71-6.567-19.921c-0.278-3.925-2.966-7.116-4.019-10.979
			c-3.261-11.962-5.925-24.215-13.566-34.575c-5.868-7.955-16.448-9.677-22.68-1.959c-3.673,4.549-12.18,2.679-12.572,10.883
			c-0.279,5.8-1.57,11.557-2.487,17.321c-1.07,6.729-5.185,11.308-10.71,14.847c-3.236-6.299-2.258-8.852,4.357-10.56
			c-0.688-3.445-0.553-6.495,0.942-10.218c3.534-8.801,6.241-11.983-4.19-19.969c-8.19-6.267-13.145-15.032-16.669-24.204
			c-1.849-4.812-1.616-11.382,0.064-16.349c2.123-6.271-2.837-8.227-5.271-8.402c-8.489-0.618-14.892-5.701-22.103-8.862
			C223.311,951.632,218.817,950.021,212.878,949.155z M311.149,933.436c-3.335-12.492-15.475-16.838-32.749-5.585
			c2.549,2.182,0.029,7.334,5.013,8.011c5.197,0.708,9.386-0.994,10.787-6.663C299.705,932.09,304.542,935.346,311.149,933.436z
			 M286.048,970.71c5.249,6.901,12.174,4.474,18.726,4.978c-0.469-3.806,0.02-9.341-3.908-8.66
			C296.051,967.859,290.039,965.301,286.048,970.71z M319.529,996.055c6.564,1.234,8.116-2.365,8.6-7.238
			C320.742,985.455,320.013,990.272,319.529,996.055z M286.482,962.552c2.8-0.891,4.884-1.553,6.916-2.198
			c-0.364-3.971-3.103-3.751-5.305-3.312C285.396,957.58,286.754,959.99,286.482,962.552z"/>
		<path fill-rule="evenodd" clip-rule="evenodd" fill="#FFF100" d="M399.885,1369.978c-0.167,6.746-6.325,6.537-10.29,8.904
			c-11.319,6.756-23.942,9.469-36.606,12.516c-0.683-8.752-1.565-8.996-19.196-5.588c5.329,2.492,10.062,5.17,15.637,1.125
			c-0.674,5.945-0.812,6.158-5.379,5.955c-8.533-0.381-16.822-2.961-22.844-8.537c-5.998-5.553-14.322-7.809-19.098-14.775
			c-4.66-6.805-9.457-13.398-6.313-22.469c0.645-1.855-1.553-3.424-2.359-5.08c-2.264-4.643,4.233-18.693,10.125-22.168
			c-6.318,17.414-7.331,34.07,3.06,50.201c1.98-1.781,3.892-3.5,5.755-5.176c-4.821-12.912-0.689-24.135,8.736-31.531
			c-10.179-0.49-10.955-11.244-18.714-14.604c1.011-3.039,1.65-6.553,3.271-9.531c4.483-8.24,11.867-13.59,20.275-16.932
			c14.535-5.771,29.627-9.486,45.154-4.186c7.997,2.732,14.83,8.02,20.989,13.66c5.753,5.268,11.907,7.342,19.421,6.279
			c1.101-0.156,2.271,0.002,3.379,0.188c0.324,0.053,0.547,0.701,0.918,1.217c-1.361,3.43-5.743,2.078-7.604,4.895
			c0.811,5.051,5.69,9.801,2.679,15.928c-2.833-1.275-0.926-4.447-3.439-5.807c-5.077,3.363-8.666,9.941-6.866,13.762
			c2.411,5.113,6.372,11.975,14.313,11.691c2.704-0.096,3.651,1.758,2.293,2.766c-6.553,4.867-9.055,13.232-15.853,17.777
			c-0.764,0.512-1.169,0.287-1.625-0.291c-0.461-0.49-0.915-0.988-1.368-1.486c3.606-6.01,8.119-11.27,13.43-15.891
			c-2.336-1.633-4.469-3.605-6.664-0.062c-1.302-1.809,0.732-3.715-1.548-5.174c-2.6,1.697-5.945,0.018-9.031,0.479
			c-0.142,3.83,3.342,3.426,4.656,5.27c1.585,2.225,1.914,5.863-0.337,5.678c-5.351-0.439-6.466,4.506-9.879,6.34
			c-3.068,1.648-8.187,2.502-8.935,4.172c-2.618,5.861-7.613,5.498-12.151,6.789c-1.469,0.418-2.466,1.352-2.113,3.105
			c2.418,3.35,7.995-4.074,8.868,2.418c7.09-6.289,16.427-8.16,23.877-13.248C397.27,1370.69,399.101,1369.821,399.885,1369.978z
			 M343.087,1367.896c-18.487,1.18-13.053-13.365-16.394-22.264c-8.402,8.646-9.064,16.555-2.681,23.477
			C328.255,1373.71,336.649,1373.874,343.087,1367.896z M364.858,1321.36c-4.436,4.545-7.959,9.061-14,11.248
			c4.017,2.449,6.394,7.457,10.034,4.75C365.301,1334.079,366.059,1328.456,364.858,1321.36z M340.513,1295.485
			c-7.52-2.076-17.979,2.602-20.598,9.543c2.732,0,5.497,0.59,7.872-0.121C333.051,1303.333,335.928,1298.192,340.513,1295.485z
			 M372.628,1295.86c-5.821-5.426-17.818-6.326-29.603-2.111C352.846,1295.091,362.852,1293.948,372.628,1295.86z M404.383,1323.167
			c0.481-5.023-0.663-8.793-7.616-9.959C400.028,1317.476,402.207,1320.319,404.383,1323.167z"/>
		<path fill-rule="evenodd" clip-rule="evenodd" fill="#FFF100" d="M1128.725,1242.372c4.169,7.621,9.541,14.355,15.141,20.961
			c2.845,3.357,2.731,6.875-1.223,9.699c-4.169,2.982-6.305,8.023-10.981,10.611c-2.426,1.342-2.786,4.205-2.883,7.359
			c5.622,2.137,9.253,8.367,16.472,7.877c2.753-0.188,2.979,3.008,3.438,4.5c0.563,1.828,0.454,4.438-2.317,5.977
			c-7.65,4.244-13.821,10.939-23.828,13.447c3.224,1.994,3.652,4.436,4.011,6.652c2.487,1.197,2.847-1.557,4.853-1.758
			c6.301,7.807,16.633,9.072,25.074,13.816c1.677,0.941,3.578,1.033,3.438,3.547c-0.164,2.896-2.744,2.26-4.285,2.707
			c-3.596,1.049-7.329,0.68-11.033,0.23c-3.004-0.361-6.118-0.984-8.953,1.586c2.868,5.969,11.208,3.477,14.122,9.207
			c-3.229,7.512-11.148,9.371-17.031,13.615c-8.249,5.951-9.647,11.566-3.005,19.414c4.932,5.824,10.101,11.359,12.269,19.398
			c-5.968,4.025-10.817,9.809-14.534,16.684c-1.064,1.971-2.639,3.627-1.021,5.656c1.365,1.713,3.381,1.941,5.74,1.654
			c3.643-0.439,7.88-1.363,10.696,1.707c3.737,4.07,1.817,6.695-2.939,8.42c-9.754,3.533-11.169,6.584-7.82,15.633
			c-5.872,6.443-14.301,3.35-21.343,5.568c-4.054,1.277-5.646,1.959-3.718,6.541c2.659,6.318,3.772,12.682-4.193,16.865
			c-1.553,0.816-1.979,3.775-3.292,6.51c8.906-0.812,17.229-0.539,24.982-2.51c12.899-3.283,25.105,1.283,37.639,1.594
			c2.997,0.072,4.562,3.496,3.901,4.914c-1.705,3.646,1.802,6.164,1.006,9.506c-0.661,2.764,1.082,3.727,4.075,4.189
			c9.554,1.471,19.283,2.701,28.449,5.594c12.255,3.867,24.742,7.852,35.569,14.789c2.513,1.609,5.243,3.832,8.107,5.521
			c5.813,3.43,6.815,13.521,1.323,17.371c-3.626,2.541-6.648,6.113-12.1,6.227c-6.834,0.143-9.444-1.438-9.07-8.303
			c0.122-2.232,1.905-5.377,0.981-6.498c-5.727-6.955-0.668-7.668,5.312-8.52c-2.574-2.91-5.167-4.414-8.161-5.963
			c-15.688-8.115-33.201-9.541-49.853-14.076c-8.634-2.35-10.62,1.014-7.272,11.596c-1.598,2.68-7.092,3.322-5.834,7.035
			c1.851,5.459,5.021,10.545,8.152,15.457c1.119,1.756,3.733,0.412,5.199-0.557c3.281-2.168,6.604-2.061,10.362-1.85
			c5.384,0.303,8.868,3.355,9.541,7.689c0.652,4.193,0.743,9.182-4.355,12.391c-3.739,2.354-6.461,5.717-11.633,5.883
			c-5.954,0.193-7.976-1.559-9.218-7.83c-0.946-4.785-1.56-9.994-6.402-13.52c-1.973-1.438-2.161-5.336-3.145-8.121
			c-2.086-5.896-4.776-6.773-8.791-2.322c-7.788,8.635-14.754,17.824-19.934,28.418c-1.904,3.891-5.415,7.066-6.562,11.604
			c2.885,0.523,5.605,1.326,8.357,1.451c4.62,0.211,7.497,3.383,7.971,6.873c0.562,4.107,0.766,9.039-3.765,12.174
			c-4.211,2.914-7.258,7.945-13.595,6.59c-3.209-0.684-7.057-2.033-6.826-5.143c0.58-7.883-4.377-11.744-9.637-15.48
			c1.417-4.309,5.76-4.09,8.207-6.424c5.158-4.916,8.5-11.078,11.867-17.197c4.534-8.244,7.197-17.369,12.541-25.307
			c3.397-5.043,6.707-10.408,11.229-14.07c5.201-4.207,7.304-7.75,4.842-14.33c-0.794-2.121-1.102-5.527,1.014-8.652
			c1.825-2.697,0.951-7.227-3.91-6.936c-11.02,0.658-21.98-0.096-33.138,1.445c-11.129,1.539-22.231,6.111-33.741,3.615
			c-1.729-0.377-5.075,0.283-5.561-3.15c-0.427-3.027,2.339-3.07,3.858-4.236c4.356-3.344,7.56-8.094,13.053-10.096
			c3.476-1.268,1.414-4.672,1.528-6.906c0.362-7.08-0.619-14.777,6.533-19.008c4.191-2.479,9.422-3.203,14.249-4.736
			c0.113-0.816,0.027-1.594,0.333-2.162c4.891-9.082,4.763-16.793-6.835-20.971c5.488-5.48,5.79-12.766,11.17-17.049
			c0.981-0.783,1.237-2.553,2.956-3.346c3.461-1.596,4.153-4.096,1.438-7.207c-5.261-6.029-6.956-14.029-11.389-20.604
			c-3.93-5.826-0.114-15.68,6.994-19.828c3.529-2.059,7.276-3.746,10.915-5.596c-4.233-5.059-13.179-6.373-12.024-15.705
			c5.103-1.721,10.653-2.676,16.857-2.957c-8.139-3.881-11.489-12.32-18.259-17.67c2.569-2.629,6.368-4.055,4.513-9.68
			c-0.683-2.068,5.066-6.258,8.158-9.797c-5.298-1.795-8.78-5.703-12.916-8.641c-5.105-3.627-5.312-10.365-1.188-15.078
			c2.186-2.496,9.808-8.098,13.085-9.646c0.953-9.807-8.779-14.785-10.661-23.094c2.537-2.986,9.91,2.961,8.855-5.4
			L1128.725,1242.372z"/>
		<path fill-rule="evenodd" clip-rule="evenodd" fill="#FFF100" d="M1203.616,1164.341c-5.288,3.555-9.396-0.273-12.428-2.695
			c-4.672-3.732-9.378-7.777-13.318-12.172c-2.946-3.287-3.505-8.863-4.685-13.533c-0.957-3.783-0.801-7.881-1.99-11.564
			c-0.954-2.955-0.964-4.967,1.353-7.172c6.681-6.357,8.573-15.754,14.148-22.799c6.178-7.805,11.896-16.259,23.009-17.903
			c4.586-0.679,7.381-4.73,11.213-6.931c13.484-7.738,29.116-8.358,43.479-13.285c10.658-3.656,18.724-10.052,26.325-17.422
			c7.56-7.328,15.333-14.843,17.375-25.94c0.892-4.854,2.916-10.072-1.748-14.199c-4.347-3.847,0.357-5.871,1.819-8.436
			c-1.96-1.335-3.463-0.636-4.949,0.146c-14.542,7.675-28.48,16.385-43.316,23.621c-16.81,8.199-33.242,17.266-50.687,23.997
			c-5.7,2.2-8.341,6.778-10.76,10.591c-8.216,12.952-19.196,23.353-29.037,34.815c-4.738,5.518-6.67,12.51-8.647,19.619
			c-1.359,4.893-2.344,10.352-4.699,14.678c-3.635,6.678-0.638,13.703-4.722,21.193c7.679-1.771,11.032,3.568,16.276,4.699
			c-0.349,0.967-0.387,1.93-0.839,2.201c-7.442,4.477-7.517,4.492-2.581,12.73c1.85,3.09,0.293,5.057-2.016,6.436
			c-2.974,1.775-3.611,3.643-3.623,7.346c-0.02,8.014-1.082,15.986,1.084,23.92c0.266,0.971,0.792,3.027-2.598,3.379
			c-4.597-16.682-1.71-34.285-5.692-51.035c-1.021-2.531-3.293-0.211-5.508-0.893c-0.363-2.654-1.353-5.465-1.005-8.102
			c1.577-11.891,4.523-23.404,7.945-34.975c2.303-7.795,6.368-14.58,8.632-22.153c1.271-4.251,4.723-6.817,7.69-8.612
			c8.515-5.146,12.389-13.812,17.713-21.275c4.645-6.51,10.422-12.022,15.506-18.051c3.815-4.529,11.365-5.855,17.177-8.761
			c22.433-11.213,45.074-22.044,67.085-34.033c5.926-3.229,12.475-5.824,17.711-10.449c2.766-2.442,5.542-4.383,6.781-8.433
			c1.201-3.928,3.732-6.89,8.401-1.796c6.389,6.97,6.885,6.708,0.147,14.945c-3.557,4.35-1.772,9.535-1.669,13.85
			c0.503,20.74-11.813,33.987-25.794,46.073c-6.704,5.796-12.989,12.251-21.758,15.771c-8.722,3.502-17.423,6.629-26.657,8.114
			c-10.241,1.645-19.977,4.378-28.294,10.943c-0.875,0.689-2.085,1.054-3.198,1.333c-12.331,3.089-19.747,11.358-24,22.87
			c-0.682,1.846-1.849,3.066-3.091,4.5c-7.443,8.568-7.922,27.863-0.234,34.58c4.445,3.885,8.328,8.08,12.432,12.201
			C1199.738,1158.647,1201.403,1161.335,1203.616,1164.341z"/>
		<path fill-rule="evenodd" clip-rule="evenodd" fill="#FFF100" d="M1269.394,1431.458c-5.245-6.596-12.63-10.691-18.86-16.131
			c-1.236-1.08-3.214-2-3.535-3.316c-1.51-6.184-5.092-10.658-10.059-14.391c-0.701-0.525-2.084-2.039-1.164-4.023
			c11.93,0.578,21.485-8.131,32.926-9.354c11.717-1.252,12.434-11.977,17.671-18.559c2.468-3.102,4.422-6.043,7.975-8.096
			c5.769-3.332,6.373-8.129,1.847-12.461c1.407-1.664,2.833-3.348,3.865-4.57c14.491,7.996,19.228,22.975,26.068,36.748
			c4.948,9.965,6.301,20.098,5.419,30.811c-0.416,5.049-2.94,7.426-8.35,9.057c-7.729,2.328-15.487,4.395-23.255,6.549
			c-7.974,2.213-15.904,0.984-23.809,2.139c-2.978,0.84,0.621,9.924-6.902,5.461L1269.394,1431.458z M1315.883,1407.907
			c-1.045-0.168-2.199-1.424-3.105-0.014c-0.748,1.172,0.338,1.52,1.223,1.828c2.015,0.701,1-1.377,1.645-1.906
			c-0.021-1.018,1.574-2.225-0.434-3.336C1314.242,1406.067,1314.423,1407.108,1315.883,1407.907z M1300.376,1407.075
			c-1.047-4.209-1.175-8.211-0.595-12.332c0.447-3.178-1.846-6.395-4.236-6.369c-3.22,0.033-7.111-0.664-9.946,1.639
			c-1.444,1.172-1.484,4.953-0.896,5.09c5.167,1.193-0.758,4.77,1.452,6.35c2.32,0.395,2.979-3.053,5.63-2.143
			c-0.375,1.48-0.738,2.918-1.188,4.697c4.655-2.416,5.865,2.633,5.288,3.277c-2.076,2.32-3.631,4.121-1.55,7.27
			c3.712-2.445,9.065,1.365,12.741-4.18c-3.888-1.436-0.951-6.027-3.993-8.404
			C1300.968,1403.157,1303.028,1405.806,1300.376,1407.075z M1315.695,1392.12c-0.692,3.92-5.334,6.975,0.733,10.877
			c-1.995-5.766,3.986-5.062,5.374-7.789C1320.187,1392.644,1316.733,1396.657,1315.695,1392.12z M1291.156,1411.075
			c-0.445-1.061-1.368-1.244-2.238-0.875c-0.71,0.303-0.725,1.053-0.021,1.523
			C1289.863,1412.374,1290.609,1412.007,1291.156,1411.075z"/>
		<path fill-rule="evenodd" clip-rule="evenodd" fill="#FFF100" d="M861.902,1272.843c1.871,8.027,1.796,8.209-4.046,8.846
			c1.833-5.521-0.569-11.641,4.106-16.674c-4.229-4.047-12.423-0.838-14.9-8.723c10.932,0.062,17.748-6.949,25.069-13.438
			c1.156,1.178,1.425,4.918,4.353,3.105c2.873-1.781,5.506-0.521,8.231-0.613c8.332-0.273,15.929-3.896,24.049-5.27
			c3.993-0.678,7.287-1.703,10.352,2.273c1.974-6.311,8.304-4.848,12.467-6.246c4.092-1.375,9.777,0.049,12.45,6.135
			c1.226,2.789,6.094,5.676,8.024,6.051c5.94,1.16,8.028,5.268,10.793,9.211c3.509,5.004,8.908,7.98,12.632,13.102
			c5.242,7.211,6.469,14.355,7.311,22.887c0.597,6.064,2.135,11.984,1.328,18.275c-0.446,3.471-1.381,6.771-2.021,10.152
			c-0.681,3.582-2.674,1.01-4.426,1.373c2.021-1.609,4.311-2.52,2.396-5.914c-4.249-7.533-1.849-15.447,0.172-23.09
			c0.47-1.771-0.698-2.518-1.026-3.662c-1.7-5.957-5.955-11.086-5.716-17.697c-9.21-0.797-8.178-12.592-17.492-15.061
			c2.028,15.209,16.222,24.439,17.148,39.508c-4.566,3.027-9.311,7.271-15.799,9.59c-6.519,2.328-14.521-0.475-20.108,5.725
			c-0.341,0.377-8.99-2.836-8.513-7.041c1.046-9.199-4.466-16.395-5.68-24.766c-0.2-1.379-0.327-3.045-2.532-3.734
			c-3.063-0.961-5.664-3.111-4.995-6.828c0.929-5.162,1.979-10.826,9.428-9.105c5.31,1.225,9.226-6.152,14.986-0.699
			c-0.335-7.117,7.991-6.533,7.807-12.504c-1.812-1.498-4.747-1.213-6.628-3.895c-0.944-1.346-4.541-3.641-8.459-0.498
			c-3.082,2.475-8.565,0.025-13.099,0.387c-6.465,0.516-12.081,4.594-18.689,3.619c-0.481-0.072-1.18,0.916-1.586,0.791
			c-10.132-3.117-17.347,5.062-26.229,6.865c-4.025,0.816-5.272,5.082-5.614,9.088
			C867.114,1268.233,867.319,1272.435,861.902,1272.843z M962.788,1295.712c0.761-7.105-4.558-11.102-6.611-16.545
			c-4.527-12.016-9.624-14.588-21.623-12.867c-4.859,0.695-7.367,3.131-5.455,8.389c3.172,8.719,5.042,17.918,9.708,26.389
			C947.71,1302.784,956.139,1302.144,962.788,1295.712z M925.401,1281.448c-0.158-0.158-0.351-0.467-0.468-0.441
			c-0.334,0.074-0.638,0.283-0.953,0.441c0.157,0.158,0.347,0.469,0.466,0.443C924.781,1281.825,925.089,1281.616,925.401,1281.448z
			"/>
		<path fill-rule="evenodd" clip-rule="evenodd" fill="#FFF100" d="M224.811,1588.298c3.208-1.865,5.075-3.709,3.86-7.881
			c-1.205-4.137,3.034-7.992,5.495-8.006c5.9-0.035,5.381-2.625,4.228-6.359c-0.656-2.127-0.015-4.578-2.483-6.295
			c5.087-3.07,10.963-2.951,14.42-7.439c0.185-2.449-2.546-1.391-3.387-2.836c-1.554-2.674-4.254-5.834-3.104-8.283
			c1.247-2.658,4.698-4.383,8.429-4.541c3.834-0.162,8.146,0.49,10.8-3.371c0.484-4.15-3.62-2.893-5.207-4.523
			c3.32-11.148,5.48-12.717,15.905-11.604c-2.332,7.51,2.54,15.258,10.666,15.305c0.146,17.594,7.011,34.195,8.938,51.695
			c-10.008,1.434-13.812-4.869-14.741-11.816c-0.875-6.568-6.322-13.283-0.583-20.07c-2.982-2.23-4.669-5.768-9.439-5.738
			c-0.176,8.113,2.543,15.648,4.509,23.137c0.882,3.367,0.974,5.789-0.979,8.18c-2.269,2.777-4.102-0.637-6.153-0.781
			c-3.363-0.23-5.034-3.131-8.076-4.408c-2.26,6.203,0.179,12.344,0.039,18.758c2.47,0.25,4.791,2.107,8.798,1.141
			C253.967,1599.149,241.44,1601.493,224.811,1588.298z"/>
		<path fill-rule="evenodd" clip-rule="evenodd" fill="#FFF100" d="M407.229,1551.376c-11.204-4.094-13.531-16.402-23.022-21.104
			c-2.914-1.443,0.044-3.605-2.145-5.51c-3.655-3.174-6.995-6.445-11.819-4.887c-4.851,1.566-6.781,6.346-9.165,10.684
			c-5.848,10.641,0.691,22.205-3.302,33.303c-8.957-2.17-13.329-9.059-16.53-16.82c-1.824-4.428-1.665-9.496-7.38-11.953
			c-3.083-1.326,0.871-6.459-4.365-8.824c4.516-1.07,6.08-1.557,7.827,1.889c1.587,3.131,2.395,7.732,7.371,8.484
			c5.66,0.855,10.876-3.488,11.982-10.408c0.53-3.322-0.043-6.613,4.839-8.168c2.681-0.854,3.655-5.459,2.347-9.354
			c9.222-2.066,15.465,2.314,21.801,7.865c7.032,6.162,13.881,13.668,25.262,8.605c4.391-1.955,7.529,2.928,10.726,5.012
			c4.661,3.041,8.858,6.627,14.463,7.918c0.826,0.189,1.947,0.846,2.191,1.547c2.559,7.322,6.967,6.699,12.432,2.055
			c0.868,11.387,10.408,11.096,16.964,13.154c8.928,2.803,18.68,2.512,27.984,4.439c3.611,0.748,7.972,0.146,10.393-4.584
			c5.33,6.361,15.659,3.375,19.679,12.422c-3.666,1.549-7.115,1.721-9.939,0.51c-10.224-4.387-21.171-1.998-31.69-3.9
			c-14.532-2.627-29.306-3.881-42.933-10.197c-3.286-1.523-6.567,0.707-10.435-0.984c-4.88-2.133-10.049-3.744-14.737-6.498
			c-3.087-1.809-5.964-2.777-6.88,2.365C408.933,1549.636,407.721,1550.657,407.229,1551.376z"/>
		<path fill-rule="evenodd" clip-rule="evenodd" fill="#FFF100" d="M1272.973,1281.903c-5.438-0.904-8.682,2.195-11.791,6.227
			c-2.727,3.537-14.362,5.076-17.501,2.566c-2.071,3.467-6.067,5.984-1.649,10.908c2.106,2.35-3.514,1.654-2.984,4.268
			c-10.256-8.676-13.167-8.084-15.743,3.17c-3.66,0.619-2.988-3.9-6.343-4.613c-2.658,0.943-6.092,2.158-10.025,3.551
			c-2.654-3.758-4.45-6.713-2.303-12.166c3.799-9.65,0.733-19.475-2.885-28.742c-0.69-1.768-3.093-3.406-5.972-1.756
			c-3.187,1.83-6.665,3.148-10.609,4.963c-0.06-8.998,7.182-10.928,11.967-11.668c10.021-1.549,17.488-4.928,19.867-15.611
			c3.23,1.529,2.51,4.996,5.749,5.729c0.505-2.998,4.277-3.955,5.92-4.365c8.289-2.07,6.355-8.736,7.306-14.008
			c0.205-1.135-0.819-2.447,0.983-3.035c1.456-0.475,2.848-0.492,3.627,1.123c1.568,3.26,2.279,7.537,3.752,9.967
			c5.211,8.596,10.992,17.061,18.597,24.049c3.212,2.951,5.207,7.58,6.638,11.387
			C1270.534,1276.396,1273.381,1278.294,1272.973,1281.903z M1226.555,1268.81c6.199-0.799,11.992-1.584,17.324-4.064
			c1.67-9.721-8.107-10.51-10.695-16.336c-6.7,2.783-10.552,7.057-13.257,13.119
			C1224.444,1261.942,1225.548,1265.341,1226.555,1268.81z M1253.896,1274.444c-7.996-1.615-14.915-1.346-21.235,3.465
			c0.929,3.627,3.195,7.123,0.11,11.256c6.007,0.867,11.08-0.939,15.814-1.508
			C1255.094,1286.876,1249.975,1278.485,1253.896,1274.444z M1209.664,1260.888c-3.223,7.777,5.307,15.027,0.55,24.408
			c4.822-2.879,8.163-4.873,11.434-6.826c-0.229-3.668-2.953-7.211,1.133-10.656
			C1216.163,1268.278,1216.227,1259.022,1209.664,1260.888z M1211.735,1296.599c8.354,2.584,13.657-0.943,18.493-6.057
			c-4.786-7.604-8.232-9.021-10.835-4.314C1217.382,1289.866,1214.731,1292.919,1211.735,1296.599z"/>
		<path fill-rule="evenodd" clip-rule="evenodd" fill="#FFF100" d="M297.215,1280.095c-5.187,1.24-8.386-1.869-11.556-3.791
			c-8.434-5.117-17.554-9.102-25.689-14.496c-6.651-4.41-11.742-11.18-17.492-16.938c-3.824-3.828-7.651-7.658-11.354-11.602
			c-1.577-1.68-3.145-3.496-4.197-5.518c-4.475-8.59-1.209-14.078,8.541-15.262c14.229-1.729,28.649-2.127,42.608-5.803
			c3.571-0.939,7.222-1.77,10.598-3.211c4.615-1.973,6.353-5.469,3.636-10.207c-9.511-16.602-21.055-31.639-34.551-45.215
			c-3.834-3.859-1.527-9.732,4.095-12.174c5.046-2.191,10.686-2.234,15.593-5.062c6.362-3.668,7.312-6.928,2.713-12.863
			c-7.884-10.174-15.576-20.479-22.156-31.565c-0.239-0.402-0.336-0.922-0.648-1.238c-2.517-2.555,1.083-4.995,1.384-4.984
			c4.576,0.168,8.82-5.092,13.428-1.231c1.942,1.626,2.124,4.853,0.242,6.282c-5.938,4.509-3.473,8.354-0.038,12.8
			c4.689,6.064,9.303,12.229,13.415,18.689c9.204,14.457,4.668,16.498-7.738,21.744c-4.476,1.891-9.55,2.537-12.834,7.037
			c1.887,4.549,5.427,8.09,8.4,12.062c9.091,12.15,19.57,23.441,24.157,38.459c1.507,4.938-2.3,13.553-7.614,14.623
			c-14.958,3.012-29.756,7.105-45.147,7.57c-2.577,0.078-5.209-0.012-7.717,0.479c-6.292,1.225-7.601,4.621-3.249,9.377
			c5.698,6.229,11.828,12.068,17.876,17.965c11.319,11.037,24.298,19.551,38.937,25.578
			C294.364,1273.044,295.584,1276.548,297.215,1280.095z"/>
		<path fill-rule="evenodd" clip-rule="evenodd" fill="#FFF100" d="M1026.872,538.125c4.161-3.197,4.779-7.79,5.357-12.054
			c1.045-7.686,2.146-14.96,10.34-18.718c1.271-0.584,2.715-2.33,2.363-4.588c-1.128-7.269,2.309-13.641,4.577-20.11
			c4.699-13.398,11.366-25.618,20.63-36.712c4.969-5.954,11.198-10.097,17.345-12.751c12.288-5.303,25.09-3.381,37.729,1.955
			c6.579,2.776,13.444,5.093,19.672,8.57c5.064,2.827,9.653,6.607,14.1,10.379c1.721,1.46-1.071,3.071-0.285,5.956
			c-14.088-10.373-28.07-17.69-43.633-21.84c-12.801-3.413-25.906-5.666-35.522,5.83c-7.429,8.884-15.781,17.304-19.871,28.879
			c-1.729,4.892-3.193,9.959-4.835,14.866c-2.096,6.269-3.694,13.127,0.442,20.53c-14.06,1.476-13.713,12.579-16.331,21.67
			c-0.062,0.219-0.035,0.477,0,0.707c0.63,3.88-6.727,7.469-0.444,11.539c3.784,2.452,7.906,3.831,12.467,3.826
			c1.049-0.002,2.099,0.325,3.32,0.529c-6.026,9.748-14.387,3.796-21.611,3.571c-1.34,1.38-0.804,2.858-0.718,4.221
			c0.142,2.273-0.921,3.778-3.023,4.043c-1.752,0.22-3.758,0.464-5.175-1.276c-1.267-1.56-1.759-2.799-0.368-4.869
			c3.242-4.82,0.985-8.166-3.504-10.817c-14.243-8.414-24.542-19.276-22.135-37.484c0.271-2.062-2.457-2.129-1.854-4.252
			c1.783-0.214,3.611-0.435,6.385-0.768c-0.39,8.519-1.017,17.102,5.354,23.825C1013.223,528.675,1020.094,532.952,1026.872,538.125
			z"/>
		<path fill-rule="evenodd" clip-rule="evenodd" fill="#FFF100" d="M883.682,1264.038c2.042-2.83,4.312-3.568,6.948-2.457
			c7.782,3.277,13.828,7.598,18.294,15.801c6.101,11.211,0.685,22.193,2.605,33.057c0.15,0.846-0.525,2.346-0.185,2.57
			c6.668,4.348,7.122,14.045,15.669,17.131c7.531,2.719,9.71,7.762,9.346,16.998c-12.356,1.045-24.76,1.293-37.174-0.23
			c-1.069-0.133-1.668-0.961-2.404-2.002c-5.404-7.641-5.832-16.049-4.422-24.818c0.521-3.234,1.091-6.365-2.69-8.197
			c-0.56-0.27-1.299-1.221-1.188-1.664c1.72-6.822-3.624-12.758-2.158-19.75c0.93-4.436,0.31-9.365-2.025-13.615
			c-0.688-1.25-0.723-2.215,0.042-3.193C887.01,1270.241,886.502,1266.938,883.682,1264.038z M900.396,1306.692
			c-2.797,2.494-3.263,4.467-0.768,6.365c2.02,1.541,2.07,3.848,1.923,5.805c-0.359,4.77,1.095,9.617-1.163,14.369
			c-0.876,1.842,0.892,4.086,2.552,5.438c3.008,2.451,19.775,2.615,24.029,0.035
			C910.254,1334.573,906.692,1319.562,900.396,1306.692z M893.606,1274.118c1.247,6.055-3.772,10.41,0.329,16.51
			c2.607,3.877,1.553,10.328,5.978,15.121c3.953-5.529,1.355-11.721,3.493-16.816c2.33-5.559-5.903-8.061-3.845-13.51
			C897.975,1275.075,896.387,1274.728,893.606,1274.118z M893.915,1318.565c-0.15-0.271-0.323-0.574-0.492-0.877
			c-0.158,0.156-0.47,0.346-0.443,0.459c0.075,0.328,0.286,0.625,0.443,0.938C893.575,1318.923,893.729,1318.763,893.915,1318.565z"
			/>
		<path fill-rule="evenodd" clip-rule="evenodd" fill="#FFF100" d="M824.095,1037.279c-1.602,0.375-2.916,0.683-4.461,1.047
			c0.852,1.406,1.656,2.735,2.659,4.394c-5.454,2.232-8.484,7.08-13.359,9.866c-5.711,3.266-11.604,3.637-17.812,4.141
			c-6.354,0.515-12.218-3.497-12.105-9.734c0.075-4.101-1.013-8.238,1.034-12.392c1.767-3.584-1.699-6.532-2.779-9.743
			c-1.541-4.586-1.384-7.356,4.273-8.514c3.851-0.789,7.837-1.682,11.023-4.876c3.368-3.373,8.354-1.132,12.156-0.973
			c6.176,0.255,13.749-1.105,17.657,7.272c1.629,3.496,2.882,7.084,1.409,9.641C821.657,1031.111,823.129,1033.925,824.095,1037.279
			z M788.018,1036.849c-4.31,3.518-6.308,5.991-3.821,9.939c2.168,3.442,5.027,4.39,10.021,2.488
			C788.554,1046.912,784.747,1044.216,788.018,1036.849z M804.343,1025.167c-1.819,1.96-3.312,3.569-4.982,5.37
			c1.101,0.982,1.811,3.311,3.707,1.802C805.021,1030.783,806.709,1028.568,804.343,1025.167z"/>
		<path fill-rule="evenodd" clip-rule="evenodd" fill="#FFF100" d="M837.281,1555.04c2.991-3.217,11.031-2.971,12.439,0.645
			c0.66,1.697,0.99,3.184,2.943,3.242c2.368,0.07,2.299-2.396,3.306-3.75c2.346,1.707,4.568,3.4,6.881,4.963
			c0.739,0.498,1.717,0.646,2.736,1.008c-1.836-6.025,0.046-6.709,15.086-5.543c1.222,4.84,2.659,9.49,1.253,15.053
			c-1.072,4.238-4.152,4.328-6.057,3.539c-23.795-9.859-48.898-7.059-73.598-7.934c-11.314-0.402-22.676,0.256-33.967-0.404
			c-5.094-0.299-10.021-4.41-15.57,0.971c1.96-5.895,9.39-9.863,14.918-8.006c5.846,1.965,11.109,2.783,16.128-1.637
			c2.836-2.498,5.771,0.344,8.536,0.479c8.694,0.426,17.292,0.398,25.742-0.754c-2.681,1.289-4.043,0.414-3.706-3.447
			c4.201,3.123,7.815,1.395,10.843-0.805c2.821,0.16,1.832,2.807,3.766,3.914c2.102-3.312,5.575-0.604,8.469-1.676
			c2.568,3.207,2.568,3.207,5.505,0.143C840.908,1555.04,839.096,1555.04,837.281,1555.04z"/>
		<path fill-rule="evenodd" clip-rule="evenodd" fill="#FFF100" d="M549.15,193.749c-1.317,1.896-2.593,3.732-4.114,5.921
			c-6.465-4.911-13.979-2.596-20.779-4.025c-6.727-1.416-14.647,0.55-18.535-3.781c-18.321-0.746-34.671,7.33-52.323,2.116
			c0.149,2.394-2.118,3.336-5.277,4.735c-7.958,3.528-16.365,6.125-24.363,9.367c-5.794,2.35-9.158,7.734-15.268,8.954
			c-2.467,0.492-5.613,1.812-5.05,6.024c-3.242-4.187-1.948-9.621,3.483-11.773c10.621-4.206,19.049-12.462,30.098-15.742
			c1.333-0.396,2.559-1.45,3.877-1.541c12.247-0.85,24.082-4.223,36.174-5.809c9.333-1.224,19.224-2.626,28.228-0.8
			c11.392,2.311,23.835-0.267,34.307,6.938C542.357,196.228,545.563,192.041,549.15,193.749z"/>
		<path fill-rule="evenodd" clip-rule="evenodd" fill="#FFF100" d="M310.848,1525.688c1.56,12.357,2.734,23.158,8.757,33.041
			c2.573,4.221,0.017,9.889-1.775,14.605c-0.605,1.592-2.546,2.084-4.285,1.199c-5.146-2.621-11.188-6.84-10.769-11.838
			c0.978-11.691-2.824-22.1-5.45-32.891c-1.648-6.768-4.402-12.904-11.6-14.928c-3.958,2.469,2.669,6.541-2.984,8.951
			c-3.262-6.793,1.385-15.51-5.401-21.41c5.36,1.012,8.562-7.08,14.276-2.082c-2.128,3.768-1.793,6.799,2.105,9.799
			c4.493,3.457,2.742,10.131,7.083,14.652C304.394,1528.526,306.124,1530.532,310.848,1525.688z"/>
		<path fill-rule="evenodd" clip-rule="evenodd" fill="#FFF100" d="M528.88,1565.989c12.684-1.254,23.394,1.711,34.228,2.604
			c11.679,0.961,24.322-0.479,34.882,2.09c10.784,2.621,22.891-4.156,32.1,5.045C622.406,1583.464,538.873,1576.905,528.88,1565.989
			z"/>
		<path fill-rule="evenodd" clip-rule="evenodd" fill="#FFF100" d="M1128.928,1242.214c-2.277-1.453-4.279-2.48-4.2-6.201
			c0.072-3.367-2.509-6.451-6.607-7.361c1.949-4.137,3.882-8.244,5.936-12.607c2.528-0.33,6.498,3.025,7.625-2.715
			c-6.385-5.635-14.765-9.229-20.446-16.295c5.671-2.635,9.727-1.873,12.955,3.67c2.095,3.598,4.738,4.861,8.342,5.508
			c2.294,0.408,4.79,0.625,6.758,1.715c3.309,1.832,8.949,1.279,9.354,6.236c0.398,4.889-4.966,8.35-7.87,9.236
			c-10.133,3.09-11.123,10.736-12.051,18.973C1128.725,1242.372,1128.928,1242.214,1128.928,1242.214z"/>
		<path fill-rule="evenodd" clip-rule="evenodd" fill="#FFF100" d="M1068.748,413.073c-7.038,2.104-12.591,0.342-18.032-3.635
			c-8.253-6.031-17.236-10.723-24.77-18.177c-4.556-4.511-11.918-7.622-18.465-10.146c-3.579-1.379-6.231-3.689-10.213-5.161
			c3.931-3.58,7.873-3.178,11.518-1.87c11.242,4.03,20.589,11.213,30.144,18.186c8.556,6.242,16.674,13.708,27.086,16.556
			C1069.648,409.818,1066.426,412.688,1068.748,413.073z"/>
		<path fill-rule="evenodd" clip-rule="evenodd" fill="#FFF100" d="M1248.937,488.731c0.406-11.715,2.528-14.599,13.083-17.773
			c4.083-1.229,8.766,2.866,8.896,8.549c0.139,6.169-1.368,12.229-4.284,17.661c-2.197,4.095-5.951,5.778-10.799,4.428
			C1248.953,499.681,1248.514,494.474,1248.937,488.731z"/>
		<path fill-rule="evenodd" clip-rule="evenodd" fill="#FFF100" d="M715.604,1252.915c4.6-1.299,8.289,0.693,12.172,1.295
			c3.545,0.547,6.916-3.404,10.854,0.316c2.068-5.979,4.575-8.59,11.597-8.287c8.759,0.379,15.847-6.461,22.064-12.35
			c2.505-2.371,4.896-3.246,7.694-4.477c1.491,8.879-26.132,27.391-43.942,29.797c0-1.285,0-2.539,0-3.818
			C718.746,1260.048,718.746,1260.048,715.604,1252.915z"/>
		<path fill-rule="evenodd" clip-rule="evenodd" fill="#FFF100" d="M621.315,1208.565c-0.359-2.844,3.319-3.65,1.885-5.98
			c6.112-4.449,9.289,4.834,15.057,3.271c5.502,5.111,3.17,11.123,1.24,16.873c-1.685,5.018-3.11,9.574,2.157,13.48
			c1.908,1.414,0.722,3.42-0.419,5.389c-4.696-1.75-9.529-4.861-13.774,1.279c-1.329,1.924-4.405,0.912-7.138,0.842
			c-0.253-2.371-0.49-4.605-0.728-6.83c8.193-3.264,15.961-14.451,15.451-22.666c-0.244-3.904-3.374-5.801-6.328-7.877
			C625.424,1204.03,623.56,1206.462,621.315,1208.565z"/>
		<path fill-rule="evenodd" clip-rule="evenodd" fill="#FFF100" d="M1064.63,503.928c1.399-5.364,6.093-5.176,9.239-5.053
			c9.771,0.381,17.813-2.996,25.34-8.819c4.032-3.122,9.398-3.078,14.135-4.557c2.697-0.843,3.568,1.693,4.038,2.922
			c0.974,2.549,1.177,5.562-0.751,7.974c-0.837,1.046-2.195,1.677-3.788,2.841c-2.015-6.256-2.936-8.633-9.957-2.869
			c-8.4,6.895-20.121,9.554-31.631,9.695C1068.921,506.091,1066.747,505.307,1064.63,503.928z"/>
		<path fill-rule="evenodd" clip-rule="evenodd" fill="#FFF100" d="M1223.556,476.51c-1.619-6.264,2.85-6.798,6.091-8.117
			c13.203-5.375,26.81-9.435,40.993-11.094c3.573-0.418,6.858-7.503,10.95-0.804c-5.559,6.179-15.573,8.72-18.634,6.578
			C1248.457,466.21,1237.858,476.118,1223.556,476.51z"/>
		<path fill-rule="evenodd" clip-rule="evenodd" fill="#FFF100" d="M1079.771,522.901c-0.751-6.446,2.01-10.801,8.416-13.435
			c7.093-2.918,11.897,0.153,11.292,7.977c-0.217,2.788-1.057,5.537-1.729,8.276c-1.379,5.624-3.672,10.676-10.69,9.722
			C1079.948,534.475,1079.129,529.118,1079.771,522.901z"/>
		<path fill-rule="evenodd" clip-rule="evenodd" fill="#FFF100" d="M1238.113,1222.843c-2.499,1.309-4.678,2.449-6.657,3.486
			c-3.329-2.531,1.354-3.023,0.256-5.4c-7.137-1.609-5.654-10.426-11.072-13.982c2.064-3,4.139,0.844,6.243-1.064
			c-1.457-2.279-2.773-4.164-6.015-4.824c-6.519-1.324-9.275-6.387-11.354-12.299c-0.985-2.799,2.207-2.469,2.025-4.707
			c-12.501,0.084-5.19-7.465-4.74-12.902c5.753,2.543,4.979,9.238,8.642,12.941c1.948,1.969,2.066,5.064,4.812,7.031
			c2.002,1.434,2.198,5.092-3.3,6.012c8.364,0.908,11.627,3.254,11.854,11.357
			C1228.941,1213.325,1234.774,1217.999,1238.113,1222.843z"/>
		<path fill-rule="evenodd" clip-rule="evenodd" fill="#FFF100" d="M913.367,1368.272c-5.052,1.789-8.497-3.482-13.352-2.705
			c-5.405,0.867-10.579-1.604-15.82-1.973c-5.357-0.375-7.858-4.197-9.196-7.354c-1.607-3.795-3.772-4.287-6.891-4.832
			c-3.642-0.641-5.676-5.959-3.488-9.572c-1.234-0.555-2.503-0.977-3.609-1.662c-1.096-0.68-2.028-1.627-3.22-2.609
			c-0.047-1.938,1.038-3.141,3.617-3.234c4.233,9.363,11.733,15.74,19.887,21.783c5.021,3.723,10.83,0.998,16.055,3.689
			c3.932,2.027,8.593,3.865,13.751,3.232C913.393,1362.757,912.844,1366.272,913.367,1368.272z"/>
		<path fill-rule="evenodd" clip-rule="evenodd" fill="#FFF100" d="M727.127,1381.212c-6.097,20.02-7.284,40.721-13.414,60.371
			c-0.229,0.736-1.851,1.465-4.335,0.154c5.574-19.227,7.566-39.547,12.811-59.229
			C722.441,1381.563,724.295,1380.679,727.127,1381.212z"/>
		<path fill-rule="evenodd" clip-rule="evenodd" fill="#FFF100" d="M320.334,1491.048c-0.462,8.279,7.137,14.068,3.778,21.803
			c-2.432-0.203-5.57-0.467-8.84-0.74c-1.702,1.82-0.592,6.271-5.235,5.469c-4.349-5.936,3.308-12.795-1.971-19.004
			C313.133,1496.907,316.613,1493.87,320.334,1491.048z"/>
		<path fill-rule="evenodd" clip-rule="evenodd" fill="#FFF100" d="M368.888,264.813c-1.208-1.412-4.275-2.435-4.26-4.812
			c5.638-11.908,13.298-22.007,22.294-32.143c2.14,8.777,0.966,10.703-4.381,11.095
			C379.963,249.228,372.479,256.559,368.888,264.813z"/>
		<path fill-rule="evenodd" clip-rule="evenodd" fill="#FFF100" d="M750.53,1564.63c-14.468-0.846-27.14,5.977-40.925,1.979
			c0.008-6.801,9.071-3.109,9.132-9.371c4.146,3.059,6.591,6.359,11.107,1.996C732.878,1556.302,746.757,1559.983,750.53,1564.63z"
			/>
		<path fill-rule="evenodd" clip-rule="evenodd" fill="#FFF100" d="M677.709,1249.856c-0.673-7.449-7.815-5.1-10.533-4.531
			c-5.999,1.254-9.58-3.07-14.471-3.996c15.534,3.146,31.235,4.891,47.016,8.025c-2.979,1.49,3.642,5.111-1.795,7.207
			C694.171,1246.044,686.255,1248.19,677.709,1249.856z"/>
		<path fill-rule="evenodd" clip-rule="evenodd" fill="#FFF100" d="M597.64,227.356c-2.834-2.761-3.393-5.866-0.033-7.801
			c4.116-2.37,2.188-5.904,2.008-8.575c-0.234-3.514-3.424-0.983-5.248-1.393c-2.47-0.554-4.091-4.07-8.034-1.341
			c0.524-5.027,1.025-7.09,6.105-5.054c4.208,1.687,8.165,5.149,13.61,3.416c2.21-0.704,4.344,1.645,4.979,4.026
			c0.675,2.527-0.709,4.571-3.125,5.173C601.92,217.294,602.196,224.035,597.64,227.356z"/>
		<path fill-rule="evenodd" clip-rule="evenodd" fill="#FFF100" d="M593.593,225.766c-5.978,12.088-18.017,14.703-28.972,18.759
			c-1.408,0.522-4.028-2.226-6.228-4.328C572.123,239.845,581.521,229.894,593.593,225.766z"/>
		<path fill-rule="evenodd" clip-rule="evenodd" fill="#FFF100" d="M706.527,1499.901c1.342,1.834,2.653,3.625,4.558,6.227
			c-4.166,0.34-7.506,0.611-10.332,0.842c1.666-10.043,3.268-19.686,4.888-29.451c1.678-0.75,4.099,0.342,3.535,1.574
			C706.163,1485.69,712.742,1493.587,706.527,1499.901z"/>
		<path fill-rule="evenodd" clip-rule="evenodd" fill="#FFF100" d="M860.39,1324.757c-5.587-2.854-8.994-23.08-5.971-34.691
			C858.671,1300.833,856.961,1312.671,860.39,1324.757z"/>
		<path fill-rule="evenodd" clip-rule="evenodd" fill="#FFF100" d="M965.193,1342.276c2.008,0.43,3.916,0.842,5.835,1.254
			c-2.57,9.605-14.388,20.395-19.175,18.146C956.161,1355.409,960.5,1349.101,965.193,1342.276z"/>
		<path fill-rule="evenodd" clip-rule="evenodd" fill="#FFF100" d="M737.912,1309.974c0-9.83,0-18.939,0-28.26
			c2.004-0.783,3.892-1.521,5.58-2.182C745.892,1281.208,741.34,1306.157,737.912,1309.974z"/>
		<path fill-rule="evenodd" clip-rule="evenodd" fill="#FFF100" d="M522.752,249.355c-1.833-1.269-3.689-2.554-4.035-2.793
			c2.856,1.757,10.53,0.68,13.983-3.152c2.95-3.273,18.028-2.773,21.33,1.522c-7.2-2.434-12.723-0.344-18.013,3.508
			c-1.104,0.804-3.715,0.477-5.174-1.045C527.208,243.612,525.433,246.734,522.752,249.355z"/>
		<path fill-rule="evenodd" clip-rule="evenodd" fill="#FFF100" d="M1366.391,854.473c-3.806-9.168-9.646-14.032-19.863-11.973
			c-3.447,0.695-0.331-6.012-5.097-4.865c8.557-2.114,15.735,0.834,22.185,5.426C1367.22,845.626,1368.437,849.791,1366.391,854.473
			z"/>
		<path fill-rule="evenodd" clip-rule="evenodd" fill="#FFF100" d="M1320.398,492.366c0.789,5.856-4.348,9.281-5.169,14.383
			c-0.743,4.618,7.351,6.673,3.182,12.041c-3.525,0.275-3.73-2.627-4.106-4.598c-0.24-1.252,0.648-2.762-1.171-3.355
			c-7.508-2.447-2.952-6.665-0.315-8.224c3.216-1.902,2.861-4.513,3.491-6.962C1316.835,493.598,1316.436,491.222,1320.398,492.366z
			"/>
		<path fill-rule="evenodd" clip-rule="evenodd" fill="#FFF100" d="M1296.846,505.355c-2.211,5.587-7.479,9.963-16.172,13.433
			c-1.147-1.292,1.461-4.381-2.219-4.952C1285.713,513.307,1289.502,505.753,1296.846,505.355z"/>
		<path fill-rule="evenodd" clip-rule="evenodd" fill="#FFF100" d="M1282.697,1320.489c2.799-2.033,4.762-0.494,6.02-2.389
			c-1.416-1.859-4.969-2.016-4.541-5.352c4.389-0.537,4.82-0.266,9.573,7.779c2.372,4.014-0.028,9.727,4.514,13.322
			C1289.145,1333.548,1290.593,1322.388,1282.697,1320.489z"/>
		<path fill-rule="evenodd" clip-rule="evenodd" fill="#FFF100" d="M483.142,1454.476c-3.78,8.895-1.393,19.508-8.324,27.043
			C473.596,1477.731,478.562,1457.776,483.142,1454.476z"/>
		<path fill-rule="evenodd" clip-rule="evenodd" fill="#FFF100" d="M800.207,1207.421c-0.435-3.203-4.318-2.465-5.251-4.508
			c6.186-5.67,6.026-13.646,7.84-20.938C804.229,1190.675,799.753,1198.659,800.207,1207.421z"/>
		<path fill-rule="evenodd" clip-rule="evenodd" fill="#FFF100" d="M672.795,1565.272c6.706-0.936,12.99,2.1,18.781-1.203
			c0.305-0.174,3.224,0.375,3.497,2.562c0.227,1.816-0.713,2.527-2.32,2.68c-4.916,0.465-9.829,0.957-14.75,1.361
			C674.374,1570.972,674.505,1567.851,672.795,1565.272z"/>
		<path fill-rule="evenodd" clip-rule="evenodd" fill="#FFF100" d="M602.83,1218.386c4.878,5.262,4.977,10.15,0.142,14.764
			C598.83,1228.462,601.275,1223.694,602.83,1218.386z"/>
		<path fill-rule="evenodd" clip-rule="evenodd" fill="#FFF100" d="M431.383,260.58c4.984-4.155,11.05,0.14,16.843-0.792
			C442.679,262.384,437.284,266.661,431.383,260.58z"/>
		<path fill-rule="evenodd" clip-rule="evenodd" fill="#FFF100" d="M789.424,1226.329c0.217-2.738-0.03-5.617-3.397-7.865
			c6.078-1.48,3.711-7.754,8.448-9.439c1.265,0.656-0.191,3.018,0.154,3.467c3.105,4.021-0.189,6.846-2.264,8.557
			C790.28,1222.769,794.903,1226.728,789.424,1226.329z"/>
		<path fill-rule="evenodd" clip-rule="evenodd" fill="#FFF100" d="M368.273,286.899c4.971-3.086,2.865-6.801,0.632-10.915
			c6.272-0.084,11.082,1.762,10.527,7.229C378.815,289.324,372.891,287.114,368.273,286.899z"/>
		<path fill-rule="evenodd" clip-rule="evenodd" fill="#FFF100" d="M813.888,1059.575c-1.771,0.922-3.482,1.769-1.442,4.132
			c1.588,1.837,2.78,1.766,4.676-1.63c-1.534,4.618,2.74,6.698,0.868,11.066c-0.957,2.231-1.957,2.565-3.172,2.66
			c-1.77,0.138-3.448-1.414-2.689-3.124c1.874-4.238-0.866-9.047,1.932-13.047L813.888,1059.575z"/>
		<path fill-rule="evenodd" clip-rule="evenodd" fill="#FFF100" d="M264.927,855.696c1.319-7.814-5.185-14.289-3.118-22.042
			C266.146,834.239,268.02,843.961,264.927,855.696z"/>
		<path fill-rule="evenodd" clip-rule="evenodd" fill="#FFF100" d="M807.832,1155.341c2.053,1.131,3.632,2,6.281,3.457
			c-8.136,2.824-4.14,10.752-8.276,15.762C803.441,1167.692,807.182,1162.073,807.832,1155.341z"/>
		<path fill-rule="evenodd" clip-rule="evenodd" fill="#FFF100" d="M570.894,202.389c-2.92-0.173-5.759-0.257-8.579-0.534
			c-2.546-0.251-2.858-2.312-2.235-4.045c0.547-1.517,1.599-3.99,3.857-2.783C566.893,196.606,571.291,197.174,570.894,202.389z"/>
		<path fill-rule="evenodd" clip-rule="evenodd" fill="#FFF100" d="M366.589,277.229c-4.472,0.101-8.128,1.528-12.102-0.439
			c2.319-4.668,4.03-9.481,10.175-9.955C367.195,270.251,360.889,274.407,366.589,277.229z"/>
		<path fill-rule="evenodd" clip-rule="evenodd" fill="#FFF100" d="M610.428,1207.622c0.326,5.18,3.497,4.041,6.859,3.451
			c-2.295,2.744-6.474,2.676-6.818,8.652c-0.939-5.197-1.323-8.654-4.329-6.568C607.771,1212.987,609.385,1210.624,610.428,1207.622
			z"/>
		<path fill-rule="evenodd" clip-rule="evenodd" fill="#FFF100" d="M1219.384,622.892c4.845-1.427,5.261,3.083,5.696,5.369
			c0.596,3.117,3.476,7.661-2.234,9.676c-2.388-4.877-6.494-9.273-3.256-15.225C1219.586,622.714,1219.384,622.892,1219.384,622.892
			z"/>
		<path fill-rule="evenodd" clip-rule="evenodd" fill="#FFF100" d="M736.785,1501.907c-5.722,4.195-12.093,1.441-17.979,2.955
			C724.221,1499.642,731.106,1504.325,736.785,1501.907z"/>
		<path fill-rule="evenodd" clip-rule="evenodd" fill="#FFF100" d="M973.955,841.431c2.866-5.021-2.574-12.346,4.193-16.057
			C985.271,832.938,979.146,837.056,973.955,841.431z"/>
		<path fill-rule="evenodd" clip-rule="evenodd" fill="#FFF100" d="M657.94,1572.462c-9.352,4.176-16.084,3.428-19.737-3.021
			C644.86,1572.899,651.621,1566.366,657.94,1572.462z"/>
		<path fill-rule="evenodd" clip-rule="evenodd" fill="#FFF100" d="M751.033,1189.71c-0.853-3.336-0.329-6.984-3.416-9.965
			C753.93,1180.122,753.93,1180.122,751.033,1189.71z"/>
		<path fill-rule="evenodd" clip-rule="evenodd" fill="#FFF100" d="M1163.557,1218.78c0.975,3.559,0.68,6.775,0.124,10.209
			c-3.384,0.855-4.621-0.553-5.499-3.867C1156.86,1220.138,1160.822,1220.228,1163.557,1218.78z"/>
		<path fill-rule="evenodd" clip-rule="evenodd" fill="#FFF100" d="M747.53,1224.073c-5.919-5.854-1.875-11.264-1.743-16.348
			c0.005-0.223,2.146-0.783,2.295-0.549c0.83,1.303,2.003,2.869,1.857,4.213C749.515,1215.29,748.519,1219.128,747.53,1224.073z"/>
		<path fill-rule="evenodd" clip-rule="evenodd" fill="#FFF100" d="M488.081,255.726c2.9-10.881,8.132-1.67,13.718-2.647
			C496.502,255.646,492.422,255.617,488.081,255.726z"/>
		<path fill-rule="evenodd" clip-rule="evenodd" fill="#FFF100" d="M946.158,1367.325c-4.248,3.354-9.185,2.232-14.001,3.426
			c-0.18-3.645,1.472-4.912,4.097-4.723c2.516,0.184,4.432-0.383,5.775-3.203C943.544,1364.479,944.79,1365.835,946.158,1367.325z"
			/>
		<path fill-rule="evenodd" clip-rule="evenodd" fill="#FFF100" d="M1274.331,1295.38c7.788,0.311,2.136,10.32,9.518,10.924
			c-3.327-0.938-6.544,1.857-9.592-1.271C1281.587,1301.81,1278.301,1298.8,1274.331,1295.38z"/>
		<path fill-rule="evenodd" clip-rule="evenodd" fill="#FFF100" d="M1200.125,1324.417c-3.241,0.734-4.951-2.857-8.443-2.277
			c1.279-2.242,2.201-3.855,3.156-5.531c4.081,1.453,1.828,6.658,5.388,8.053L1200.125,1324.417z"/>
		<path fill-rule="evenodd" clip-rule="evenodd" fill="#FFF100" d="M708.834,1444.651c6.64,0.994,3.509,5.611,4.181,8.654
			c-1.738,1.83-3.447,0.922-5.415,0.273C707.995,1450.716,708.39,1447.858,708.834,1444.651z"/>
		<path fill-rule="evenodd" clip-rule="evenodd" fill="#FFF100" d="M707.111,1474.868c-2.988-3.576-0.809-6.732-1.004-10.166
			C711.538,1466.833,711.635,1468.655,707.111,1474.868z"/>
		<path fill-rule="evenodd" clip-rule="evenodd" fill="#FFF100" d="M993.05,375.496c-4.725-0.694-4.442,5.582-8.503,5.97
			c-4.08-3.656-0.516-5.868,1.779-8.113C989.499,370.248,991.018,373.276,993.05,375.496z"/>
		<path fill-rule="evenodd" clip-rule="evenodd" fill="#FFF100" d="M1029.261,1275.128c-2.962,0.297-4.13,3.998-8.049,2.471
			c1.524-3.125,5.206-4.801,5.668-8.793C1027.59,1270.69,1028.301,1272.577,1029.261,1275.128z"/>
		<path fill-rule="evenodd" clip-rule="evenodd" fill="#FFF100" d="M735.389,1322.593c1.779,4.902,3.857,9.746-3.095,12.422
			C733.42,1330.499,734.404,1326.546,735.389,1322.593z"/>
		<path fill-rule="evenodd" clip-rule="evenodd" fill="#FFF100" d="M471.717,1487.495c5.961,3.932-0.938,7.541,1.502,10.49
			C470.501,1495.604,470.501,1495.604,471.717,1487.495z"/>
		<path fill-rule="evenodd" clip-rule="evenodd" fill="#FFF100" d="M428.253,1307.032c-3.113,1.113-6.169,5.309-10.863-0.562
			C421.993,1307.548,425.117,1306.974,428.253,1307.032z"/>
		<path fill-rule="evenodd" clip-rule="evenodd" fill="#FFF100" d="M818.013,1127.829c0.657-0.01,1.317-0.021,1.977-0.031
			c-1.755,1.148-1.323,4.809-4.714,4.086c-0.896-0.189-1.809-0.305-2.714-0.455c-0.803-5.275,3.686-2.527,5.593-3.691
			L818.013,1127.829z"/>
		<path fill-rule="evenodd" clip-rule="evenodd" fill="#FFF100" d="M743.988,1229.378c3.112,0.037,3.825,2.176,5.213,3.711
			c-0.489,2.348-1.812,3.947-4.133,5.014C740.82,1235.382,743.727,1232.364,743.988,1229.378z"/>
		<path fill-rule="evenodd" clip-rule="evenodd" fill="#FFF100" d="M369.93,382.096c2.399,2.401,4.998-2.562,7.321,0.372
			C371.629,387.613,371.629,387.613,369.93,382.096z"/>
		<path fill-rule="evenodd" clip-rule="evenodd" fill="#FFF100" d="M372.971,292.831c0.731,0.325,2.112,0.435,3.664-0.438
			C374.853,290.705,373.649,292.569,372.971,292.831z"/>
		<path fill-rule="evenodd" clip-rule="evenodd" fill="#FFF100" d="M1351.049,912.915c1.258,0.198,2.727-0.661,3.765,0.715
			c-2.171,3.406-2.171,3.406-5.244,1.145C1350.064,914.154,1350.557,913.535,1351.049,912.915z"/>
		<path fill-rule="evenodd" clip-rule="evenodd" fill="#FFF100" d="M814.06,1059.633c-1.214-0.819-1.482-1.704-0.066-2.543
			c0.225-0.135,0.724,0.196,1.1,0.312c-0.424,0.712-0.846,1.422-1.235,2.154C813.888,1059.575,814.06,1059.633,814.06,1059.633z"/>
		<path fill-rule="evenodd" clip-rule="evenodd" fill="#FFF100" d="M431.35,1304.429c0.916,0.912,0.866,1.777-0.005,2.68
			C430.667,1306.202,430.837,1305.339,431.35,1304.429z"/>
		<path fill-rule="evenodd" clip-rule="evenodd" fill="#FFF100" d="M503.946,1293.161c0.825-1.215,1.772-1.234,2.859-0.68
			C505.982,1294.519,504.859,1292.81,503.946,1293.161z"/>
		<path fill-rule="evenodd" clip-rule="evenodd" fill="#FFF100" d="M356.064,297.415c0.39,0.418,0.979,0.817,0.917,1.03
			c-0.142,0.498-0.555,0.951-0.959,1.311c-0.073,0.065-0.93-0.521-0.899-0.602C355.354,298.561,355.717,298.018,356.064,297.415z"/>
		<path fill-rule="evenodd" clip-rule="evenodd" fill="#FFF100" d="M1247.627,1243.255c-0.164,0.174-0.299,0.322-0.436,0.467
			c-0.143-0.287-0.335-0.562-0.402-0.867c-0.024-0.111,0.247-0.287,0.383-0.436C1247.326,1242.7,1247.48,1242.981,1247.627,1243.255
			z"/>
		<path fill-rule="evenodd" clip-rule="evenodd" fill="#FFF100" d="M1200.226,1324.661l-0.377,0.008c0,0,0.256-0.268,0.267-0.262
			C1200.125,1324.417,1200.226,1324.661,1200.226,1324.661z"/>
		<path fill-rule="evenodd" clip-rule="evenodd" fill="#FFF100" d="M1350.244,912.07c0.378,0.179,0.646,0.46,0.805,0.845
			c-0.492,0.62-0.984,1.239-1.479,1.859c-0.878-0.018-1.324-0.473-1.364-1.342C1348.882,912.98,1349.563,912.524,1350.244,912.07z"
			/>
		<path fill-rule="evenodd" clip-rule="evenodd" fill="#FFF100" d="M1269.23,1431.321c0.003,0.352,0.007,0.703,0.01,1.055
			c-0.277-0.172-0.557-0.344-0.834-0.514c0.329-0.135,0.658-0.27,0.987-0.404L1269.23,1431.321z"/>
		<path fill-rule="evenodd" clip-rule="evenodd" fill="#FFF100" d="M1233.73,1228.999c-0.181,0.133-0.376,0.379-0.541,0.359
			c-0.166-0.018-0.303-0.305-0.45-0.471c0.183-0.131,0.379-0.379,0.544-0.361C1233.448,1228.546,1233.583,1228.831,1233.73,1228.999
			z"/>
		<path fill-rule="evenodd" clip-rule="evenodd" fill="#FFF100" d="M818.154,1127.737c-0.014-0.438-0.026-0.873-0.039-1.312
			c1.271,0.496,0.284,0.922-0.073,1.385C818.013,1127.829,818.154,1127.737,818.154,1127.737z"/>
		<path fill-rule="evenodd" clip-rule="evenodd" fill="#FFF100" d="M812.494,1124.124c0.13,0.029,0.264,0.059,0.395,0.09
			c-0.095-0.1-0.19-0.197-0.286-0.295L812.494,1124.124z"/>
		<path fill-rule="evenodd" clip-rule="evenodd" fill="#FFF100" d="M812.603,1123.919l0.188,0.168c0,0-0.289,0.014-0.293,0.023
			C812.494,1124.124,812.603,1123.919,812.603,1123.919z"/>
		<path fill-rule="evenodd" clip-rule="evenodd" fill="#FFF100" d="M551.96,877.424c1.599-8.469-0.575-16.312-3.479-24.197
			c-1.067-2.897-2.23-4.565-5.248-4.578c-5.979-0.026-11.962-0.105-17.93,0.153c-2.029,0.086-3.983,0.793-4.639,3.542
			c-0.603,2.518-2.267,4.64-5.782,4.892c-1.711-4.411-2.87-9.476-8.998-9.962c-0.712-0.057-1.763-1.703-1.865-2.694
			c-1.664-16.061-5.025-31.988-4.079-48.262c0.278-4.821,1.389-10.012-6.581-5.954c-2.774,1.412-5.145-0.601-5.829-3.339
			c-0.965-3.853,2.553-5.525,4.982-6.454c10.445-3.986,10.048-3.764,9.428-14.839c-0.499-8.923-0.975-17.482-4.167-26.154
			c-0.935-2.536-2.397-8.58,0.221-12.899c1.509-2.488,2.727-5.002,6.17-4.683c3.726,0.345,4.202,3.211,4.564,6.123
			c0.116,0.918,0.277,1.831,0.553,3.632c9.646-1.691,19.522-0.891,28.764-5.72c-0.369-4.438,0.88-8.364,5.98-8.23
			c5.357,0.141,3.904,5.361,4.814,8.651c8.328-2.992,8.298-2.952,16.447,3.258c1.461,1.113,3.237,1.892,4.971,2.548
			c2.663,1.008,4.393,3.377,2.558,5.253c-4.04,4.131-1.624,8.352-1.361,12.593c0.198,3.194,1.101,5.349,5.12,5.029
			c3.678-0.293,6.495,2.105,7.673,5.261c1.271,3.407-2.139,4.127-4.421,5.203c-1.661,0.784-2.073,2.598-1.209,3.519
			c4.264,4.534,2.179,13.696,9.751,14.624c2.802,14.907,8.398,28.258,14.641,41.943c-3.319,2.388-4.997,6.823-10.233,7.53
			c0.893,2.6,1.308,4.825,2.827,7.028c2.216,3.211,2.132,7.075-1.701,9.094c-3.889,2.048-5.635-0.604-7.265-4.103
			c-3.902-8.37-9.641-8.253-15.209-0.027c-1.797,2.658-4.001,4.353-6.737,1.299c-2.934-3.275-5.329-1.511-8.083,0.319
			c0.824,7.781,4.866,14.796,3.922,22.946c-1.074,9.263-0.552,9.323-8.813,7.772L551.96,877.424z M510.471,821.272
			c1.71-3.042,3.812-5.489,3.852-9.031c0.055-4.861,5.453-8.292,9.549-5.692c4.441,2.818,7.913,2.227,12.155,0.158
			c3.66-1.786,7.866-1.578,11.825-0.979c6.258,0.947,8.927,5.438,6.363,11.347c-1.821,4.199-1.867,8.596-2.73,12.887
			c-0.387,1.923-0.693,4.397,1.636,5.658c1.489,0.805,3.05,0.884,4.631-0.28c2.539-1.871,0.629-4.233,0.116-5.656
			c-1.34-3.721,0.225-6.982,0.589-10.397c0.368-3.425,3.894-5.321,6.025-4.652c8.092,2.534,13.832-3.24,20.783-4.331
			c-2.738-15.081-5.664-16.887-18.799-12.068c-1.104,0.405-2.238,0.751-3.378,1.053c-4.614,1.219-9.358,3.043-11.539-3.688
			c-0.73-2.261-2.505-1.97-4.645-1.52c-12.992,2.731-24.517,9.838-37.641,11.811C509.699,811.444,510.085,816.358,510.471,821.272z
			 M522.02,818.809c-0.634,1.934-1.067,2.794-1.19,3.696c-1.944,14.17,1.937,17.951,15.891,16.037
			c2.833-0.389,5.265-0.746,5.819-3.829c1.131-6.282,1.998-12.613,2.938-18.704C536.46,811.629,530.537,822.206,522.02,818.809z
			 M509.019,794.562c0.484,0.403,0.858,0.974,1.188,0.95c6.039-0.435,11.475-3.098,17.182-4.758
			c11.688-3.399,12.979-7.169,5.706-17.217c-4.911,2.419-9.656,5.838-14.918,7.096C510.458,782.476,509.247,787.626,509.019,794.562
			z M520.438,759.336c5.545,4.188,8.332-2.166,12.501-1.977c8.47,0.386,8.165-4.951,6.921-10.7c-0.622-2.87-1.743-5.634-2.559-8.189
			c-4.604-0.733-8.141,2.288-12.326,1.111c-4.27-1.199-5.634,1.443-4.979,5.184C520.85,749.643,520.985,754.509,520.438,759.336z
			 M574.458,783.205c-6.052-7.36-5.882-19.236-18.223-21.422c1.078,5.713-0.98,10.906,0.281,16.324
			c0.98,4.217,1.812,9.104,5.603,10.494C566.344,790.15,570.643,787.341,574.458,783.205z M549.844,738.614
			c-1.504,7.987-1.504,7.987,9.356,9.823C560.096,741.351,556.656,738.374,549.844,738.614z M574.678,823.028
			c-2.771,1.449-7.423,0.448-7.321,5.527c0.06,2.963,2.974,3.333,4.581,3.146c2.779-0.324,6.085-1.073,6.495-4.875
			C578.72,824.175,577.146,823.072,574.678,823.028z"/>
		<path fill-rule="evenodd" clip-rule="evenodd" fill="#FFF100" d="M599.322,786.694c-9.804-6.355-4.376-13.5-2.71-19.581
			c4.025-14.699,7.462-29.57,11.122-44.329c3.686-14.865,3.76-30.489,1.229-45.924c-0.55-3.354-4.939-3.593-4.473-6.455
			c0.936-5.742,0.788-12.361,7.792-15.006c0.566,0.367,1.222,0.556,1.294,0.875c3.456,15.325,18.454,12.439,28.206,17.69
			c9.808,5.28,21.238,7.199,30.161,14.548c2.431,2.002,2.589,3.507,2.116,6.456c-2.911,18.178-5.677,36.402-5.148,54.907
			c0.264,9.318,4.818,17.562,6.9,26.439c1.894,8.072-0.646,11.056-9.044,11.189c-6.125,0.097-11.887-0.657-17.779-2.42
			c-9.666-2.893-19.729,0.657-29.577-1C612.242,782.879,604.999,781.896,599.322,786.694z M604.852,773.115
			c20.089,3.989,40.823-1.652,60.77,5.933c0.322-2.556,0.733-3.549,0.494-4.35c-0.856-2.891-2.005-5.693-2.91-8.57
			c-2.156-6.849-10.31-11.336-16.651-8.049c-4.905,2.542-9.743,3.574-15.077,4.553c-15.074,2.767-11.43,2.731-12.052-10.836
			c-0.03-0.681,0.247-1.389,0.445-2.066c2.464-8.437,4.879-16.811,3.864-25.85c-0.401-3.578,0.505-7.342,1.074-10.98
			c0.727-4.652-0.562-7.207-6.228-6.312C615.557,728.941,608.757,750.626,604.852,773.115z M641.227,707.036
			c-6.046-1.458-8.105,0.458-8.494,6.853c-0.666,10.978,2.165,22.387-4.137,32.771c-0.85,1.402-1.959,4.959,1.097,6.119
			c3.374,1.28,7.066,0.239,8.605-2.904c2.495-5.092,4.497-10.912,3.908-16.423C641.285,724.82,642.547,716.237,641.227,707.036z
			 M617.514,676.448c2.178,5.228,0.576,10.317,1.866,15.008c0.595,2.161,1.258,4.25,3.437,4.946
			c2.519,0.806,3.807-1.138,4.857-3.067c1.589-2.919,5.73-4.727,6.769-2.644c3.249,6.517,6.633,6.962,11.727,2.563
			c0.219-0.188,0.929,0.07,1.348,0.258c3.226,1.444,6.298,0.803,10.707-1.032C645.34,683.756,631.267,680.831,617.514,676.448z
			 M650.376,748.255c2.365-2.709,9.36,3.157,8.563-5.602c-1.035-11.391,0.806-22.817-0.725-34.224
			c-0.311-2.324,0.77-5.126-2.486-4.995c-2.157,0.087-3.234,2.248-3.81,5.013c-1.967,9.467,1.453,18.961-0.832,28.459
			C650.326,740.063,646.648,742.97,650.376,748.255z"/>
		<path fill-rule="evenodd" clip-rule="evenodd" fill="#FFF100" d="M551.715,877.541l-0.108-0.299c0,0,0.37,0.165,0.361,0.173
			C551.96,877.424,551.715,877.541,551.715,877.541z"/>
		<path fill-rule="evenodd" clip-rule="evenodd" fill="#FFF100" d="M730.476,795.263c2.962,2.393,5.633-0.248,8.795-0.374
			c-0.73,3.063-1.337,5.603-1.963,8.232C732.82,802.636,731.743,799.266,730.476,795.263z"/>
		<path fill-rule="evenodd" clip-rule="evenodd" fill="#FFF100" d="M349.891,1209.593c-1.575,1.811-0.114,2.381,1.224,3.006
			c-0.191,3.205-1.695,5.568-4.748,7.457c-1.682-1.293-4.408-2.494-3.38-4.693C344.231,1212.7,345.604,1209.085,349.891,1209.593z"
			/>
		<path fill-rule="evenodd" clip-rule="evenodd" fill="#FFF100" d="M980.686,1120.567c5.11-1.916,7.299-0.553,8.178,2.984
			c0.481,1.936-0.491,3.197-2.611,3.145C981.662,1126.587,983.822,1122.235,980.686,1120.567z"/>
		<path fill-rule="evenodd" clip-rule="evenodd" fill="#FFF100" d="M889.716,1119.905c-0.114,2.695,1.12,5.729-2.051,7.715
			c-3.131-0.562-4.05-2.121-3.387-5.57c0.886-4.609,3.771-1.354,5.624-1.955C889.901,1120.093,889.716,1119.905,889.716,1119.905z"
			/>
		<path fill-rule="evenodd" clip-rule="evenodd" fill="#FFF100" d="M953.215,722.985c0.296-8.249,3.114-11.967,10.929-14.396
			c3.74-1.161,7.934,2.57,7.811,7.648c-0.12,4.947-1.184,9.925-3.623,14.278c-1.961,3.502-4.977,5.383-9.48,3.93
			C952.794,732.492,953.013,727.815,953.215,722.985z"/>
		<path fill-rule="evenodd" clip-rule="evenodd" fill="#FFF100" d="M946.126,1275.329c-4.536,6.189-6.826,6.236-11.062,0.873
			C938.176,1271.589,941.795,1273.642,946.126,1275.329z"/>
	</g>
</g>
</svg>
